<svg width="135" height="40" viewBox="0 0 135 40" fill="none" xmlns="http://www.w3.org/2000/svg">
<path fill-rule="evenodd" clip-rule="evenodd" d="M130.197 40H4.729C2.122 40 0 37.872 0 35.267V4.726C0 2.12 2.122 0 4.729 0H130.197C132.803 0 135 2.12 135 4.726V35.267C135 37.872 132.803 40 130.197 40Z" fill="#E9E9E9"/>
<path fill-rule="evenodd" clip-rule="evenodd" d="M134.032 35.268C134.032 37.384 132.318 39.098 130.198 39.098H4.72889C2.60989 39.098 0.889893 37.384 0.889893 35.268V4.72501C0.889893 2.61001 2.60989 0.890015 4.72889 0.890015H130.197C132.318 0.890015 134.031 2.61001 134.031 4.72501L134.032 35.268Z" fill="black"/>
<path fill-rule="evenodd" clip-rule="evenodd" d="M30.1281 19.784C30.0991 16.561 32.7671 14.993 32.8891 14.92C31.3781 12.717 29.0361 12.416 28.2131 12.392C26.2461 12.185 24.3381 13.569 23.3361 13.569C22.3141 13.569 20.7711 12.412 19.1081 12.446C16.9681 12.479 14.9661 13.718 13.8681 15.642C11.6021 19.565 13.2921 25.33 15.4631 28.501C16.5491 30.054 17.8181 31.788 19.4791 31.727C21.1041 31.66 21.7111 30.691 23.6721 30.691C25.6151 30.691 26.1851 31.727 27.8791 31.688C29.6231 31.66 30.7211 30.128 31.7691 28.561C33.0241 26.781 33.5281 25.028 33.5481 24.938C33.5071 24.924 30.1611 23.647 30.1281 19.784Z" fill="white"/>
<path fill-rule="evenodd" clip-rule="evenodd" d="M26.928 10.306C27.802 9.21301 28.4 7.72601 28.234 6.21701C26.969 6.27301 25.387 7.09201 24.476 8.16101C23.67 9.10301 22.95 10.647 23.136 12.099C24.557 12.205 26.016 11.382 26.928 10.306Z" fill="white"/>
<path fill-rule="evenodd" clip-rule="evenodd" d="M53.6449 31.504H51.3739L50.1299 27.595H45.8059L44.6209 31.504H42.4099L46.6939 18.196H49.3399L53.6449 31.504ZM49.7549 25.955L48.6299 22.48C48.5109 22.125 48.2879 21.289 47.9589 19.973H47.9189C47.7879 20.539 47.5769 21.375 47.2869 22.48L46.1819 25.955H49.7549Z" fill="white"/>
<path fill-rule="evenodd" clip-rule="evenodd" d="M64.6619 26.588C64.6619 28.22 64.2209 29.51 63.3389 30.457C62.5489 31.3 61.5679 31.721 60.3969 31.721C59.1329 31.721 58.2249 31.267 57.6719 30.359H57.6319V35.414H55.4999V25.067C55.4999 24.041 55.4729 22.988 55.4209 21.908H57.2959L57.4149 23.429H57.4549C58.1659 22.283 59.2449 21.711 60.6929 21.711C61.8249 21.711 62.7699 22.158 63.5259 23.053C64.2839 23.949 64.6619 25.127 64.6619 26.588ZM62.4899 26.666C62.4899 25.732 62.2799 24.962 61.8579 24.356C61.3969 23.724 60.7779 23.408 60.0019 23.408C59.4759 23.408 58.9979 23.584 58.5709 23.931C58.1429 24.281 57.8629 24.738 57.7319 25.304C57.6659 25.568 57.6329 25.784 57.6329 25.954V27.554C57.6329 28.252 57.8469 28.841 58.2749 29.322C58.7029 29.803 59.2589 30.043 59.9429 30.043C60.7459 30.043 61.3709 29.733 61.8179 29.115C62.2659 28.496 62.4899 27.68 62.4899 26.666Z" fill="white"/>
<path fill-rule="evenodd" clip-rule="evenodd" d="M75.699 26.588C75.699 28.22 75.258 29.51 74.375 30.457C73.586 31.3 72.605 31.721 71.434 31.721C70.17 31.721 69.262 31.267 68.71 30.359H68.67V35.414H66.538V25.067C66.538 24.041 66.511 22.988 66.459 21.908H68.334L68.453 23.429H68.493C69.203 22.283 70.282 21.711 71.731 21.711C72.862 21.711 73.807 22.158 74.565 23.053C75.32 23.949 75.699 25.127 75.699 26.588ZM73.527 26.666C73.527 25.732 73.316 24.962 72.894 24.356C72.433 23.724 71.816 23.408 71.039 23.408C70.512 23.408 70.035 23.584 69.607 23.931C69.179 24.281 68.9 24.738 68.769 25.304C68.704 25.568 68.67 25.784 68.67 25.954V27.554C68.67 28.252 68.884 28.841 69.31 29.322C69.738 29.802 70.294 30.043 70.98 30.043C71.783 30.043 72.408 29.733 72.855 29.115C73.303 28.496 73.527 27.68 73.527 26.666Z" fill="white"/>
<path fill-rule="evenodd" clip-rule="evenodd" d="M88.039 27.772C88.039 28.904 87.646 29.825 86.857 30.536C85.99 31.313 84.783 31.701 83.232 31.701C81.8 31.701 80.652 31.425 79.783 30.872L80.277 29.095C81.213 29.661 82.24 29.945 83.359 29.945C84.162 29.945 84.787 29.763 85.236 29.401C85.683 29.039 85.906 28.553 85.906 27.947C85.906 27.407 85.722 26.952 85.353 26.583C84.986 26.214 84.373 25.871 83.517 25.554C81.187 24.685 80.023 23.412 80.023 21.738C80.023 20.644 80.431 19.747 81.248 19.049C82.062 18.35 83.148 18.001 84.506 18.001C85.717 18.001 86.723 18.212 87.526 18.633L86.993 20.371C86.243 19.963 85.395 19.759 84.446 19.759C83.696 19.759 83.11 19.944 82.69 20.312C82.335 20.641 82.157 21.042 82.157 21.517C82.157 22.043 82.36 22.478 82.768 22.82C83.123 23.136 83.768 23.478 84.704 23.847C85.849 24.308 86.69 24.847 87.231 25.465C87.77 26.081 88.039 26.852 88.039 27.772Z" fill="white"/>
<path fill-rule="evenodd" clip-rule="evenodd" d="M95.0879 23.508H92.7379V28.167C92.7379 29.352 93.1519 29.944 93.9819 29.944C94.3629 29.944 94.6789 29.911 94.9289 29.845L94.9879 31.464C94.5679 31.621 94.0149 31.7 93.3299 31.7C92.4879 31.7 91.8299 31.443 91.3549 30.93C90.8819 30.416 90.6439 29.554 90.6439 28.343V23.506H89.2439V21.906H90.6439V20.149L92.7379 19.517V21.906H95.0879V23.508Z" fill="white"/>
<path fill-rule="evenodd" clip-rule="evenodd" d="M105.691 26.627C105.691 28.102 105.269 29.313 104.427 30.26C103.544 31.235 102.372 31.721 100.911 31.721C99.503 31.721 98.382 31.254 97.546 30.32C96.71 29.386 96.292 28.207 96.292 26.786C96.292 25.299 96.722 24.081 97.585 23.134C98.446 22.186 99.608 21.712 101.069 21.712C102.477 21.712 103.61 22.179 104.465 23.114C105.283 24.021 105.691 25.192 105.691 26.627ZM103.479 26.696C103.479 25.811 103.29 25.052 102.907 24.419C102.46 23.653 101.821 23.271 100.993 23.271C100.136 23.271 99.485 23.654 99.038 24.419C98.655 25.053 98.466 25.824 98.466 26.736C98.466 27.621 98.655 28.38 99.038 29.012C99.499 29.778 100.143 30.16 100.974 30.16C101.788 30.16 102.427 29.77 102.888 28.992C103.281 28.347 103.479 27.58 103.479 26.696Z" fill="white"/>
<path fill-rule="evenodd" clip-rule="evenodd" d="M112.621 23.783C112.41 23.744 112.185 23.724 111.949 23.724C111.199 23.724 110.619 24.007 110.211 24.574C109.856 25.074 109.678 25.706 109.678 26.469V31.504H107.547L107.567 24.93C107.567 23.824 107.54 22.817 107.487 21.909H109.344L109.422 23.745H109.481C109.706 23.114 110.061 22.606 110.547 22.225C111.022 21.882 111.535 21.711 112.088 21.711C112.285 21.711 112.463 21.725 112.621 21.75V23.783Z" fill="white"/>
<path fill-rule="evenodd" clip-rule="evenodd" d="M122.156 26.252C122.156 26.634 122.131 26.956 122.078 27.219H115.682C115.707 28.167 116.016 28.892 116.61 29.392C117.149 29.839 117.846 30.063 118.702 30.063C119.649 30.063 120.513 29.912 121.29 29.609L121.624 31.089C120.716 31.485 119.644 31.682 118.407 31.682C116.919 31.682 115.751 31.244 114.901 30.369C114.053 29.494 113.628 28.319 113.628 26.845C113.628 25.398 114.023 24.193 114.814 23.232C115.642 22.206 116.761 21.693 118.169 21.693C119.552 21.693 120.599 22.206 121.31 23.232C121.873 24.047 122.156 25.055 122.156 26.252ZM120.123 25.699C120.137 25.067 119.998 24.521 119.709 24.06C119.34 23.467 118.773 23.171 118.01 23.171C117.313 23.171 116.746 23.46 116.313 24.04C115.958 24.501 115.747 25.054 115.682 25.698H120.123V25.699Z" fill="white"/>
<path fill-rule="evenodd" clip-rule="evenodd" d="M49.05 10.009C49.05 11.186 48.697 12.072 47.992 12.667C47.339 13.216 46.411 13.491 45.209 13.491C44.613 13.491 44.103 13.465 43.676 13.413V6.98201C44.233 6.89201 44.833 6.84601 45.481 6.84601C46.626 6.84601 47.489 7.09501 48.071 7.59301C48.723 8.15601 49.05 8.96101 49.05 10.009ZM47.945 10.038C47.945 9.27501 47.743 8.69001 47.339 8.28201C46.935 7.87501 46.345 7.67101 45.568 7.67101C45.238 7.67101 44.957 7.69301 44.724 7.73901V12.628C44.853 12.648 45.089 12.657 45.432 12.657C46.234 12.657 46.853 12.434 47.289 11.988C47.725 11.542 47.945 10.892 47.945 10.038Z" fill="white"/>
<path fill-rule="evenodd" clip-rule="evenodd" d="M54.909 11.037C54.909 11.762 54.702 12.356 54.288 12.822C53.854 13.301 53.279 13.54 52.561 13.54C51.869 13.54 51.318 13.311 50.907 12.851C50.497 12.392 50.292 11.813 50.292 11.115C50.292 10.385 50.503 9.78599 50.927 9.32099C51.351 8.85599 51.921 8.62299 52.639 8.62299C53.331 8.62299 53.887 8.85199 54.308 9.31099C54.708 9.75699 54.909 10.333 54.909 11.037ZM53.822 11.071C53.822 10.636 53.728 10.263 53.541 9.95199C53.321 9.57599 53.008 9.38799 52.601 9.38799C52.18 9.38799 51.86 9.57599 51.64 9.95199C51.452 10.263 51.359 10.642 51.359 11.09C51.359 11.525 51.453 11.898 51.64 12.209C51.867 12.585 52.183 12.773 52.591 12.773C52.991 12.773 53.305 12.582 53.531 12.199C53.725 11.882 53.822 11.506 53.822 11.071Z" fill="white"/>
<path fill-rule="evenodd" clip-rule="evenodd" d="M62.7651 8.71899L61.2901 13.433H60.3301L59.7191 11.386C59.5641 10.875 59.4381 10.367 59.3401 9.86299H59.3211C59.2301 10.381 59.1041 10.888 58.9421 11.386L58.2931 13.433H57.3221L55.9351 8.71899H57.0121L57.5451 10.96C57.6741 11.49 57.7801 11.995 57.8651 12.473H57.8841C57.9621 12.079 58.0911 11.577 58.2731 10.97L58.9421 8.71999H59.7961L60.4371 10.922C60.5921 11.459 60.7181 11.976 60.8151 12.474H60.8441C60.9151 11.989 61.0221 11.472 61.1641 10.922L61.7361 8.71999H62.7651V8.71899Z" fill="white"/>
<path fill-rule="evenodd" clip-rule="evenodd" d="M68.1979 13.433H67.1499V10.733C67.1499 9.901 66.8339 9.485 66.1999 9.485C65.8889 9.485 65.6379 9.599 65.4429 9.828C65.2499 10.057 65.1519 10.327 65.1519 10.636V13.432H64.1039V10.066C64.1039 9.652 64.0909 9.203 64.0659 8.717H64.9869L65.0359 9.454H65.0649C65.1869 9.225 65.3689 9.036 65.6079 8.885C65.8919 8.709 66.2099 8.62 66.5579 8.62C66.9979 8.62 67.3639 8.762 67.6549 9.047C68.0169 9.396 68.1979 9.917 68.1979 10.609V13.433Z" fill="white"/>
<path fill-rule="evenodd" clip-rule="evenodd" d="M71.088 13.433H70.041V6.556H71.088V13.433Z" fill="white"/>
<path fill-rule="evenodd" clip-rule="evenodd" d="M77.2581 11.037C77.2581 11.762 77.0511 12.356 76.6371 12.822C76.2031 13.301 75.6271 13.54 74.9101 13.54C74.2171 13.54 73.6661 13.311 73.2561 12.851C72.8461 12.392 72.6411 11.813 72.6411 11.115C72.6411 10.385 72.8521 9.78599 73.2761 9.32099C73.7001 8.85599 74.2701 8.62299 74.9871 8.62299C75.6801 8.62299 76.2351 8.85199 76.6571 9.31099C77.0571 9.75699 77.2581 10.333 77.2581 11.037ZM76.1701 11.071C76.1701 10.636 76.0761 10.263 75.8891 9.95199C75.6701 9.57599 75.3561 9.38799 74.9501 9.38799C74.5281 9.38799 74.2081 9.57599 73.9891 9.95199C73.8011 10.263 73.7081 10.642 73.7081 11.09C73.7081 11.525 73.8021 11.898 73.9891 12.209C74.2161 12.585 74.5321 12.773 74.9401 12.773C75.3401 12.773 75.6531 12.582 75.8791 12.199C76.0741 11.882 76.1701 11.506 76.1701 11.071Z" fill="white"/>
<path fill-rule="evenodd" clip-rule="evenodd" d="M82.33 13.433H81.389L81.311 12.89H81.282C80.96 13.323 80.501 13.54 79.905 13.54C79.46 13.54 79.1 13.397 78.829 13.113C78.583 12.855 78.46 12.534 78.46 12.153C78.46 11.577 78.7 11.138 79.183 10.834C79.665 10.53 80.343 10.381 81.216 10.388V10.3C81.216 9.67899 80.89 9.36899 80.237 9.36899C79.772 9.36899 79.362 9.48599 79.008 9.71799L78.795 9.02999C79.233 8.75899 79.774 8.62299 80.412 8.62299C81.644 8.62299 82.262 9.27299 82.262 10.573V12.309C82.262 12.78 82.285 13.155 82.33 13.433ZM81.242 11.813V11.086C80.086 11.066 79.508 11.383 79.508 12.036C79.508 12.282 79.574 12.466 79.709 12.589C79.844 12.712 80.016 12.773 80.221 12.773C80.451 12.773 80.666 12.7 80.862 12.555C81.059 12.409 81.18 12.224 81.225 11.997C81.236 11.946 81.242 11.884 81.242 11.813Z" fill="white"/>
<path fill-rule="evenodd" clip-rule="evenodd" d="M88.2849 13.433H87.3549L87.3059 12.676H87.2769C86.9799 13.252 86.4739 13.54 85.7629 13.54C85.1949 13.54 84.7219 13.317 84.3469 12.871C83.9719 12.425 83.7849 11.846 83.7849 11.135C83.7849 10.372 83.9879 9.754 84.3959 9.282C84.7909 8.842 85.2749 8.622 85.8509 8.622C86.4839 8.622 86.9269 8.835 87.1789 9.262H87.1989V6.556H88.2479V12.163C88.2479 12.622 88.2599 13.045 88.2849 13.433ZM87.1989 11.445V10.659C87.1989 10.523 87.1889 10.413 87.1699 10.329C87.1109 10.077 86.9839 9.865 86.7909 9.694C86.5959 9.523 86.3609 9.437 86.0899 9.437C85.6989 9.437 85.3929 9.592 85.1679 9.903C84.9449 10.214 84.8319 10.611 84.8319 11.096C84.8319 11.562 84.9389 11.94 85.1539 12.231C85.3809 12.541 85.6869 12.696 86.0699 12.696C86.4139 12.696 86.6889 12.567 86.8979 12.308C87.0999 12.069 87.1989 11.781 87.1989 11.445Z" fill="white"/>
<path fill-rule="evenodd" clip-rule="evenodd" d="M97.2481 11.037C97.2481 11.762 97.0411 12.356 96.6271 12.822C96.1931 13.301 95.6191 13.54 94.9001 13.54C94.2091 13.54 93.6581 13.311 93.2461 12.851C92.8361 12.392 92.6311 11.813 92.6311 11.115C92.6311 10.385 92.8421 9.78599 93.2661 9.32099C93.6901 8.85599 94.2601 8.62299 94.9791 8.62299C95.6701 8.62299 96.2271 8.85199 96.6471 9.31099C97.0471 9.75699 97.2481 10.333 97.2481 11.037ZM96.1621 11.071C96.1621 10.636 96.0681 10.263 95.8811 9.95199C95.6601 9.57599 95.3481 9.38799 94.9401 9.38799C94.5201 9.38799 94.2001 9.57599 93.9791 9.95199C93.7911 10.263 93.6981 10.642 93.6981 11.09C93.6981 11.525 93.7921 11.898 93.9791 12.209C94.2061 12.585 94.5221 12.773 94.9301 12.773C95.3301 12.773 95.6451 12.582 95.8711 12.199C96.0641 11.882 96.1621 11.506 96.1621 11.071Z" fill="white"/>
<path fill-rule="evenodd" clip-rule="evenodd" d="M102.883 13.433H101.836V10.733C101.836 9.901 101.52 9.485 100.885 9.485C100.574 9.485 100.323 9.599 100.129 9.828C99.935 10.057 99.838 10.327 99.838 10.636V13.432H98.789V10.066C98.789 9.652 98.777 9.203 98.752 8.717H99.672L99.721 9.454H99.75C99.873 9.225 100.055 9.036 100.293 8.885C100.578 8.709 100.895 8.62 101.244 8.62C101.683 8.62 102.049 8.762 102.34 9.047C102.703 9.396 102.883 9.917 102.883 10.609V13.433Z" fill="white"/>
<path fill-rule="evenodd" clip-rule="evenodd" d="M109.936 9.50401H108.782V11.794C108.782 12.376 108.987 12.667 109.393 12.667C109.581 12.667 109.737 12.651 109.86 12.618L109.887 13.413C109.68 13.491 109.408 13.53 109.073 13.53C108.659 13.53 108.337 13.404 108.104 13.152C107.87 12.9 107.754 12.476 107.754 11.881V9.50401H107.065V8.71901H107.754V7.85501L108.781 7.54501V8.71801H109.935V9.50401H109.936Z" fill="white"/>
<path fill-rule="evenodd" clip-rule="evenodd" d="M115.484 13.433H114.435V10.753C114.435 9.908 114.119 9.485 113.486 9.485C113 9.485 112.668 9.73 112.486 10.22C112.455 10.323 112.437 10.449 112.437 10.597V13.432H111.39V6.556H112.437V9.397H112.457C112.787 8.88 113.26 8.622 113.873 8.622C114.307 8.622 114.666 8.764 114.951 9.049C115.306 9.404 115.484 9.932 115.484 10.63V13.433Z" fill="white"/>
<path fill-rule="evenodd" clip-rule="evenodd" d="M121.207 10.853C121.207 11.041 121.193 11.199 121.168 11.328H118.025C118.039 11.794 118.189 12.149 118.48 12.395C118.746 12.615 119.089 12.725 119.509 12.725C119.974 12.725 120.398 12.651 120.78 12.502L120.944 13.23C120.497 13.424 119.971 13.521 119.362 13.521C118.632 13.521 118.057 13.306 117.641 12.876C117.223 12.446 117.016 11.869 117.016 11.145C117.016 10.434 117.209 9.84201 117.598 9.37001C118.004 8.86601 118.553 8.61401 119.246 8.61401C119.924 8.61401 120.439 8.86601 120.787 9.37001C121.068 9.77001 121.207 10.265 121.207 10.853ZM120.207 10.582C120.215 10.271 120.146 10.003 120.004 9.77701C119.822 9.48601 119.545 9.34001 119.17 9.34001C118.828 9.34001 118.549 9.48201 118.336 9.76701C118.162 9.99401 118.059 10.265 118.025 10.582H120.207Z" fill="white"/>
</svg>
