<svg width="36" height="36" viewBox="0 0 36 36" fill="none" xmlns="http://www.w3.org/2000/svg">
<path fill-rule="evenodd" clip-rule="evenodd" d="M17.9999 8.64001C15.4583 8.64001 15.1393 8.65081 14.1407 8.69617C13.1442 8.74153 12.4638 8.89993 11.8684 9.13105C11.2439 9.36624 10.6783 9.73481 10.2109 10.2111C9.7346 10.6786 9.36603 11.2445 9.13093 11.8692C8.89981 12.4639 8.74213 13.1443 8.69605 14.1408C8.65069 15.1395 8.63989 15.4584 8.63989 18C8.63989 20.5416 8.65069 20.8606 8.69605 21.8592C8.74141 22.8557 8.89981 23.5361 9.13093 24.1308C9.37069 24.7464 9.69037 25.2684 10.2109 25.789C10.6783 26.2652 11.2439 26.6338 11.8684 26.869C12.4638 27.0994 13.1442 27.2578 14.1407 27.3039C15.1393 27.3492 15.4583 27.36 17.9999 27.36C20.5415 27.36 20.8605 27.3492 21.8591 27.3039C22.8556 27.2585 23.536 27.1001 24.1307 26.869C24.7554 26.6339 25.3213 26.2653 25.7889 25.789C26.2652 25.3214 26.6338 24.7555 26.8689 24.1308C27.0993 23.5361 27.2577 22.8557 27.3037 21.8592C27.3491 20.8606 27.3599 20.5416 27.3599 18C27.3599 15.4584 27.3491 15.1395 27.3037 14.1408C27.2584 13.1443 27.1 12.4639 26.8681 11.8692C26.6333 11.2446 26.2649 10.6787 25.7889 10.2111C25.3213 9.7347 24.7554 9.36613 24.1307 9.13105C23.536 8.90065 22.8556 8.74225 21.8591 8.69617C20.8605 8.65081 20.5415 8.64001 17.9999 8.64001ZM17.9999 10.3263C20.499 10.3263 20.7949 10.3363 21.7821 10.381C22.6943 10.4227 23.1904 10.5754 23.5201 10.7035C23.9572 10.8735 24.2689 11.0758 24.5965 11.4034C24.9241 11.731 25.1265 12.0427 25.2964 12.4798C25.4245 12.8095 25.5772 13.3049 25.6189 14.2179C25.6636 15.2043 25.6737 15.5009 25.6737 18C25.6737 20.4991 25.6636 20.7951 25.6189 21.7822C25.5772 22.6951 25.4245 23.1905 25.2964 23.5203C25.1464 23.9268 24.9073 24.2946 24.5965 24.5967C24.2945 24.9074 23.9267 25.1466 23.5201 25.2965C23.1904 25.4247 22.6943 25.5773 21.7821 25.6191C20.7957 25.6637 20.499 25.6738 17.9999 25.6738C15.5008 25.6738 15.2041 25.6637 14.2177 25.6191C13.3048 25.5773 12.8094 25.4247 12.4797 25.2965C12.0731 25.1466 11.7052 24.9074 11.4033 24.5967C11.0925 24.2946 10.8534 23.9268 10.7034 23.5203C10.5753 23.1905 10.4226 22.6951 10.3809 21.7822C10.3362 20.7958 10.3261 20.4991 10.3261 18C10.3261 15.5009 10.3362 15.205 10.3809 14.2179C10.4226 13.3049 10.5753 12.8095 10.7034 12.4798C10.8733 12.0427 11.0757 11.731 11.4033 11.4034C11.7053 11.0926 12.0731 10.8535 12.4797 10.7035C12.8094 10.5754 13.3048 10.4227 14.2177 10.381C15.2041 10.3363 15.5008 10.3263 17.9999 10.3263" fill="#A22B27"/>
<path fill-rule="evenodd" clip-rule="evenodd" d="M18 12.96C16.6633 12.96 15.3813 13.491 14.4361 14.4362C13.491 15.3814 12.96 16.6633 12.96 18C12.96 19.3367 13.491 20.6186 14.4361 21.5638C15.3813 22.509 16.6633 23.04 18 23.04C19.3367 23.04 20.6186 22.509 21.5638 21.5638C22.509 20.6186 23.04 19.3367 23.04 18C23.04 16.6633 22.509 15.3814 21.5638 14.4362C20.6186 13.491 19.3367 12.96 18 12.96ZM18 21.24C17.1407 21.24 16.3166 20.8986 15.7089 20.291C15.1013 19.6834 14.76 18.8593 14.76 18C14.76 17.1407 15.1013 16.3166 15.7089 15.709C16.3166 15.1014 17.1407 14.76 18 14.76C18.8593 14.76 19.6834 15.1014 20.291 15.709C20.8986 16.3166 21.24 17.1407 21.24 18C21.24 18.8593 20.8986 19.6834 20.291 20.291C19.6834 20.8986 18.8593 21.24 18 21.24ZM24.264 13.032C24.264 13.1833 24.2342 13.3331 24.1763 13.4729C24.1184 13.6126 24.0335 13.7396 23.9265 13.8466C23.8196 13.9536 23.6926 14.0384 23.5528 14.0963C23.413 14.1542 23.2632 14.184 23.112 14.184C22.9607 14.184 22.8109 14.1542 22.6711 14.0963C22.5313 14.0384 22.4043 13.9536 22.2974 13.8466C22.1904 13.7396 22.1055 13.6126 22.0476 13.4729C21.9898 13.3331 21.96 13.1833 21.96 13.032C21.96 12.7265 22.0813 12.4335 22.2974 12.2174C22.5134 12.0014 22.8064 11.88 23.112 11.88C23.4175 11.88 23.7105 12.0014 23.9265 12.2174C24.1426 12.4335 24.264 12.7265 24.264 13.032Z" fill="#A22B27"/>
</svg>
