<svg width="36" height="36" viewBox="0 0 36 36" fill="none" xmlns="http://www.w3.org/2000/svg">
<path d="M28.224 12.096C27.432 12.456 26.64 12.672 25.704 12.816C26.568 12.24 27.288 11.448 27.648 10.44C26.784 10.944 25.8479 11.304 24.9119 11.52C24.1199 10.656 22.968 10.152 21.744 10.152C19.368 10.152 17.352 12.096 17.352 14.544C17.352 14.904 17.424 15.192 17.496 15.552C13.896 15.408 10.656 13.608 8.49595 11.016C8.13595 11.52 7.91995 12.24 7.91995 13.032C7.91995 14.544 8.71195 15.912 9.86395 16.632C9.14395 16.632 8.49595 16.416 7.91995 16.056V16.128C7.91995 18.216 9.43195 20.016 11.448 20.376C11.088 20.448 10.728 20.52 10.296 20.52C10.008 20.52 9.71995 20.52 9.50395 20.448C10.08 22.176 11.664 23.472 13.608 23.472C12.096 24.624 10.224 25.344 8.20795 25.344C7.84795 25.344 7.48795 25.344 7.19995 25.272C8.92795 26.64 11.232 27.36 13.68 27.36C21.672 27.36 26.064 20.736 26.064 14.976V14.4C26.928 13.752 27.648 13.032 28.224 12.096Z" fill="#A22B27"/>
</svg>
