<?xml version="1.0" encoding="UTF-8" standalone="no"?>
<svg
   xmlns:dc="http://purl.org/dc/elements/1.1/"
   xmlns:cc="http://creativecommons.org/ns#"
   xmlns:rdf="http://www.w3.org/1999/02/22-rdf-syntax-ns#"
   xmlns:svg="http://www.w3.org/2000/svg"
   xmlns="http://www.w3.org/2000/svg"
   viewBox="0 0 21.333332 21.333332"
   height="21.333332"
   width="21.333332"
   xml:space="preserve"
   id="svg2"
   version="1.1"><metadata
     id="metadata8"><rdf:RDF><cc:Work
         rdf:about=""><dc:format>image/svg+xml</dc:format><dc:type
           rdf:resource="http://purl.org/dc/dcmitype/StillImage" /></cc:Work></rdf:RDF></metadata><defs
     id="defs6"><clipPath
       id="clipPath18"
       clipPathUnits="userSpaceOnUse"><path
         id="path16"
         d="M 0,16 H 16 V 0 H 0 Z" /></clipPath></defs><g
     transform="matrix(1.3333333,0,0,-1.3333333,0,21.333333)"
     id="g10"><g
       id="g12"><g
         clip-path="url(#clipPath18)"
         id="g14"><g
           transform="translate(12.1385,0.4824)"
           id="g20"><path
             id="path22"
             style="fill:#b01f29;fill-opacity:1;fill-rule:nonzero;stroke:none"
             d="M 0,0 H -8.277 C -8.803,0 -9.231,0.432 -9.231,0.957 V 1.943 H 0.954 V 0.957 C 0.954,0.432 0.525,0 0,0 M 0.954,2.425 H -9.231 V 12.61 H 0.954 Z m -9.231,12.61 H 0 c 0.525,0 0.954,-0.425 0.954,-0.95 V 13.1 H -9.231 v 0.985 c 0,0.525 0.428,0.95 0.954,0.95 M 0,15.518 h -8.277 c -0.792,0 -1.44,-0.641 -1.44,-1.433 V 12.854 2.188 0.957 c 0,-0.792 0.648,-1.439 1.44,-1.439 H 0 c 0.792,0 1.439,0.647 1.439,1.439 v 1.231 10.666 1.231 c 0,0.792 -0.647,1.433 -1.439,1.433" /></g><g
           transform="translate(6.7874,14.3086)"
           id="g24"><path
             id="path26"
             style="fill:#b01f29;fill-opacity:1;fill-rule:nonzero;stroke:none"
             d="m 0,0 h 2.425 c 0.134,0 0.242,0.107 0.242,0.237 0,0.138 -0.108,0.245 -0.242,0.245 H 0 C -0.134,0.482 -0.241,0.375 -0.241,0.237 -0.241,0.107 -0.134,0 0,0" /></g><g
           transform="translate(5.5741,1.6983)"
           id="g28"><path
             id="path30"
             style="fill:#b01f29;fill-opacity:1;fill-rule:nonzero;stroke:none"
             d="m 0,0 c -0.133,0 -0.241,-0.107 -0.241,-0.245 0,-0.136 0.108,-0.244 0.241,-0.244 0.137,0 0.246,0.108 0.246,0.244 C 0.246,-0.107 0.137,0 0,0" /></g><g
           transform="translate(10.4256,1.6983)"
           id="g32"><path
             id="path34"
             style="fill:#b01f29;fill-opacity:1;fill-rule:nonzero;stroke:none"
             d="m 0,0 c -0.137,0 -0.245,-0.107 -0.245,-0.245 0,-0.136 0.108,-0.244 0.245,-0.244 0.133,0 0.241,0.108 0.241,0.244 C 0.241,-0.107 0.133,0 0,0" /></g><g
           transform="translate(7.9998,1.6983)"
           id="g36"><path
             id="path38"
             style="fill:#b01f29;fill-opacity:1;fill-rule:nonzero;stroke:none"
             d="m 0,0 c -0.137,0 -0.241,-0.107 -0.241,-0.245 0,-0.136 0.104,-0.244 0.241,-0.244 0.133,0 0.245,0.108 0.245,0.244 C 0.245,-0.107 0.133,0 0,0" /></g><g
           transform="translate(10.285,14.3086)"
           id="g40"><path
             id="path42"
             style="fill:#b01f29;fill-opacity:1;fill-rule:nonzero;stroke:none"
             d="M 0,0 C 0.134,0 0.241,0.107 0.241,0.237 0.241,0.375 0.134,0.482 0,0.482 -0.133,0.482 -0.241,0.375 -0.241,0.237 -0.241,0.107 -0.133,0 0,0" /></g></g></g></g></svg>