<?xml version="1.0" encoding="UTF-8" standalone="no"?>
<svg
   xmlns:dc="http://purl.org/dc/elements/1.1/"
   xmlns:cc="http://creativecommons.org/ns#"
   xmlns:rdf="http://www.w3.org/1999/02/22-rdf-syntax-ns#"
   xmlns:svg="http://www.w3.org/2000/svg"
   xmlns="http://www.w3.org/2000/svg"
   viewBox="0 0 21.333332 21.333332"
   height="21.333332"
   width="21.333332"
   xml:space="preserve"
   id="svg2"
   version="1.1"><metadata
     id="metadata8"><rdf:RDF><cc:Work
         rdf:about=""><dc:format>image/svg+xml</dc:format><dc:type
           rdf:resource="http://purl.org/dc/dcmitype/StillImage" /></cc:Work></rdf:RDF></metadata><defs
     id="defs6"><clipPath
       id="clipPath18"
       clipPathUnits="userSpaceOnUse"><path
         id="path16"
         d="M 0,16 H 16 V 0 H 0 Z" /></clipPath></defs><g
     transform="matrix(1.3333333,0,0,-1.3333333,0,21.333333)"
     id="g10"><g
       id="g12"><g
         clip-path="url(#clipPath18)"
         id="g14"><g
           transform="translate(0.4872,6.5947)"
           id="g20"><path
             id="path22"
             style="fill:#b01f29;fill-opacity:1;fill-rule:nonzero;stroke:none"
             d="M 0,0 V 0.824 H 0.363 L 0.704,0 Z m 14.458,-2.194 h -1.124 c -0.141,0.815 -0.852,1.437 -1.706,1.437 -0.855,0 -1.565,-0.622 -1.705,-1.437 h -4.82 c -0.141,0.815 -0.851,1.437 -1.706,1.437 -0.855,0 -1.564,-0.622 -1.705,-1.437 H 0.568 c -0.315,0 -0.57,0.256 -0.57,0.57 v 0.169 h 1.069 c 0.134,0 0.242,0.108 0.242,0.242 0,0.134 -0.108,0.242 -0.242,0.242 h -1.069 v 0.486 h 1.069 c 0.081,0 0.157,0.04 0.202,0.107 0.044,0.067 0.053,0.153 0.022,0.228 L 0.749,1.159 C 0.711,1.25 0.623,1.309 0.525,1.309 h -0.527 v 1 h 8.407 c 0.074,0 0.146,0.035 0.192,0.094 0.046,0.059 0.061,0.137 0.043,0.21 L 7.615,6.547 H 8.812 L 9.867,2.49 C 9.869,2.484 9.873,2.479 9.875,2.472 9.879,2.461 9.884,2.451 9.89,2.44 9.898,2.424 9.908,2.41 9.92,2.396 9.927,2.387 9.934,2.379 9.942,2.372 9.956,2.359 9.973,2.35 9.989,2.34 9.998,2.335 10.006,2.33 10.016,2.327 10.042,2.316 10.071,2.309 10.102,2.309 h 4.121 c 0.005,0 0.008,0.003 0.012,0.003 0.01,0 0.019,-0.003 0.029,-0.003 0.422,0 0.763,-0.342 0.763,-0.764 V 1.309 H 13.42 C 13.338,1.309 13.263,1.268 13.218,1.201 13.173,1.133 13.164,1.048 13.195,0.974 l 0.542,-1.31 c 0.037,-0.09 0.126,-0.149 0.224,-0.149 h 1.066 v -0.486 h -1.066 c -0.134,0 -0.242,-0.108 -0.242,-0.242 0,-0.134 0.108,-0.242 0.242,-0.242 h 1.066 v -0.169 c 0,-0.314 -0.255,-0.57 -0.569,-0.57 m -2.83,-1.542 c -0.688,0 -1.247,0.559 -1.247,1.248 0,0.687 0.559,1.247 1.247,1.247 0.688,0 1.248,-0.56 1.248,-1.247 0,-0.689 -0.56,-1.248 -1.248,-1.248 m -8.231,0 c -0.688,0 -1.247,0.559 -1.247,1.248 0,0.687 0.559,1.247 1.247,1.247 0.688,0 1.248,-0.56 1.248,-1.247 0,-0.689 -0.56,-1.248 -1.248,-1.248 M 0.839,6.547 H 3.235 L 4.212,2.794 h -4.214 v 2.912 c 0,0.463 0.377,0.841 0.841,0.841 M 4.713,2.794 3.736,6.547 H 7.114 L 8.091,2.794 Z m 8.369,0.52 c 0.033,-0.195 0.114,-0.371 0.227,-0.52 h -3.02 L 9.312,6.547 h 0.672 c 2.217,0 2.893,-2.026 3.098,-3.233 M 15.027,0 h -0.904 l -0.341,0.824 h 1.245 z m -0.763,2.794 c -0.348,0 -0.645,0.253 -0.703,0.602 -0.187,1.093 -0.907,3.636 -3.577,3.636 H 0.839 c -0.732,0 -1.326,-0.595 -1.326,-1.326 v -7.33 c 0,-0.582 0.473,-1.055 1.055,-1.055 h 1.108 c 0.095,-0.866 0.83,-1.542 1.721,-1.542 0.891,0 1.626,0.676 1.721,1.542 h 4.789 c 0.095,-0.866 0.83,-1.542 1.721,-1.542 0.892,0 1.627,0.676 1.722,1.542 h 1.108 c 0.581,0 1.055,0.473 1.055,1.055 v 1.381 1.309 0.479 c 0,0.689 -0.56,1.249 -1.249,1.249" /></g><g
           transform="translate(3.8841,4.377)"
           id="g24"><path
             id="path26"
             style="fill:#b01f29;fill-opacity:1;fill-rule:nonzero;stroke:none"
             d="m 0,0 c -0.149,0 -0.271,-0.121 -0.271,-0.271 0,-0.15 0.122,-0.271 0.271,-0.271 0.15,0 0.271,0.121 0.271,0.271 C 0.271,-0.121 0.15,0 0,0" /></g><g
           transform="translate(12.1151,4.377)"
           id="g28"><path
             id="path30"
             style="fill:#b01f29;fill-opacity:1;fill-rule:nonzero;stroke:none"
             d="m 0,0 c -0.149,0 -0.271,-0.121 -0.271,-0.271 0,-0.15 0.122,-0.271 0.271,-0.271 0.15,0 0.271,0.121 0.271,0.271 C 0.271,-0.121 0.15,0 0,0" /></g></g></g></g></svg>