<?xml version="1.0" encoding="UTF-8"?>
<svg xmlns="http://www.w3.org/2000/svg" version="1.1" viewBox="0 0 600 319.1">
  <defs>
    <style>
      .cls-1 {
        fill: #2e3552;
      }

      .cls-2 {
        fill: #ed7d2b;
      }

      .cls-3 {
        fill: #1c468a;
      }

      .cls-4 {
        fill: #2b478b;
      }

      .cls-5 {
        fill: #233862;
      }

      .cls-6 {
        fill: #96242d;
      }

      .cls-7 {
        fill: #ed975d;
      }

      .cls-8 {
        fill: #b7d3f3;
      }

      .cls-9 {
        fill: #c5dcf8;
      }

      .cls-10 {
        fill: #851e26;
      }

      .cls-11 {
        fill: #d5e5fb;
      }

      .cls-12 {
        fill: #fff;
      }

      .cls-13 {
        fill: #9db0f4;
      }

      .cls-14 {
        fill: #ed985f;
      }

      .cls-15 {
        fill: #95c0f4;
      }

      .cls-16 {
        fill: #a02e2e;
      }

      .cls-17 {
        fill: #b5453c;
      }

      .cls-18 {
        fill: #2a4e96;
      }

      .cls-19 {
        fill: #f9ddbf;
      }

      .cls-20 {
        fill: #7f3945;
      }

      .cls-21 {
        fill: #ebf3fa;
      }

      .cls-22 {
        fill: #163560;
      }

      .cls-23 {
        fill: #ffb27d;
      }

      .cls-24 {
        fill: #78acea;
      }

      .cls-25 {
        fill: #93323e;
      }

      .cls-26 {
        fill: #2c3a64;
      }

      .cls-27 {
        fill: #bc3f3f;
      }

      .cls-28 {
        fill: #d2e3fc;
      }

      .cls-29 {
        fill: #e2915a;
      }

      .cls-30 {
        fill: #dceaff;
      }

      .cls-31 {
        fill: #f99746;
      }

      .cls-32 {
        fill: #ed893e;
      }

      .cls-33 {
        fill: #aec3ff;
      }
    </style>
  </defs>
  <!-- Generator: Adobe Illustrator 28.7.1, SVG Export Plug-In . SVG Version: 1.2.0 Build 142)  -->
  <g>
    <g id="_Слой_1" data-name="Слой_1">
      <g>
        <path class="cls-21" d="M69.3,318.2S-12.7,231.1,44.8,149.8c21.5-30.3,76.2-47.4,126.6-33.6,29.7,8.2,74.9,7,118.9-65,60.1-98.1,309.6-53.5,260.9,118.4-20.5,72.4,56,75.7,18.1,148.7l-500-.2Z"/>
        <g>
          <path class="cls-11" d="M513.3,143.6l-178.6,149.4-94-80.1c-17.6,15.5-44.8,39.4-72.1,63.4-18.7,16.4-33.8,29.6-46.1,40.4H37.2c23.7-20.3,119-104,183.2-160.6l19.6-17.3,95,80.9,139.5-116.7,38.8,40.5Z"/>
          <polygon class="cls-11" points="451.9 84.8 536.9 170.1 561 72.6 451.9 84.8"/>
        </g>
        <g>
          <g>
            <g>
              <path class="cls-8" d="M173,264.6c-.3-7.8-1-14.6-1.8-19.4-1.3-7.6-2.5-11.9-2.5-11.9-.2-.7-2.7-3.4-8.2-3.3-5.5,0-5,3.6-5,3.6h0c0,.1,0,.2,0,.3,0,.2,5.1,18.6,4.9,42.3,0,.3,0,.9,0,1.3,0,0,12.8.3,12.8,0,.4-2.1.2-7.8-.2-13Z"/>
              <path class="cls-28" d="M174.6,276.1c0,.3-.2.6-.4.6h0c-.2,0-.4-.3-.4-.6h-11c0,.3-.2.6-.4.6h0c-.2,0-.4-.3-.4-.6,0-6.8-.3-13.2-.9-18.8-1.5-14-4.2-23.3-4.2-23.5,0,0,0-.2,0-.3,0,0-.5-3.5,5-3.6,5.5,0,8,2.6,8.2,3.3,0,0,.7,2.5,1.6,6.9.3,1.5.6,3.1.9,5,.8,4.7,1.5,11.5,1.8,19.4.5,5.2.6,9.5.2,11.6Z"/>
              <path class="cls-9" d="M161.2,276.7h43s-1-4.1-25.9-3.5c-17.6.4-17.1,3.5-17.1,3.5Z"/>
              <path class="cls-8" d="M157.7,319.1c5-25.3,3.7-40.8,3.7-41,0-.4.7-.7,1.1-.8.4,0,2.1-.1,2.3.2.3.4,1.3,19.5-6.2,41.5h-.9Z"/>
              <path class="cls-8" d="M197.9,319.1c-5-25.3-3.7-40.8-3.7-41,0-.4-.7-.7-1.1-.8-.4,0-2.1-.1-2.3.2-.3.4-1.3,19.5,6.2,41.5h.9Z"/>
              <path class="cls-8" d="M205.9,319.1c-5-25.3-3.7-40.8-3.7-41,0-.4-.7-.7-1.1-.8-.4,0-2.1-.1-2.3.2-.3.4-1.3,19.5,6.2,41.5h.9Z"/>
              <path class="cls-8" d="M165.7,319.1c5-25.3,3.7-40.8,3.7-41,0-.4.7-.7,1.1-.8.4,0,2.1-.1,2.3.2.3.4,1.3,19.5-6.2,41.5h-.9Z"/>
              <path class="cls-8" d="M161.5,275.7h42.5c.6,0,1.2.5,1.2,1.2h0c0,.6-.5,1.2-1.2,1.2h-42.5c-.6,0-1.2-.5-1.2-1.2h0c0-.6.5-1.2,1.2-1.2Z"/>
              <g>
                <path class="cls-23" d="M202.8,239.2l14.3-3.1.8,2.1s-15.8,9.4-17.3,8.9c-1.5-.5,2.1-7.9,2.1-7.9Z"/>
                <path class="cls-23" d="M189.8,303.9c-.4.4-.4.9-.2,1.4,0,0,0,0,0,0,.3.9,1.4,1.9,2.7,2.9.2.1.3.2.4.4,0,0,0,0,0,0,0,0,0,0,0,0,1.2,1.1.7,1.3,2.8,3.5,2.4,2.5,4.1,2.5,4.5,2.3.4-.2-.4-1.5-1.3-3,0,0,0-.1-.1-.2-.1-.2-.2-.4-.4-.6-1.1-1.8-.8-2.6-.5-5.3.2-2.2,3.4-12.1,3.4-12.1l-4.6-.8s-1.4,7.9-2.9,9.1c-.8.7-1.7.7-2.5,1.1,0,0-.1,0-.2.1-.4.3-.9.6-1.3,1Z"/>
                <path class="cls-3" d="M189.8,303.9c-.4.4-.4.9-.2,1.4,0,0,0,0,0,0,.4.9,1.5,1.9,2.7,2.9.2.1.3.3.4.4,0,0,0,0,0,0,0,0,0,0,0,0,1.2,1.1.7,1.3,2.8,3.5,2.4,2.5,4.1,2.5,4.5,2.3.4-.2-.4-1.5-1.3-3-.5-.2-2.6-1.1-4.3-3.2-1.4-1.8-2.4-4.2-3.4-5.6,0,0-.1,0-.2.1-.4.3-.9.6-1.3,1Z"/>
                <path class="cls-23" d="M226.9,301c.3,1.4,2.3,1.2,4.6.6,2.3-.6,1.7.1,5-.3,3.2-.4,4.2-1.6,4.3-2,0-.4-1.5-.6-3.2-.8-.2,0-.4,0-.6,0-1.9-.2-3.3-1.5-5.1-2.5-1.7-1-4.1-4.9-4.1-4.9l-4.4.4s2.3,3.5,3.2,5.1c.5.9.5,2.1.4,3,0,.5,0,1,0,1.5Z"/>
                <path class="cls-3" d="M231.5,301.6c2.3-.6,1.7.1,5-.3,3.2-.4,4.2-1.6,4.3-2,0-.4-1.5-.6-3.2-.8h0s-1.9,1.4-4.6,1.5c-2.2,0-4.5-.6-6-.5,0,.5,0,1,0,1.5.3,1.4,2.3,1.2,4.6.6Z"/>
                <path class="cls-23" d="M217.1,236.1s1.1-2.6,2.2-2.7c1.2-.1,4.8-.7,5.1-.2.3.5,0,2.4-.8,3.1-.8.7-5.7,1.8-5.7,1.8l-.8-2.1Z"/>
                <path class="cls-22" d="M210,272.7l-9.5,25.6s-1.5.1-2.9-.3c-1.3-.4-2.8-1.3-2.8-1.3,0,0,2.4-24.6,6.7-29.7,4.3-5.1,8.5,5.7,8.5,5.7Z"/>
                <path class="cls-3" d="M172.3,262.3s27.4-9.3,33.5-7.3c6.1,2,24.4,38.4,24.4,38.4,0,0-.4.6-1.5,1-1.1.4-3.6.4-3.6.4,0,0-16.5-14.2-18.5-18.3-2-4.1-2.8-8.1-4.7-7.7-2,.4-25.4,9.7-30.7,4.1-5.3-5.5-3.9-12.7-3.9-12.7l5.1,2Z"/>
                <path class="cls-17" d="M187.9,197.1c-1.2-.7-2.6-.7-3.6-.7.3-.3.8-.4.8-.4-.6,0-2,.5-2,.5-8.6-3.3-9.9,9.3-9.7,12.2.2,2.9.2,6.3-4.1,8.9-8.4,5.2-1.3,14.2-1.3,14.2,0,0,3.9,6.6,3.9,6.6-.2-2.4,10.7-14.8,16.4-18.6,1.4-2,1.9-5.6,1.9-5.9-.2,2.9-.7,4.5-1.2,5.4,4.8-4.4,2-20.4-1.1-22.2Z"/>
                <path class="cls-23" d="M188,220s-2.7,1.5-4.8.9c-2-.5-3.2-3.1-3.2-3.1.8-.2,1.1-1.3,1.1-6.2h.4c0,0,6.3,1.3,6.3,1.3,0,0-.1,2-.1,3.9,0,1.6,0,3.1.5,3.2Z"/>
                <path class="cls-7" d="M187.6,212.9s-.1,2-.1,3.9c-3.5,0-5.4-3.3-6.2-5.1l6.3,1.3Z"/>
                <path class="cls-17" d="M180.7,211s-1.9-2.9-2.3-5.4c-.3-1.8.6-8.4,7.3-7.5,0,0,1.9.2,3.8,1.4,1.4,1,3.5,3.1,1.2,8.9l-.6,2-9.3.7Z"/>
                <path class="cls-23" d="M188.8,214.7s-8.4.1-8.4-5.1c0-5.2-1.1-8.7,4.3-9,5.3-.3,6.4,1.7,6.8,3.4.4,1.7-.5,10.5-2.7,10.7Z"/>
                <path class="cls-17" d="M188.5,200.5s-2.3,6.1-5.8,7c-3.5.9-5,0-5,0,0,0,2.7-2.1,3.3-5.9,0,0,5.9-4,7.6-1.1Z"/>
                <path class="cls-17" d="M188,201s1.7,1.4,2.1,2.7.6,4.1,1.4,4c0,0,1.7-4.2-.2-6.5-2.1-2.5-3.3-.2-3.3-.2Z"/>
                <path class="cls-3" d="M169.3,242.6c-.8-3.5,2-10.2,4.9-15.8,2.7-5,5.4-9.1,5.7-9,7,4.2,7.7.7,7.7.7h0s6.4.8,8.2,4c2.2,3.9,4.7,14.6,7.1,16.7-.4,1.1-.2,1.7.2,3.1,0,.3.2.6.3.9.4,1,.8,1.8,1.2,2.5-1.2.7-3.6,2.2-5.3,1.1-2.7-1.6-4.7-6.3-5.9-8.2,0,0,0,0,0,0-2.5,14.3.9,17.6-.8,19.1-1.8,1.6-4.5-.8-10.2,1.7-3.8,1.6-9,4-12.6,4.4-1.9.2-3.2-.1-3.7-1.4-1.3-3.6,5-13.3,3.4-19.9Z"/>
                <path class="cls-12" d="M187,211.5s.2.7,1.8.6c0,0,1.4,0,1.3-.8,0,0-1.3-.5-3.1.3Z"/>
                <path class="cls-22" d="M165.9,262.5c.5,1.3,1.8,1.6,3.7,1.4,2.5-1.1,13-5.2,12.9-7.9-.2-4.1-2-4.2-.7-9.3,1.1-4.1-8.7-11.7-10.3-13.3-2.9,5.6-3,5.8-2.2,9.3,1.6,6.6-4.7,16.3-3.4,19.9Z"/>
                <path class="cls-3" d="M164.7,247.6c1.9-2.6,3.8-4,5.1-4.7-.3-.8,7.9-10.8,7.9-12.4s2.2-12.7,2.2-12.7c0,0-6.8.4-9.2,3.7-3,4.1-9.1,20-6,26.1Z"/>
                <path class="cls-23" d="M169.8,242.9l13.6,3.6-1.3,2.3s-16.6-.1-17.5-1.1c-.9-1,5.1-4.7,5.1-4.7Z"/>
                <path class="cls-22" d="M193.3,238.6c1.2,1.9,3.2,6.6,5.9,8.2,1.7,1,4.1-.4,5.3-1.1-.4-.7-.8-1.5-1.2-2.5-1,.2-2.2.5-2.9.7-1.5.5-7.1-5.3-7.1-5.3Z"/>
                <path class="cls-23" d="M183.5,246.5s4.3-1.2,5.3-.9c1,.3,4.5,2.6,4,3.2-.5.6-3.6-.4-5-.2s-2.5.9-3.5.7c-1-.2-2.1-.6-2.1-.6l1.3-2.3Z"/>
                <path class="cls-23" d="M183.5,246.5s2.1-1.1,2.7-1.7c0,0,.2,0,.3,0,.2.3.3.7-.4,1.2-1.1.7-2.5.4-2.5.4Z"/>
              </g>
            </g>
            <g>
              <path class="cls-2" d="M203.2,252.5h-20c0-.9.7-1.6,1.6-1.6h18.4v1.6Z"/>
              <polygon class="cls-2" points="203.2 230.7 234.1 230.7 226.7 252.5 195.6 252.5 203.2 230.7"/>
              <polygon class="cls-31" points="234.5 230.7 227.1 252.5 196 252.5 203.6 230.7 234.5 230.7"/>
              <path class="cls-19" d="M217.9,241.4c-.2.8-1,1.5-1.9,1.5s-1.4-.7-1.2-1.5c.2-.8,1-1.5,1.9-1.5s1.4.7,1.2,1.5Z"/>
              <path class="cls-32" d="M234.5,230.7l-7.4,21.8h-20.6c13.6-4.7,17.3-18.9,17.9-21.8h10.1Z"/>
            </g>
          </g>
          <g>
            <g>
              <path class="cls-15" d="M144.8,319.1c.4,0,.7-.3.8-.6l3.9-22,5.6-31.6,1.6-8.8h-4c0-.1-.7,5-.7,5l-4.8,36.1-2.9,21.4c0,.3.2.6.6.6Z"/>
              <path class="cls-24" d="M152,261c2.6,1.1,3.1,3.8,3.1,3.8l1.6-8.8h-4c0-.1-.7,5-.7,5Z"/>
            </g>
            <g>
              <path class="cls-15" d="M243.7,319.1c-.4,0-.7-.3-.8-.6l-3.9-22-5.6-31.6-1.6-8.8h4c0-.1.7,5,.7,5l4.8,36.1,2.9,21.4c0,.3-.2.6-.6.6Z"/>
              <path class="cls-24" d="M236.6,261c-2.6,1.1-3.1,3.8-3.1,3.8l-1.6-8.8h4c0-.1.7,5,.7,5Z"/>
            </g>
            <path class="cls-24" d="M143.2,252.5h99.7c1.9,0,3.5,1.6,3.5,3.5h0c0,1.9-1.6,3.5-3.5,3.5h-99.7c-1.9,0-3.5-1.6-3.5-3.5h0c0-1.9,1.6-3.5,3.5-3.5Z" transform="translate(386.2 511.9) rotate(-180)"/>
          </g>
        </g>
        <rect class="cls-1" x="0" y="317.3" width="600" height="1.6" rx=".8" ry=".8"/>
        <g>
          <path class="cls-23" d="M395.1,248.8s-2.6,3.3-1.8,3.7c.8.4,3,1.3,3.5.8s.7-4.4.7-4.4h-2.4Z"/>
          <path class="cls-23" d="M395.2,248.9s-1.1.4-1.5.9c-.4.6-1.4,1.4-1.1,1.7.2.2,1.6-.8,1.6-.8l1.1-1.8Z"/>
          <path class="cls-33" d="M405.1,205.1s-3,27.7-3.2,28.5c0,.2-.3,1-.6,2.3-.5,1.8-1.1,4.4-1.8,6.9-.9,3.7-1.8,7.2-1.8,7.2l-2.6-.9s-.1-13.5.5-16.6c.7-3.1,2.8-22.2,3.9-24.7,1.1-2.6,5.6-2.7,5.6-2.7Z"/>
          <g>
            <rect class="cls-16" x="385.1" y="249.7" width="15.2" height="24.7" rx="4" ry="4" transform="translate(39.6 575.4) rotate(-75.3)"/>
            <path class="cls-27" d="M383.8,255.9l-1.9,7.1c-.4,1.4,0,2.8,1,3.8.3.3.7.6,1.1.8t0,0h0c.3.1.5.2.8.3l16.2,4.2c2.1.6,4.3-.7,4.9-2.8l1.9-7.1c.6-2.1-.7-4.3-2.8-4.9l-5.6-1.5.4-1.5c.2-.7-.2-1.4-.9-1.6l-.6-.2-3.4-.9-.8-.2c-.3,0-.7,0-1,.1-.3.2-.5.5-.6.8l-.4,1.5-3.2-.8c-.1,0-.3,0-.4,0,0,0,0,0,0,0h0c-1.3-.2-2.6.3-3.5,1.1h0c-.5.5-.8,1.1-1,1.8ZM398.5,255.7l-5.8-1.5.4-1.5c0-.3.3-.4.6-.4l1.5.4,2.7.7.7.2s0,0,.1,0c.2.1.3.3.2.5l-.4,1.5Z"/>
          </g>
          <path class="cls-23" d="M396.6,253.3s.7-1.2.5-1.6c-.3-.4-1.2,1.3-1.2,1.3,0,0,.7-1.4.4-1.7s-1.3,1.4-1.3,1.4c0,0,.6-1.4.4-1.5-.2,0-1,1.2-1,1.2,0,0,.4-1.1,0-1-.4,0-1.1,1-1.1,1l3.3.9Z"/>
          <path class="cls-13" d="M401.2,235.9c-.5,1.8-1.1,4.4-1.8,6.9-.4-1.1-.9-3-1.2-5.4-.6-4.6,1.2-14.4,1.2-14.4l1.8,12.9Z"/>
          <path class="cls-23" d="M435.3,247.7s2.9,2.3,3.2,3.1c.4.7,1.3,3.4,1.2,4.3,0,.9-2.2-2-2.8-2.2-.6-.2.7,1.2.5,1.5-.1.3-1.5-.7-2-1-.5-.3-.9-2.5-1.6-3.7-.8-1.2,1.5-1.9,1.5-1.9Z"/>
          <path class="cls-5" d="M397.5,317.7h14.4c1-.7-.3-7.5-.3-7.5,0,0-3.9-1.5-4.6,1.5-.7,3-5,4-7.3,4.3-1.6.3-2.1,1.1-2.2,1.6Z"/>
          <path class="cls-5" d="M418.8,317.7h14.4c1-.7-.3-7.5-.3-7.5,0,0-3.9-1.5-4.6,1.5-.7,3-5,4-7.3,4.3-1.6.3-2.1,1.1-2.2,1.6Z"/>
          <path class="cls-4" d="M401.4,248.1s.6,8,1.4,17.7c1,13.1,3.8,45.7,3.8,45.7,0,0,1.8,1.6,5.9.7,0,0,3.4-11.2,4.5-24.1,0-.2,0-.4,0-.6,1-13.1,2.4-40.6,2.4-40.6l-18,1.1Z"/>
          <path class="cls-5" d="M401.1,245.3s.9,10.8,1.6,20.5l14.1,22.4c0-.2,0-.4,0-.6,1-13.1,2.4-40.6,2.4-40.6l-18.2-1.7Z"/>
          <path class="cls-4" d="M405.3,245.3s10.2,25.5,13.5,35.2c2.3,6.9,8.9,31.1,8.9,31.1,0,0,2.9.9,5.3-.8,0,0,2.4-24.7-2.5-31.6-2.6-3.7-.7-38.4-11.3-38.7-10.6-.3-13.9,4.9-13.9,4.9Z"/>
          <path class="cls-33" d="M424.8,247.7c-4.3,2.4-22.6,2.4-23.4.5-1.9-4.2-2.4-25.7-1.5-32.3,0,0,.5-10.1,1.5-9.7,6.8-3.1,17.7-.3,17.7-.3,3,.9,2.7,7.6,3.5,17.1.1,1.2.2,2.5.4,3.8.6,5.8,1.4,12.6,2.7,19.7,0,.5-.2.9-.9,1.2Z"/>
          <path class="cls-23" d="M414,204.7c-.1,1.8-2.5,1.6-5.3,1-2.8-.6-1.8-2.3-1.8-2.3,0,0,0-1.3.2-2.8,0-.6.1-1.2.3-1.7,0-.3.1-.6.2-.8.4-1.6,5.7,0,5.6.4-.1,1.2.7,5,.8,6.4Z"/>
          <polygon class="cls-5" points="407.9 207.9 407.7 205.4 410.8 206 409.6 208.2 407.9 207.9"/>
          <path class="cls-13" d="M407,202.2l-1.9,2.9s0,1.8,1.6,3l2.6-2.4s-1.7-.6-2.3-3.5Z"/>
          <path class="cls-13" d="M409.3,205.7s.5,1.9,1.6,2.8c0,0,4-1.1,5-3.1l-2.1-2.7s-.1,2-4.4,3Z"/>
          <path class="cls-29" d="M413.2,199.3s-2.6,1.7-6.1,1.3c0-.6.1-1.2.3-1.7.7-.2,1.3-.3,1.3-.3l4.6.7Z"/>
          <path class="cls-23" d="M414.8,197.3c-1.2,3.4-5.8,2.6-7.7,2-.5-.2-.9-.3-.9-.3-.6-.3-.8-1.3-.7-2.6.1-2.6,1.1-6.3,1.7-7.2.9-1.3,2.4-2.7,6.8-.8,4.4,1.9,2.4,4.5.8,8.9Z"/>
          <path class="cls-5" d="M418.2,195.6c-1.4,1.1-4.4,3.2-4.4,3.2,0,0,.3-.4.7-1.5,0-.1,0-.3,0-.5,0-.6.1-1.1.4-1.6.2-.3.2-.6,0-.8-.4-.4-1,0-1.4.3-.3.2-.6.2-.9,0,0,0,0,0,0,0-1.2-.7.1-2.1-.8-3.2-1-1.1-5.2-1.2-5-1.9-1.4-.8-.5-3.8-.5-3.9,0,0,2.1.2,4.6-.5,2.1-.5,4.4.8,5.1,1.4,0-.1,0-.3-.1-.5,0,0,.3.3.3.7,0,0,0,0,0,0,0,0,.4,0,.7.2,0,0-.2,0-.3,0,0,0,0,0,0,0,2.8,2,2.7,7.6,1.6,8.6Z"/>
          <path class="cls-12" d="M408.2,196.8s-.2.4-1.3,0c0,0-.9-.3-.8-.8,0,0,1-.1,2.1.7Z"/>
          <path class="cls-18" d="M407.9,207.9s-2.5,31.7-2.5,34.3c0,2.6,2.8,5.4,2.8,5.4,0,0,2.2-2.4,2.6-4.9.4-2.5-1.2-34.5-1.2-34.5l-1.7-.3Z"/>
          <path class="cls-33" d="M419.1,205.9s4,1,7.2,7.1c3.2,6.1,5.7,18.5,7.3,21.8,1.5,3.3,2.6,13.6,2.6,13.6l-2.4,1.2s-5.8-10.6-6.7-14c-.5-1.9-7.6-16.9-7.6-16.9l-.3-12.8Z"/>
          <path class="cls-13" d="M424.8,247.7h0c-7.6-1.1-5.4-26.3-4.8-26.4.6,0,2.8,4.5,2.8,4.5l.2,1c.6,5.8,1.4,12.6,2.7,19.7,0,.5-.2.9-.9,1.2Z"/>
        </g>
        <g>
          <g>
            <path class="cls-5" d="M519.9,302.8s3.2,2.9,2.6,5c-.6,2.1-3.5,3.4-3.9,5.9-.4,2.5-1.9,3.9-3.3,3.9h-6.6s-1-1.8,1.5-2.3c2.5-.5,3.4-3.5,3.3-6.2-.2-2.7.2-6.4.2-6.4l5.3-1.2,1.1,1.4Z"/>
            <path class="cls-5" d="M481,310.3s.6,6.6-.8,7.3h-17.8s0-2.1,2.9-2.6c2.9-.5,7.9-2.1,8.7-5.9.9-3.7,7,1.1,7,1.1Z"/>
            <path class="cls-18" d="M465.9,217.1s.9,11.6,2,25.4c1.5,18.9,3.3,42,3.5,46.4.3,7.6,1.5,19.8,1.5,19.8,0,0,2.9,2.9,8.8,1.7,0,0,5.2-17.4,6.7-35.8,0-.3,0-.6,0-.9,1.4-18.7,3.6-58.2,3.6-58.2l-26.3,1.6Z"/>
            <path class="cls-5" d="M465.9,217.1s.9,11.6,2,25.4l20.6,32.1c0-.3,0-.6,0-.9,1.4-18.7,3.6-58.2,3.6-58.2l-26.3,1.6Z"/>
            <path class="cls-18" d="M470.2,218.5s17,41.8,28.1,61.5c11.1,19.7,14.6,25.2,14.6,25.2,0,0,6.4-2.5,7-4.2,0,0-4.3-38-11.7-47.2-4.2-5.2-7.9-16.8-7.7-22.3.3-9.5-3.2-20.4-3.2-20.4l-27.1,7.5Z"/>
          </g>
          <path class="cls-23" d="M456.7,219.1s-3.2,4.3-3.4,5.4c-.2,1.1-.5,5.2-.1,6.4.4,1.2,2.4-3.6,3.2-4.1.8-.5-.5,1.9-.2,2.2.3.4,1.8-1.5,2.4-2.1.6-.6.3-3.8,1-5.7.6-1.9-2.8-2.1-2.8-2.1Z"/>
          <path class="cls-12" d="M470.6,156.9s-4.3,39.8-4.7,40.9c0,.2-.4,1.5-.9,3.3-.7,2.6-1.6,6.3-2.5,9.8-1.4,5.3-2.8,10-2.8,10,0,0-.6.4-2.2.3-1.1,0-1.6-1-1.6-1,0,0,.2-19.5,1.1-24,1-4.5,4-31.8,5.6-35.5,1.5-3.7,8.1-3.9,8.1-3.9Z"/>
          <path class="cls-30" d="M465.1,201.1c-.7,2.6-1.6,6.3-2.5,9.8-.6-1.6-1.3-4.2-1.8-7.8-.9-6.6,1.8-20.6,1.8-20.6l2.5,18.6Z"/>
          <path class="cls-12" d="M498.9,218.1c-6.1,3.5-32.4,3.4-33.7.7-2.7-6.1-3.4-36.9-2.1-46.4,0,0,.7-14.5,2.1-13.9,9.7-4.5,25.4-.4,25.4-.4,4.2,1.2,3.9,10.9,5.1,24.5.2,1.8.3,3.6.5,5.5.8,8.4,2.1,18.1,3.9,28.2.1.7-.3,1.3-1.3,1.8Z"/>
          <path class="cls-23" d="M483.5,156.4c-.2,2.6-3.6,2.3-7.6,1.4-4.1-.9-2.6-3.3-2.6-3.3,0,0,0-1.8.3-4.1,0-.8.2-1.7.4-2.5,0-.4.2-.8.2-1.2.5-2.3,8.1,0,8.1.5-.1,1.7,1.1,7.1,1.2,9.2Z"/>
          <polygon class="cls-5" points="474.7 160.9 474.4 157.4 478.9 158.2 477.2 161.4 474.7 160.9"/>
          <path class="cls-30" d="M473.3,152.8l-2.7,4.1s0,2.5,2.3,4.4l3.7-3.4s-2.4-.9-3.3-5Z"/>
          <path class="cls-30" d="M476.7,157.8s.8,2.7,2.2,4c0,0,5.8-1.5,7.1-4.5l-3-3.9s-.1,2.9-6.4,4.4Z"/>
          <path class="cls-29" d="M482.3,148.5s-3.7,2.4-8.7,1.9c0-.8.2-1.7.4-2.5,1-.2,1.8-.4,1.8-.4l6.5,1Z"/>
          <path class="cls-23" d="M484.6,145.8c-1.8,4.9-8.3,3.7-11.1,2.9-.8-.2-1.3-.4-1.3-.4-.9-.4-1.1-1.9-1.1-3.8.1-3.8,1.6-9.1,2.5-10.3,1.3-1.9,3.4-3.9,9.8-1.2,6.3,2.7,3.5,6.5,1.2,12.8Z"/>
          <path class="cls-27" d="M489.5,143.2c-2,1.6-6.3,4.7-6.3,4.7,0,0,.5-.6,1.1-2.2,0-.2,0-.5,0-.7,0-.8.2-1.6.6-2.3.3-.4.4-.9,0-1.2-.5-.5-1.5,0-2.1.4-.4.3-.9.3-1.3,0,0,0,0,0,0,0-1.7-1.1.2-3-1.2-4.5-1.4-1.6-7.4-1.8-7.2-2.8-2.1-1.2-.8-5.4-.7-5.7,0,0,2.9.3,6.6-.7,3-.8,6.3,1.2,7.3,2,0-.2,0-.5-.2-.7,0,0,.5.4.4,1,0,0,0,0,0,0,0,0,.6,0,.9.2,0,0-.3,0-.4,0,0,0,0,0,0,0,4,2.8,3.9,11,2.3,12.3Z"/>
          <path class="cls-12" d="M475.2,145s-.3.6-1.9.1c0,0-1.4-.4-1.1-1.1,0,0,1.5-.2,3.1,1Z"/>
          <path class="cls-18" d="M474.7,160.9s-3.6,45.5-3.6,49.3c0,3.8,4,7.8,4,7.8,0,0,3.1-3.4,3.8-7.1.6-3.6-1.7-49.6-1.7-49.6l-2.5-.5Z"/>
          <path class="cls-30" d="M498.9,218.1h0c-10.9-1.6-7.8-37.8-7-38,.9-.1,4,6.5,4,6.5l.3,1.5c.8,8.4,2.1,18.1,3.9,28.2.1.7-.3,1.3-1.3,1.8Z"/>
          <g>
            <rect class="cls-16" x="498.7" y="227" width="35.5" height="21.9" rx="5.7" ry="5.7" transform="translate(-45.9 153.8) rotate(-16.2)"/>
            <path class="cls-27" d="M501,237l3,10.1c.6,2,2.1,3.4,4,3.9.6.2,1.3.2,1.9.2t0,0h0c.4,0,.8,0,1.2-.2l23.1-6.7c3-.9,4.8-4.1,3.9-7.1l-3-10.2c-.9-3-4.1-4.8-7.1-3.9l-8,2.3-.6-2.2c-.3-1-1.3-1.6-2.3-1.3l-.9.3-4.8,1.4-1.2.4c-.5.1-.9.5-1.1.9-.2.4-.3,1-.2,1.4l.6,2.2-4.6,1.3c-.2,0-.4.1-.5.2,0,0,0,0,0,0h0c-1.8.7-3,2.2-3.4,4h0c-.2.9-.2,1.9,0,2.9ZM518.9,225.8l-8.3,2.4-.6-2.2c-.1-.4.1-.8.5-.9l2.1-.6,3.8-1.1,1-.3c0,0,.1,0,.2,0,.3,0,.6.2.7.5l.6,2.2Z"/>
          </g>
          <path class="cls-23" d="M512,219.3s-.7,6,.6,5.9c1.3,0,4.6-.7,4.9-1.8.2-1-2.5-5.9-2.5-5.9l-3,1.7Z"/>
          <path class="cls-23" d="M512.2,219.3s-1,1.3-1.1,2.3c0,1-.6,2.8-.1,2.9.5.1,1.3-2.2,1.3-2.2v-3Z"/>
          <path class="cls-12" d="M490.7,158s5.8,1.4,10.4,10.2c4.6,8.8,8.2,26.6,10.4,31.3,2.2,4.7,3.9,18.8,3.9,18.8,0,0-.3.7-1.5,1-.9.2-1.9.1-1.9.1,0,0-8.6-13.8-9.9-18.8-.7-2.7-10.9-24.2-10.9-24.2l-.5-18.4Z"/>
        </g>
        <g>
          <polygon class="cls-23" points="107.7 311.8 106.9 305.5 110.5 302.5 111.7 310.8 107.7 311.8"/>
          <path class="cls-5" d="M119.9,317.4h-14.9s-.4-2.3.4-4c.7-1.7,1.9-2.7,2-3.9.9,1,2.1,1.6,4.3,1.3.3.4,1.7,2.7,2.6,3.4,1,.7,5.3.5,5.6,3.3Z"/>
          <path class="cls-31" d="M116.9,227.1c-1,7.9-1.8,15.3-2.4,22.1-3.5,36.8-2.8,59.2-2.8,59.2,0,0-.3.7-2.4.7-1.2,0-2.4-.3-2.4-.3,0,0-7.8-24-7.2-37.7,0-1.6.3-3.1.6-4.4,1.9-7-6.9-33.7,2.6-43.7,9.5-10,14.4.4,14,4Z"/>
          <path class="cls-2" d="M116.9,227.1c-1,7.9-1.8,15.3-2.4,22.1l-14.8,22c0-1.6.3-3.1.6-4.4,1.9-7-6.9-33.7,2.6-43.7,9.5-10,14.4.4,14,4Z"/>
          <path class="cls-23" d="M128.6,152.2s-.4-1.8-.8-3.2c-.2-.6,1.1-4.6,1.9-5.1.9-.5,3.1,2.2,2.5,4.2-.3,1.1-.9,4.5-.9,4.5l-2.8-.5Z"/>
          <path class="cls-23" d="M128.6,152.2s-.5-1-.9-1.2c-.4-.2-.9-1.9-1.2-2.5,0,0,.3-.4.8.1.3.3,1,1.4,1,1.4l.2,2.3Z"/>
          <path class="cls-23" d="M67,158.2c0,.2-.2.5-.3.8,0,0,0-.2,0-.3,0-.6-2.4-4.1-3.3-4.3-1-.2-2.3,3-1.1,4.8.6.9,2.1,4,2.1,4l2.5-1.3s.1-1.1.5-1.4c.4-.3.3-2,.4-2.8,0,0-.4-.3-.8.4Z"/>
          <path class="cls-23" d="M82.7,309.9c-.2-2-.3-7.3-.3-7.3,0,0,5.4-1.7,5.2-.5-1,5.8-.7,8.7-.7,8.7l-2.2,1.3-2-2.2Z"/>
          <path class="cls-31" d="M112.4,226.7s-20.8,57.1-24.9,81.9c0,0-1,.7-2.7.4-2-.2-2.6-1.6-2.6-1.6,0,0-3.8-29.7,3.7-40,5.1-7.1-2.2-38.2,9.8-40.7,12-2.5,16.7,0,16.7,0Z"/>
          <path class="cls-22" d="M108.7,171.8h0s0,0,0,0c-.1-.5-.3-1-.4-1.5h0c-.4-1.5-1-2.9-1.5-4.2-.3-.7-.7-1.4-1-2,0,0-.1-.2-.2-.3h0c-.8-1.4-1.6-2.3-2.4-2.6-1.4-.5-2.9-.4-3.9-.2.2-.3.7-.5.7-.5-.7,0-2,.9-2,.9-9.6-2.1-9,11.4-8.4,14.5.7,3.1-2.4,4.6-6.8,7.7-8.3,6-8.2,12.4-8.2,12.4,0,0,.2,0,.2.1.3-.8,1-2.4,1.8-2.7,0,0-.6,2.1-.8,3.2,1.3.7,3,1.8,4.9,3h0c2.5,1.6,5.4,3.5,7.6,5-.1-.6-.2-1.5,0-2l.7,2.2v.3c1.5,1,2.7,1.8,3.2,2.2,0,0,.1,0,.2.1.2.1.3.2.3.2-.2-.8.6-2.8,2.1-5.4,0-.2.2-.4.3-.5.5-.8,1-1.7,1.5-2.6.2-.3.4-.6.6-1,0,0,0,0,0,0,.2-.3.3-.5.5-.8h0c.4-.6.8-1.3,1.3-1.9,1.1-1.6,2.3-3.3,3.5-4.8,1.7-2.2,3.4-4.1,4.7-5.3,0,0,0-.2.1-.3.2-.5.4-1.1.5-1.6,0-.2,0-.3.1-.5.3-1.8.4-3.6.3-4.1.1,1.8,0,3.1,0,4.1,0,.2,0,.4,0,.6h0c0,.4-.2.8-.3,1.1.2-.3.4-.6.6-.9.1-.2.2-.5.3-.7,1.1-2.9.8-7.1-.2-11.2Z"/>
          <path class="cls-23" d="M106.9,185.5s-2.7,2-5,1.7c-2.2-.3-3.9-2.8-3.9-2.8.9-.3.9-1.6.1-6.8h.4s6.9.3,6.9.3c0,0,.2,2.1.5,4.1.2,1.7.6,3.2,1,3.4Z"/>
          <path class="cls-7" d="M105.4,178s.2,2.1.5,4.1c-3.8.5-6.3-2.7-7.4-4.5l6.9.3Z"/>
          <path class="cls-22" d="M97.7,177.1s-2.4-2.8-3.3-5.4c-.6-1.8-.7-9,6.5-9.1,0,0,2.1-.1,4.2.9,1.7.8,4.2,2.7,2.7,9.2l-.3,2.2-9.8,2.2Z"/>
          <path class="cls-12" d="M117.8,225.6s-9,5.3-20.3,2.6c-.1,0-9.3-1.5-9.3-1.5.2-.4,1.3-7.5,1.5-7.9,2-5.2,5.7-33.2,8.7-34.6.8.9,3,1.4,4.9,1.3,2.2-.2,2.9-1.1,2.8-2.2,2.4,1.2,4.3,2.2,4.3,2.2,2.2,3.3,7.4,40.1,7.4,40.1Z"/>
          <path class="cls-23" d="M107,179.7s-8.9,1.5-9.7-4.1c-.8-5.5-2.5-9.1,3.1-10.2,5.6-1.2,7,.8,7.8,2.6.7,1.8,1.1,11.2-1.2,11.8Z"/>
          <path class="cls-22" d="M104.4,164.7s-1.5,6.9-5.1,8.4-5.4.8-5.4.8c0,0,2.5-2.7,2.5-6.8,0,0,5.6-5.2,7.9-2.4Z"/>
          <path class="cls-22" d="M103.9,165.3s2,1.2,2.7,2.5c.7,1.3,1.3,4.2,2.1,4,0,0,1.2-4.7-1.3-6.9-2.6-2.3-3.5.4-3.5.4Z"/>
          <path class="cls-4" d="M131.5,152.3c-.4-.1-.9-.4-1.6-.5-.6,0-1.4.1-1.4.1,0,0-2.5,15.5-2.7,16.4-.2.8-10.7,12.7-13.6,12.6-2.6,0-5.6,1.9-6.2,2.3,0,0,6,12.6,6.3,15,.3,2.6,3.4,42.3,3.4,42.3,0,0-.2,1.9,3.3.9,3.5-1,4.3-1.8,4.3-1.8,0,0-3.2-31.3-3.8-41,0-1.3-.3-2.5-.6-3.6-.3-1.1,0-2.2.6-3.1,4.4-6,11.3-15.7,11.7-17.8.6-3,.3-21.8.3-21.8Z"/>
          <path class="cls-5" d="M95.1,317.4h-14.9s-.4-2.3.4-4c.7-1.7,1.9-2.7,2-3.9.9,1,2.1,1.6,4.3,1.3.3.4,1.7,2.7,2.6,3.4,1,.7,5.3.5,5.6,3.3Z"/>
          <path class="cls-4" d="M105.4,199.5c-.5-3.1-6.9-15.5-6.9-15.5,0,0-4.1-1.2-6.7-.2-2.7,1-16.5-6.8-16.9-7.6-.4-.7-7.8-14.5-7.8-14.5,0,0-.6-.4-1.6.2-1,.5-1,1.5-1,1.5,0,0,5.7,17.4,7.2,20.1.9,1.6,8.6,7.3,14.6,11.5,1.1.8,1.7,2.2,1.6,3.6-.8,5.9-1,9.3-1.9,19.5-.8,8.5-1.1,24.8-1.1,24.8,0,0,6.7,2.3,11.3,2.6,4.6.3,5.6-4.6,5.6-4.6,0,0,4.2-38.1,3.7-41.3Z"/>
          <path class="cls-12" d="M104.1,177s1.1.6,2.3.4c.9-.1,1.1-1.2,1.1-1.2,0,0-.6-.2-1.6,0-1,.2-1.8.7-1.8.7Z"/>
        </g>
        <g>
          <path class="cls-23" d="M387.1,71.5s-4.1-7.4,0-8.9c4.1-1.5,6-.1,6.2,1.6.2,1.7-1.6,8.3-1.6,8.3l-4.6-1Z"/>
          <path class="cls-6" d="M390.4,118.6c-7.6,1.4-14.5,2-20.8,2.1-6,.1-11.3-.2-16-.7-1.3-.1-2.5-.3-3.6-.5-12.2-1.9-19-5.1-19-5.1,0,0,11.2-23.4,20.2-22.5,10.6,1.1,28.6,10.6,30.3,7.9,2-3,3.7-28.8,3.7-28.8,4.7-3.2,7.5.2,7.5.2,0,0,9.2,45.3-2.4,47.4Z"/>
          <path class="cls-10" d="M390.4,118.6c-7.6,1.4-14.5,2-20.8,2.1-6,.1-11.3-.2-16-.7-2.8-9-4.8-18.1.8-12.6,10,9.7,35.9,11.2,35.9,11.2Z"/>
          <path class="cls-5" d="M330.2,307.7s-.8,9.3,1.2,10.3h25.2c0,0,0-3-4-3.6-4-.6-11.1-3-12.4-8.3-1.2-5.3-9.9,1.6-9.9,1.6Z"/>
          <path class="cls-18" d="M348.7,195c-.1,6.1-.4,12.4-1,18-2.7,26.8-3.7,59.1-4.1,65.3-.7,10.8-2.8,28.1-2.8,28.1,0,0-4.2,4-12.5,2.1,0,0-6.9-24.9-8.4-51.1,0-.4,0-.9,0-1.3-.2-3.5-.4-7.4-.6-11.7-1.3-28.6-2.6-71.2-2.6-71.2l31.6-7.4s.7,14,.4,29.2Z"/>
          <path class="cls-5" d="M348.7,195c-8,13.8-23.3,39.3-29.4,49.4-1.3-28.6-2.6-71.2-2.6-71.2l31.6-7.4s.7,14,.4,29.2Z"/>
          <path class="cls-23" d="M268.7,168.3s-5.1,6-5.6,7.7c-.5,1.7-1.3,7.7-.8,9.5.4,1.8,3.9-5.1,5.1-5.8,1.2-.7-.9,2.7-.5,3.3.4.6,2.9-2,3.8-2.9,1-.9.9-5.6,2-8.4,1.1-2.8-4-3.4-4-3.4Z"/>
          <path class="cls-5" d="M267.5,297.1s-4.5,4.1-3.6,7c.9,2.9,4.9,4.8,5.5,8.4.5,3.6,2.7,5.5,4.7,5.5h9.4s1.4-2.5-2-3.3c-3.5-.8-4.8-4.9-4.6-8.8.2-3.9-.3-9-.3-9l-7.4-1.7-1.5,1.9Z"/>
          <path class="cls-18" d="M343.3,173.9s-29.6,63.3-45.3,91c-15.7,27.8-20.7,35.5-20.7,35.5,0,0-9-3.6-9.8-6,0,0,6-53.6,16.6-66.7,6-7.4,13-29.5,13.3-37.3.3-7.7,7.2-26.2,7.2-26.2l38.7,9.6Z"/>
          <path class="cls-6" d="M351.9,176.9s-11.8,7.9-28.4,7.1c-7.3-.3-21.8-2.4-24.1-8.2-.5-1.4-.1-3.1.7-5.8,2.1-6.9,7.1-20.1,5.6-49.2-.1-2.7,0-5.3.2-7.7,1.6-14.4,9.8-22.9,17.8-25.6,19.4-6.8,25.9,2.6,25.9,2.6,0,0,8.6,6.8,9.9,21,2.6,28.4-7.4,65.7-7.4,65.7Z"/>
          <path class="cls-23" d="M329.3,86s8.9,5.4,18.6,3.9c0,0,1.9-.5,1-2.7.6-1.8.5-1.6.9-3,.8-3.1,1.1-4.9,1.1-4.9l-5.5-5.8-5.2-5.5c-1.4,13.2-10.8,18-10.8,18Z"/>
          <path class="cls-14" d="M339.3,73s3,8,10.4,11.2c.8-3.1,1.4-6.3,1.4-6.3l-5.8-4.3-6-.5Z"/>
          <path class="cls-23" d="M357,79s-17,2.1-18.2-8.3c-1.2-10.4-4.2-17.2,6.6-19,10.8-1.8,13.4,2,14.6,5.3,1.3,3.4,1.3,21.1-3,22Z"/>
          <path class="cls-26" d="M333.4,50c-.1-.2-.5-.3-1.3-.4,0,0,.6-.4,1.5-.4.2-1.1.9-3,2.8-3.4,0,0-1,.5-1.2,1.7,2.3-2.2,7-3.6,19.9-2.1,17,2,11,12.7,8.7,13.9-2.3,1.2-7.7-2.6-11.8-2.4-4.1.2-5.1,6.1-6.6,6.8-1.4.8-.8-.7-2.7-1.6-1.9-.9-2.2,2.2-1.7,4.3.5,2.1-2.2,4.6-2.2,4.6l-2.5-2.9c-2.5-2.9-4.5-15-3.2-17.5.1-.2.2-.4.3-.7Z"/>
          <g>
            <polygon class="cls-20" points="385.3 66.6 356.5 66.9 356.3 62.5 385 60.3 385.3 66.6"/>
            <polygon class="cls-25" points="407.1 67.3 375.7 67.8 375.3 59.9 406.6 57.5 407.1 67.3"/>
            <polygon class="cls-6" points="428.3 68 401.8 68 401.3 57.3 427.7 54.9 428.3 68"/>
            <path class="cls-10" d="M428.6,69.8h0c.8,0,1.4-.7,1.4-1.5l-.6-13.7c0-.8-.7-1.4-1.5-1.4h0c-.8,0-1.4.7-1.4,1.5l.6,13.7c0,.8.7,1.4,1.5,1.4Z"/>
            <path class="cls-10" d="M356.4,67.8h0c-.7,0-1.3-.5-1.4-1.3l-.2-3.6c0-.7.5-1.3,1.3-1.4h0c.7,0,1.3.5,1.4,1.3l.2,3.6c0,.7-.5,1.3-1.3,1.4Z"/>
          </g>
          <path class="cls-10" d="M300.1,170.1c2.1-6.9,7.1-20.1,5.6-49.2-.1-2.7,0-5.3.2-7.7h0c6.4-.5,16.1,6.4,16.1,6.4,0,0-6,36.6-22,50.5Z"/>
          <path class="cls-6" d="M329.3,86s-16.4,2.8-24.9,13.2c-8.5,10.4-22.3,25.1-25.5,30.3-3.2,5.1-12.3,40.2-12.3,40.2,0,0,.6,1.1,3.1,1.8,2.4.6,4.1-.3,4.1-.3,0,0,11.9-20.4,16.4-30.7,1.9-4.2,34.2-21,46.3-19.3,4.8.7-7.2-35.2-7.2-35.2Z"/>
          <path class="cls-23" d="M385.1,59.1s3.5,2.2,5.6,1.2c2.1-.9,1.9-1.7,1.9-1.7,0,0-6.4-1.8-7.5.5Z"/>
          <path class="cls-27" d="M345.2,97.4s-7.2,45.4-58.2,58.6l-5.6,11,9.8,1.7s58-16.8,57.3-72l-3.3.8Z"/>
          <polygon class="cls-16" points="344.1 90.1 341.7 90.4 341.7 93.8 345.2 97.4 348.5 96.6 348.5 91.9 346.1 90.1 344.1 90.1"/>
          <path class="cls-10" d="M334.9,81.1s-2.3.5-7.5,4.8c0,0,5.2,11,16.1,12.3,0,0-.2-5.1.6-8.1,0,0-8.7-3.1-9.2-9Z"/>
          <path class="cls-10" d="M344.1,90.1s5.3,2.8,5.7,7.2c0,0,2-3.2,1.4-5.5-.6-2.2-2.4-4.8-2.4-4.8,0,0,.2,2.7-4.8,3Z"/>
        </g>
      </g>
    </g>
  </g>
</svg>