<?xml version="1.0" encoding="UTF-8"?>
<svg xmlns="http://www.w3.org/2000/svg" version="1.1" viewBox="0 0 343.9 388.3">
  <defs>
    <style>
      .cls-1 {
        fill: #9e3acc;
      }

      .cls-2 {
        fill: #96242d;
      }

      .cls-3 {
        fill: #8a28b2;
      }

      .cls-4 {
        fill: #ed6482;
      }

      .cls-5 {
        fill: #eda27c;
      }

      .cls-6 {
        fill: #fff;
      }

      .cls-7 {
        fill: #c16eed;
      }

      .cls-8 {
        stroke: #fff;
      }

      .cls-8, .cls-9 {
        fill: none;
        stroke-linecap: round;
        stroke-miterlimit: 10;
        stroke-width: 2px;
      }

      .cls-10 {
        fill: #d89279;
      }

      .cls-11 {
        fill: #ffba91;
      }

      .cls-9 {
        stroke: #4d0e19;
      }

      .cls-12 {
        fill: #9e9e9e;
      }

      .cls-13 {
        fill: #b74988;
      }

      .cls-14 {
        fill: #ffc6a9;
      }

      .cls-15 {
        fill: #ffc9ae;
      }

      .cls-16 {
        fill: #ffc200;
      }

      .cls-17 {
        fill: #4d0e19;
      }

      .cls-18 {
        fill: #b759e2;
      }

      .cls-19 {
        fill: #7d1b22;
      }
    </style>
  </defs>
  <!-- Generator: Adobe Illustrator 28.7.1, SVG Export Plug-In . SVG Version: 1.2.0 Build 142)  -->
  <g>
    <g id="OBJECTS">
      <g>
        <path class="cls-12" d="M72.9,35.1h197.9c40.2,0,72.9,32.7,72.9,72.9v280.4H0V107.9C0,67.7,32.7,35.1,72.9,35.1Z"/>
        <g>
          <path class="cls-4" d="M110.3,104s-6.9,7.6-5.3-11.1c1.6-18.7,18.2-22.8,18.2-22.8,0,0-.1-9.7,27.3-31.1s110.5-61.2,137.6-23c27.1,38.3-34.9,90.3-70.2,88-35.3-2.3-46.1-21.2-46.1-21.2,0,0-38.1,7.5-43.8,23.9l-17.8-2.7Z"/>
          <g>
            <g>
              <g>
                <path class="cls-13" d="M251.4,166.6s58.9-2.9,73.6,19.4c0,0-22.8,24.7-46.7,6.9-23.9-17.8-26.9-26.2-26.9-26.2Z"/>
                <path class="cls-14" d="M317.6,185.9l5.6-29.3s18.1-13.5,18.2-19.5c.2-6-18.2,4.9-18.2,4.9,0,0,11.5-10.7,7.3-15.2-4.2-4.4-19.9,8.8-19.9,8.8,0,0,13.9-9.5,9.4-15.1-4.5-5.6-22.1,16.2-33.7,11-11.6-5.3-14.4-5.8-15.7,3.6-1.2,9.3,2.2,36.5-2.2,47.1,0,0,28.4,17.4,49,3.8Z"/>
                <path class="cls-19" d="M237.9,292.5l13.5-126h0c16.6,19,42.5,27.1,67,21l6.6-1.7-29.7,152.6c-2.4,12.4-10.5,23.1-21.8,28.8h0c-17.5,7.2-19.4-11.8-24.1-30.2l-11.5-44.6Z"/>
                <path class="cls-8" d="M252.5,189.1c.6,2.1,2.8,3.4,4.9,2.8,2.1-.6,3.4-2.8,2.8-4.9-.6-2.1-2.8-3.4-4.9-2.8-2.1.6-3.4,2.8-2.8,4.9Z"/>
              </g>
              <path class="cls-2" d="M114.5,180.7l-32.9,9.7c-29.8,8.8-51.5,34.3-55.4,65.1l-16.6,131.3h272.1l-21.3-135.7c-5.7-34.5-15-45.3-48.3-56.1l-35.5-11.5-62.1-2.9Z"/>
              <g>
                <g>
                  <path class="cls-11" d="M119.6,139.3l-7.7,50.1,10.1,7c13.6,9.5,31.5,10,45.7,1.4l3.4-2-13-61.1-38.5,4.6Z"/>
                  <path class="cls-5" d="M168.7,183.7c-16.8,0-51-21.7-48.7-48.9l42.2,14,6.5,34.9Z"/>
                </g>
                <path class="cls-11" d="M211.2,133.2c0,29-17,44.7-42.3,44.7s-49.2-15.7-49.2-44.7,20.5-68.9,45.7-68.9c43.2,0,45.7,39.8,45.7,68.9Z"/>
                <path class="cls-6" d="M158.1,140.9c-1.7,4.7,3.1,10.8,10.7,13.6,7.6,2.8,15.2,1.2,16.9-3.5s-5.1-5.3-12.7-8.1-13.2-6.7-14.9-1.9Z"/>
                <path class="cls-10" d="M201.9,126.6c-2.2,1.3-3,3.8-2,5.6s2.5.5,4.7-.8c2.2-1.3,4.2-2.3,3.1-4-1.1-1.7-3.7-2-5.8-.7Z"/>
                <g>
                  <path class="cls-17" d="M179.5,115.6s-7.7,15.5-3.3,20.9c4.3,5.4,5.4-1,5.4-1l-2.1-19.9Z"/>
                  <path class="cls-15" d="M183.3,126.6c0,6.8,1,12.3-1.8,12.3s-3.5-5.9-3.5-12.7.7-11.9,3.5-11.9,1.8,5.5,1.8,12.3Z"/>
                </g>
                <g>
                  <path class="cls-11" d="M105.5,109.9c-2.4,6.4.8,13.6,7.2,16,6.4,2.4,13.6-.8,16-7.2,2.4-6.4-.8-13.6-7.2-16-6.4-2.4-13.6.8-16,7.2Z"/>
                  <g>
                    <path class="cls-9" d="M112.2,110s6.9-.2,11,7.9"/>
                    <path class="cls-9" d="M113.3,115.6s2.7-3,5.6-2.7"/>
                  </g>
                </g>
                <path class="cls-4" d="M210.3,107.5c-.5,4.3-5.7,1.5-12.4.7-6.7-.8-12.4.7-11.9-3.5.5-4.3,6.3-7.1,13-6.3,6.7.8,11.7,4.9,11.2,9.2Z"/>
                <path class="cls-4" d="M174.8,105c-.5,4.3-5.7,1.5-12.4.7-6.7-.8-12.4.7-11.9-3.5.5-4.3,6.3-7.1,13-6.3s11.7,4.9,11.2,9.2Z"/>
                <path class="cls-10" d="M156.7,126.6c2.2,1.3,3,3.8,2,5.6-1.1,1.7-2.5.5-4.7-.8-2.2-1.3-4.2-2.3-3.1-4,1.1-1.7,3.7-2,5.8-.7Z"/>
              </g>
              <path class="cls-17" d="M162.3,119c0,3.6,1.4,6.6,3.2,6.6s3.2-2.9,3.2-6.6-1.4-6.6-3.2-6.6-3.2,2.9-3.2,6.6Z"/>
              <path class="cls-17" d="M196.3,119c0,3.6,1.4,6.6,3.2,6.6s3.2-2.9,3.2-6.6-1.4-6.6-3.2-6.6-3.2,2.9-3.2,6.6Z"/>
              <g>
                <g>
                  <g>
                    <circle class="cls-3" cx="258.3" cy="121.1" r="12.7"/>
                    <circle class="cls-3" cx="236.8" cy="121.1" r="12.7"/>
                  </g>
                  <circle class="cls-6" cx="264.1" cy="121.1" r="12.7"/>
                  <path class="cls-18" d="M242.6,108.5c-7,0-12.7,5.7-12.7,12.7s4.1,10.9,9.6,12.3l68.3,12.9v-58.8c-10.1-1.4-65.3,21-65.3,21Z"/>
                  <path class="cls-3" d="M242.3,119.3c0-4.8,1.8-9.3,4.8-12.6-2.8,1.1-4.5,1.8-4.5,1.8-7,0-12.7,5.7-12.7,12.7s4.1,10.9,9.6,12.3l12.1,2.3c-5.6-3.3-9.4-9.4-9.4-16.4Z"/>
                  <circle class="cls-3" cx="309.1" cy="116.9" r="29.4" transform="translate(-13.9 47) rotate(-8.5)"/>
                  <circle class="cls-1" cx="314.4" cy="116.9" r="29.4" transform="translate(-14.7 52.2) rotate(-9.3)"/>
                  <circle class="cls-6" cx="314.4" cy="116.1" r="26" transform="translate(-17.2 67.2) rotate(-11.9)"/>
                  <path class="cls-3" d="M314.4,90.1c-1.1,0-2.2,0-3.3.2,12.8,1.6,22.7,12.5,22.7,25.8s-9.9,24.1-22.7,25.8c1.1.1,2.1.2,3.3.2,14.3,0,26-11.6,26-26s-11.6-26-26-26Z"/>
                  <path class="cls-16" d="M304.1,95.1c-.8.3-1.6.8-2.3,1.4-3.1,2.3-12.2,10-10.1,18,2.6,9.5,8.7-11.7,15.9-14.2,6.8-2.3,2.9-7.8-3.5-5.1Z"/>
                </g>
                <g>
                  <g>
                    <circle class="cls-3" cx="199.5" cy="121.1" r="12.7"/>
                    <circle class="cls-3" cx="178" cy="121.1" r="12.7"/>
                  </g>
                  <circle class="cls-6" cx="205.3" cy="121.1" r="12.7"/>
                  <path class="cls-18" d="M183.8,108.5c-7,0-12.7,5.7-12.7,12.7s4.1,10.9,9.6,12.3l68.3,12.9v-58.8c-10.1-1.4-65.3,21-65.3,21Z"/>
                  <path class="cls-3" d="M183.5,119.3c0-4.8,1.8-9.3,4.8-12.6-2.8,1.1-4.5,1.8-4.5,1.8-7,0-12.7,5.7-12.7,12.7s4.1,10.9,9.6,12.3l12.1,2.3c-5.6-3.3-9.4-9.4-9.4-16.4Z"/>
                  <circle class="cls-3" cx="250.3" cy="116.9" r="29.4" transform="translate(-15.6 41.9) rotate(-9.3)"/>
                  <circle class="cls-1" cx="255.6" cy="116.9" r="29.4" transform="translate(-20.1 62.4) rotate(-13.4)"/>
                  <circle class="cls-6" cx="255.6" cy="116.1" r="26" transform="translate(-19.9 62.3) rotate(-13.4)"/>
                  <path class="cls-3" d="M255.6,90.1c-1.1,0-2.2,0-3.3.2,12.8,1.6,22.7,12.5,22.7,25.8s-9.9,24.1-22.7,25.8c1.1.1,2.1.2,3.3.2,14.3,0,26-11.6,26-26s-11.6-26-26-26Z"/>
                  <path class="cls-16" d="M245.3,95.1c-.8.3-1.6.8-2.3,1.4-3.1,2.3-12.2,10-10.1,18,2.6,9.5,8.7-11.7,15.9-14.2,6.8-2.3,2.9-7.8-3.5-5.1Z"/>
                </g>
                <path class="cls-7" d="M212.2,137.5c-4.8-8.6-12.9-28.1,4.2-41.2.5-.4.8-.9.8-1.5h0c0-1-.9-1.9-1.9-1.9h-3.9c-5.4,0-10.5,2.7-13.5,7.2-5.3,8.1-10,22.1,4.7,38,.9,1,2.1,1.7,3.4,1.9l3.9.8c1.9.4,3.3-1.6,2.4-3.3Z"/>
              </g>
              <path class="cls-8" d="M175.3,159.2s20.3,44,65.6,38.6"/>
              <g>
                <path class="cls-13" d="M175.3,159.2s57.5,13.2,65.6,38.6c0,0-28.7,17.6-46.8-6-18.1-23.6-18.8-32.5-18.8-32.5Z"/>
                <path class="cls-14" d="M186,175.3l10.3-28s-8.5-20.9-5.6-26.1c3-5.3,13.1,13.6,13.1,13.6,0,0-4.3-15.1,1.5-16.8,5.9-1.7,12.5,17.8,12.5,17.8,0,0-7-15.3-.2-17.8,6.8-2.4,10.6,25.3,23.3,26.8,12.7,1.5,15.4,2.5,11.6,11.1-3.8,8.6-20.7,30.1-22.4,41.5,0,0-33.3.3-44-22Z"/>
                <path class="cls-2" d="M128.1,276.8l47.2-117.6h0c10.8,22.8,33.5,37.6,58.8,38.4l6.8.2-59.5,119.4-53.3-40.4Z"/>
                <path class="cls-8" d="M35.1,278.1l88.7,78.7c13.4,11.9,34.4,7.7,42.2-8.5l70.2-141.3"/>
                <path class="cls-8" d="M84.1,230.3s25.7,26.6,41.8,47.8"/>
                <path class="cls-8" d="M170.2,181.2c0,2.2,1.8,4,4,4s4-1.8,4-4-1.8-4-4-4-4,1.8-4,4Z"/>
              </g>
            </g>
            <path class="cls-8" d="M305.1,264.3s-9.8,5.1-9.2,20"/>
          </g>
          <path class="cls-4" d="M173.9,76.8c-11.9,7.2-26.4,11.6-39.7,7.9-1.9-.5-3.9-1.4-4.7-3.2-.5-1.1-.4-2.3,0-3.5,1.4-5.9,6.5-10.3,11.8-13.2,8-4.4,17.1-6.7,26.3-6.8,3.5,0,24.3,1.1,18.7,8.7-3,4.2-8,7.4-12.3,10.1Z"/>
          <path class="cls-4" d="M200.6,89.9c-13.5-3.1-27-10-34-22-1-1.7-1.9-3.7-1.1-5.6.4-1.1,1.4-1.9,2.4-2.6,5.1-3.3,11.8-2.8,17.7-1.3,8.8,2.4,17,7.1,23.6,13.4,2.6,2.5,16.7,17.7,7.4,19.3-5.1.9-10.9-.2-15.8-1.4Z"/>
        </g>
      </g>
    </g>
  </g>
</svg>