<?xml version="1.0" encoding="UTF-8"?>
<svg xmlns="http://www.w3.org/2000/svg" version="1.1" xmlns:xlink="http://www.w3.org/1999/xlink" viewBox="0 0 600 600">
  <defs>
    <style>
      .cls-1 {
        fill: #f7e355;
      }

      .cls-2 {
        fill: #010102;
      }

      .cls-3 {
        fill: #96242d;
      }

      .cls-4 {
        fill: url(#linear-gradient-2);
      }

      .cls-5 {
        fill: url(#linear-gradient-4);
      }

      .cls-6 {
        fill: #434145;
      }

      .cls-7 {
        fill: url(#linear-gradient-3);
      }

      .cls-8 {
        fill: #7979c7;
      }

      .cls-9 {
        fill: #fdb903;
      }

      .cls-10 {
        fill: #0c0a0e;
      }

      .cls-11 {
        fill: #fefefe;
      }

      .cls-12 {
        fill: #f3f3f1;
      }

      .cls-13 {
        fill: url(#linear-gradient);
      }
    </style>
    <linearGradient id="linear-gradient" x1="-264.8" y1="872.3" x2="-265.7" y2="875.7" gradientTransform="translate(1039.3 3172.5) scale(2.9 -2.9)" gradientUnits="userSpaceOnUse">
      <stop offset="0" stop-color="#3f3c42"/>
      <stop offset="1" stop-color="#6f6d71"/>
    </linearGradient>
    <linearGradient id="linear-gradient-2" x1="-282.2" y1="873.3" x2="-282" y2="875" gradientTransform="translate(1039.3 3172.5) scale(2.9 -2.9)" gradientUnits="userSpaceOnUse">
      <stop offset="0" stop-color="#555256"/>
      <stop offset="1" stop-color="#757476"/>
    </linearGradient>
    <linearGradient id="linear-gradient-3" x1="-232.6" y1="870.5" x2="-233.3" y2="875.4" gradientTransform="translate(1039.3 3172.5) scale(2.9 -2.9)" gradientUnits="userSpaceOnUse">
      <stop offset="0" stop-color="#454441"/>
      <stop offset="1" stop-color="#55525b"/>
    </linearGradient>
    <linearGradient id="linear-gradient-4" x1="-325.4" y1="1001.9" x2="-330.8" y2="944.2" gradientTransform="translate(1039.3 3172.5) scale(2.9 -2.9)" gradientUnits="userSpaceOnUse">
      <stop offset="0" stop-color="#120e3f"/>
      <stop offset="1" stop-color="#b2aeff"/>
    </linearGradient>
  </defs>
  <!-- Generator: Adobe Illustrator 28.7.1, SVG Export Plug-In . SVG Version: 1.2.0 Build 142)  -->
  <g>
    <g id="Layer_1">
      <g>
        <path class="cls-13" d="M231.6,597c11.6-.2,23.1,0,34.7.1l-.5.5c1.7.9,5.5.3,7.6.6,3,1.5,7.4.8,10.8.9v.3c-15.5,0-31.3,1-46.6.1l-.3-.8c-1.4-.5-3.1-.4-4.6-.4.6-.6,1.1-.6,1.9-.8h0c-1.1,0-2-.3-3-.7Z"/>
        <path class="cls-4" d="M194,599l1.3-.4.2-.5c-3.9-1.2-11,.5-15.4-.4-.7-.2-1.8-.3-2.2-.9h3.4c16.8.2,33.6.1,50.5.2,1,.4,1.9.7,3,.8h0c-.8,0-1.3.1-1.9.7,1.5,0,3.2-.1,4.6.4l.3.8c-6.6,0-13.2,0-19.8-.2-7.9.2-15.9-.3-23.8-.5Z"/>
        <path class="cls-6" d="M217.9,599.4c-.4-.2-.2-.2-.7-.2-.9,0-1.5,0-2.3-.5,2-.9,14.6-.3,17.9-.3,1.5,0,3.2-.1,4.6.4l.3.8c-6.6,0-13.2,0-19.8-.2Z"/>
        <path class="cls-8" d="M78,70.1c1.1,0,2.2,0,3.2.4,2,.6,3.7,1.9,4.5,3.6.1.2.2.4.3.6,0,.2.1.4.2.6,0,.2.1.4.1.7,0,.2,0,.4,0,.7,0,.2,0,.4,0,.7,0,.2,0,.4,0,.7,0,.2,0,.4-.2.7,0,.2-.1.4-.2.6-1,2.3-2.9,3.5-5.3,4.4-1.1,0-2.4-.1-3.5-.5-2.1-.6-3.9-2.1-4.8-3.9,0-.2-.2-.4-.3-.6s-.1-.4-.2-.6c0-.2,0-.4-.1-.6,0-.2,0-.4,0-.7,0-.2,0-.4,0-.7,0-.2,0-.4.1-.6,0-.2.1-.4.2-.6,0-.2.2-.4.2-.6,1.1-2.4,3.2-3.4,5.7-4.2Z"/>
        <path class="cls-9" d="M417.4,40.9l.2.2c-.1.4,0,.5-.3,1-1.3,2.9-4.5,7.2-6.3,10.1-1.9,3.1-3.7,6.9-6.4,9.4-1.1,1-2.4,1.8-3.8,2.3-2.9,1.1-6.2,1.6-9.2,2.3-5,1.2-9.9,2.5-14.8,4.1l-.3-.4c4.5-4.3,9.5-8.1,14.3-12.1,2.9-2.4,5.8-5,8.9-7.1,5.6-3.6,11.8-6.6,17.7-10Z"/>
        <path class="cls-9" d="M385.2,98.4c9.1-.2,18.2,0,27.3,0,6.1,0,12.4-.2,18.5.4-1.2,1.1-2.3,2.1-2.9,3.5-1.5,3.4,0,6.3,1.4,9.5l-.3.2c-10-1.1-20.2-5.3-29.7-8.3-5.3-1.6-10.7-2.8-15.9-4.7v-.5c0,0-.4.3-.4.3h-.1c.6-.6,1.4-.5,2.2-.6Z"/>
        <path class="cls-9" d="M427.4,74.6c4.1-.5,8.7.2,12.8.4,4.6.2,9.1.2,13.7.1-4.2,1.3-8.4,2.7-12.5,4.1-5.2,1.9-10.6,4.3-16.2,5-5.5.7-11.5.2-17.1,0-9-.4-18.3-.7-27.3-.5,4.8-1.4,9.7-2.2,14.6-3.2,10.6-2.4,21.1-4.9,32-6Z"/>
        <path class="cls-7" d="M266.4,597.1c18.5,0,36.9-.1,55.4-.4,6.5-.1,12.9-.6,19.4-.7,12.4-.2,24.9,0,37.4-.2,10.3-.2,20.5-.3,30.8-.3,4.5,0,9.5-.4,13.9.3l-.3.6c3.8,1.4,12.9-.2,16.4,1.6-5.9.4-11.8.4-17.7.5-13.4.3-26.8.5-40.2.5-32.4.5-64.9.7-97.3.6v-.3c-3.3-.1-7.7.6-10.7-.9-2.1-.3-5.9.3-7.6-.6l.5-.5Z"/>
        <path class="cls-10" d="M311.5,598.2c3,0,5.9,0,8.9.5v.2c-3.3.2-6.7.3-10.1.3l1.2-.9Z"/>
        <path class="cls-2" d="M273.5,598.3c12.7,0,25.4-.2,38.1,0l-1.2.9h-26.1c-3.4-.1-7.8.7-10.8-.9Z"/>
        <path class="cls-9" d="M386,21.7c1.6-5.8,9-15.8,12.3-21.7-1.7,7-4,13.9-6.1,20.9,4.8-.3,9.7,0,14.5.2,19.1.6,36.1,3.4,54.5,8.2,27.8,7.4,52.7,18.3,74.5,36,38.1,30.9,61,71.1,64.2,117.8.2,3.1.2,6.3.2,9.4,0,3.1-.2,6.3-.5,9.4-.3,3.1-.6,6.2-1.1,9.3-.5,3.1-1.1,6.2-1.8,9.2-.4,1.6-.6,4.1-1.5,5.4-.2-2,.4-4.4,1.1-6.2,1.4-3.7,1.5-8.6,2-12.5,3.7-29.2-3.2-59.7-17.4-85.8-23.8-43.9-61.5-73.1-112.1-88.7-25-7.7-50.6-11.7-77-10.7-1.6,5.1-2.2,10.8-4.2,15.8-.3.8-.7,1.5-1.2,2.1-1.9,2.4-4.3,4.5-6.4,6.9-3,3.3-5.7,6.9-8.8,10.1,3.6-10.9,7.2-24.8,14.5-34.1l.5-1.1Z"/>
        <path class="cls-1" d="M189.4,29c5.4,0,10.9-.2,16.3.4,0,4.4.2,8.8.5,13.2,4.1.6,8.4.9,12.5,1.3,0,4.6,0,9.2.3,13.7-4.3.5-8.7.6-13,1.2-.5,4-.2,8.2-.5,12.2-5.2-.2-10.4-.2-15.6-.1-.2-2.7.8-9.5-.9-11.6-1.5-1.8-9.7-1.6-12.4-2.1-.2,0-.3,0-.5,0,0-4.4-.1-8.8-.2-13.2,4.3-.3,8.7-.8,13-1.4.5-4.4.3-9,.6-13.5Z"/>
        <path class="cls-2" d="M49.5,548.6l.7-.2c7.2,2.6,16,3.6,23.6,4.8,2.5.4,5.5.6,7.8,1.3.6.2.7.3,1.1.7h.3c-1.2,3.3-2.4,6.6-3.7,10l.2.9c3.5,1.8,7.4,3.1,11.2,4.5,10.7,4.1,21.4,7.9,32.5,11.1,4.5,1.3,10.6,2.1,14.7,3.9.9.4,1.2.8,1.4,1.7.6,2-.1,4.9,1,6.6,1.3.7,2.4.5,3.9.5l.9.4c-2,1.3-13.9,1.4-17.4,2.2-.9.2-1.7.2-2.6.3-18.2.6-37.1-.3-55.4-.3-16.1,0-32.1-.2-48.2-.8-7.2-.2-14.5,0-21.7-.7.5-.2.6-.2,1.2,0,.1,0,.3,0,.4.1l-.3-.3c10.4-.8,21.1-.5,31.5-.5.3-4.2,2.9-18.9,4.3-23,1.1-.6,2.4-.4,3.7-.5,2.7-7.6,5.5-15.2,8.7-22.6Z"/>
        <path class="cls-9" d="M50.2,548.4c7.2,2.6,16,3.6,23.6,4.8,2.5.4,5.5.6,7.8,1.3.6.2.7.3,1.1.7h.3c-1.2,3.3-2.4,6.6-3.7,10h-.2c-.3.3-.4.4-.8.7-2.1,1.3-5.1,2.1-7.4,3-10.8,4.3-18,5.9-29.3,2.5,2.4-7.9,5.6-15.3,8.6-23Z"/>
        <path class="cls-2" d="M214.6,553.4c12,.6,23.9,1.1,35.9,1.5-1,3.1-1.4,7.6-3.9,10,6,2.7,12.6,4.6,18.9,6.7l35,11.5c3.9,1.3,8.3,2.3,12,3.9.9.4,1.8.8,2.1,1.7.6,1.4.4,3.6.4,5.1,18.3-.4,36.6,0,54.9,0l115.1.9c18.1.3,36.1.4,54.2.5,10.3,0,21-.5,31.2.5v.2c-5.1.6-10.3.3-15.4.4l-29.7.3c-11.1.1-22.2.1-33.4.4-10.6.3-21.1.7-31.7.7-6.4.6-14.4.7-20.8.3-3.5-1.8-12.6-.1-16.4-1.6l.3-.6c-4.4-.7-9.4-.3-13.9-.3-10.3,0-20.5.1-30.8.3-12.4.1-24.9,0-37.4.2-6.5.1-12.9.6-19.4.7-18.5.3-36.9.5-55.4.4-11.6-.2-23.1-.4-34.7-.1-16.8,0-33.6,0-50.5-.3h-3.4c.4.6,1.5.8,2.2,1,4.4.9,11.5-.8,15.4.4l-.2.5-1.3.4c-15,0-30.1-.8-45.1-1.2-7.8-.2-15.9.4-23.6-.6.9,0,1.7,0,2.6-.3,3.4-.8,15.3-.9,17.4-2.2l-.9-.4c5.3-.8,11.4-.3,16.7-.2,14-.6,29.4,0,43.6,0,1.5-6.8,2.2-13.8,3.8-20.5.2-1,.4-1.4,1.3-1.9.7-1.3,3.9-15.1,4.9-18.2Z"/>
        <path class="cls-6" d="M423.2,595.7c12.2-.2,24.4,0,36.7,0,6.6,0,20-.7,25.7.3-.4.5-1.1.4-1.7.5-3.5.4-7.4,0-11,0-6.4,0-12.7,0-19.1.4,1.1.7,4.9.5,6.4.6-6.4.6-14.4.7-20.8.3-3.5-1.8-12.6-.1-16.4-1.6l.3-.6Z"/>
        <path class="cls-6" d="M144.3,594.4c5.3-.8,11.4-.3,16.7-.2h-.4c-2.7.3-6.4-.1-8.9.6,3.5,1.3,43-.5,51.8,1v.3c-4.4.6-9.1.3-13.5.2-7-.2-14-.3-21.1-.2-4.1,0-8.4-.2-12.5.3,3.6.3,23.2-.3,24.8.5h-3.4c.4.6,1.5.8,2.2,1,4.4.9,11.5-.8,15.4.4l-.2.5-1.3.4c-15,0-30.1-.8-45.1-1.2-7.8-.2-15.9.4-23.6-.6.9,0,1.7,0,2.6-.3,3.4-.8,15.3-.9,17.4-2.2l-.9-.4Z"/>
        <path class="cls-9" d="M214.6,553.4c12,.6,23.9,1.1,35.9,1.5-1,3.1-1.4,7.6-3.9,10-7.5,5.8-18.3,9.8-28.1,9-3.1-.2-6-1-8.7-2.3.7-1.3,3.9-15.1,4.9-18.2Z"/>
        <path class="cls-5" d="M67.2,219.4c.1,0,.3,0,.4,0,.7-.1,1.2-.3,1.9-.5,1.7.6,2.5,2.4,3.2,3.8,2,4,4.3,8.3,5.8,12.5,1.2,3.5,1.9,7.2,2.8,10.8,1.3,5,2.8,10,4,15,1.4,5.6,2.5,11.2,3.9,16.7,2.6,10.9,4.7,22.5,5.9,33.6.9,6.3,1.8,12.6,1.9,19,3,1,6.1,1.5,9.2,2.3-.3,4-.8,8-1,12-1.3,4.3-1.4,9.5-1.9,14l-3.7,29.1-1.2,5.9c-2.7-1.5-5.4-2.9-7.9-4.5-24.8-15.6-44.5-43.7-50.1-70.7,0,0,0-.1-.1-.2-2.1-5.9-3.7-33.2-1.4-39,0-.3,0-.6,0-.9,1.2-15.2,16.1-48.6,28.4-58.8Z"/>
        <path class="cls-2" d="M189.4,122.6c-.5-1.1-.8-2.3-.8-3.6,0-1.2.3-2.3,1.4-3.1,3.1-2.1,8.3-3.1,11.9-4.3,5.5-1.8,44.4-13.3,46.1-15-.2-.7-.7-2.3.1-2.7,2.7-1.7,7.1-1.8,10.1-3.1,6.5-2.9,13.1-7.5,19-11.3,17.6-11.4,34.2-25.8,45.1-42.9,2.3-3.7,3.1-7.9,5.4-11.5,2.4-3.7,4.6-4.8,9-5.7,5.8,1.6,8.3,3.9,11.7,8.4,12.5-2.7,24.6-5.1,37.4-6.2l-.5,1.1c-12.3,1.2-24.4,2.9-36.4,6,3.8,7,6.8,14.1,9.9,21.4,5.8,13.9,10.8,27.7,14.7,42.2.6,2.1,3.1,16.1,4.3,16.8,3.8,8.7,6.2,28,2.4,36.6-.9,2.1-2.4,4.1-4.9,4.9-2.3.8-5,.6-7.2-.4-2.2-1-4.1-2.5-6.5-3.3-19.2-6.6-67.2-13.9-87.8-12.8.7,3,2.4,5.6,3.3,8.5.3,1.2-.3,2.3,0,3.5.3,1.1,1.7,2.6,2.5,3.5.2,4.8,0,9.3-.7,14.1-1.2.9-2.1,1.8-3,2.9.3,1.8.4,3.6.5,5.5,1.6,0,3.1,0,4.6.6,1.2,1.5-.8,10.5-1,12.8-1.5,17-1.9,34.2-5.2,51-1.6,8.4-4.2,18.6-12.2,23.8-3.3,2.2-7.1,2.8-11.1,2.1-14.8-2.6-30.8-16.1-41.8-25.2,4.1,15.6,8,31.2,13.1,46.6,1.3,4,2.7,8,4.3,11.9,1.4,3.3,3.2,6.7,4,10.1-.9,1-1.8,1.9-2.6,2.9-.1,0-.2,0-.3,0-.6,0-1.1-.3-1.7-.6-2.1.1-7.6,2.3-8.8,3.8-.5.6-.8,1.4-1.1,2-.6,0-1.1-.2-1.7-.5,0,.6,0,.6.3,1.1l-.3.8c-.2,0-.4.1-.5.2-.7.2-1.4.6-2,1-3.4,1.9-7.1,2.3-10.6,3.7-1.4.5-2.4,1.9-3.7,2.3-3.4.9-7.2,1-10.6,1.9-6.8,1.7-13.4,3.8-20.2,5.3-6.4,1.4-12.8,2.3-19.3,3.1-3.5.4-6.9,1.1-10.4,1.1-.3-.7-.2-.4-.4-1.1h-.6c-.5.6-.8,1.2-1.2,2-1-.2-1-1.3-1.8-1.3-2.9-.1-7.8,1.5-10.9,1.9-3.8.4-9.8,0-13.2.8-1.9,2-1.3,4.2-2.7,6l-.5-.6c.2-.9,0-.3.4-1.2.2-.6.3-1.2.4-1.9.2-1.7.6-2.4,2.1-3.5,2.9-.6,6.2.4,9.1.3,4.4-.1,8.6-1.2,12.9-2.1,1.7-.4,5.1-1.4,6.6-.7l.4.6c2.8,0,5.5-.4,8.3-.7,17.6-1.8,34.6-6.9,51.8-10.9.3-.4.5-.8.9-1.1.4-.3,10-2.9,11.4-3.4,1.4-.4,2.6-1.8,3.2-3,.2-.4.3-.9.5-1.4.7-.2,1.3-.3,1.9-.3l.4-.7-.2-.3c-1.3.5-2.7,1.1-4.1,1.4-3.1.5-5.8,2.4-9,2.9-3.2.5-10.4,4.3-13.1,3-.2-.6-.3-1.1-.4-1.7l-.3.3c0,.2,0,.3,0,.5,0,.8-.2,1.2-.5,1.9-2.5,1.3-5.9,1.8-8.7,2.5-10,2.6-20,5-30.3,6.6-2.5.4-8.4.7-10.3,1.3-5,1.5-35.7,2-40.5-.3-.9-.4-1.1-.9-1.3-1.7,0-.3-.1-.9-.2-1.2-.4.7-.4,1.2-.1,1.9.3.9,1.1,1.5,2,1.8,2.2.9,5.3.4,7.2,2-.1,4-.3,8.1-1,12h-.5c.2-4,.7-8,1-12-3.1-.8-6.1-1.3-9.2-2.3-.1-6.3-1-12.7-1.9-19-1.2-11.1-3.3-22.7-5.9-33.6-1.4-5.5-2.5-11.2-3.9-16.7-1.2-5-2.7-10-4-15-.9-3.6-1.5-7.3-2.8-10.8-1.5-4.2-3.7-8.5-5.8-12.5-.7-1.4-1.5-3.3-3.2-3.8-.6.2-1.2.4-1.9.5-.1,0-.3,0-.4,0l2.4-3c-1.4-4.6-2.9-9.1-3.2-13.9-.5-6.9,1.7-13.9,6.8-19.1,7.5-7.7,32.7-20.8,43.9-21.4.9-4.3,1.7-8.5,2.3-12.8-6.3-7.7-14.8-14.6-17.5-24.4-1.3-4.6-1.3-10.3,1.5-14.4,2.3-3.2,5.8-4.7,9.7-5.4,6.7-13,16.1-3.1,26.2-8.2,4.8-2.4,7.2-6.8,8.8-11.4,4.2,3.8,7.2,9,7.5,14.4.3,4.5-1.4,7.6-4.5,10.9,5.2,10.7,9.9,24.2,6.2,35.9-2.6,2.4-4.6,3.8-8,4.9,0,3.4.3,6.8.5,10.2,8.5,2.2,17.1,4,25.5,6.5,4.3,1.3,8.3,3.3,12.5,4.5.6-.2,1.1-.4,1.8-.2.4,0,.9.2,1.3.3,1.8-2.3,2.7-6.3,3.9-9,2.9-6.6,5.9-13.3,9.5-19.6-1.1,0-2.3.2-3.4,0-3.3-.7-4.8-3.6-6.5-6-3,1.1-9.3,4-12.5,2.9-3.1-1.1-5-11.2-6.1-14.2,4.4-1.8,8.9-3.1,13.5-4.4Z"/>
        <path class="cls-12" d="M186,174.5c.8,0,.9,0,1.5.3-.1,1.6-1.7,3.6-2.6,5l-2.3-2c1-1.2,2.2-2.3,3.4-3.4Z"/>
        <path class="cls-12" d="M205.3,143.6c4.8-1.7,9.6-3.2,14.6-4.4-.1.1-.3.2-.4.3-1.3,1-3.5,1.3-5,1.7,2,.3,4.4-.5,6.2.2-4.2,1.1-6.9.6-10.9,2.7-1.5-.2-2.9-.4-4.4-.6Z"/>
        <path class="cls-11" d="M257.6,128.5c.8,0,.9,0,1.7.3-.4,1.3-3.7,3.2-4.8,4.1-.1,0-.2.2-.3.3l-.5-.3c-1.2-.9-2.5-1.5-3.9-2.2l7.9-2.2Z"/>
        <path class="cls-8" d="M174.2,169.2c3.6.9,7.1,2.3,10.6,3.5v.3s-1.5,1.1-1.5,1.1c-.5.5-.7.6-1.4.9-3.2-1-5.5-3.7-7.7-5.8Z"/>
        <path class="cls-9" d="M278.1,155h.2c.6.7.6,1.6.6,2.5,0,1.2-.5,2.4-1.5,3.2-1.2.8-2.6.7-3.9.6-.4-.2-.9-.4-1.2-.7-.7-.7-.8-1.2-.8-2.1,1.1-2,4.5-2.7,6.6-3.5Z"/>
        <path class="cls-9" d="M259,132.2c.2,0,.4,0,.6,0,1.8,0,9.3.7,10.4,1.7l-3,1.3c-1.4.7-3.2,1-4.8,1.3-1.8-.6-3.6-1.3-5.4-2,.6-.8,1.4-1.6,2.1-2.4Z"/>
        <path class="cls-9" d="M265.4,139.9c1.7-3,4.7-3.8,7.5-5.7l1.5,4.2c-3.3.1-5.6,1.8-8.6,2.7-1.5.5-2.9,1.2-4.4,1.9-.4-.8-1-1.9-1-2.8,0-1.1.8-2.2,1.7-2.8.8-.2,1.4-.4,2.2,0,1.1.5,1,1.5,1.2,2.5Z"/>
        <path class="cls-11" d="M257.1,166.5c5.9,1.8,11,2.5,17.3,2.5l-.6,3.9c-6.1.4-11.2-.6-16.9-2.3l.3-4.1Z"/>
        <path class="cls-9" d="M272.9,139h1.2c1.3,1,1.9,2.4,2.6,3.7-3.9,1.8-7.9,3.5-11.9,5.2-.2,0-.4,0-.6,0-.7,0-1.7-.9-2.1-1.3-.6-.7-.5-1.3-.4-2.2,1.9-3,7.8-4.3,11.3-5.5Z"/>
        <path class="cls-11" d="M189.3,176.2c.4.2.9.7,1.3,1,2.8,2.4,7.6,5.7,11.4,6.5,1,.2,2.2,0,3.2.2.7.1,1,.3,1.3.9-.6,1.1-1.7,1.8-2.7,2.6-.5.1-1,.2-1.5.2-5.4.3-11.7-3.6-15.6-6.6l2.6-4.7Z"/>
        <path class="cls-9" d="M275.6,143.7c.7,1.4,1.4,2.8,1.8,4.4,1.3,1.4,2,2.3,1.9,4.2-.7,1.6-2,2.2-3.7,2.9-2.4.9-4.9,1.6-7.4,2.5l-1.9-3.8c3.1-1.3,8.8-2.9,10.8-5.4-3.1,1-6.9,4-10.2,3.8-1.1,0-1.7-.2-2.3-1-.5-.6-.3-.7-.2-1.3,2.3-2.8,7.9-4.5,11.2-6.2Z"/>
        <path class="cls-11" d="M150,163.6l10.3,2.3c.4,4.3,2.6,8.8,3.8,13.1-.7.4-1.4.2-2.2.2-3.1-.6-11.4-1.6-13.5-3.2-.4-.3-.5-.7-.4-1.2,0-.7.8-1.8,1.1-2.5,1.3-3,1.5-5.5,1-8.6Z"/>
        <path class="cls-11" d="M323,38.3l-.8,5.2c-.2.2-.3.4-.5.5-2.3,2.7-3.9,5.8-6.2,8.6-9.8,11.5-21.8,21.5-34.7,30-6.3,4.2-13.1,7.6-19.3,12l-.7-3.5c23.5-13.1,48.5-30.4,62.2-52.8Z"/>
        <path class="cls-9" d="M244,137.3h.6c0,0,.1-.2.2-.2,1-.9,2.2-1.7,3.6-1.8.6,0,1,.2,1.5.4,2.2,2.5,3,5.8,4.3,8.7,1.6,3.4,8.5,18.2,10.7,20.4,1.6,1.6,3.6,1.9,5.4,3.1-2.5-.4-11.6-1.2-12.9-2.5-2.2-2.1-.8-4.2-6.4-8.2-1.3-3-5.9-18.4-7.1-19.4v-.4Z"/>
        <path class="cls-11" d="M114.6,164.5c1.2,0,2.4,0,3.6.4,3.4,1,6.8,2.8,10,4.3,5.1,2.4,10.1,4.8,15.1,7.2,0,0,0,0,0,.1-2,4-4.5,7.7-6.9,11.5l-2.3,3.9c-8.9-7.9-16.1-17.4-24.6-25.7,1.7-.7,3.5-1.2,5.3-1.8Z"/>
        <path class="cls-9" d="M335.7,76.2c.8,0,1.7-.1,2.5,0,3.9,0,7.1,2,9.7,4.5.3.2.5.5.8.8.2.3.5.5.7.8.2.3.5.5.7.8.2.3.4.6.6.9.2.3.4.6.6.9.2.3.4.6.5.9.2.3.3.6.5.9.2.3.3.6.4,1,.1.3.3.6.4,1,.1.3.2.7.3,1,0,.3.2.7.3,1,0,.3.1.7.2,1,0,.3.1.7.2,1,0,.3,0,.7,0,1,0,.3,0,.7,0,1,0,.3,0,.7,0,1-.2,3.9-1.5,6.7-4.6,9.3-1.3.8-2.7,1.5-4.2,2-.8.3-1.6.4-2.4,0-3.4-6.1-8.6-22.6-9.9-29.5.6-.8,1.7-1,2.7-1.2Z"/>
        <path class="cls-11" d="M162.1,166.5c12.3,2.6,9.8,3.7,19.2,9.7-5.1,9.6-11.6,18-18.5,26.5h-.7c-3.5-8.2-7.7-15.8-12.7-23.3,5.8.6,11.7,1.9,17.4,3.1-1.2-5.4-3.4-10.6-4.8-15.9Z"/>
        <path class="cls-11" d="M378,109.2c.6,4,1.7,8,2.3,12,1.2,7.3,2,19.4-2.3,25.9-.9,1.3-2.1,2.4-3.8,2.8-3,.6-6.4-1.1-8.7-2.7-19.9-12.9-36.5-56.3-40.3-78-2-11.5-3.5-34.3,4.4-43.9,2.3-2.8,4.9-3.7,8.6-4.1,6.7,2.5,8.7,5.9,12.1,11.3,1.7,3.1,3.2,6.3,4.3,9.6-3.3-5.1-7.3-12.5-13-15.6-1.7-.9-3.6-1.3-5.6-.8-2.4.6-4.2,2.4-5.3,4.4-6.4,11.6-2.5,36.2.6,49.1,1.1,4.3,2.6,8.6,4,12.9,4.8,14.4,20,46.8,34.9,54,1.5,0,3.8,0,5-.9,5.2-4,4.3-20,3.6-25.7-.4-3.3-1.3-6.8-1.3-10l.5-.3Z"/>
        <path class="cls-9" d="M222,142.7c1.1.2,1.8.2,2.6,1,0,1.2-.5,2.2-.8,3.3l-.3.3c-1.9,1.6-4.1,2.8-5.8,4.6,1.3-.3,4.9-2.2,5.7-3.3.4-.5.6-1.1.9-1.6.2-.5.4-.6.9-.9,1.1.5,1.1,1.2,1.5,2.2.4,1.1.5,1.9-.2,2.9-1.3,2-5,3.1-5.9,5.1,1,0,1.7-.3,2.4-.8,1.1-.9,1.8-2.2,3.3-2.7,1,.2,1.6.5,2.2,1.2.5.6.6,1.2.3,1.9-.9,2.2-4.5,3.5-6.4,5.1,1.8-.8,5-2.6,6.9-1.8.5.2.6.6.9,1.1-.2,1.6-1.5,2.6-2.8,3.6-3.2,2.4-8.3,4.5-10.2,7.9-4.4,3.1-7.3,8-11.8,11.3-5.1-1.4-10-3.5-13.7-7.1,2.7-10.3,8.5-20.5,13.4-30,2.5-.2,5.3-1.4,7.7-1.3.4.6.7,1.3,1.1,2,.9.2,1.4,0,2.2-.3,1.8-1,2.9-2.8,5-3.3.2,0,.4,0,.6-.1.2,0,.3,0,.5,0Z"/>
        <path class="cls-9" d="M128.6,113.4c7.7.9,14.3.9,21.6-1.9,3.4,6.9,10.2,25.1,7,32.5-.6,1.4-1.7,2.3-3.2,2.9-6,2.3-17.3,1.7-23.3-.7-2-.8-3.9-1.9-5.8-3,1.4,2.7,3.9,4,6.4,5.7,5.8,2.4,9.9,3.8,16.4,3.3.2,5.8,1.7,12,.7,17.7-.3,1.9-.7,3.6-2.5,4.8-2.7.7-23.9-9.7-27.8-11.5,2.3-5.2,3-11.3,4.2-16.7.4-2,.6-3.9.9-5.9-.3-1.1-.3-1.8-1.4-2.5-.1,0-.2,0-.4-.1-2-.8-4.6-4-5.4-5.8-.7-1.8-1.1-3.6-.4-5.4.7-.6.9-1,2-1.1,1.3-.1,3.2.7,4,1.6,1.5,1.5,2.1,4.3,4,5.3,1.1,0,1.1,0,2-.5,3.3-4.8.9-13.2.9-18.6Z"/>
        <path class="cls-11" d="M87.5,175.9c6.4-3.7,13.1-6.7,20.3-8.9,9.3,8.9,17.3,19,26.3,28.2,2.6-3.4,7.2-12.1,10.5-14,1,0,1.3-.1,2.2.5,3.8,2.6,8,23.5,9.2,28.7-5.5,7-11.1,14.2-17.2,20.7-9.3-9-15.7-18.8-23.2-28.9-1.2-2-2.9-4-4.3-5.9-1.9-2.6-3.6-5.2-5.3-7.9-2.9-4.6-6.3-10.2-12.3-11.6-1.9-.4-4-.3-5.8-.8-.2,0-.3,0-.5-.1Z"/>
        <path class="cls-3" d="M248.6,98.3c1.8,4.1,2.3,8.8,3.7,13.1,1.8,5.5,4.4,10.8,6.2,16.3l-.4.5c-7.2.3-21.4,5.2-28.7,7.3-5.1,1.5-10.3,2.7-15.3,4.2-4,1.2-8.7,3.2-12.8,3.5-2.6-1.5-3.9-3.8-5-6.4-1.5-3.6-6.7-16.5-5.1-19.7,4-2.8,12.7-4.6,17.8-6.2,13.2-4.2,26.6-8.1,39.7-12.6Z"/>
        <path class="cls-11" d="M248.8,131.2c.8.6,1.4,1.1,2,1.9-1.6,1.2-4.4,0-6.1,1.8-.7.8-.7,1.4-.7,2.4v.4c-.2,2.3,5.1,18.7,6.7,20.1,1.2,1.1,2.5,2.1,3.8,3.2.4,2.2,1,4.4,1.2,6.5-.4.6-.9,1.9-1.6,2-.6.1-1.2.1-1.9.1-3.1,2.7-9.5,39.2-10.3,45.2-2.6-.6-7.2-6.5-9.9-8.2-2.4-2.8-5.6-5.2-8.5-7.5-5.1-4.2-10.2-8.4-15.1-12.8.6-1.5.7-2.5.4-4-.3-1.7,7-8.2,8.1-10.8,4.1-2.6,8.7-2.9,12.5-6.1,1.1-1,2.4-2.3,2.3-3.8,0-1.2-.9-2-1.8-2.8,0,0-.8-.7-.9-.8-.4-.7,1-2.9,1.3-3.7-.4-.4-.8-.7-1.2-1.1-2.7-2.5-1.3-9.5-4.4-11.4-1-.6-3.1-.6-4.3-.5-1.7-.6-4.2.1-6.2-.2,1.6-.4,3.8-.7,5-1.7.1-.1.3-.2.4-.3,3.6-1.9,23.7-6.7,28.8-8Z"/>
        <path class="cls-11" d="M202.9,199.4c1.1,2.4.9,6.1,1.2,8.7.6,6.1,1.3,17.6,3,23,.8,6.9,2.6,13.9,4.2,20.7,3.5,14.3,7.5,28.5,12.9,42.3,1.6,4,3.5,7.9,5.2,11.9-12.9,4.5-25.5,9.2-38.8,12.6-2.3-8.6-4-17.4-5.9-26.2-1.7-7.6-3.5-15.3-5.1-22.9-1.6-7.7-2.4-15.6-4.5-23.2,5.4-7.4,10.4-15.1,15.1-22.9,4.6-7.8,8.9-15.8,12.8-24Z"/>
        <path class="cls-3" d="M252.7,171.9c8.9,2.2,18.3,5,27.5,2.1-4.1,17.9-2.8,74.5-18.9,84.4-3.2,1.9-6.9,2-10.5,1.3-12.2-2.5-25.6-12.9-35.1-20.3-2.2-1.7-5.3-3.6-6.9-5.8-.3-.5-.5-.9-.8-1.4-.1-.2-.2-.4-.3-.7l-.2-.5h-.5c-1.6-5.4-2.4-16.8-3-22.9-.3-2.6,0-6.3-1.2-8.7,2.3-3.9,3.9-8.2,5.3-12.4,4,3.8,19.8,17.9,23.8,19.9,2.7,1.7,7.3,7.5,9.9,8.2-1.5,10.7-4.7,22.1-2.4,32.8,2.4-8.6,2.8-17.8,4.1-26.6,2.5-16.6,5.2-33,9.2-49.4Z"/>
        <path class="cls-3" d="M261.6,94.6c6.1-4.4,13-7.8,19.3-12,12.8-8.5,24.9-18.6,34.7-30,2.3-2.7,4-5.9,6.2-8.6.2-.2.3-.4.5-.5,0,.1,0,.2,0,.3,1,6.9,0,14.8,1.1,22.4,3.6,25.4,17.5,58.2,35.7,77.8-8.8-.9-17.7-3.8-26.5-5.4-9.5-1.7-19-3-28.5-4-9.6-1-19.2-1.7-28.8-2.1-5.7-12.4-10.5-24.6-13.7-37.8Z"/>
        <path class="cls-11" d="M79.8,236.1c3.1,2.2,8.2,9.3,11.2,12.4,8,8.3,17.3,16.4,26.8,23.1,5.4,3.8,14.8,9.9,22.1,8.9,11.4-1.6,27.6-24.4,34.2-32.8,4.1,17.7,6.3,35.8,11.1,53.4,1.4,6.1,2.7,12.2,4,18.3-6.3,1.3-12.5,3.3-18.7,4.8-17.2,4.1-34.3,6.5-52.1,6.6-6.7,0-13.6.2-19.9-1.9,0-6.7-1.2-13.4-2.1-20.1-3.3-23.5-9.2-49.9-16.5-72.7Z"/>
        <path class="cls-2" d="M171.2,271.4c.7.1,1.3.3,1.9.6.8.4,1.5,1,1.7,1.9.3,1.2-.5,2-1.2,2.9-1,0-2.4,0-3.2-.6-.7-.5-1.1-1.1-1-2,.1-1.1,1-1.9,1.8-2.7Z"/>
        <path class="cls-2" d="M174.9,299.2c1,0,2,.2,2.8.8.7.5,1.1,1.2,1.1,2,0,1-.8,1.9-1.5,2.6-.9,0-1.8.2-2.6-.3-.5-.3-.8-.8-1-1.3-.4-1.6.2-2.5,1.1-3.8Z"/>
        <path class="cls-3" d="M204.6,190.1c-3.4,10.7-10.5,22.3-16.5,31.9-7.6,12.2-33,48.8-45.6,54.8-2.3,1.1-4.5.9-6.8.2-19.2-5.8-52.1-39-61.7-55.8-5.1-8.9-8.3-19.5-4.7-29.4,3-8.4,10.2-12.1,18.3-15.9.2,0,.3,0,.5.1,1.8.5,3.9.4,5.8.8,6,1.3,9.4,7,12.3,11.6,1.7,2.7,3.4,5.3,5.3,7.9,1.4,1.9,3.2,3.9,4.3,5.9.1,4,10.6,18.1,13.6,21.7,2.6,3.1,5.4,6,8.4,8.7-2.7,2.6-5.8,2.9-9.2,4.4-2.3,1-4.4,2.5-6.3,4.1-.8.7-2,1.6-2.4,2.5-.4.9-.3,1,0,1.9,1.7-.5,4.1-3.7,5.7-4.9,2.6-1.8,5.2-2.7,8.2-3.6-2.9,3.8-6.7,7.1-8.6,11.5h.4c1.9-1.1,3.9-2.8,5.2-4.5,5-6.3,9.8-12.8,14.9-19.1,5.7-7.1,11.9-13.9,17.6-21,6.4-8,12.5-16.1,18.3-24.5.2.3.4.5.6.7,5.2,5.7,14.3,9.4,22.2,10Z"/>
        <path class="cls-10" d="M215.3,314.7c-.3-.5-.4-.5-.3-1.1.6.3,1,.4,1.7.5.3-.6.7-1.5,1.1-2,1.2-1.5,6.7-3.7,8.8-3.8.6.2,1.1.5,1.7.6.1,0,.2,0,.3,0,2.3,5.6,5.5,10.9,8.4,16.3,2.1,3.8,4.3,7.6,6.3,11.5,2.4,3.3,4.1,7.1,6.1,10.5,4.3,7.2,8.5,14.5,12.7,21.8,8.5,14.9,17.9,31.5,20.8,48.2,3.2,18.2-2.9,43.6-7,61.7-3.5,15.7-7.2,31.4-11.2,46.9-2,7.7-3.7,15.4-6.2,23-.4,1.9-.7,4.4-2.6,5.5-1.6.9-3.7.7-5.5.7-12-.4-23.9-.9-35.9-1.5-1,3.1-4.1,16.9-4.9,18.2-.9.6-1.1.9-1.3,1.9-1.6,6.8-2.3,13.7-3.8,20.5-14.2,0-29.5-.5-43.6,0-5.3,0-11.5-.6-16.7.2-1.5,0-2.6.2-3.9-.5-1.1-1.7-.4-4.6-1-6.6-.2-.9-.5-1.3-1.4-1.7-4.1-1.8-10.2-2.6-14.7-3.9-11.1-3.2-21.8-7-32.5-11.1-3.7-1.4-7.6-2.7-11.2-4.5l-.2-.9c1.3-3.3,2.5-6.7,3.7-10h-.3c-.3-.3-.5-.5-1.1-.7-2.4-.7-5.4-.9-7.8-1.3-7.6-1.2-16.4-2.2-23.6-4.8l-.7.2c-1.7-1.1-5.1-1.7-7.2-2.3,1.3-3.3,2.6-6.5,4.5-9.5,4.6-10.8,9.6-21.5,14.2-32.3,2.5-5.9,4.7-11.9,7.1-17.8,8.7-21.3,17.2-42.9,23.6-64.9,2.7-9.3,4.6-18.9,6.7-28.3l1.2-5.9,3.7-29.1c.6-4.5.6-9.7,1.9-14h.5c.7-3.9.8-8,1-12-1.9-1.6-4.9-1.1-7.2-2-.9-.3-1.6-1-2-1.8-.3-.7-.2-1.3.1-1.9,0,.3.1.9.2,1.2.2.8.4,1.3,1.3,1.7,4.8,2.4,35.5,1.8,40.5.3,1.9-.6,7.8-.9,10.3-1.3,10.3-1.6,20.3-4,30.3-6.6,2.7-.7,6.2-1.2,8.7-2.5.3-.7.5-1.1.5-1.9,0-.2,0-.3,0-.5l.3-.3c0,.6.2,1.1.4,1.7,2.7,1.2,9.9-2.5,13.1-3,3.2-.5,5.9-2.4,9-2.9,1.4-.2,2.8-.9,4.1-1.4l.2.3-.4.7c-.7,0-1.3.1-1.9.3-.1.5-.2.9-.5,1.4-.6,1.2-1.8,2.6-3.2,3-1.4.4-11,3.1-11.4,3.4-.4.3-.6.7-.9,1.1-17.2,4-34.1,9.1-51.8,10.9-2.8.3-5.5.7-8.3.7l-.4-.6c-1.5-.7-4.9.3-6.6.7-4.3.9-8.5,2-12.9,2.1-3,0-6.2-.9-9.1-.3-1.4,1.1-1.9,1.8-2.1,3.5,0,.7-.1,1.3-.4,1.9-.3.8-.1.3-.4,1.2l.5.6c1.4-1.8.8-4,2.7-6,3.4-.9,9.4-.4,13.2-.8,3.1-.4,8-2,10.9-1.9.8,0,.8,1.1,1.8,1.3.4-.7.7-1.4,1.2-2.1h.6c.2.8,0,.4.4,1.2,3.5,0,6.9-.7,10.4-1.1,6.5-.8,12.9-1.7,19.3-3.1,6.8-1.5,13.4-3.7,20.2-5.3,3.5-.9,7.3-1,10.6-1.9,1.3-.3,2.4-1.8,3.7-2.3,3.6-1.3,7.2-1.8,10.6-3.7.7-.4,1.3-.7,2-1,.2,0,.4-.1.5-.2l.3-.8Z"/>
        <path class="cls-2" d="M237,325.1c2.1,3.8,4.3,7.6,6.3,11.5,0,0,0,0-.1,0-1.2-.4-1.5-1-2.2-2-1.2-1.5-2.9-1.8-4-3.4h.2c-.6-1.4-.3-4.3-.2-6Z"/>
        <path class="cls-3" d="M207.2,552.8c.6-3.4.4-6.9,1-10.3,2,0,4.1,0,6,0,8.6.6,17.2,1.3,25.9,1.7,5.9.3,12.7,0,18.4,1.2.3,1.1,0,2,.2,3.2-.4,1.9-.7,4.4-2.6,5.5-1.6.9-3.7.7-5.5.7-12-.4-23.9-.9-35.9-1.5-2.5,0-5-.4-7.4-.6Z"/>
        <path class="cls-3" d="M46.8,536.8c1.6,1.5,3.5,1.2,5.6,1.9,12.4,3.4,25.5,5.5,38.4,6.7,5,.5,10.1.5,15.1,1.1-1.9,3.2-3.8,6.4-5.8,9.5-2.8-.1-15.4-1.5-17.1-.8h-.3c-.3-.3-.5-.5-1.1-.7-2.4-.7-5.4-.9-7.8-1.3-7.6-1.2-16.4-2.2-23.6-4.8l-.7.2c-1.7-1.1-5.1-1.7-7.2-2.3,1.3-3.3,2.6-6.5,4.5-9.5Z"/>
        <path class="cls-2" d="M221.3,430.5c1.8,1.7,8.5,7.3,8.6,9.3h-.5c-.5.2-1,.3-1.5.5-1.9,2.8,0,4.6-.9,6.4h-.7c-.3,2.2,1.5,11.6,1.7,15.1.5,9.7-.2,19.5-1.3,29.1-1.3,10.4-3.1,20.9-5.9,31.1-.8,2.8-1.6,5.7-2.6,8.4-.6,1.6-1.5,3.1-1.8,4.8-.4,2.3-.2,4.9.3,7.2l-2.4.4c-2-.2-4,0-6,0,2-18.9,4.4-37.9,7-56.7,2.6-18.3,6.2-36.8,6.2-55.3Z"/>
        <path class="cls-2" d="M99.5,387.6c.9,1.3,1.6,2.9,1.8,4.5.4,3.8-.9,7.6-1,11.4,0,3.5,1.3,11.9.7,14.5-1.9,8-3,16.1-5.1,24.1-1,4-2.6,7.9-3.8,11.8-2.1,6.7-4.5,13.3-6.8,20-1.4,4-2.7,8.1-4.3,12.1-3.9,9.3-8.2,18.5-12.8,27.5-1.8,3.6-5.4,12.1-7.7,14.9-2.8,1.1-5.6,1.4-8.1,3.1-.7,2.2-1,3.7-.2,6,.2.5.3.8,0,1.3-2.1-.6-4-.4-5.6-1.9,4.6-10.8,9.6-21.5,14.2-32.3,2.5-5.9,4.7-11.9,7.1-17.8,8.7-21.3,17.2-42.9,23.6-64.9,2.7-9.3,4.6-18.9,6.7-28.3l1.2-5.9Z"/>
        <path class="cls-11" d="M173.2,379.3c4,4.2,48,50.6,48,50.7,0,.2,0,.4,0,.5,0,18.5-3.6,37-6.2,55.3-2.7,18.9-5,37.8-7,56.7-.5,3.4-.4,6.9-1,10.3,2.4.2,5,.6,7.4.6-1,3.1-4.1,16.9-4.9,18.2-.9.6-1.1.9-1.3,1.9-1.6,6.8-2.3,13.7-3.8,20.5-14.2,0-29.5-.5-43.6,0-5.3,0-11.5-.6-16.7.2-1.5,0-2.6.2-3.9-.5-1.1-1.7-.4-4.6-1-6.6-.2-.9-.5-1.3-1.4-1.7-4.1-1.8-10.2-2.6-14.7-3.9-11.1-3.2-21.8-7-32.5-11.1-3.7-1.4-7.6-2.7-11.2-4.5l-.2-.9c1.3-3.3,2.5-6.7,3.7-10,1.6-.7,14.3.7,17.1.8,2-3.1,3.9-6.3,5.8-9.5,14.4-26.4,27.8-53.2,40.3-80.4,3.8-8.2,9-17.7,11.9-26.1,4.4-12.5,8.3-25.7,11-38.6,1.6-7.3,2.5-14.8,4.1-22.1Z"/>
      </g>
    </g>
  </g>
</svg>