<?xml version="1.0" encoding="UTF-8"?>
<svg xmlns="http://www.w3.org/2000/svg" version="1.1" viewBox="0 0 600 302.4">
  <defs>
    <style>
      .cls-1 {
        fill: #15345f;
      }

      .cls-2 {
        fill: #0d234f;
      }

      .cls-3 {
        fill: #2d81b3;
      }

      .cls-4 {
        fill: #bde6fc;
      }

      .cls-5 {
        fill: #1c6d95;
      }

      .cls-6 {
        fill: #031a3e;
      }

      .cls-7 {
        fill: #162d5e;
      }

      .cls-8 {
        fill: #96242d;
      }

      .cls-9 {
        fill: #f2f7fc;
      }

      .cls-10 {
        fill: #132958;
      }

      .cls-11 {
        fill: #094b5b;
      }

      .cls-12 {
        fill: #737f92;
      }

      .cls-13 {
        fill: #fe976f;
      }

      .cls-14 {
        fill: #152e5d;
      }

      .cls-15 {
        fill: #50a3cd;
      }

      .cls-16 {
        fill: #3975a0;
      }

      .cls-17 {
        fill: #378cbd;
      }

      .cls-18 {
        fill: #2b91a0;
      }

      .cls-19 {
        fill: #52b0d4;
      }

      .cls-20 {
        fill: #d5ebfc;
      }

      .cls-21 {
        fill: #196890;
      }

      .cls-22 {
        fill: #8d8288;
      }

      .cls-23 {
        fill: #1e3264;
      }

      .cls-24 {
        fill: #d1dbe4;
      }

      .cls-25 {
        fill: #1c7a99;
      }

      .cls-26 {
        fill: #dfecfb;
      }

      .cls-27 {
        fill: #f7fcfd;
      }

      .cls-28 {
        fill: #f4f7fc;
      }

      .cls-29 {
        fill: #152d5c;
      }

      .cls-30 {
        fill: #e6e7ee;
      }

      .cls-31 {
        fill: #02173b;
      }

      .cls-32 {
        fill: #2a547e;
      }

      .cls-33 {
        fill: #324879;
      }

      .cls-34 {
        fill: #f6f8fc;
      }

      .cls-35 {
        fill: #8f5141;
      }

      .cls-36 {
        fill: #a5acbb;
      }

      .cls-37 {
        fill: #162d5f;
      }

      .cls-38 {
        fill: #1e5a7a;
      }

      .cls-39 {
        fill: #172d5e;
      }

      .cls-40 {
        fill: #fe9971;
      }

      .cls-41 {
        fill: #f98a5f;
      }

      .cls-42 {
        fill: #f1f2f9;
      }

      .cls-43 {
        fill: #f87438;
      }

      .cls-44 {
        fill: #044b59;
      }

      .cls-45 {
        fill: #dcc8c7;
      }

      .cls-46 {
        fill: #4eafd2;
      }

      .cls-47 {
        fill: #2d537c;
      }

      .cls-48 {
        fill: #f8fcfd;
      }

      .cls-49 {
        fill: #2a4274;
      }

      .cls-50 {
        fill: #5b3534;
      }

      .cls-51 {
        fill: #193465;
      }

      .cls-52 {
        fill: #c0e9fc;
      }

      .cls-53 {
        fill: #054a59;
      }

      .cls-54 {
        fill: #43638b;
      }

      .cls-55 {
        fill: #deeefb;
      }

      .cls-56 {
        fill: #2a527a;
      }

      .cls-57 {
        fill: #1b7f9d;
      }

      .cls-58 {
        fill: #517ba4;
      }

      .cls-59 {
        fill: #fb9267;
      }

      .cls-60 {
        fill: #031a3f;
      }

      .cls-61 {
        fill: #ecf0f3;
      }

      .cls-62 {
        fill: #fb753e;
      }

      .cls-63 {
        fill: #d6ebfc;
      }

      .cls-64 {
        fill: #6e413d;
      }

      .cls-65 {
        fill: #172d5f;
      }

      .cls-66 {
        fill: #bbe7fc;
      }

      .cls-67 {
        fill: #172e60;
      }

      .cls-68 {
        fill: #374b7c;
      }

      .cls-69 {
        fill: #034a58;
      }

      .cls-70 {
        fill: #fcfcfd;
      }

      .cls-71 {
        fill: #0a4d67;
      }

      .cls-72 {
        fill: #1d7f9f;
      }

      .cls-73 {
        fill: #fbf8f5;
      }

      .cls-74 {
        fill: #f3835a;
      }

      .cls-75 {
        fill: #e9f6f8;
      }

      .cls-76 {
        fill: #fdfdfe;
      }

      .cls-77 {
        fill: #bbe7fd;
      }

      .cls-78 {
        fill: #a2afbb;
      }

      .cls-79 {
        fill: #9f4940;
      }

      .cls-80 {
        fill: #f2f7fb;
      }

      .cls-81 {
        fill: #76171e;
      }

      .cls-82 {
        fill: #173656;
      }

      .cls-83 {
        fill: #1e3265;
      }

      .cls-84 {
        fill: #172e5f;
      }

      .cls-85 {
        fill: #f7f8fc;
      }

      .cls-86 {
        fill: #dbcdcd;
      }

      .cls-87 {
        fill: #e8f5f8;
      }

      .cls-88 {
        fill: #034d5e;
      }

      .cls-89 {
        fill: #f7f8fb;
      }

      .cls-90 {
        fill: #207b9c;
      }

      .cls-91 {
        fill: #fd9a70;
      }

      .cls-92 {
        fill: #182d5e;
      }

      .cls-93 {
        fill: #e0ecfa;
      }

      .cls-94 {
        fill: #0e2352;
      }

      .cls-95 {
        fill: #537ca5;
      }

      .cls-96 {
        fill: #207f9f;
      }

      .cls-97 {
        fill: #bae7fc;
      }

      .cls-98 {
        fill: #32497a;
      }

      .cls-99 {
        fill: #392c3f;
      }

      .cls-100 {
        fill: #eff5fc;
      }

      .cls-101 {
        fill: #b6d6d9;
      }

      .cls-102 {
        fill: #deeaf2;
      }

      .cls-103 {
        fill: #456c95;
      }

      .cls-104 {
        fill: #f0f5fb;
      }

      .cls-105 {
        fill: #fe986d;
      }

      .cls-106 {
        fill: #f1f5fb;
      }
    </style>
  </defs>
  <!-- Generator: Adobe Illustrator 28.7.1, SVG Export Plug-In . SVG Version: 1.2.0 Build 142)  -->
  <g>
    <g id="Layer_1">
      <g>
        <path class="cls-26" d="M224.9,168.6c-.5-1.6-.6-3.1-.1-4.8.2-.8.1-1.8.1-2.6,0-37.2,0-74.3,0-111.5,0-4.2,1.7-5.9,5.9-5.9,29.1,0,58.3,0,87.4,0,3.3,0,5.6,1.7,5.5,5.5-.2,5.7,0,11.5,0,17.3,0,1.7.5,2.1,2.1,2.1,8.1,0,16.2,0,24.3,0,.2.9-.6.9-1.1,1-.8.2-1.6,0-2.4,0-26.6,0-53.3,0-79.9,0-1.7,0-3.4,0-4.9-.9-1.5-.9-2.4.4-3.5,1.1-3,.8-6,.4-9,.4-6.3,0-6.3,0-6.3,6.3,0,18.4,0,36.8,0,55.3,0,.9,0,1.8,0,2.7.2,2.2.8,2.8,3,2.9.9,0,1.8,0,2.7,0,24,0,47.9,0,71.9,0,1.4,0,2.8-.3,4,.7-.8.6-.9,1.4-.9,2.3,0,5.2,0,10.4,0,15.6,0,1.6.5,2.8,1.8,3.7-.2.6,0,1.3-.4,1.9-.3.6-.3,1.3-.3,1.9.3,5-.6,10-.4,15,0,3.1-.5,3.5-3.6,3.5-1.4,0-2.8,0-4.2,0-7.8.2-15.5,0-23.3,0-1.3,0-2.5-.2-3.5-1.1-1.3-1.2-3-1-4.6-1-4.6-.2-9.2.4-13.7-.5-6-1.2-12-.8-18.1-.8-9.1,0-18.3,0-27.4,0-.8,0-1.6,0-2.4-.1-.9-.2-1.6-.5-1.1-1.6.6-1,1.7-1.1,2.7-1.2,3.9-.6,7.9-1.1,11.9-1,5,0,9.6-1,13.8-3.9,1.4-1,2.7-2.1,3.8-3.4,2.5-1.7,5.2-3.1,7.7-4.9-3.1,1.4-5.8,3.4-8.8,4.8-3.1.5-6.1.8-9.2.6-.7,0-1.5,0-2.2-.3-.6-.2-1.1-.4-1.2-1.1,0-.7.5-1,1.1-1.2.3-.1,0,0,.2,0,.8-.5,2.5-.5,2-1.8-.4-1-1.7-.3-2.6-.1-4.8,1.2-9.6,2.1-13.8,5-.7.5-1.7,1.1-2.6.3Z"/>
        <path class="cls-45" d="M497.5,284.6c7.6,0,15.2,0,22.9,0,.8,0,1.8.3,2.5-.5,1.6,1,1.2,2.7,1.6,4.1.7,2.7.6,2.8,3.5,2.8,7.5,0,15,0,22.5,0,3,0,3,0,4-2.8.2-.7.4-1.4,1.2-1.8,8.2.2,16.4.9,24.6,1.7,5.6.5,11.1,1,16.5,2.3,1.3.3,3.3.3,3.4,1.9,0,1.9-2,1.9-3.3,2.2-4.6,1-9.2,1.6-13.9,2.1-6.5.6-13,1.2-19.5,1.7-2.7.2-5.4.1-8.1.4-4.4.4-8.8.3-13.2.6-11,.5-21.9.7-32.9,1-4.9.1-9.9,0-14.8.3-12.1.5-24.2,0-36.2.6-12.1.5-24.2,0-36.2.4-19.4.7-38.8,0-58.1.4-43.4.8-86.8.4-130.3.2-16.6,0-33.3.2-50-.4-10.5-.4-20.9.1-31.4-.4-9.2-.5-18.4,0-27.6-.5-6-.3-12.1,0-18.1-.4-8.4-.4-16.8-.5-25.1-.9-7-.3-14-.6-20.9-.9-9.5-.4-18.9-1-28.4-1.8-9.4-.8-18.9-1.4-28.1-3.5C2.3,293.1,0,293,0,291.4c0-1.6,2.2-1.7,3.7-2,6-1.3,12.2-1.7,18.3-2.2,6.8-.6,13.6-.9,20.4-1.2,1.3.6,1.2,2,1.4,3.1.3,1.4,1,2,2.4,2,8.1,0,16.2,0,24.3,0,1.4,0,2.1-.6,2.3-2.1.2-1.2.4-2.3.7-3.5.2-.8.2-1.7,1.2-1.9,4.8.7,9.6.2,14.4.3,2,0,4,0,6,0,3.8-.1,7.6,0,11.4,0,1,0,1.9,0,2.7.7.8.9.6,1.9.5,2.9-.3,2.3-.6,4.7-.7,7,0,.8-.4,1.9.9,2.1,1.4.2,1.7-.8,1.9-1.9.4-2.5.8-5.1,1.2-7.6.2-.9.3-1.9,1.1-2.6,1-.7,2.1-.7,3.2-.7,2.5,0,5,0,7.5,0,.8,0,1.6.1,2.2.7.7.9.6,1.9.4,2.9-.3,2-.6,4.1-.9,6.1-.1.8,0,1.5,1,1.6.9,0,1.4-.4,1.6-1.2.5-2.3.8-4.6,1.3-6.9.2-1.1.3-2.2,1.3-2.9,2.1-.7,4.4-.2,6.5-.4,4.2,0,8.4,0,12.6,0,5.1,0,10.3,0,15.4,0,1.3,0,2.5,0,3.5-1,1.5-.2,1.2,1,1.3,1.7.4,2.8.7,5.7,1,8.5,0,.7.2,1.3.3,2,.2,1,.8,1.3,1.8,1.2,1.1-.1,1.3-.8,1.2-1.7-.2-1.9-.3-3.8-.5-5.7-.1-1.5-.6-3.2.7-4.6,4.7-.7,9.4-.6,14.2,0,1.1.7,1.2,2,1.3,3.1.1,1.8.5,3.7.6,5.5,0,.6.2,1.2.3,1.7.2,1,.9,1.3,1.8,1.2,1.1,0,1-.9.9-1.6-.1-2.5-.5-5-.6-7.5,0-.9-.3-1.8.6-2.4,1-.5,2.1-.4,3.2-.4,4,0,8,0,12,0,.9,0,1.8,0,2.6.5.9.8.8,1.9.8,2.9,0,3.1,0,6.2,0,9.3,0,2.2.3,2.4,2.7,2.4,2.6,0,3-.2,3-2.4,0-3.2.2-6.3.5-9.5,0-.9-.1-2,.9-2.6,1.1.2,1.2,1.2,1.4,2,.4,2.1.7,4.2,1,6.3.2,1.5.9,2.2,2.5,2.2,9.6,0,19.3,0,28.9,0,.7,0,1.6.1,1.9-.8.3-.8,0-1.6-.4-2.3-.6-1-1.6-1.4-2.7-1.9-2.7-1.1-5.4-2-8-3.3-.8-.4-2.1-.6-1.6-2.1.7-.8,1.7-.8,2.7-.8,25.8,0,51.5,0,77.3,0,.1,0,.3,0,.4,0,12-.2,24,0,36,0,5,0,10,0,15,0,1.1,0,2.2,0,3.3.4,1.5,2.1,1,4.6,1.3,7,.2,1.8,0,3.7,0,5.5,0,1.6.6,2.3,2.2,2.2,1.4,0,2.9.2,4.1-1.1.9-.9,2.2-.5,3.4-.6,5.9.3,11.6-.1,17.2-2.2.9-.3,1.7-.2,2.5.3,1.3.8,2.5.9,3.1-1,.5-1.5,2-1.9,3.3-2.3,2.5-.7,4.2-1.8,4.2-4.8,0-1.5,1.2-2.7,2.7-3.2,1.4-.2,2.9-.5,4.1.8,1.1,2.8-.3,5.5,0,8.3,0,.4-.1.9-.2,1.3,0,.9,0,1.7,1.1,1.8,1,.1,1.7-.3,1.9-1.4.4-2.4.6-4.8.9-7.2.2-1.2.1-2.5,1.3-3.4.9-.4,1.9-.4,2.8-.4,12.9,0,25.7,0,38.6,0,.9,0,1.8,0,2.6.3,1.1.4,1.4,1.4,1.5,2.5.3,2,.7,4,1,6.1,0,.6.2,1.2.4,1.7.2.8.8,1,1.5,1,.9,0,1-.7.9-1.4-.2-2.3-.6-4.6-.8-7-.1-.9-.3-1.9.6-2.6,4.1-.7,8.2-.5,12.3-.1,1.1.5,1.3,1.5,1.4,2.5.3,2.3.7,4.6,1,7,0,.7.2,1.3.4,1.9.3.9.9,1.1,1.7,1,.9,0,.9-.8.9-1.5,0-2.5-.5-5-.7-7.4,0-1.1-.5-2.2.4-3.1Z"/>
        <path class="cls-26" d="M46.2,150.5c3.2-.5,6.1-1.7,8.7-3.4,1.5-.9,1.3-2.8,1.3-4.5,0-15.6,0-31.3,0-46.9,0-13,.1-26,0-38.9,0-2.8,1.2-4.1,3.2-5.4,10.3-6.6,21-12.5,32-17.8,4.2-2.1,4.3-2.1,4.3,2.5,0,15.5-.3,31,0,46.5.4,16.9.3,33.7.4,50.6,0,2.4.4,2.5,2.6,1.7,6.3-2.5,12.7-4.8,19.3-6.8,2-.6,3.8-1.5,5.8-2.1,4.1-1.2,8.5-1.6,12.4-3.6.4-.2,1-.1,1.5-.2.9.4,1.1,1.2,1.1,2,.1,5.4.1,10.9,0,16.3,0,.5-.1,1-.5,1.5-1.5.3-1.2-1-1.2-1.6-.2-1.7,0-3.4-.1-5-.2-1.4-1.1-.8-1.8-.6-3.1.8-5.8,2.6-8.7,3.7-9,3.4-18.2,6.3-27.4,9.4-1.9.6-3.1,1.4-2.9,3.7.1,1.3-.2,2.6-.8,3.9-.7.6-1.4.2-2,0-1.1-.4-2.2-.6-3.4-.3-6.1,1.3-10.7,4.7-14.5,9.4-6.4,7.8-11.8,16.2-16,25.3-1,2.2-1.8,4.5-2.4,6.9-1.2,4.8.3,8.4,4.3,11.3,1.5,1.1,3.3,1.7,4.6,3.1.1.2.2.5.2.7,0,1.5-.5,2.9-.9,4.3-2.2,8.8-3.3,17.7-3.4,26.8,0,1.2.2,2.5-.6,3.6-2,.8-4,.7-6,.1-1-.7-.8-1.8-.8-2.8-.3-7-.6-14-1.7-20.9-.9-5.8-2.2-11.6-4.2-17.1-.7-1.9-.6-3.5.7-5.1,4.6-5.8,5.5-12.6,4.4-19.7-1.4-9.3-4.3-18.2-7-27.1-.3-1-1-2-.3-3.2Z"/>
        <path class="cls-8" d="M222.6,176.6c-.6,1.9.8,1.4,1.8,1.4,9.9,0-10.9.5-1,.5,4.5,0-2.7.6,1.6,1.4,6.3,1.1-7.3,2.1-1,2.3.9,0-2.5-.3-1.6-.2.6,0,2.9.6,2.9,1.2,0,.8,2-1.2,1.4-1-.7.2-2.6,0-3.3,0-25.9.6,11.3,0-14.6,0-1.4,0-3-.3-4.3.6-.3.5-.3,1-.2,1.5.3,1.8-.5,2.6-2.1,2.9-7.3.5-14.6.9-21.7-1.7-.9-.3-1.8-.7-2.6-1.1-1.7-.8-3.4-1.8-4.9-2.9-1.2-.9-1.7-.7-2,.7-1.7,6.7-4.2,13-7.4,19.1-2.3,4.5-5.2,8.6-9.8,11.1-1.6.9-3.3,1.4-5.2,1.5-4.4,0-8.8-.1-13.2-.8-1.6-.2-2.6.4-3.8,1.1-1.1-1.1-.8-2.5-.6-3.8,1.1-11,2.5-22,4.4-32.9.9-3.9,1.3-8,2.3-11.9,2-8.9,4.3-17.7,7.9-26.2,1.4-3.2,3.1-6.2,5.5-8.7,5.1-4.6,11.1-7.3,17.6-9.3,2.8-.9,3.5-.5,4.4,2.5,2.8,4.7,5.3,9.4,5.9,15,.5,5,.6,10,.4,14.9-.1,3.1.8,5.7,2.7,8.1,1.5,1.3,1.8,3.1,2.8,4.7.7,1.2,1.2,2.5,2.1,3.6.8.9,1.8.8,2.9.7,1.2-.2,2.5-.4,3.7-.5,4.2-.2,8.4-.6,12.5-1,1.5-.2,2.9-.3,4.4,0,1.2.2,2.3,0,3.5-.2,1.8-.1,3.7-1.1,5.3.6.2.2,1,0,1.5-.1,2.3,1.8,2.1,4.3,2,6.8Z"/>
        <path class="cls-23" d="M436,187.6c2.8-1,5.5-2.1,8.3-3.1.8-.3.9-.7.8-1.5-1.8-9.5-2.5-19.1-2.7-28.8-.2-9,0-18,1.9-26.8.9-3.9,3.5-6.6,5.6-9.6.4-.5.8-.5,1.3-.4,6.1,1.8,12.3,3.7,17.8,7,5.8,3.4,8.3,9,9.7,15.2,1.8,8.1,2.7,16.3,2.8,24.5.9,1.6,1.1,3.4.9,5.1-.4,3.8-.1,7.6-.8,11.4-.5,2.8-1.1,5.5-2.6,7.9-2.3,1.9-1.2,4.3-.8,6.5.8,5.1,1.2,10.2,2,15.3.1.7,0,1.3-.2,1.9-.2.3-.5.6-.9.6-5.3,1.1-10.6,2-16,1.2-5.8-.9-10-4.4-13.5-8.9-1.3-1.6-2.5-2.2-4.5-1.4-1.6.7-3.4,1-5.1,1.6-2.4.8-3,.5-4-1.6-.4-.9-1-1.6-1.8-2.1,0-3.4-2-6.2-3-9.2-.3-.8-.8-1.6-.5-2.5,1.4-1.5,3.1-2.2,5.2-2.3Z"/>
        <path class="cls-4" d="M324.4,138.1c-26.2,0-52.3,0-78.5,0-3.1,0-3.9-.7-3.9-3.9,0-20.3,0-40.5,0-60.8,0-3.1.8-3.9,3.9-3.9,4,0,8,0,11.9,0,.6.2.9.8,1.3,1.2.9.9,1.9,1,2.7,0,.9-1.2,2.1-1.4,3.5-1.4,27.3,0,54.7,0,82,0,1.3,0,2.4.1,3.3,1.2.8,1,1.8,1.2,2.9.2.4-.3.8-.7,1.3-.8,2.2-.9,4.5-.3,6.8-.4,1.6,0,3.2,0,4.9,0,2.9,0,3.8.9,3.8,3.8,0,13.9,0,27.7,0,41.6,0,6.6,0,13.3,0,19.9,0,2.5-.8,3.3-3.3,3.3-14.2,0-28.5,0-42.7,0Z"/>
        <path class="cls-104" d="M172.9,124c-2.2-2.7-2.1-2.6-5.6-1.5-5.8,1.9-11.2,4.5-15.8,8.6-1,0-1.1-.9-1.2-1.6-.2-.9,0-1.9,0-2.9,0-37.2,0-74.5,0-111.7,0-1.4-.3-3,.7-4.3,7.5-2.2,15.2-3,22.8-4.5,4.4-.9,8.8-1.8,13.2-2.2,6-.6,11.8-2.2,17.8-2.7,3.3-.3,6.6,0,9.8-1.1.9-.3,2,0,3,.2-.9,1-2.1,1.3-3.2,1.5-4.7.7-9.4,1.5-14,2.5-.4,0-.7.2-1.1.1-5.1-.8-9.8,1.2-14.6,2.3-.4,0-.8.3-1.2.5-2,1.2-4.1,2.2-6.5,2.4-2.7.2-4,2.6-5.7,4.1-.5.5-.4,1.3-.2,1.9.7,1.6.1,3-.6,4.2-1.3,2-1,4-.4,6.1,1.8,6.5,3.8,13,4.1,19.9.2,4.7,1,9.6,3.1,14,.4.7.6,1.5.6,2.3,0,2.5,1.9,3.6,3.5,5,.3.3.9.3,1.2.6,1.7,2.6,3.8,4.3,7,4.5.7,0,.8,1.1.8,1.9.2,3.1.8,3.6,3.9,3.7.9,0,1.8,0,2.7,0,0,.7-1.3.5-1.1,1.5.7.4,1.2-.3,1.8-.4.5,0,1.1-.4,1.3.3.2.6-.4,1.1-.8,1.1-1.4,0-3.1,1.2-4-.9-.2-.4-.8-.8-1-.3-1.3,2.7-3.9,1.6-5.9,2.1-.4.1-.6.3-.8.6-.6.7-1.5.7-2.2.6-2.4-.2-4.7.4-6.9,1.1-6.4,1.7-9.6,6.8-8.7,13.4.5,3.6,1.6,7,3.1,10.3,1.1,2.5,2,5,2.3,7.8,0,.5,0,1,0,1.5-.3,2.3-1.1,4.7.2,7-.3.2-.7.3-1,.5Z"/>
        <path class="cls-83" d="M350,157.3c0-.9.3-1.4,1.4-1.5,9.5-1.3,18.9-2.7,28.4-3.9,1.1-.2,1.9-.7,2.7-1.3,9.9-7.6,19.9-15.2,29.7-22.9,5.6-4.5,12.2-6.6,18.9-8.6.5.6.5,1.1,0,1.7-1.7,2-1,4.5-1.2,6.7-.9,10.8-.6,21.7-.4,32.6.6.8.5,1.8.5,2.8,0,5.2,0,10.5,0,15.7,0,1.1.2,2.2-.9,3-1.4-1.2-1.3-3-1.7-4.6-1.7-6.7-2.8-13.6-3.4-20.5-.3-3.3-.7-6.7-.6-9,1,5.5.4,12,.6,18.6.2,5.5.9,11-.1,16.5-.2,1.3,0,2.6.2,4,.2,1.3.3,2.6-.1,3.9-1.1,1.2-2.2.5-3.3,0-.2-.2-.3-.4-.3-.6.4-1.5-.3-3,.3-4.5,0,0,.1-.1,0-.2,0,.2-.3.3-.5.3-.6-.4-.7-1.1-.7-1.8-.2-6.5-.7-12.9-.9-19.4-.1-2.9-.7-5.8-.4-9.3-2.9,1.7-5.3,3-7.7,4.3-6.6,3.6-13.3,6.8-20.5,9.2-1,.3-2,.5-3,.9-1.7.5-2.8.2-3.3-1.7-.2-.8-.6-1.5-1.5-1.8-1-.5-2.2-.1-3.2-.9-.5-.6-1.2-.8-2-.7-3.2,0-6.3,0-9.5,0-1.6,0-2.2.6-2.1,2.3.3,4.3.2,4.4-4.2,4.4-2.9,0-5.9,0-8.8,0-2.3,0-2.7-.4-2.9-2.9-.1-2.8,0-5.5,0-8.3,0-.9,0-1.7.6-2.5Z"/>
        <path class="cls-63" d="M150.9,10.7c0,39.2,0,78.5,0,117.7,0,.9-.4,1.9.5,2.7-5.1,5.6-7.2,12.7-9.4,19.7-1.5,4.9-2.7,9.9-4,14.8-.9-.6-1.1-1.5-1.1-2.5,0-6.3-.4-12.7.4-19,0-.7,0-1.5.7-2,0-5.7,0-11.4,0-17.2,0-.9,0-1.9-.5-2.8,0-34.8,0-69.6,0-104.4,0-2.2.7-3.3,2.8-3.9,3.5-.9,7-2.1,10.5-3.2Z"/>
        <path class="cls-58" d="M478.5,188.6c2.2-3.8,2.9-8.1,3.1-12.4.2-4,.6-8,0-12,1.4-3.9,1.5-8,2.1-12.1.2-1.4.6-2,2.1-2,5.9,0,11.8,0,17.7,0,1.4,0,1.8.3,1.6,1.8-1.3,9.8-2.5,19.5-3.8,29.3-1.4,11-2.8,22-4.2,33-.6,4.3-1.2,8.6-1.8,12.9-1.1.6-1.7-.2-2.2-.8-3.1-3.4-6.8-5.8-11.1-7.4-.9-.3-1.7-.8-2.1-1.8-.1-1.5-.8-3,0-4.6-.5-4.3-1-8.6-1.5-12.8-.2-1.7-.4-3.3-.6-5,.1-2-.3-4.2.8-6.1Z"/>
        <path class="cls-103" d="M480.3,217.3c1.6,1.3,3.6,1.5,5.3,2.5,2.8,1.5,5.3,3.3,7.4,5.6.6.7,1.1,1.6,2.2,1.6.2.5.4,1.1.7,1.6,2,3.7.6,6.3-3.7,6.4-1.1.8-2.3.6-3.5.6-1.1,0-2.1.2-3.2.4-3.8-.6-7.6-.7-11.4,0-2.3-.5-4.5-.6-6.8,0-1.4-.3-2.9-.3-4.4-.4-8.7,0-17.5,0-26.2,0-2.4,0-4.8-.2-7.1.8-1.3-.8-2.7-.7-4.1-.8-3-.2-6,.5-9-.4-.5-.7,0-.8.5-1.1,2.1-.4,4.2-.1,6.4-.2.8,0,1.4,0,1.3-1.1-.6-6.7,2.5-11.4,8.1-14.7,4.2-2.2,8.6-3.1,13.3-3.4,10.6-.6,21.1-.1,31.6,1.8.9.2,1.7.4,2.5.8Z"/>
        <path class="cls-49" d="M522.7,282c-1.2-6.3-2.3-12.7-3.5-19-.4-2.4-.8-4.8-1.3-7.1.7-.4,1.4-.3,2.2-.3,12.8,0,25.6,0,38.4,0,.7,0,1.5,0,2.2.3-1.6,8.9-3.2,17.7-4.7,26.6-3.9-.5-7.8-.2-11.7-.3-6.6,0-13.2,0-19.9,0-.6,0-1.2,0-1.7-.2Z"/>
        <path class="cls-49" d="M42,281.5c-1.5-6.1-2.3-12.4-3.5-18.6-.5-2.4-.8-4.8-1.3-7.1.5-.3,1.1-.3,1.7-.3,13.2,0,26.4,0,39.5,0,.3,0,.6,0,.9.1,1,.6.6,1.6.5,2.4-1.2,7.2-2.6,14.5-3.8,21.7-.2.9-.3,1.7-1.2,2.2-.8.4-1.6.2-2.4.3-8.1.1-16.1-.4-24.2.3-2.1.2-4.4.9-6.2-1Z"/>
        <path class="cls-21" d="M46.2,150.5c2.8,9.2,5.8,18.3,7.6,27.8,1.7,8.6.9,16.5-4.9,23.5-.5.7-.6,1.2-.3,2,2.5,7.4,4.3,14.9,5.2,22.7.7,6.5,1.1,13.1,1.1,19.6-.9.3-1.3-.2-1.7-.9-.3-8.5-.8-17-2.2-25.4-.9-5.5-2.6-10.8-4.1-16.2-2.5-7.1-4.6-14.3-6.7-21.5-4.6-15.2-8.6-30.5-13.2-45.7-.3-1.1-.7-2.1,0-3.2,5.8-1.4,12.5,1.9,15.4,7.6,1.6,3.1,2.6,6.4,3.8,9.6Z"/>
        <path class="cls-31" d="M173.4,115.2c-.7-4.8-3.2-8.9-4.5-13.5-.8-2.7-1.3-5.4-1-8.3.5-6.6,4.8-9.8,11.5-11.1,2.4-.5,4.7-.3,7-.5,3.5.2,6.9.3,10.4.5,1.5,0,2.7-.5,3.9-1.4,1.8-1.4,3-.9,3.4,1.5.9,4.9-1.2,8.6-6.2,10.8-.5.9-1.4,1.1-2.3,1.1-2.5,0-5,.7-7.5.4-1.3-.2-1.7.3-1.6,1.6.2,2.5,0,5-.2,7.5-.5,4.7,2.4,7.3,7.1,6.9,1.4-.1,2.6-1,4.1-.4.7,2.7.6,5.4,0,8-.9,3.7-4.4,5.4-8,4.1-.5-.2-1.1-.4-1.6-.6-3.8-1-5.2-4.1-6.1-7.4-.7-2.6-.9-5.4-.4-8.1.1-.6.2-1.2,0-1.8-.3-1.4-1.4-2.3-2.5-1.9-1.4.5-1.5,1.6-1.1,2.9.2.7.8,1.3,1.4,1.7,1.2.8,1.4,2,1,3.3-.8,2.9-3.9,5.1-6.5,4.6Z"/>
        <path class="cls-19" d="M27,133.3c.4,4,2,7.6,3.1,11.4,5.3,18.9,10.6,37.8,16.6,56.6.3.8.4,1.6.2,2.4-7.2-4.5-11.2-11.6-14.3-19.1-4.9-11.9-8.8-24.2-10.2-37.1-.4-3.9-.1-7.7,1.8-11.1.7-1.2,1.4-2.4,2.8-3Z"/>
        <path class="cls-81" d="M210.3,169.5c-1.4,1-3,.4-4.5.6-3.8.6-7.5.8-11.3,1.1-.5,0-1-.3-1.5-.4-1.4.2-1.7-1.2-2.4-1.9-1.7-1.6-3.4-3.2-4.3-5.5-.1-1.1-.3-2.1.3-3.1.2-9.2.5-18.4.7-27.7,1.1.4,1.6,1.3,2.1,2.1,7.1,11.5,14.1,23,20.8,34.7Z"/>
        <path class="cls-13" d="M430.6,115.7c-1-.6-1.8,0-2.8.2-4.1.7-6.6-.2-6.5-4.9,0-1.5-.3-2.9-.4-4.4,0-1-.4-1.5-1.4-1.6-1.5,0-1.7-1-1.2-2.1.8-1.9.9-3.8.9-5.8q.5-.9-.1-.9c-.4-3-.9-6.1-.4-9.2.6-.5,1.3-.4,1.9-.2,3.7.7,7.4.9,11.2.8,2.7,0,3.2.6,2.9,3.3-.4,3-.4,5.9,2.3,8,2.1.4,1.2-1.6,1.8-2.3,0-.2.2-.4.4-.6,1.2-1.1,2.5-1.2,3.7-.1,1.3,1.1,1.4,2.5.9,4-.2.6-.7,1.1-1.1,1.6-.9.8-1.8,1.7-2.1,3-1.2,4.5-4,7.9-8.2,10.1-.6.3-1.2.9-1.8,1.2Z"/>
        <path class="cls-5" d="M10.2,188.2c3.6-2.1,7.2-1.7,10.7.4,4.9,2.9,8.7,7,12.5,11.1,3.5,3.8,6.7,7.8,9.4,12.3,2.3,3.9,2.6,7.9,1.1,12.1-.3.8-.8,1.6-.4,2.6-.5.3-.8,0-1.1-.3-2.9-2.9-5.4-6.2-8.1-9.3-6.7-7.7-13.2-15.6-19.9-23.3-1.2-1.3-2.2-2.7-3.5-4-.4-.4-.9-.8-.6-1.5Z"/>
        <path class="cls-33" d="M542.1,240.3c0,.1,0,.3,0,.4.2,1.8-.8,4.3.5,5.2,1.2.9,3.5.3,5.4.3,4.3,0,8.5,0,12.8,0,1.9,0,2.4.6,2.2,2.3-.1,1.2-.2,2.5,0,3.7.2,1.8-.5,2.2-2.1,1.9-.9.6-1.9.7-3,.7-12.8,0-25.6,0-38.4,0-.6,0-1.2-.1-1.7-.2-2.5-.4-1.9-2.3-2-3.9q0-4.5,4.4-4.5c4,0,7.9,0,11.9,0,.7,0,1.6.4,2.2-.5.4-.4,1-.2,1.5-.2,2.1,0,1.1-1.8,1.5-2.8.4-.8-.5-2,1-2.4.4.2.6.6.8,1,.4,1.3,0,2.6.4,3.9.2.3.6.3.9.2.1-.1.3-.3.3-.4.1-1.1,0-2.2.1-3.3.1-.7.1-1.7,1.4-1.4Z"/>
        <path class="cls-98" d="M53.2,245.2c.6.3,1.1.6,1.7.9,2.1.3,4.1.2,6.2,0,.6-.5,1.3-.6,2-.6,5.5-.2,11-.1,16.5,0,2.3,0,2.9.6,3,2.9,0,1.2,0,2.3,0,3.5,0,2-.9,3-2.9,3.1-13-.2-25.9,0-38.9-.1-1.3,0-2.7.1-3.8-.7-1.6.3-2.2-.3-2-2,.2-1.9.1-3.8.2-5.6,4.1-.4,8.1-.2,12.2-.1,1.4,0,2.6-.9,4-.3.8,0,1.7.4,1.9-.9Z"/>
        <path class="cls-90" d="M527.1,179.7c-.2-.1-.3-.2-.5-.4.3-4,.1-8,.4-12,.2-3.1,2.3-5.3,5-6.7,1,.1,1.6-.6,2.5-.8,1.5-.5,3-.9,4.4.2,1.6,1.2,1,2.9.6,4.5,3.3-1.2,5-.7,7.6,2.1,2.2,2.4,2.7,5.4,2.2,8.3-.7,3.9-2.1,7.6-4,11.1-.4.3-.8.6-1.2.9-.7.7-1.3.7-1.7-.2.3-2.5-.4-4.8-1.5-7-.7-1.5-1.5-3-1.3-4.3,1.1,6.1.6,12.6.5,19.1,0,1.6-.5,3.2-.8,4.7-.2.8-.6,1.7-1.8,1.5-.4-.3-.3-.8-.3-1.2,0-8.8.3-17.7-.1-26.5,0-1.3,1-2.5.4-4.1-2.8,4-6.2,7.3-8.9,11.1-.5.2-.9.2-1.4-.2Z"/>
        <path class="cls-65" d="M485.5,236c.2-1,.9-.9,1.7-.9,1.7,0,3.4,0,5.1,0,.9,9.1,1.8,18.1,2.8,27.2.7,6.5,1.4,13,2.1,19.5.1.9.3,1.9.4,2.8.3,3.7.6,7.3,1,11,0,.9.4,2-1.1,1.7-1.1-.2-2.8.9-3-1.4-.4-3.4-.9-6.9-1.4-10.3,0-.4-.2-.7-.3-1-.7-.8-.8-1.7-1-2.7-2.1-14.3-4.4-28.7-6.4-43-.1-1-.5-2,.3-3Z"/>
        <path class="cls-40" d="M350,157.3c0,3.6,0,7.1,0,10.7-.1,0-.2.2-.4.2-5.6.5-9.5,4.4-14.1,6.9-3.6,1.9-3.6,2.1-6.5-1-2.3-2.4-3.6-5.3-4.4-8.5-.4-1.6.2-3.1.3-4.6,0-.5,0-1,.5-1.3,1.8,1.7,3.2,1.2,4.5-.6.5-.7,1.1-1.2,1.7-1.7,2.1-1.9,3.7-2,5.7,0,1.2,1.2,2.4,1.6,4.1,1.2,2.9-.6,5.8-.9,8.7-1.3Z"/>
        <path class="cls-10" d="M522.7,282c.8-.5,1.6-.5,2.5-.5,9.4,0,18.8,0,28.2,0,.9,0,2.1-.3,2.6.9-.1,1.3-.3,2.6-.4,3.9-.1.3-.3.7-.4,1q-1,4.3-5.3,4.3c-7.9,0-15.7,0-23.6,0-1.4,0-2.1-.3-2.2-1.9-.2-1.9-.8-3.8-1.2-5.8,0-.7-.1-1.4-.2-2Z"/>
        <path class="cls-62" d="M429,181.6c.6-6.4.3-12.8.5-19.1,0-.8,0-1.6,0-2.4,1.2-2.9.7-5.9,1.1-8.9.7-5.8,1.1-11.6,1.7-17.3.1-1.2.4-2.5-.1-3.5-1.4-2.3-.1-3.8,1.4-5.5,1,1.7,1.8,2.9,1.3,5.2-.6,3-.2,6.3,0,9.5.2,6.6.5,13.2.7,19.9.2,9.4.4,18.8.6,28.3-1.6.8-3.3,1.5-4.9,2.3-1.5,1.5-1.8,1.4-2.4-.4-.1-.4-.3-.8-.3-1.3,0-2.2-.8-4.5.6-6.6Z"/>
        <path class="cls-10" d="M42,281.5c2.3.8,4.7.5,7,.3,8.4-.7,16.7-.4,25.1-.2.3,0,.6-.1.9-.2.6.8.6,1.5-.1,2.2-.7,2-1,4.1-1.3,6.2-.2,1.2-.5,1.8-1.9,1.8-8.8,0-17.5,0-26.3,0-1.3,0-1.8-.4-1.9-1.7-.1-1.4-.3-2.8-.9-4.1-.2-1.5-.3-2.9-.5-4.4Z"/>
        <path class="cls-64" d="M437.3,99.6c-2.9-1.3-4.2-4.5-3.5-8.4.6-3.1.6-3.1-2.5-3.1-4.3,0-8.5-.2-12.7-1.3-2.3-1.1-4.5-2.2-5.9-4.5-.6-1-1.2-2-1.3-3.2-.1-1.4.3-2.2,1.9-1.7,2.6.7,5.2.4,7.5-.8,5-2.5,9.8-1.1,14.7.4,2.4,1.6,2.7,3.9,2.9,6.7.3,4-.1,8.1.8,12,0,.3,0,.6-.2.8h0c-.8.9-.9,2.2-1.8,3Z"/>
        <path class="cls-91" d="M222.6,176.6c-.9-2.2-.5-4.8-2-6.8,1.4-.5,2.9-.4,4.3-1.2.9,0,1.7-.4,2.5-.9,4.5-3.2,9.9-4.1,15.1-5.3,1-.2,2.2-.7,2.6.7.4,1.5-.9,2-2,2.4-.7.2-1.4.4-2.1,1,4.2,1.5,8.5.5,12.8.2.5,0,1.2-.4,1.3.6-3,4.5-7.6,6.7-12.7,7.4-6.5,1-13.2.5-19.7,1.8Z"/>
        <path class="cls-71" d="M542.7,186.8c.5.4.9.2,1.4,0-1.4,3.5-2.9,6.9-3.9,10.5-.4,1.3-.6,2.4.5,3.8.9,1.2-1.9,1.3-1.8,3.2.3,3.4.2,6.7.9,10.1.1.7,0,2,1.2,1.6,1.3-.4,2.7,1.2,4.1-1,2.1-3.4,3.6-7.2,6-10.4.2-.2.3-.3.5,0,.9.8,0,1.4-.3,2.1-1.7,3.1-3.4,6.1-5.3,9.5,2.1,0,3.9,0,5.7,0,.8,0,1.9-.4,2.4.6.5,1-.9,1.1-1.2,1.9-3,2.2-4.7,5.4-6.3,8.7-.5,1.1-1.3,2.1-2.6,2.4-1.8,3.3-1.9,7-1.9,10.6-1.2.3-.7,1.2-.8,2-.2,1.3.4,2.6-.4,3.8-1-1.1-.5-2.5-.6-3.8,0-.9.1-1.9-.3-2.8-.4-.8-.4-1.6-.2-2.6,1-4.1-.2-8.1-.3-12.2,0-.2,0-.3-.2-.4,0,0,0,.1,0,.2,0,1.3,0,2.5,0,3.7,0,3.4,0,6.9,0,10.3,0,.9,0,1.9-.7,2.7-.1-.3-.3-.6-.4-.9-1.2-2.4-.4-4.9-.4-7.3,0-4.8.4-9.6-.4-14.3-.1-.7,0-1.3.4-1.9.3-4.6-.2-9.2-2.1-13.4-1-2.2-1.2-4.5-2.1-6.6-1-2.4-1.7-4.9-2.8-7.2-1.5-3.2-2.2-6.7-3.6-9.9.4,0,.8,0,1.2,0,1.1.3,1.2,1.4,1.6,2.2,2,4.2,3.2,8.7,4.9,13,.7,1.9,1.2,3.8,2.4,5.4,1.3,0,1.6-1,1.8-1.9.3-1.4.3-2.9.5-4.3.6-2.7,1-5.5,3.2-7.5Z"/>
        <path class="cls-50" d="M439.1,96.6c-1-1.6-.9-3.3-1-5.1,0-3.5-.3-7-.4-10.6,0-.9-.6-1.4-1.1-2.1-.4-.6-1.5-.8-1.1-1.8,2.2.8,4.3,1.5,6.3,2.6,7.5,4.6,10.3,12,8.1,21.9-.6,2.8-1.5,5.5-2.2,8.3-.7.5-1.4.1-2-.2-2.5-1.4-4.3-5.4-3.7-8.2.6-.7,1.5-1.2,1.5-2.3,0-1.2,0-2.3-1.2-3.1-1.3-.8-2.3-.4-3.3.5Z"/>
        <path class="cls-46" d="M10.2,188.2c6,7,12.1,13.9,18.1,21,4.8,5.6,9.5,11.4,14.2,17,0,.2-.2.3-.4.3-11-4.9-18.9-13.5-26.5-22.4-1.6-1.8-3-3.8-4.5-5.7-1.7-2.3-2.5-4.8-2.2-7.6.1-1,.2-2.1,1.3-2.6Z"/>
        <path class="cls-74" d="M442,101.4c.6,3.7,1.7,7.1,5.7,8.5.2,2.2-.1,4.4,1.4,6.3.4.4.3.8-.1,1.1-4.2,2.6-8.4,5.3-13.6,5.9-2.1.2-3.6-.4-4.4-2.4,0-.6,0-1.2,0-1.7.2-1.2-.5-2.2-.5-3.4,0-.8.6-1.1,1.4-1.5,4-2,6.7-5.1,8-9.4.4-1.3.8-2.6,2.1-3.3Z"/>
        <path class="cls-41" d="M173.4,115.2c2.8-.6,5.1-1.9,6.1-4.8.4-1.2.6-2.1-1-2.7-1.4-.5-2-2-1.7-3.5.2-1.3.8-2.3,2.4-2.3,1.7,0,2.5,1,2.5,2.4,0,1.7,0,3.4-.2,5.1-.3,5.3,1.5,9.5,6,12.5-.4,2.5-1,4.9-1.3,7.4-.2,1.8-1.1,2.3-2.7,1.8-1.9-.5-3.5-1.5-4.9-2.8-1.6-1.5-3.2-3.1-4.8-4.6-2.4-1.6-1.3-3.7-.9-5.7.2-.9.3-1.7.4-2.6Z"/>
        <path class="cls-59" d="M197.4,110.2c-1.4.5-2.7,1-4.2,1.1-5.1.5-8.6-3.3-7.6-8.3.5-2.5.5-5,.1-7.4-.2-1.4.1-1.6,1.4-1.6,3.6.2,7.2,0,10.7-.7.9,2.5.6,5.1.8,7.6.1,1.8.2,3.5,1.2,5.1.8,1.4.6,2.3-1,2.8-.8.2-1.3.7-1.3,1.5Z"/>
        <path class="cls-44" d="M545.2,185.9c.3-2.5,1.3-4.7,2.3-6.9,2-4.3,1.3-8.4-.5-12.5,3.2-2.4,4.8-2.3,7.7.4,6.9,6.4,6.2,11.6-2.1,15.9-2.4,1.2-4.8,2.5-7.5,3.2Z"/>
        <path class="cls-69" d="M532.1,160.6c-4.4,3.4-5.1,8.1-4.6,13.2.2,1.9.1,3.8-.9,5.5-2.8-2.2-5.4-4.6-7.6-7.3-2.6-3.2-2.3-5.8.7-8.5,2.5-2.2,5.4-3.7,8.8-4.3,1.5-.3,2.8-.1,3.6,1.4Z"/>
        <path class="cls-25" d="M544,229.7c2-1.6,2.8-4,4-6.2,1.1-2.2,2.4-4.2,4.9-4.9,3.8.3,6,2.4,6.1,5.7,0,3.3-2.1,5.4-5.8,6-3.1.5-6.1-.3-9.2-.6Z"/>
        <path class="cls-43" d="M186.6,160.4c0,1.1,0,2.3,0,3.4.3,2.3,1,4.5-.3,6.7-1.9-2.6-3.1-5.5-4.4-8.4.4-7.7,1.1-15.4,1.2-23.1,0-2.2-.5-4.3,1.6-6,1,.9,1.7,2.3,1.3,3.6-.9,2.8-.5,5.7-.3,8.5.4,5.1,0,10.3,1,15.4Z"/>
        <path class="cls-96" d="M516.1,225.7c0-1.6-.2-3.4,1.5-4.3,1.9-1,3.7-.4,5.4.8,1.6,1.1,2.7,2.7,3.2,4.6.7,2.5,1.8,5,1.1,7.7-1.6.8-2.9-.3-4.3-.7-2-1.1-4-2.3-5.6-4-1.1-1.2-1.9-2.5-1.4-4.2Z"/>
        <path class="cls-14" d="M517.8,254.6c.5-.7,1.2-.5,1.8-.5,13.8,0,27.6,0,41.3,0,0,.6-.2,1.2-.3,1.7-.8.6-1.7.4-2.6.4-12.5,0-25.1,0-37.6,0-.9,0-1.8.1-2.6-.4,0-.4,0-.8-.1-1.2Z"/>
        <path class="cls-29" d="M37,254.1c13.7,0,27.4,0,41.1,0,.6,0,1.2-.1,1.6.5.3.5.4.9-.1,1.3-.8.6-1.7.5-2.5.5-12.4,0-24.8,0-37.2,0-.9,0-1.8.1-2.6-.4,0-.6-.2-1.2-.3-1.7Z"/>
        <path class="cls-57" d="M525.7,206.7c-1.9-1.4-4.3-.8-6.4-1.3-2.8-.7-5.6-1.3-8-3-1.2-.8-2.3-1.7-2-3.4.4-1.6,1.8-1.7,3.1-2,.9-.1,1.8-.2,2.6-.3,4.8,1.7,9.1,4.1,11.5,8.9,0,.2,0,.3,0,.5-.2.4-.5.7-1,.5Z"/>
        <path class="cls-38" d="M525.7,206.7c.3-.2.7-.3,1-.5,1.3,3.3,2.5,6.5,3.8,9.8,2.1,5.1,3.9,10.3,5.3,15.7.3,1.2,0,2.5.6,3.7.2.3.4.6.5.9,0,2.2.7,4.6-1.3,6.4-.5.4-.2,1,0,1.4.3.6.5,1.2,0,1.9-.5-.1-.9-.2-1.4-.4-1.8-2.9-3.6-5.8-5.9-8.3-1.8-1.9-3.7-2.5-6.1-2.7-1.2-.1-2.5.1-3.7-.4,1.3-1.1,3-.5,4.5-.9,1.4.5,2.6,1.4,4.2,1.2,2.2,1.6,3.5,4.1,5.5,5.9.5.4.9,1.1,1.6.8.6-.3.3-1,.3-1.6.1-6.7-1.9-12.8-4.5-19-1.4-3.4-2.4-7.1-3.6-10.6-.4-1.1-1.2-2.1-1-3.3Z"/>
        <path class="cls-82" d="M355,70c-.5,1.3-1.2,2.5-2.7,2.5-1.3,0-2.2-.9-2.5-2.1-.3-1.3-1.3-.7-2-.7-14,0-28,0-42,0-13.5,0-27.1,0-40.6,0-1.1,0-2.1-.1-2.5,1.4-.2,1-1.3,1.6-2.5,1.4-1.6-.3-2.1-1.4-2.3-2.8,1.6-2.5,2.5-2.8,4.6-1,.7.6,1.3.5,2,.5,27.7,0,55.4,0,83.1,0,.8,0,1.6.4,2.3-.4,2.6-1.8,3.8-1.4,5,1.3Z"/>
        <path class="cls-72" d="M551.6,204.4c-.2,0-.4,0-.5,0,0-.1,0-.3,0-.4.3-2.2,2.1-3.3,3.6-4.3,2.4-1.6,5.1-2.9,7.9-3.6.8.5,1.7.3,2.5.5,1.2.3,2.4.7,2.7,2,.3,1.4-.8,2.1-1.8,2.7-1.6,1-3.3,1.5-5.1,1.8-3.1.5-6.2.8-9.3,1.3Z"/>
        <path class="cls-11" d="M526.6,205.8c-3-4.1-7.2-6.5-11.5-8.9,3.5-1.5,7.1-1.6,10.7-.3,2,.7,3.8,1.9,3.9,4.3,0,2.2-1.1,3.8-3,4.9Z"/>
        <path class="cls-53" d="M562.6,196.2c-1.4,1.6-3.5,1.8-5.2,2.6-2.6,1.3-4.6,3-6.3,5.3-2.1-1-3-2.9-2.8-5,.1-2.1,1.8-3.1,3.7-3.6,3.6-1,7.3-1,10.7.7Z"/>
        <path class="cls-88" d="M523.1,233.3c-1.3,1.4-3,.6-4.5.9-1.5.1-2.9-.2-4.3-.5-2.5-.6-3.6-2-3.6-4,0-2.1,1.3-3.3,3.8-3.8.5,0,1,0,1.5-.1.6,4.1,4,5.7,7.1,7.6Z"/>
        <path class="cls-18" d="M42.1,226.5c.1-.1.3-.2.4-.3.3.1.7.3,1,.4,4,5.2,6.2,11.2,7.4,17.6.1.6.3,1.3.4,1.9-5.4.8-10.8.3-16.2.4,3.9-.7,7.7-.2,11.6-.3,3,0,3,0,2.4-2.9-1.2-6.1-3.8-11.6-7-16.8Z"/>
        <path class="cls-16" d="M536.5,236.5c0-.4,0-.7,0-1.1,1.1,0,.9-.8.9-1.4,0-4.5,0-9.1.1-13.6,0-1.1-1.9-1.7-.6-3.1.3-.3.5-.5.8-.6.9,7.8.4,15.7.5,23.6-.8.6.3,1.7-.5,2.3-1-.3-.8-1.2-.8-2-.1-1.4.4-2.9-.4-4.2Z"/>
        <path class="cls-79" d="M419.1,96.1c.2-.4-.2-1.1.6-1.2.4,0,.7.3.7.6,0,.8-.2,1.4-1.2,1.5,0-.3,0-.6-.1-.9Z"/>
        <path class="cls-89" d="M324.8,161.2c.2.4.9.7.7,1.3-1.5,4.5.9,7.9,3.5,10.9,2.7,3.2,3.1,3,6.9.9,2-1.1,4-2.3,5.8-3.6,2.5-1.8,5.2-2.7,8.2-2.6-.1,1.7.5,2.3,2.4,2.3,3.7-.2,7.5,0,11.2,0,1.3,0,1.6-.4,1.4-1.7-.3-1.6-.3-3.1-.4-4.7,1.6,0,3.2-.1,4.8-.1,2.9,0,5.7,0,8.6,0,1,0,1.5.2,1.3,1.3-1.9.5-3.8.1-5.7.2-4.7,0-3.9-.3-3.8,3.9,0,3.2.5,6.4.8,9.7.1,1.6.9,2.1,2.3,2,2.8-.2,5.6-.3,8.3,0-1.1-.8-3,1.2-3.7-1.1-.1-3.2,0-6.5.9-9.6,1-.8,2.2-.4,3.3-.7.6-.1,1.2-.3,1.2-1,0-.8-.6-1-1.3-1.2-.9-.2-1.8.6-2.8.2-.6-1.3-.2-2,1.2-1.9.8,0,1.6-.2,2.4.2,1.2.3,1.8,1.2,1.9,2.2.2,1.9,1.3,1.5,2.5,1.2,7.7-2.1,14.8-5.6,21.8-9.3,3.2-1.7,6.4-3.5,9.8-5.4.2,3.4.4,6.7.6,9.9.3,6.5.7,12.9,1,19.4,0,.7.2,1.3.3,1.9.4,1.4.4,2.9,0,4.4h-.1c0,1.5-1,2.3-2.3,2.7-.8.3-1.5.4-2.3.6-2.5.7-3.4,1.9-3.5,4.6,0,.7,0,1.5-.7,1.9-4.5,1.5-9.2,2.3-13.8,3.4-2.9.7-5.8,1.4-8.8,2.1-.9.2-1.7.5-2.5,0-.7-.7-.6-1.6-.6-2.5,0-4.4,0-8.8,0-13.3,0-2.6.5-3,3.1-3.2,1.5,0,3.1,0,4.6-.5.5-.2,1.1-.3.9-1,0-.5-.6-.6-1.1-.6-2.1-.2-4.2-.7-6.4-.5-5.3.7-10.6.4-15.9.4-14.7,0-29.5,0-44.2,0-1.3,0-2.7,0-4-.2-1.8-.6-3.6-.2-5.4-.4-1.2-.1-2.2-.5-1-1.9,1.8,0,3.5,0,5.3,0,1.3,0,1.9-.3,1.8-1.7-.4-5.6.6-11.1.4-16.7,0-.7-.4-1.7.8-1.9Z"/>
        <path class="cls-80" d="M316.5,181.5c-.2.8-.3,1.4.9,1.4,1.7,0,3.5-.3,5.3.2-.4.8-1.2.8-1.9.9-.7,0-1.3,0-2,0-37,0-73.9,0-110.9,0-1.5,0-3.2.5-4.2-1.2.3-1.8,1.7-1.3,2.7-1.3,11.6,0,23.1,0,34.7-.1,15.5,0,30.9-.1,46.4-.2.8,0,1.8.3,2.5-.5.9.8,1.9.9,3.1.9,7.8,0,15.6,0,23.5,0Z"/>
        <path class="cls-78" d="M254.9,167.3c-.3-.5-.8-.5-1.3-.6,3.1-1.9,6.1-4.1,9.8-4.9-2.6,2.2-5.3,4.3-8.5,5.5Z"/>
        <path class="cls-93" d="M323.6,284.6c-25.7,0-51.5,0-77.2,0-1.2,0-2.4-.2-3.4.5-2.7.4-4.6-1.2-6.6-2.5-.5-.4-.7-1.1,0-1.4,1.2-.7,1.2-1.8,1.1-2.9-.5-7.2-1.1-14.4-1.6-21.6-.4-6.2-1-12.3-1.5-18.5-.7-8.9-1.4-17.8-2.8-26.6-.6-3.9-1.2-4.4-5.1-5.2-1.1-.2-2.4-.2-3.2-1.3-.2-.4-.3-.8-.3-1.3-.4-3.9.5-5,4.4-5,46.8,0,93.6,0,140.4,0,1.1,0,2.2-.1,3.2.6.1,1.1-.8,1-1.5,1.2-.9.2-1.9.1-2.9.1-12.9,0-25.8,0-38.7,0-3.6,0-3.6,0-3.6,3.5,0,25.4,0,50.8,0,76.2,0,1.4.3,2.8-.7,4Z"/>
        <path class="cls-89" d="M323.6,284.6c0-27.3,0-54.7,0-82,0-2.1.7-2.5,2.6-2.5,14.1,0,28.2,0,42.2,0,.9,0,1.8.3,2.6-.4,2.5-1.3,3.8-.8,4.3,2,.4,2.5.6,5,.2,7.6-.4,1.1-1.4,1.2-2.3,1.4-1.9.4-3.7.8-5.6,1.3-7,2.1-10.4,9.6-7.3,16.3,2.1,4.5,5.8,7.5,9.3,10.8,2.6,2.4,5.2,4.8,7.4,7.5.9,2.9.6,5.9.7,8.8.3,8.7.8,17.3,1,26,0,1.1.2,2.4-.7,3.3-18.1,0-36.3,0-54.4,0Z"/>
        <path class="cls-92" d="M378,284.6c-.4-10.1-.6-20.1-1.1-30.2-.1-2.8.3-5.6-.6-8.3-.4-1.9-.7-3.8-.6-5.7.1-5.7-.5-11.3-.6-16.9,0-3.8-.4-7.6-.5-11.4,0-.8-.2-1.6.3-2.3.2-2.9-.2-5.9-.3-8.8,0-1.1-.5-1.4-1.5-1.3-.7,0-1.5,0-2.2,0-3.2,0-6.3,0-9.5,0-45.1,0-90.2,0-135.3,0-1.9,0-2.7.5-2.5,2.4.1,1.1,0,2.2,0,3.3.7,1,.7,2.1.6,3.2-.4,5.6-.5,11.2-.9,16.7-.5,8.6-.7,17.2-1.1,25.8-.3,5-.3,10-.6,15-.3,5.7-.2,11.3-.7,17,0,.6,0,1.2-.4,1.7-.9,2.4-.5,5-.8,7.5-.2,1.9-.2,3.8-.2,5.7,0,1.2-.4,1.8-1.8,1.8-5.1,0-5.1.2-5.2-4.9,0-3.4,0-6.8,0-10.1-.9-1.2-.7-2.5-.7-3.8,0-17.1,0-34.2,0-51.3,0-.6,0-1.2,0-1.8,0-3.3-.1-3.3-3.3-3.4-4.2-.1-8.4.3-12.6-.2-.3,0-.5-.3-.7-.5.5-1.4,1.8-1.1,2.8-1.1,3.6,0,7.2,0,10.8,0,2.9,0,3-.1,3-2.9,0-5.3,0-10.6,0-15.9-.1-4.8,0-9.5,0-14.3,0-.7,0-1.5.4-2.2.5-.9,1.4-1,2.3-1,1.1,0,2.2,0,3.3,0,52.3,0,104.6,0,156.9,0,2.8,0,5.6-.4,8.4-.4,2.9,0,3.1.3,3.2,3.1,0,5.4-.1,10.8.1,16.1.6.7.8,1.3,0,2-4.4,3.4-4.3,7.8-2.7,12.6,1.3,3.9,2.7,7.8,4.1,11.7.3.9.8,1.9.1,3.1-.9-.2-1.2-.8-1.2-1.2.3,7.6,0,15.6.2,23.6-.1,9.3,0,18.5,0,27.8,0,2.6,0,5.1,0,7.7,0,.4-.1.9-.2,1.3q-.4,2.6,2,3.5c.4.1.7.3.6.8-.8,0-1.6,0-2.4,0-.4,0-.8-.1-1,.3-.2.6,0,1.5-1.1,1.5-1.8,0-3.7.1-5.5,0-.9,0-.5-1.1-.5-1.7-.2-4.4-.4-8.8-.6-13.2Z"/>
        <path class="cls-26" d="M79.6,255.8c0-.4,0-.9.1-1.3,2.2-.1,2.3-1.5,2.3-3.3,0-5,0-5-5.1-5-4.7,0-9.4,0-14.1,0-1.3-2-.7-4.3-.6-6.4.5-8.7,1.4-17.4,3.8-25.9.2-.6.3-1.3.6-1.9.2-.6.7-1.1,1.3-1.5,7.7-4.2,12.3-11.2,16.5-18.5,3.4-5.8,6.2-11.8,8.8-18,.3-.8.3-2.3,1.9-1.5.7,1,.7,2.1.7,3.2,0,2.9,0,5.9,0,8.8,0,5.9-.3,5.4,5.2,3.7,1.4-.5,2.9-1.3,4.5-.7.8.5.9,1.3,1,2.1,1.4,9.5,2.5,19,3.8,28.5.1.9.1,1.8-.3,2.6-.8,1.2-2.1,1.6-3.3,2-2.6,1-5.3,1.8-7.9,2.7-2.7,1-2.9,1.2-2.9,4.2,0,17,0,34,0,51,0,1.4.3,2.8-.7,4-6.2,0-12.3,0-18.5,0-.8,0-1.7.3-1.9-.9,0-.7,0-1.5.1-2.2,1.5-6,2.3-12.2,3.5-18.3.5-2.4.8-4.9,1.3-7.4Z"/>
        <path class="cls-89" d="M436.5,235.1c9.8,0,19.5,0,29.3,0,.8,0,1.6,0,2,.9.9.8.9,2,1.1,3,2.3,14.2,4.6,28.4,6.8,42.7.2,1,.5,2-.3,2.9-14.9,0-29.8,0-44.6,0-.8-.7-.5-1.6-.4-2.5,1.5-13.4,3.1-26.7,4.8-40.1.2-1.7.2-3.4.6-5,.2-.7.2-1.5.9-2Z"/>
        <path class="cls-6" d="M220.4,284.6c-.9-1.4,0-2.7,0-4.1-.3-5.8.3-11.6.5-17.4.2-7.8.6-15.6.9-23.3.3-6.6.7-13.2.9-19.8.1-4.9.6-9.8.9-14.7,1.4.2,2.8.5,4.1.6,2.6.3,3.8,1.8,4.3,4.3,1.3,7.5,2,15,2.6,22.6.9,10.2,1.7,20.4,2.5,30.6.4,5.5.7,11,1.2,16.5.2,2-1.3,1.5-2.5,2,2.5,1.3,4.7,2.5,7.1,3.3,3.2,1.8,6.7,3,10.1,4.4,1.3.5,2.5,1,3.2,2.2.7,1.1.9,2.5.4,3.6-.4.8-1.6.4-2.5.4-9.9,0-19.7,0-29.6,0-1.8,0-2.3-.6-2.6-2.3-.4-3-.6-6-1.5-8.9Z"/>
        <path class="cls-89" d="M195.6,223.5c5.1,0,10.2,0,15.2,0,1.1,0,1.7.2,1.7,1.5,0,19.9,0,39.7-.1,59.6-6,0-12,0-18,0-1.1-.9-1-2.3-1-3.5-.6-7.7-1.3-15.4-2-23.1-.6-6.8-1.2-13.5-1.7-20.3.2-3.9.2-3.1,4-3.7,2.6-.4,4-1.5,4-3.5,0-1.6-.6-3.1-1.4-4.6-.4-.7-1.1-1.4-.6-2.4Z"/>
        <path class="cls-104" d="M95.2,284.6c0-18.7,0-37.3,0-56,0-2.2.8-3.1,2.8-3.8,4-1.4,8.2-2.3,11.9-4.4,1.6,2.1,1.3,4.6,1.8,7,0,1.1-.4,2-.6,3-.3,1.6,0,3,1.7,3.6,1.8.6,2.3,1.9,2.2,3.6-.4,6.7-1.3,13.3-2,19.9-.7,8-1.7,16.1-2.4,24.1-.1,1.2,0,2.5-1.2,3.4-1.7-.8-3.4-.3-5.2-.4-3,0-6,0-8.9,0Z"/>
        <path class="cls-104" d="M170.1,282.8c.1,1.6-.7,1.9-2.1,1.9-5.7,0-11.3,0-17,0-.8-.8-.7-1.9-.7-2.9,0-14.4,0-28.8,0-43.3,0-3.2.4-3.5,3.6-3.6,3.2,0,6.5.2,9.7-.2.4,0,.8,0,1.2.3,1.1,2.3,1.1,4.9,1.3,7.3,1.4,12.5,3,25,4.4,37.5.1,1,.3,2.1-.5,3Z"/>
        <path class="cls-28" d="M189.8,284.6c-4.9,0-9.7,0-14.6,0-1-.2-.9-1.1-1-1.8-.6-7.5-1.3-14.9-1.9-22.4-.5-6.2-1-12.5-1.5-18.7-.1-1.4-.3-2.8-.2-4.2.2-2.9.5-3.2,3.4-3.3,2.7,0,5.4-.1,8.1,0,.7,0,1.4,0,2,.5,1.1,2,1,4.3,1.2,6.4,1.6,13.6,3.5,27.1,4.8,40.8,0,.9.4,1.8-.4,2.5Z"/>
        <path class="cls-20" d="M163.8,235.1c-3,.9-6,.2-9,.4-4.5.2-3.9-.6-3.9,3.9,0,15.1,0,30.2,0,45.3-4.3,0-8.6,0-12.9,0-1.4-.9-1.1-2.3-1.1-3.6,0-9,0-18.1,0-27.1,0-1,.1-2.1-.2-3.1-.2-3.5.9-6.9,1.4-10.4.3-1.8.2-3.7,1.2-5.3.9-.8,2-.8,3.1-.8,6.1,0,12.2,0,18.4,0,1,0,2.1-.1,2.9.8Z"/>
        <path class="cls-104" d="M127,285c-4.3-.7-8.5-.7-12.8,0-.7-.7-.6-1.6-.5-2.5,2.1-14.9,4.5-29.8,6.7-44.7.1-.7.2-1.5.6-2.1.3-.6.8-1.1,1.5-1.2,3.6-.2,7.1-.6,10.6.3.8.8.7,1.7.6,2.7-1.6,13.4-3.1,26.9-4.9,40.3-.2,1.7-.3,3.5-.6,5.3-.2.8-.2,1.6-1.1,2Z"/>
        <path class="cls-2" d="M389,297.8c0,0-.1-.1-.2-.1-3.8-.9-3.9-1.2-2.9-5.1.7-1.4,2-2.1,3.2-2.8,2.3-1.3,4.6-2.5,6.9-3.9.7-.5,1.5-.9,1.8-1.8,3.7-3.2,2.9-7,1.6-11-.5-1.6-1.2-3.1-1.4-4.8.1-.7-.2-1.3-.1-2,0-.6,0-1.3.6-1.5.7-.1.9.7,1.1,1.2.8,2.6,1.9,5.1,2.3,7.8.3,2.2.7,4.4.5,6.6,0,.8,0,1.1.9,1.1,1.9-.2,3.8.6,5.7.7,4,.4,6-1.5,6.1-5.5.1-7.3-1.3-14.3-2.4-21.4-.2-1.1-.4-2.2-.4-3.3.5-1,1.3-1.1,2.2-.9,2.7,3.9,4.8,8,5.5,12.8.3,1.9,2.1,3.1,3.4,4.5,1.3,1.4,2.8,2.6,3.8,4.3.9,1.7.6,3.4-.3,5-1.5,2.5-2.6,5.3-5.2,7-1.5,1.2-2.3,2.7-2,4.6.2,1.5-.5,2.2-1.8,2.6-1.3.4-2.5.9-3.7,1.3-1.1.4-2.2.7-2,2.4,0,.9-3.4,1.7-3.8.8-.8-1.7-1.8-.7-2.5-.4-5.5,1.9-11,2.5-16.8,2Z"/>
        <path class="cls-89" d="M485.5,236c1.3,8.6,2.5,17.2,3.8,25.7,1.1,7.6,2.2,15.3,3.3,22.9-4.3,0-8.5,0-12.8,0-.9-.5-1-1.4-1.1-2.3-1.7-14.6-3.5-29.3-5.2-43.9-.1-.9-.3-1.8.4-2.5,0-.6.3-.9,1-.9,3.1,0,6.2,0,9.2,0,.8,0,1,.5,1.3,1Z"/>
        <path class="cls-37" d="M121.4,236c-1.6,10.5-3.2,21.1-4.7,31.6-.8,5.8-2,11.6-2.4,17.5-1,3.5-1.3,7-1.7,10.6-.3,2.6-2,1.6-3.2,1.7-1.8.1-1-1.1-.9-2,.3-3.4.6-6.8.9-10.3.7-6.5,1.5-13,2.2-19.5,1-9.4,1.9-18.9,2.8-28.3.4-.9-.4-2.5,1.2-2.7,2-.3,4-.8,5.9.6.2.2.1.5,0,.8Z"/>
        <path class="cls-39" d="M426.2,277.6c.8-1.6,1.3-3.2.4-4.9-.6-2.6,0-5.1.2-7.7.7-8.7,1.3-17.5,2.1-26.2,0-.9,0-1.8.8-2.4.4-1,.9-1.5,2.1-1.4,1.5.1,3.1,0,4.6,0-1.8,14.8-3.5,29.5-5.3,44.3-.2,1.7-.3,3.5-.5,5.3-.5,3.6-1.1,7.1-1.3,10.7-.2,2.7-2,1.7-3.3,1.8-1.9.1-1.1-1.4-1-2.2.2-3.3.8-6.5.7-9.9-.6-2.5,0-5,.5-7.5Z"/>
        <path class="cls-67" d="M171.2,237.7c1.2,15.3,2.5,30.6,3.7,45.9,0,.4.2.7.3,1,.3,3.6.5,7.2.8,10.8,0,.9.3,2-1.1,1.7-1.1-.2-2.9,1.3-3.2-1.3-.5-4.4-1.1-8.7-1.6-13.1-1.1-9.8-2.2-19.7-3.4-29.5-.7-6.1-1.4-12.1-2.1-18.2,1.7-1.2,3.6-.8,5.5-.5,1.8.3.7,2.1,1.2,3.1Z"/>
        <path class="cls-65" d="M189.8,284.6c-.8-6.8-1.5-13.6-2.3-20.4-1.1-9.7-2.3-19.4-3.5-29.1,1.6-1,3.5-.9,5.3-.9,1.5.7.4,2.1,1,3.1,1.4,15.8,2.8,31.6,4.2,47.4.3,3.5.6,7,.9,10.5,0,.8.3,1.8-1,1.5-1.1-.3-2.8,1.2-3.1-1.1-.5-3.6-.9-7.3-1.4-10.9Z"/>
        <path class="cls-7" d="M127,285c1-3.8,1.2-7.8,1.7-11.7,1.6-12,2.9-24,4.4-36.1,0-.7,0-1.5.1-2.2,2.4-1.2,5.1-1,6.3.5-.8,5-1.5,10-2.3,15,.1,3.8-.7,7.4-1.3,11.1-1.2,6.7-2.2,13.5-3.3,20.2-.2,1-.3,2-1.1,2.8-.6,3.3-1.4,6.6-1.8,10-.2,2.4-1.8,1.6-3,1.6-2,0-1-1.5-.9-2.2.3-3,1.1-5.9,1.1-9Z"/>
        <path class="cls-84" d="M473.9,235.9c1.6,13.6,3.2,27.2,4.9,40.8.3,2.6.7,5.3,1,7.9.4,3.2.8,6.4,1.1,9.6,0,.7.8,2-.8,1.9-1.1,0-2.7,1-3-1.3-.5-3.4-1.1-6.8-1.7-10.2-1-6.3-1.9-12.5-2.9-18.8-1.6-10-3.1-19.9-4.7-29.9,1.2-1.3,4.7-1.4,6.2,0Z"/>
        <path class="cls-9" d="M131.5,284.6c1.5-9.4,3.1-18.7,4.6-28.1.3-2,.4-4.1,1.1-6,.7.7.4,1.5.4,2.3,0,9.6,0,19.3,0,28.9,0,1-.1,1.9.4,2.8-2.2,0-4.4,0-6.6,0Z"/>
        <path class="cls-61" d="M426.2,277.6c.3,2.5,0,5-.5,7.5-1.3-.7-2.8-.2-4.1-.5,1.5-2.4,3.6-4.3,4.6-7Z"/>
        <path class="cls-3" d="M65.4,210.8c-1.5-.5-2.8-1.3-4-2.2-4.8-3.4-6.3-7.3-4.7-13,2.7-9.2,7.8-17.1,13.2-24.8,3.2-4.6,6.5-9.2,11.2-12.6,2.6-1.9,5.5-3.2,8.8-3.7.5.6.2,1.1,0,1.6-6.9,17.1-14,34-20.9,51.1-.4,1-.8,1.9-1.4,2.8-.5.8-1.2,1.3-2.2.7Z"/>
        <path class="cls-106" d="M138.1,142.1c-.6,6.6-.4,13.2-.4,19.8,0,1.3,0,2.5.5,3.7-.8,4-1.5,7.9-2.3,11.9-2.5.9-5.1,1.4-7.6,2.3-.7.2-1.4.4-2-.3-1.2-2.7-1.1-5.6-1.5-8.4-.8-5.9-1.6-11.8-2.3-17.7-.2-1.7-.9-2.7-2.8-2.6-5.4,0-10.7,0-16.1,0-1.6,0-2.2.5-2,2.2.2,2.5,1,4.9,1,7.4,0,.8-.4,1.4-1,1.9-1.3,1.3-3.3.8-3.5-1-.2-1.8-.5-3.4-1.5-5-.5-.7-.3-1.5.8-1.6,2.1-.4,2-1.9,1.6-3.4-.7-2.8-.2-3.5,2.8-3.6,3.8-.1,7.7-.3,11.5-.3,3.9,0,6.2-1.9,8.2-4.7.8-1.2,1.8-2.2,3.1-2.7,3.7-1.5,7.2-3.5,10.7-5.3.9-.4,1.7-.9,2.7-.1.3,2.5-.5,5.1.4,7.5Z"/>
        <path class="cls-17" d="M65.4,210.8c1.3.1,1.7-.9,2.1-1.8,2.8-6.8,5.7-13.7,8.5-20.5,3.7-9.1,7.5-18.2,11.2-27.2.9-2.2,1.8-4.5,2.7-6.7,2-.9,3.6.2,5.3,1,2,1,2.8,2.7,3,4.8.3,4.4-1.3,8.1-3.4,11.7-3.1,6.8-5.9,13.6-9.7,20-3.7,6.3-7.4,12.6-13.6,16.9-1.3.9-2.7,1.7-4.1,2.5-.7.4-1.3.3-1.7-.4,0-.1-.2-.2-.2-.4Z"/>
        <path class="cls-100" d="M94.7,172.1c.9-2.6,1.7-5.1,2.6-7.7,1.3-3.5.7-6.5-2.2-8.9,0-2.1.7-4.1.5-6.1,0-.8.4-1.3,1.2-1.5,10-3.2,19.9-6.5,29.8-10.2,2.9-1.1,5.5-2.7,8.5-3.6.9-.3,1.9-1,2.5.5-3,0-5,2.3-7.5,3.4-.5.2-1,.8-1.5.9-4.1.7-6.5,3.5-8.9,6.5-1.4,1.7-3,2.4-5.3,2.6-4.5.4-9.1.3-13.6.4-2,0-2.5.9-1.4,2.6.9,1.5,0,2.7-.3,4-.2.9-1,.8-1.8.3-.1,0-.5,0-.6.1-.3.3-.1.7.1,1,1.3,1.3,1.9,2.8,1.5,4.7-.2.9.7,1.2,1.2,1.6.8.6.9-.4,1.4-.7.5-.4,1-.7,1-1.4.9.3.9,1.1,1,1.8,1,7.6,2,15.2,3,22.9.1.9.2,1.8-.5,2.5-2.8.2-5.2,1.5-7.8,2.2-2.1.6-2.4.4-2.5-1.8,0-4.1,0-8.2,0-12.3,0-1.3-.1-2.5-.5-3.7Z"/>
        <path class="cls-15" d="M65.6,211.1c.6.1,1.1.3,1.7.4-3,11.3-4.5,22.8-4.4,34.5-.6,0-1.2,0-1.8,0-.2-11.9,1.4-23.5,4.5-35Z"/>
        <path class="cls-60" d="M212.4,203.5c0,5.8,0,11.6,0,17.4,0,1.8-.6,2.2-2.3,2.2-4.3-.1-8.5,0-12.8,0-.8,0-1.6-.2-2.3.4-1.7,1.3-3.7.5-5.5.7-.8,0-1.6,0-2.4-.1-.6,0-1.1-.3-1.6-.6-3.7-2.7-8.1-3.6-12.5-4.3-8.8-3.5-18-3.5-27.3-3-3.9.2-7.7.6-11.6.7-1.3-.4-2.3-1-2.3-2.5-.1-2.8,2-1.9,3.2-1.7,4.2.6,8.5.7,12.7.8,4.4.1,7.6-2.1,10.2-5.2,6.9-8.1,10-18,12.8-28,0-.2.1-.4.2-.7,2.3,1.5,4.5,3.2,7,4.3.5.9.3,1.9,0,2.8-.8,2.7-1.5,5.4-2.2,8.1-.8,3.3.3,5,3.6,5.3,9.9.9,19.8,1.7,29.7,2.6,1.2.1,2.4.2,3.3,1Z"/>
        <path class="cls-22" d="M386.4,205.4c-.8-.6-.5-1.5-.5-2.2,0-4.9-.1-9.7,0-14.6,0-1.8-.6-2.2-2.3-2.2-16.1.6-32.1.3-48.2.3-40.2,0-80.3,0-120.5,0-.9,0-1.9-.4-2.7.5-1.3.6-8.7.1-10.1-.6,2.7-.5.9-2.6,1.4-3.9.6.5,1.4.4,2.1.4,38.4,0,76.7,0,115.1,0,.6,0,1.2,0,1.8-.1.5,0,1,.1,1.5.1,19.6,0,39.2,0,58.9,0,3.6,0,7.2,0,10.8,0,.8,0,1.7,0,1.7,1.2,0,1.1,0,2.1-1.6,2.2-2.1,0-4.1.2-6.2.2-.7,0-1.5,0-1.5,1.1,0,5.5,0,11.1,0,16.6,0,.2.3.4.5.7,0,.3,0,.5-.4.4Z"/>
        <path class="cls-89" d="M202.3,186.7c3.4-.5,6.7.5,10.1.6,0,5.4,0,10.8,0,16.3-10.7-.9-21.4-1.9-32.1-2.8-.5,0-1-.1-1.5-.1-2.9-.2-4.6-2.4-3.8-5.4,1-3.8,2.1-7.6,3.1-11.5,6.3,3.1,13,3.5,19.8,3.2,1.5,0,2.9-.1,4.4-.2Z"/>
        <path class="cls-55" d="M131.9,214.3c.3,1,1.5,1.2,1.8,2.2-1.1,1-2.1,1.2-3-.2-.8-6.4-1.6-12.8-2.5-19.2-.7-4.9-1.4-9.8-2-14.7-.1-.9-.4-1.9.4-2.7,2.4-.7,4.7-1.5,7.1-2.2.7-.2,1.4-.6,2.1,0-.8,5.6-1.6,11.2-2.4,16.8-.8,6-1.6,11.9-2,18,0,.7-.3,1.5.4,2.1Z"/>
        <path class="cls-42" d="M186.3,170.5c.3-2.2-.3-4.5.3-6.7,2.1,2.4,4.2,4.7,6.3,7.1-1.9,1-4,.7-6,.8-.7,0-.6-.7-.7-1.2Z"/>
        <path class="cls-60" d="M386.4,205.4c.1-.1.3-.3.4-.4,8.3-1.9,16.5-3.8,24.8-5.7.2,0,.5.1.6.3,1.1,2.9,3.5,2.6,5.9,2.3,4.7-.5,9.4-.4,14.1-1.1.7,0,1.3,0,1.9.5,1.4-.1,2.1.6,2.4,1.9.4,1.8,1.5,2.5,3.4,1.7,2.2-.9,4.6-1.5,6.9-2.2,1-.3,1.5-.2,2.2.7,2.1,2.9,4.5,5.4,7.5,7.4,4.6,3.1,9.6,3.3,14.8,2.8,2.8-.3,5.7-.7,8.5-1.1.5,1.6.4,3.2.6,4.8-1,.7-2,0-2.9-.2-4.4-.8-8.8-1.5-13.3-1.6-6-.1-12-.5-18.1-.2-4.7.3-8.9,1.6-13.2,3.3-.8.6-1.8.6-2.7.8-3.4.6-6.5,1.9-8.9,4.4-.5.5-1.1.9-1.9,1.1-2.7.3-5.5.8-8.2.6-6.2-.1-5-.3-3.6,4.7.4,1.4.8,2.8,1.2,4.2.5,1.9,1.2,3.8,1.4,5.8.7,2.9,1.6,5.8,2.4,8.7.2.8.7,1.7,0,2.5,1.1,5.7,1.9,11.5,2.7,17.3.4,3,.3,6,.4,9,0,2.9-1.9,4.9-4.8,5.1-1.9.1-3.8-.3-5.6-.8-2.1-.5-3.1-1.3-3.3-3.5-.4-4.7-1.7-9.1-3.2-13.6-.9,1.1.7,2.2-.2,3.2-.9,0-1.5-.7-2.1-1.2-3.3-3-6.3-6.2-9.4-9.3-.4-.4-.6-.8-.5-1.4-.3-.7-.4-1.4-.4-2.1,0-7.3,0-14.6,0-21.9,0-.3,0-.5,0-.9,1,.6.6,1.8,1.5,2.3.4-.5,0-.9-.2-1.3-1.6-4.4-3.1-8.9-4.7-13.3-1.9-5.4-.8-9.2,3.8-13.1,0,0,0-.4,0-.6Z"/>
        <path class="cls-105" d="M434.1,201.3c-5.7.7-11.4,1-17.2,1.3-3.9.2-3.9.2-5.3-3.4.4-.6,0-1.1,0-1.7,0-2.8,1.1-4.4,4.2-5,1.8-.4,3.5-.9,4.5-2.6,1.1.2,2.1.5,3.2.7.2,0,.4-.1.6,0q3.3.5,4.8-2c.5.8,0,3.1,2.1,1.3.9,3.2,2.4,6.3,3.6,9.4.4,1,.5,1.6-.7,2Z"/>
        <path class="cls-102" d="M478.5,188.6c0,2.1-.3,4.1-.8,6.1-.4-2.1-1.7-4.4.8-6.1Z"/>
        <path class="cls-76" d="M331.1,130.2c-10.9,0-21.8,0-32.7,0-1.3,0-2.4.1-3.1,1.5-.7,1.2-1.9,1.7-3.4,1.7-12.8,0-25.7,0-38.5,0-1.6,0-2.7-.5-3.3-2,0-.2-.1-.5-.3-.6-3.1-1-1.9-3.5-1.9-5.4,0-13.5,0-27,0-40.5,0-3.1.2-3.3,3.3-3.3,3.2,0,6.5,0,9.7,0,1.6,0,2.9.4,3.9,1.7.9,1.1,2,1.5,3.5,1.5,29.1,0,58.1,0,87.2,0,2.3,0,4.4,0,5.9-2.5.8-1.4,3-.7,4.6-.4,1.1.2.6,1.5.6,2.3,0,14.7,0,29.3,0,44,0,1.8-.5,2.2-2.3,2.2-11.1,0-22.1,0-33.2,0Z"/>
        <path class="cls-94" d="M429,188.6c-.2,3.8-1.6,4.3-5.4,2.1,0-15,0-30,0-44.3.4,3.6.7,7.9,1.3,12.2,1,6.8,1.6,13.6,3.8,20.2.3.9.2,1.9.2,2.8,0,2.3,0,4.6,0,7Z"/>
        <path class="cls-12" d="M373.6,164.7c1.9,0,3.9-.7,5.7.4,1,.2,2.2-.4,3.1.4-.8,0-1.6,0-2.4,0-1.4,0-1.3.7-.8,1.7.9,1,.3,1.8-.3,2.6-.7,3.2-.8,6.5-1,9.8-1.2,1.1-5.3,1.5-6.6.8-.5-.3-.7-.8-.6-1.3.7-4.6,1.1-9.3,2.3-13.8,0-.3.3-.5.5-.7Z"/>
        <path class="cls-94" d="M420.5,189.9c0-1.5,0-2.9,0-4.4,0-.3,0-.6.1-.8,0,1.7,1,3.5,0,5.2Z"/>
        <path class="cls-85" d="M429.8,236.4c-.9,11.5-1.8,23.1-2.8,34.6,0,.6,0,1.2-.4,1.7-1.7-2.5-4-4.4-6.1-6.6-.8-.8-1.2-1.6-1.3-2.6-.7-3.8-1.6-7.4-4.2-10.4-.5-.6-.8-1.4-.7-2.2-.5-1.1-.3-2.3-.1-3.5.4-3.5.8-7.1,1.3-10.7,0-.7,0-1.7,1.1-1.9,3.9,0,7.8,0,11.7,0,1,0,1.8,0,1.7,1.3Z"/>
        <path class="cls-51" d="M416.5,235c-.9,4.5-1.2,9.1-1.8,13.6-.1.8,0,1.6-.5,2.3-.5.5-1,1.1-1.7.4-1-3.7-2-7.4-3-11.2.4-1.9.6-3.8,0-5.7-.8-2.5-2-4.9-.6-7.6.5-.9.9-1.6,1.9-2.1,3-.1,5.9-.3,8.9-.4-1.3,3.2-2.2,6.6-2.2,10.1-.3,0-.7,0-.9.4Z"/>
        <path class="cls-47" d="M417.4,234.6c-1.1-3.8,0-7.1,2.2-10.1,3.6-3.8,7.9-5.9,13.3-5.8-1.6,1.8-3.9,2.8-5.2,4.9-1.9,2.9-2.6,6.1-2.2,9.4.2,1.5-.4,1.7-1.6,1.6-2.1,0-4.3,0-6.4,0Z"/>
        <path class="cls-30" d="M193.9,112.1c.5.4,1.9-1,2,.6,0,.9-.3,2.2-1.7,2.1-1.4,0-2.6-.6-3.1-2.1-.2-.5.2-.6.6-.7.7,0,1.3,0,2.2,0Z"/>
        <path class="cls-73" d="M425.8,108c.7.4,2.3-.8,2.4.6,0,1.1-1.6,1.3-2.6,1.6-.3,0-.6,0-.9,0-1.1,0-2.3-.3-2.3-1.5,0-1.3,1.4-.5,2.1-.7.3,0,.7,0,1.3,0Z"/>
        <path class="cls-35" d="M427.5,97.6c0,.8-.5,1.2-1.3,1.1-.9,0-1.3-.5-1.3-1.4,0-.8.5-1.2,1.2-1.2.8,0,1.3.6,1.4,1.4Z"/>
        <path class="cls-50" d="M437.3,99.6c0-1.4.5-2.4,1.8-3-.1.9-.3,1.7-.4,2.6-.2,1.2-.8.7-1.4.4Z"/>
        <path class="cls-87" d="M538.7,223.4v-1.4c1.1,1.3,1.6,2.5,1.7,3.9.2,2.9.3,5.7.4,8.6,0,.9.1,1.9-.6,2.7-.5.6-.2,1.2.3,1.8.2.3.2.6.1.9-.6,1.2-1.1,2.5-.7,3.9.2.9,0,1.7-.8,2.3-1-1.5,0-3.3-.5-4.8,0-4.4,0-8.8,0-13.2.3-1.5.3-3.1,0-4.6Z"/>
        <path class="cls-70" d="M536.5,236.5c1.1,0,.6,1,.7,1.5.1,1.6,0,3.2.5,4.7,0,.5-.1,1,0,1.5.3,1.7-.3,2.3-2,1.8-.2-.6,0-1.2-.4-1.7-.7-.9-2.4-2,.4-2.4.7-.1.7-.9.7-1.5,0-1.3.1-2.6.2-4Z"/>
        <path class="cls-75" d="M539.1,246.1c.3-1,.5-2,.1-3.1-.4-1.2.2-2.2,1.2-3,.5,2.1.3,4.1,0,6.2-.4,0-.9,0-1.3,0Z"/>
        <path class="cls-16" d="M540.4,246.1c0-2.1,0-4.1,0-6.2,0-.3,0-.6,0-.9,1,2.3.2,4.7.4,7.1,0,0-.2,0-.2,0h-.2Z"/>
        <path class="cls-48" d="M537.2,200.4c-.7.2-1.1.2-1.3-.6-1.3-4.4-3.3-8.6-4.5-13.1-.7-2.4-2-4.6-3.1-7-.3-.9.4-1.3.8-1.9,2.9-3.6,6.1-6.9,8.8-10.8-.1,1.7.8,3.4-.5,5.1-.3.4.2,1.4.2,2.1,0,8.1,0,16.2,0,24.3,0,.7-.2,1.3-.5,1.9Z"/>
        <path class="cls-27" d="M542.7,186.8c-1.1,2.5-2.2,5-3.2,7.5,0-3.3,0-6.6,0-9.9,0-3.4,0-6.9,0-10,1.1,2.6,2.4,5.6,3.5,8.5.5,1.3,0,2.6-.3,3.9Z"/>
        <path class="cls-101" d="M541.7,227.1c1.5,1.8,1.5,1.8.4,4.3-.7-1.5-.3-2.8-.4-4.3Z"/>
        <path class="cls-16" d="M538.7,223.4c.4,1.5.4,3.1,0,4.6-.2-1.5-.2-3.1,0-4.6Z"/>
        <path class="cls-99" d="M195.6,100c.8,0,1.5.2,1.5,1.3,0,1.2-1,1.3-1.9,1.4-.8.1-1.5,0-1.6-1,0-1.2.7-1.6,2-1.7Z"/>
        <path class="cls-36" d="M373.6,164.7c-.7,4.4-1.4,8.7-2.1,13.1-.3,1.7-.2,2.8,2,2.4,1.5-.3,3.1.4,4.5-.5.1.9.7.7,1.3.6.9-.2,1.9,0,2.7.4,0,.2,0,.4,0,.6-3.4,0-6.7,0-10.1,0-1.1,0-1.8-.4-1.9-1.9-.2-4.6-.6-9.2-1-13.8,0-.8.2-1.1.9-1,1.2,0,2.5,0,3.7,0Z"/>
        <path class="cls-68" d="M378.9,169.9c-.2-.9.7-1.7.3-2.6.9-1.3,2.2-1,3.3-.7.9.2,1.2,1.2,1.2,2.1,0,1-.8,1.1-1.6,1.1-1.1,0-2.2,0-3.3,0Z"/>
        <path class="cls-6" d="M374.9,209.7c1,3.9.6,8,.8,12,.3,6.2.9,12.4.6,18.6,0,1.9,1.1,3.8,0,5.8-4.5-4.3-9.2-8.5-13.5-13-5.1-5.3-5.6-11.9-1.9-17.1,1.5-2.1,3.4-3.7,5.9-4.4,2.7-.7,5.4-1.3,8.1-1.9Z"/>
        <path class="cls-34" d="M386.4,256.3c3.7,4.3,7.9,8,12.1,11.9.8,2.4,1.8,4.8,2.5,7.3.6,2.3,0,4.7-.4,7-.1.6-.7.8-1.2.8-1,0-1,.7-1.1,1.4-.7.5-1.4.7-2.3.7-2.7,0-5.4,0-8.1,0-.7,0-1.4-.2-2-.7,0-9.1,0-18.2,0-27.3,0-.4-.1-.9.5-1Z"/>
        <path class="cls-1" d="M186.8,223.6c2.8,0,5.6,0,8.4,0,.2,0,.3,0,.5,0,.8,1.9,2.1,3.6,2.5,5.7.6,3.3-.8,5.2-4.2,5.5-.4,0-.9,0-1.3,0-1.9-.3-2.8.5-2.4,2.5-.8-.7.1-2-.8-2.6,0-1.6.5-3.2.3-4.8-.3-1.6-1-2.9-1.9-4.2-.5-.6-1.2-1.1-1-2.1Z"/>
        <path class="cls-86" d="M385.9,284.6c4.1,0,8.2,0,12.3,0-.2,1.1-1.3,1.3-2.1,1.8-3.4,2.1-7.1,3.7-10.3,6.2-.4-2.6-.1-5.3,0-7.9Z"/>
        <path class="cls-32" d="M126.7,179.7c.8,6.2,1.6,12.3,2.4,18.5.7,6,2,12,2.1,18.1,0,1.1-.9,1.3-1.6,1.4-6.3,1.4-11.9,4.1-16.3,9-.5.5-1.1,1.3-2.1.7-.4-2.4-.9-4.7-1.3-7.1-.6-5.2-1.2-10.4-1.9-15.5-.7-5.5-1.5-10.9-2.2-16.4,0-.3-.2-.5-.3-.8-.9-9.1-2.1-18.1-3.5-27.1-.4-2.8-.8-5.6-1.3-8.4-.2-1.2-.2-1.9,1.4-1.9,6.3,0,12.7,0,19,0,1.7,0,1.7,1,1.9,2,1,7.1,1.9,14.3,2.8,21.4.3,2,.6,4.1.9,6.1Z"/>
        <path class="cls-95" d="M111.2,227.5c.9,0,1.3-.6,1.8-1.2,4.4-5,10.1-7.7,16.5-9,.7-.1,1.3-.4,1.7-.9.9.8,1.8,0,2.6,0,7.6-1,15.2-1.5,22.9-1.1,3.5.2,7,0,10.5,1,2.2.6,4.3,1.5,6.4,2.3,5.6,1.5,10.3,7.2,9.4,14.5,0,.7,0,1.3-.6,1.8-2.8,0-5.5.2-8.3,0-2.2-.1-3.3.3-2.9,2.7-.1-2.5-1.6-3.1-3.8-2.7-.9.2-1.9,0-2.8,0-.3,0-.5,0-.8,0-7.6,0-15.2,0-22.9,0-.5,0-1,0-1.4.5-2-1.1-4.2-.2-6.3-.5-3.3,0-6.6,0-9.9,0-.8,0-1.6,0-2,.9-.1-.7-.5-1-1.2-1-.9,0-1.8.1-2.6,0-1.8-.3-3.1.2-3.2,2.3.1-1.4-.2-2.3-1.9-2.7-2.1-.5-2.8-2.4-2-4.6.3-.8.8-1.6.7-2.5Z"/>
        <path class="cls-56" d="M182.4,235c.1-4.1.2-8.1-2.7-11.5-1.7-2.1-4.1-3.3-6.2-4.8,4.8.5,9.4,1.8,13.3,4.9,2.1,2.3,3.9,4.8,3.6,8.2,0,1.1-.2,2-.9,2.8-1.8.1-3.6.6-5.4.5-.5,0-1.1,0-1.6-.1Z"/>
        <path class="cls-54" d="M410.7,224.9c-2.7,3-2,6.3-.8,9.7-.5.5-1.1.5-1.7,0-.8-2.7-1.5-5.3-2.4-8-.5-1.3-.3-1.9,1.2-1.9,1.2,0,2.5,0,3.7,0Z"/>
        <path class="cls-24" d="M408.1,234.7c.6,0,1.1,0,1.7,0,.9,2,.7,3.8-.4,5.7-.4-1.9-.9-3.7-1.3-5.6Z"/>
        <path class="cls-4" d="M305.2,88.6c16.7,0,33.5,0,50.2,0,.6,0,1.2,0,1.8,0,1.1,0,1.9.4,2.1,1.5.2,1.3-.7,1.8-1.7,2.2-.9.3-1.7.4-2.6.3-5.4-.2-10.7-.1-16.1-.2-12.6-.2-25.1.3-37.7.1-3.8,0-7.6.4-11.4-.2-1.4-.2-2.9.3-4.4.3-9.5.2-19-.6-28.5-.4-1.5,0-3,.6-4.6,0-.9-.3-1.4-.7-1.4-1.7,0-1,.6-1.7,1.6-1.9.6-.1,1.3,0,2,0,16.9,0,33.8,0,50.7,0Z"/>
        <path class="cls-97" d="M306.5,124.9c-17.2,0-34.4,0-51.5,0-.6,0-1.2,0-1.8,0-1.4,0-2.5-.6-2.4-2,0-1.3,1.2-1.6,2.4-1.6,4.5,0,9,0,13.5,0,30.5,0,60.9,0,91.4,0,.7,0,1.3,0,2,0,1.3,0,2.1.7,2,2.1,0,1.3-1,1.5-2,1.5-4.9,0-9.9,0-14.8,0-12.9,0-25.8,0-38.7,0h0Z"/>
        <path class="cls-52" d="M304.8,100.1c-16.7,0-33.3,0-50,0-.7,0-1.5,0-2.2,0-1.1,0-1.7-.6-1.9-1.5-.2-1.1.7-1.6,1.5-1.9.6-.2,1.3-.1,2-.1,33.8,0,67.5,0,101.3,0,.6,0,1.2,0,1.8,0,1,.2,1.6.7,1.6,1.8,0,1-.7,1.6-1.7,1.7-.6,0-1.2,0-1.8,0-16.9,0-33.8,0-50.7,0h0Z"/>
        <path class="cls-66" d="M280.6,116.9c-8.8,0-17.7,0-26.5,0-.7,0-1.3,0-2,0-.9-.1-1.4-.7-1.5-1.6,0-.9.5-1.3,1.2-1.6.7-.3,1.4-.2,2.2-.2,17.9,0,35.8,0,53.7,0,.3,0,.6,0,.9,0,1.2.1,2.6.3,2.5,1.9,0,1.5-1.3,1.7-2.6,1.7-9.3,0-18.6,0-27.9,0h0Z"/>
        <path class="cls-77" d="M268.7,108.5c-4.9,0-9.7,0-14.6,0-1.3,0-2.7-.1-2.7-1.8,0-1.5,1.4-1.7,2.6-1.7,9.9,0,19.7,0,29.6,0,1.3,0,2.3.5,2.2,1.9,0,1.4-1.1,1.7-2.4,1.7-4.9,0-9.9,0-14.8,0Z"/>
      </g>
    </g>
  </g>
</svg>