<?xml version="1.0" encoding="UTF-8"?>
<svg xmlns="http://www.w3.org/2000/svg" version="1.1" viewBox="0 0 800 454.3">
  <defs>
    <style>
      .cls-1 {
        fill: #2e3552;
      }

      .cls-2 {
        fill: #ed7d2b;
      }

      .cls-3 {
        fill: #2b478b;
      }

      .cls-4 {
        fill: #233862;
      }

      .cls-5 {
        fill: #96242d;
      }

      .cls-6 {
        fill: #ed975d;
      }

      .cls-7 {
        fill: #d4e4f8;
      }

      .cls-8 {
        fill: #73a2e5;
      }

      .cls-9 {
        fill: #b7d3f3;
      }

      .cls-10 {
        fill: #9fc1f4;
      }

      .cls-11 {
        fill: #fff;
      }

      .cls-12 {
        fill: #c0d8fb;
      }

      .cls-13 {
        fill: #dfebfd;
      }

      .cls-14 {
        fill: #9abfe2;
      }

      .cls-15 {
        fill: #ebf3fa;
      }

      .cls-16 {
        fill: #ffb27d;
      }

      .cls-17 {
        fill: #8cb4f4;
      }

      .cls-18 {
        fill: #c8dbf4;
      }

      .cls-19 {
        fill: #182d4f;
      }

      .cls-20 {
        fill: #1b3051;
      }

      .cls-21 {
        fill: #f99746;
      }

      .cls-22 {
        fill: #0f2549;
      }

      .cls-23 {
        fill: #bad4f4;
      }

      .cls-24 {
        fill: #ebf3ff;
      }

      .cls-25 {
        fill: #7d1b22;
      }
    </style>
  </defs>
  <!-- Generator: Adobe Illustrator 28.7.1, SVG Export Plug-In . SVG Version: 1.2.0 Build 142)  -->
  <g>
    <g id="_Слой_1" data-name="Слой_1">
      <g>
        <path class="cls-15" d="M61.3,452.9S-33.6,338.5,12.8,220.8c30.2-76.7,143.7-118.8,207.7-76.7,27.3,17.9,114.8.6,161.5-73.5,90.8-144.1,407.6-56.6,349.9,164.7-27.9,107.1,84.9,111,27.4,218l-698-.2Z"/>
        <g>
          <g>
            <path class="cls-18" d="M131.6,264.7s-9.6-11.2-.6-18.3c0,0,6.6-4,11.9-3.7,0,0-7.6,12.7-5.1,14,2.5,1.3,7.4-14.8,7.4-14.8,0,0,14.9-1.4,19.7.9,0,0-12.8,10.4-10.1,11.1,2.7.6,16.5-9.6,16.5-9.6,0,0,13.9,2.4,13.2,10.8-.7,8.5-5.5,11.1-7.6,10.9-2.1-.2-14.4-4.9-14.7-3.2-.3,1.7,7.1,7.4,12.3,7.6,0,0-9.8,10.8-16.3,7.7-6.5-3.1-7.1-8.1-11.1-9.9-4.1-1.9-7.5-1.8-5.8,0,1.7,1.9,9,3.7,11.3,7.8,2.3,4.1,4.4,6.9-2.3,5.9-6.7-1-17.7-5.9-18.2-11.6l-.5-5.6Z"/>
            <g>
              <path class="cls-18" d="M177.7,255.3s-37.8-1.5-46.1,9.3c0,0-1.8,5.5-7.5,10.6l-.9,2.4s6.5-6.9,8.9-7.3c0,0-3.7-13.4,45.6-15Z"/>
              <path class="cls-18" d="M124.1,275.2s-8.1,6-8.7,16.7h1.5c0,.1,2.6-10.9,7.3-15.3,4.7-4.3,0-1.4,0-1.4Z"/>
            </g>
          </g>
          <g>
            <path class="cls-18" d="M98.1,250.6s15.2-8.5,8.1-20.1c0,0-5.7-7.1-11.8-8.9,0,0,3.2,17.3,0,17.7-3.2.4-2.2-19.5-2.2-19.5,0,0-16-7.7-22.3-7.1,0,0,10,16.9,6.7,16.4-3.2-.4-14.4-17.5-14.4-17.5,0,0-16.5-3-19.1,6.7-2.6,9.7,1.6,14.6,4.1,15.2,2.4.6,18.1.4,17.7,2.4-.4,2-11,5.3-16.9,3.5,0,0,6.5,16,15,15.2,8.5-.8,11.2-6.1,16.5-6.5,5.3-.4,9.1,1,6.5,2.4-2.6,1.4-11.6.5-15.8,4.1-4.3,3.6-7.7,5.9.2,7.5,7.9,1.6,22.1.6,25-5.5l2.8-6.1Z"/>
            <g>
              <path class="cls-18" d="M50.6,221.4s42.6,13.8,47.5,29.2c0,0-.2,6.9,4.1,14.8v3s-4.5-10.4-6.9-11.8c0,0,9.5-13.4-44.7-35.3Z"/>
              <path class="cls-18" d="M102.2,265.5s6.6,10,2.8,22.1l-1.7-.5s1.6-13.4-1.8-20.1c-3.4-6.7.7-1.6.7-1.6Z"/>
            </g>
          </g>
          <g>
            <path class="cls-7" d="M122.3,238.9s-20.1-11.2-10.7-26.5c0,0,7.5-9.4,15.5-11.8,0,0-4.3,22.8,0,23.3,4.3.5,2.9-25.7,2.9-25.7,0,0,21.1-10.2,29.4-9.4,0,0-13.1,22.2-8.8,21.7,4.3-.5,19-23,19-23,0,0,21.7-4,25.2,8.8,3.5,12.8-2.1,19.3-5.4,20.1-3.2.8-23.8.5-23.3,3.2.5,2.7,14.5,7,22.2,4.6,0,0-8.6,21.1-19.8,20.1-11.2-1.1-14.7-8-21.7-8.6-7-.5-12,1.3-8.6,3.2,3.5,1.9,15.3.6,20.9,5.4,5.6,4.8,10.2,7.7-.3,9.9-10.4,2.1-29.2.8-32.9-7.2l-3.7-8Z"/>
            <g>
              <path class="cls-7" d="M185,200.3s-56.2,18.2-62.6,38.5c0,0,.3,9.1-5.4,19.5v4s5.9-13.7,9.1-15.5c0,0-12.6-17.7,58.9-46.6Z"/>
              <path class="cls-7" d="M117,258.4s-8.7,13.2-3.7,29.2l2.2-.6s-2.2-17.7,2.4-26.5c4.5-8.9-.9-2.1-.9-2.1Z"/>
            </g>
          </g>
          <path class="cls-7" d="M121.7,322.4c21.7,0,39.3-17.6,39.3-39.3h-78.7c0,21.7,17.6,39.3,39.3,39.3Z"/>
          <path class="cls-7" d="M86.6,319.5h70c2.7,0,4.9,2.2,4.9,4.9h-79.7c0-2.7,2.2-4.9,4.9-4.9Z"/>
          <rect class="cls-10" x="81" y="283" width="80.8" height="1.2"/>
        </g>
        <g>
          <path class="cls-17" d="M324.6,452.1h.2c1.6,0,2.8-1.3,2.7-2.8l-10.6-105.9-9.3.8,15.2,106.4c.1.8.9,1.4,1.8,1.4Z"/>
          <path class="cls-17" d="M222.5,452.1h-.2c-1.6,0-2.8-1.3-2.7-2.8l10.6-105.9,9.3.8-15.2,106.4c-.1.8-.9,1.4-1.8,1.4Z"/>
          <path class="cls-17" d="M399.4,452.1h.2c1.6,0,2.8-1.3,2.7-2.8l-10.6-105.9-9.3.8,15.2,106.4c.1.8.9,1.4,1.8,1.4Z"/>
          <path class="cls-17" d="M225.7,328l-18.8-92.9c-2.4-12.6,8-24.1,21.5-23.8l36.3.8c12.5.3,23.4,8.7,26.9,20.7l27.5,95.2h-93.4Z"/>
          <path class="cls-17" d="M237.1,328l-18.8-92.9c-2.4-12.6,8-24.1,21.5-23.8l36.3.8c12.5.3,23.4,8.7,26.9,20.7l27.5,95.2h-93.4Z"/>
          <path class="cls-17" d="M234.2,328h137.1c4.7,0,8.5,3.8,8.5,8.5v8.5h-145.6c-4.7,0-8.5-3.8-8.5-8.5h0c0-4.7,3.8-8.5,8.5-8.5Z" transform="translate(605.4 672.9) rotate(180)"/>
          <path class="cls-17" d="M302.6,328h83c4.7,0,8.5,3.8,8.5,8.5h0c0,4.7-3.8,8.5-8.5,8.5h-83c-4.7,0-8.5-3.8-8.5-8.5h0c0-4.7,3.8-8.5,8.5-8.5Z" transform="translate(688.2 672.9) rotate(-180)"/>
        </g>
        <g>
          <path class="cls-14" d="M182.8,326.8v3.2c0,1.1-.4,2-.8,2h-115.7c-.4,0-.8-.9-.8-2v-3.2c0-1.1.4-2,.8-2h115.7c.4,0,.8.9.8,2Z"/>
          <path class="cls-23" d="M182.8,326.8v3.2c0,1.1-.3,2-.7,2h-91.9c-.4,0-.7-.9-.7-2v-3.2c0-1.1.3-2,.7-2h91.9c.4,0,.7.9.7,2Z"/>
          <rect class="cls-18" x="71.4" y="332" width="82.1" height="119.7"/>
          <rect class="cls-13" x="94.4" y="332" width="82.1" height="119.7"/>
          <g>
            <path class="cls-9" d="M172.2,445.1h-73.3v-109.7h73.3v109.7ZM99.6,444.3h71.7v-108.1h-71.7v108.1Z"/>
            <rect class="cls-9" x="99.2" y="371.6" width="72.5" height=".8"/>
            <rect class="cls-9" x="99.2" y="408.7" width="72.5" height=".8"/>
            <path class="cls-9" d="M142.9,342.4h-13.5c-.7,0-1.2-.5-1.2-1.2h0c0-.7.5-1.2,1.2-1.2h13.5c.7,0,1.2.5,1.2,1.2h0c0,.7-.5,1.2-1.2,1.2Z"/>
            <path class="cls-9" d="M142.9,378.6h-13.5c-.7,0-1.2-.5-1.2-1.2h0c0-.7.5-1.2,1.2-1.2h13.5c.7,0,1.2.5,1.2,1.2h0c0,.7-.5,1.2-1.2,1.2Z"/>
            <path class="cls-9" d="M142.9,416.3h-13.5c-.7,0-1.2-.5-1.2-1.2h0c0-.7.5-1.2,1.2-1.2h13.5c.7,0,1.2.5,1.2,1.2h0c0,.7-.5,1.2-1.2,1.2Z"/>
          </g>
        </g>
        <g>
          <path class="cls-12" d="M464.3,57.8h30c8.5,0,15.4,6.9,15.4,15.4v28.2c0,8.5-6.9,15.4-15.4,15.4h-30c-8.5,0-15.4-6.9-15.4-15.4v-28.2c0-8.5,6.9-15.4,15.4-15.4Z"/>
          <path class="cls-13" d="M465.6,60.3h27.4c7.8,0,14.1,6.3,14.1,14.1v25.7c0,7.8-6.3,14.1-14.1,14.1h-27.4c-7.8,0-14.1-6.3-14.1-14.1v-25.7c0-7.8,6.3-14.1,14.1-14.1Z"/>
          <g>
            <g>
              <circle class="cls-9" cx="479.3" cy="65.7" r="1.3"/>
              <path class="cls-9" d="M488.2,67.5c.3-.6,1.1-.8,1.7-.5.6.3.8,1.1.5,1.7-.3.6-1.1.8-1.7.5-.6-.3-.8-1.1-.5-1.7Z"/>
              <path class="cls-9" d="M496.9,74.4c.6-.4,1.4-.2,1.7.4.4.6.2,1.4-.4,1.7-.6.4-1.4.2-1.7-.4-.4-.6-.2-1.4.4-1.7Z"/>
              <path class="cls-9" d="M501.2,85.1c.7,0,1.3.6,1.3,1.3s-.6,1.3-1.3,1.3-1.3-.6-1.3-1.3.6-1.3,1.3-1.3Z"/>
              <path class="cls-9" d="M499,97.5c.5.5.5,1.3,0,1.8-.5.5-1.3.5-1.8,0-.5-.5-.5-1.3,0-1.8.5-.5,1.3-.5,1.8,0Z"/>
              <path class="cls-9" d="M491.1,105.4c.5.5.5,1.3,0,1.8-.5.5-1.3.5-1.8,0-.5-.5-.5-1.3,0-1.8.5-.5,1.3-.5,1.8,0Z"/>
              <path class="cls-9" d="M478,109.5c0-.7.6-1.3,1.3-1.3s1.3.6,1.3,1.3-.6,1.3-1.3,1.3-1.3-.6-1.3-1.3Z"/>
            </g>
            <g>
              <path class="cls-9" d="M470.3,67.5c-.3-.6-1.1-.8-1.7-.5-.6.3-.8,1.1-.5,1.7.3.6,1.1.8,1.7.5.6-.3.8-1.1.5-1.7Z"/>
              <path class="cls-9" d="M461.6,74.4c-.6-.4-1.4-.2-1.7.4-.4.6-.2,1.4.4,1.7.6.4,1.4.2,1.7-.4.4-.6.2-1.4-.4-1.7Z"/>
              <path class="cls-9" d="M457.3,85.1c-.7,0-1.3.6-1.3,1.3s.6,1.3,1.3,1.3,1.3-.6,1.3-1.3-.6-1.3-1.3-1.3Z"/>
              <path class="cls-9" d="M459.5,97.5c-.5.5-.5,1.3,0,1.8.5.5,1.3.5,1.8,0,.5-.5.5-1.3,0-1.8-.5-.5-1.3-.5-1.8,0Z"/>
              <path class="cls-9" d="M467.4,105.4c-.5.5-.5,1.3,0,1.8.5.5,1.3.5,1.8,0,.5-.5.5-1.3,0-1.8-.5-.5-1.3-.5-1.8,0Z"/>
            </g>
          </g>
          <g>
            <path class="cls-9" d="M478.9,86.4c0-.7.6-1.3,1.3-1.3s1.3.6,1.3,1.3-.6,1.3-1.3,1.3-1.3-.6-1.3-1.3Z"/>
            <rect class="cls-9" x="480" y="70.6" width=".3" height="15.7"/>
            <rect class="cls-9" x="478.9" y="82.5" width="10.6" height="1" transform="translate(52 316.7) rotate(-38.1)"/>
          </g>
        </g>
        <g>
          <path class="cls-4" d="M350.8,308.5c-7.8,13.5-17.5,18.7-17.5,18.7h-40.6s64.1-29.1,58.2-18.7Z"/>
          <g>
            <path class="cls-16" d="M400.9,442.9c-.4,4.3,5.5,5.4,12.4,5.8,6.9.4,4.8,1.8,14.2,3.6,9.4,1.8,13.2-.7,13.9-2,.6-1.1-3.7-2.9-8.4-5-.6-.3-1.2-.5-1.8-.8-5.2-2.4-8.1-7.1-12.2-11.5-3.8-4.2-7.4-17.5-7.4-17.5l-12.8-2.9s3.5,12,4.7,17.1c.7,3-.4,6.3-1.4,8.9-.5,1.4-1.1,2.8-1.2,4.3Z"/>
            <path class="cls-22" d="M413.3,448.6c6.9.4,4.8,1.8,14.2,3.6,9.4,1.8,13.2-.7,13.9-2,.6-1.1-3.7-2.9-8.4-5h0c0,0-6.7,2.3-14.3,0-6.2-1.8-12.2-5.6-16.5-6.8-.5,1.4-1.1,2.8-1.2,4.3-.4,4.3,5.5,5.4,12.4,5.8Z"/>
            <path class="cls-25" d="M381.5,294.7c-6.9-4.8-52.4-13.4-75.6-15.9l-25.7-22.3s-21.9,32.4-22,57.1c0,11.5,5.2,12.7,5.2,12.7,0,0,82.3.6,85.9,1,5.9.6,13.7,15.3,15.6,28.7,1.9,13.4,36.3,67.9,36.3,67.9,0,0,7.2,2.3,10.5,2.1,3.6-.2,5.2-1.4,5.2-1.4,0,0-19.9-119-35.4-129.9Z"/>
            <path class="cls-16" d="M379.6,442.9c-.4,4.3,5.5,5.4,12.4,5.8,6.9.4,4.8,1.8,14.2,3.6,9.4,1.8,13.2-.7,13.9-2,.6-1.1-3.7-2.9-8.4-5-.6-.3-1.2-.5-1.8-.8-5.2-2.4-8.1-7.1-12.2-11.5-3.8-4.2-7.4-17.5-7.4-17.5l-12.8-2.9s3.5,12,4.7,17.1c.7,3-.4,6.3-1.4,8.9-.5,1.4-1.1,2.8-1.2,4.3Z"/>
            <path class="cls-4" d="M392,448.6c6.9.4,4.8,1.8,14.2,3.6,9.4,1.8,13.2-.7,13.9-2,.6-1.1-3.7-2.9-8.4-5h0c0,0-6.7,2.3-14.3,0-6.2-1.8-12.2-5.6-16.5-6.8-.5,1.4-1.1,2.8-1.2,4.3-.4,4.3,5.5,5.4,12.4,5.8Z"/>
            <path class="cls-5" d="M360,294.7c-6-4.2-24-7.5-43.8-9.9-5.5-.7-10-4.7-11.3-10h0l-46.2-18.3s-21.9,32.4-22,57.1c0,11.5,5.2,12.7,5.2,12.7,0,0,82.3.6,85.9,1,5.9.6,13.7,15.3,15.6,28.7,1.9,13.4,36.3,67.9,36.3,67.9,0,0,7.2,2.3,10.5,2.1,3.6-.2,5.2-1.4,5.2-1.4,0,0-19.9-119-35.4-129.9Z"/>
            <path class="cls-4" d="M298.3,122c-6.3-3.3-16-3.8-17.6-4-18.8-2.5-30.1,24.7-30.7,33-1.2,15.2-9.3,17.6-20.6,27.1-22.7,19.1-16.1,41.3-3.6,49.6,7.5,5,20.6,0,20.6,0,.2.1,36-20,53.6-29.7,26.4-3.8,14.5-67.5-1.7-76Z"/>
            <path class="cls-16" d="M294.4,188.6c0,0-8.3,3.9-14.4,1.9-5.7-1.9-10.8-10.5-10.7-10.5,2.5-.4,5-2.8,5.7-17.3l1.1.3,18.5,4.7s-.7,5.9-1,11.4c-.3,4.6-.2,9.1.8,9.6Z"/>
            <path class="cls-6" d="M294.6,167.6s0,1.2-.7,6.7c-10.5-2.6-15.1-6.1-18.3-10.1l19,3.4Z"/>
            <path class="cls-16" d="M298.5,168.3s-24.4,4-26.7-11.3c-2.2-15.3-6.9-25,8.6-28.2,15.5-3.2,19.4,2.2,21.4,7.1,2,4.9,3,31-3.3,32.4Z"/>
            <path class="cls-4" d="M298.5,128.2s-11.1,17.5-21,21.7c-9.9,4.1-14.8,2-14.8,2,0,0,4.5-6.8,5.7-16,.3-2.7,2.1-5,4.6-6,7.1-2.8,20.9-7.3,25.5-1.7Z"/>
            <path class="cls-4" d="M288.8,129.9s6.5,3.3,9.2,6.5c2.6,3,5.6,11.2,5.4,14.9,0,0,3.2-17.6-3.5-23.7-7.1-6.4-11.1,2.3-11.1,2.3Z"/>
            <path class="cls-11" d="M313.9,225.9c-.7,49.7-.2,39.3-5.6,44-1.3,1.1-5,1.8-9.8,2.1-15.2,1-42-1.5-43-4.3-3.5-9.7-1-12.8-4-27.7-.3-1.6-.7-3.3-1.1-5.2-2.4-10.2-4.8-13.7,3.8-30.2,7.9-14.9,17.1-27,17.8-26.6,20.7,12.3,21.5,2,21.5,2,0,0,20.8,21.6,20.4,45.8Z"/>
            <path class="cls-11" d="M293.5,180.1s21.2,3.6,23.7,12.8c2.5,9.2,17.3,63.2,17.3,63.2,0,0-10.9,1.9-15.9-3.1s-17.4-46.5-17.4-46.5l-7.7-26.4Z"/>
            <path class="cls-24" d="M298.4,272c-15.2,1-42-1.5-43-4.3-3.5-9.7-1-12.8-4-27.7l7.3-20.7s-1.2,23,5.6,29.1c6.8,6.1,27.8,11.7,31.1,16.8,1.6,2.4,2.6,4.9,2.9,6.8Z"/>
            <path class="cls-16" d="M281,262.3s15-3.3,17.5-2c2.4,1.3,8.4,6.2,9.1,7.9.7,1.7-5.4-1.3-7.4-1.8-1.3-.3-4.7.8-6.4,1.4-7.1,2.4-11.4,1.1-11.4,1.1l-1.3-6.6Z"/>
            <path class="cls-11" d="M272,178.1s-21.3,1.2-28.3,11c-9.8,13.7-29.3,72.2-18.2,80,12.6,8.8,57.3,2.3,57.3,2.3,0,0,1.5-7-.6-10.3-2.1-3.4-35.7-8.8-37.3-10.4-1.6-1.6,19.4-30.3,19.4-34.9s7.6-37.6,7.6-37.6Z"/>
            <path class="cls-16" d="M299.2,264.5s3.1,4.1,4.2,4.5c1,.5,1.7.4,1.7.4l-2.1-3.8-3.8-1.1Z"/>
            <path class="cls-16" d="M298.4,260.3l9.2,4.4s-.4.6-1.5.6c-1.1,0-4-1.1-4-1.1l-3.7-3.9Z"/>
          </g>
        </g>
        <g>
          <path class="cls-2" d="M332.2,270.8h-42.5c0-1.9,1.5-3.4,3.4-3.4h39.1v3.4Z"/>
          <polygon class="cls-2" points="332 224.5 397.8 224.5 382 270.8 315.8 270.8 332 224.5"/>
          <polygon class="cls-5" points="398.7 224.5 383 270.8 316.8 270.8 333 224.5 398.7 224.5"/>
          <path class="cls-11" d="M363.3,247.3c-.4,1.8-2.2,3.2-3.9,3.2s-2.9-1.4-2.5-3.2c.4-1.8,2.2-3.2,3.9-3.2s2.9,1.4,2.5,3.2Z"/>
        </g>
        <g>
          <rect class="cls-19" x="272.8" y="270.8" width="292.5" height="10.4" rx="5.2" ry="5.2"/>
          <path class="cls-19" d="M570.1,452.9h.1c1.5-.2,2.5-1.5,2.3-3l-25.7-173.8-9.4.3,30.2,174.7c.2,1.1,1.3,1.9,2.4,1.7Z"/>
          <path class="cls-19" d="M265.3,452.9h-.1c-1.5-.2-2.5-1.5-2.3-3l25.7-173.8,9.4.3-30.2,174.7c-.2,1.1-1.3,1.9-2.4,1.7Z"/>
          <path class="cls-19" d="M324.7,452.9h-.1c-1.5-.2-2.5-1.5-2.3-3l25.7-173.8,9.4.3-30.2,174.7c-.2,1.1-1.3,1.9-2.4,1.7Z"/>
        </g>
        <rect class="cls-1" x="0" y="451.2" width="800" height="3.1" rx="1.5" ry="1.5"/>
        <g>
          <path class="cls-4" d="M476.2,452.7h50.9c2.4-3,1.5-14,1.2-17.6,0-.7-.1-1.1-.1-1.1,0,0-17.4-13.9-19.8-3.3,0,.3-.2.7-.3,1-3,10-16.5,14.5-24.3,15.8-5.1.8-6.9,3.5-7.6,5.3Z"/>
          <path class="cls-4" d="M615.2,287.2c-1.8,0-87.3,16-101.4,33.5-7.1,8.7-8.1,109.6-8.1,109.6,0,0,8.7,10.8,27.6,4.5,0,0,13.8-69,12.8-90-.3-5.8,58.4-.8,69.1-3.6,10.7-2.8,37-26.1,31.2-37.5-5.8-11.4-31.2-16.6-31.2-16.6Z"/>
          <path class="cls-16" d="M514.2,262.5s-17.2.2-21.3,2c-4.1,1.7-12.3,5.8-10.1,6.4,2.2.6,12.8-.3,15,0,2.3.3,5.1,0,6.5,0,1.4,0,7.9,0,7.9,0l2-8.3Z"/>
          <path class="cls-16" d="M494,221.1s-5.9-4.2-11.6-5c-3.3-.5-6.4-1-8.3-1.7-5.3-1.9-15.8-11.3-15-12.4,2.6-3.6,14.9,4,17,3.2,2.1-.8-4.1-5.3-1.9-6.8,1.1-.8,3.8,3.3,6,3.7,2.9.6,5.3,4.7,6.1,4.9,1.7.4,9.3,6,9.3,6l-1.6,8.2Z"/>
          <path class="cls-2" d="M606.7,172.1s-13.1,4.1-26,39.7c-12.9,35.6-17.8,37.5-22.5,38.9-4.7,1.4-45.9,9.6-45.9,9.6v10.6h63.5s23.8-22.7,31-37.9c7.1-15.3,0-60.8,0-60.8Z"/>
          <path class="cls-20" d="M453.7,452.7h50.9c2.4-3,1.5-14,1.2-17.6,0-.7-.1-1.1-.1-1.1,0,0-17.4-13.9-19.8-3.3,0,.3-.2.7-.3,1-3,10-16.5,14.5-24.3,15.8-5.1.8-6.9,3.5-7.6,5.3Z"/>
          <path class="cls-3" d="M590,287.2c-1.8,0-87.3,16-101.4,33.5-7.1,8.7-8.1,109.6-8.1,109.6,0,0,8.7,10.8,27.6,4.5,0,0,13.8-69,12.8-90-.3-5.8,58.4-.8,69.1-3.6,10.7-2.8,37-26.1,31.2-37.5-5.8-11.4-31.2-16.6-31.2-16.6Z"/>
          <path class="cls-16" d="M595.3,183.4c6.1-.5,12.6-2.1,18.2-4,7-2.3,12.6-5.6,9-11.9-3.3-5.9-8.7-19-8.4-29.8l-13,10.4-8.8,7.1s0,4.2,1,11.5c.2,1.3.4,2.8.6,4.3.2,1.2-.4,2.5-1.4,3.2,0,0-.1,0-.2.1-4.4,2.7-2.1,9.5,3,9.1Z"/>
          <path class="cls-6" d="M592.3,153.5s-.5,1.5.3,7.1c7.8-1.3,15.2-7.5,15.2-7.5-4-1.1-5.4-5.4-8.4-5l-7.1,5.4Z"/>
          <path class="cls-16" d="M585.1,154.8s30.2,5,33-13.8c2.8-18.8,8.6-30.9-10.5-34.9-19.1-4-24,2.6-26.5,8.7-2.5,6.1-3.8,38.2,4,40Z"/>
          <path class="cls-3" d="M576.7,106.4c-1.3,4.5,2.2,10.1,8,11.9,8.6,2.7,6.7,13.3,10.6,13.2,3.9-.1,5.5-6.1,8.9-1.3,3,4.1-2.5,8.9-2.1,11.1.6,3.8,6.6,11.6,12,11.2,5.4-.4,15.5-26,13.5-33.9-2-7.9-10.1-16.3-17.7-17.4-7.6-1.2-18.2,2.1-20.7,2.1s-11.8.7-12.5,3.2Z"/>
          <path class="cls-21" d="M646.8,198.3c-4.4-17.6-16.4-36-24.6-36-13.9,0-33.9,3.7-41.9,23.6-5.9,14.6-13.9,98.9-4.9,104.9,20.5,13.7,67.9,41.7,76.3,13.1,7.7-26.1,2.6-75.2-4.9-105.6Z"/>
          <path class="cls-21" d="M613,180.8c-4-10.3-16.7-13.9-25.5-7.1-4.7,3.7-10.5,8.9-17.5,16.3-25.9,27.6-31.2,27.4-36.1,26.9-4.9-.6-46-9.3-46-9.3,0,0-2.1,1.6-3.3,4.1-1.7,3.4-.8,5.6-.8,5.6-1.6-1,14.6,10.1,22.6,14.6,10.6,5.9,26.7,11.4,33.1,13.5,1.8.6,3.8.6,5.6,0,9.5-3.4,41.3-15.9,67.2-37.5,6.8-5.7,4.3-17.4.6-27Z"/>
          <path class="cls-11" d="M623.6,162.5l-3.1-7.1s-28.1,2.3-32.9,18.3c0,0,21.8-10.9,36-11.2Z"/>
        </g>
        <g>
          <path class="cls-17" d="M691.9,452.1h.2c1.6,0,2.8-1.3,2.7-2.8l-10.6-105.9-9.3.8,15.2,106.4c.1.8.9,1.4,1.8,1.4Z"/>
          <path class="cls-17" d="M637.3,452.1h.2c1.6,0,2.8-1.3,2.7-2.8l-10.6-105.9-9.3.8,15.2,106.4c.1.8.9,1.4,1.8,1.4Z"/>
          <path class="cls-8" d="M534.9,452.1h-.2c-1.6,0-2.8-1.3-2.7-2.8l10.6-105.9,9.3.8-15.2,106.4c-.1.8-.9,1.4-1.8,1.4Z"/>
          <path class="cls-17" d="M688.9,328.4l10.1-88.4c1.3-12.7-2.9-25.2-21.3-26.2l-32.4-2c-19.2-.8-27.8,15.2-30.3,27.5l-19.2,97.2,93.1-8.1Z"/>
          <path class="cls-8" d="M543.2,328h145.6v8.5c0,4.7-3.8,8.5-8.5,8.5h-137.1c-4.7,0-8.5-3.8-8.5-8.5h0c0-4.7,3.8-8.5,8.5-8.5Z"/>
          <path class="cls-17" d="M604.3,328h84.5v8.5c0,4.7-3.8,8.5-8.5,8.5h-76c-4.7,0-8.5-3.8-8.5-8.5h0c0-4.7,3.8-8.5,8.5-8.5Z"/>
        </g>
      </g>
    </g>
  </g>
</svg>