<?xml version="1.0" encoding="UTF-8"?>
<svg xmlns="http://www.w3.org/2000/svg" version="1.1" viewBox="0 0 800 403.2">
  <defs>
    <style>
      .cls-1 {
        fill: #f9f9fa;
      }

      .cls-2 {
        fill: #c1e7fa;
      }

      .cls-3 {
        fill: #ec855e;
      }

      .cls-4 {
        fill: #7b5d73;
      }

      .cls-5 {
        fill: #cfedfa;
      }

      .cls-6 {
        fill: #bde4f9;
      }

      .cls-7 {
        fill: #c1c5d6;
      }

      .cls-8 {
        fill: #c6cdda;
      }

      .cls-9 {
        fill: #33717b;
      }

      .cls-10 {
        fill: #fbfcfd;
      }

      .cls-11 {
        fill: #e5f2fa;
      }

      .cls-12 {
        fill: #d2edf9;
      }

      .cls-13 {
        fill: #37a3a9;
      }

      .cls-14 {
        fill: #ea7d60;
      }

      .cls-15 {
        fill: #dff2f7;
      }

      .cls-16 {
        fill: #cfd3e2;
      }

      .cls-17 {
        fill: #c2e2f5;
      }

      .cls-18 {
        fill: #35505d;
      }

      .cls-19 {
        fill: #f99970;
      }

      .cls-20 {
        fill: #91859b;
      }

      .cls-21 {
        fill: #261932;
      }

      .cls-22 {
        fill: #f78e68;
      }

      .cls-23 {
        fill: #287278;
      }

      .cls-24 {
        fill: #c5bccb;
      }

      .cls-25 {
        fill: #c8bcca;
      }

      .cls-26 {
        fill: #ecf3fc;
      }

      .cls-27 {
        fill: #9f3549;
      }

      .cls-28 {
        fill: #347a83;
      }

      .cls-29 {
        fill: #da5d5b;
      }

      .cls-30 {
        fill: #672b46;
      }

      .cls-31 {
        fill: #6f646c;
      }

      .cls-32 {
        fill: #411a16;
      }

      .cls-33 {
        fill: #251932;
      }

      .cls-34 {
        fill: #366977;
      }

      .cls-35 {
        fill: #fafdfd;
      }

      .cls-36 {
        fill: #2c4551;
      }

      .cls-37 {
        fill: #7a7280;
      }

      .cls-38 {
        fill: #e2785c;
      }

      .cls-39 {
        fill: #299a9b;
      }

      .cls-40 {
        fill: #358189;
      }

      .cls-41 {
        fill: #30999f;
      }

      .cls-42 {
        fill: #b9ddf3;
      }

      .cls-43 {
        fill: #95c2ce;
      }

      .cls-44 {
        fill: #f56757;
      }

      .cls-45 {
        fill: #295d66;
      }

      .cls-46 {
        fill: #c9322b;
      }

      .cls-47 {
        fill: #f99d75;
      }

      .cls-48 {
        fill: #b6b1c0;
      }

      .cls-49 {
        fill: #cde0ec;
      }

      .cls-50 {
        fill: #315764;
      }

      .cls-51 {
        fill: #fa9c74;
      }

      .cls-52 {
        fill: #23152f;
      }

      .cls-53 {
        fill: #afa8b9;
      }

      .cls-54 {
        fill: #50b19f;
      }

      .cls-55 {
        fill: #36aeb3;
      }

      .cls-56 {
        fill: #d6eef9;
      }

      .cls-57 {
        fill: #7e6a82;
      }

      .cls-58 {
        fill: #cfd8e3;
      }

      .cls-59 {
        fill: #251832;
      }

      .cls-60 {
        fill: #37acb3;
      }

      .cls-61 {
        fill: #6f546f;
      }

      .cls-62 {
        fill: #3aaeb4;
      }

      .cls-63 {
        fill: #8fc5ce;
      }

      .cls-64 {
        fill: #d9d8dc;
      }

      .cls-65 {
        fill: #e77b61;
      }

      .cls-66 {
        fill: #cbecfa;
      }

      .cls-67 {
        fill: #36878f;
      }

      .cls-68 {
        fill: #4e213f;
      }

      .cls-69 {
        fill: #8d7e96;
      }

      .cls-70 {
        fill: #de583f;
      }

      .cls-71 {
        fill: #414052;
      }

      .cls-72 {
        fill: #ea8f8c;
      }

      .cls-73 {
        fill: #765f79;
      }

      .cls-74 {
        fill: #e8edf2;
      }

      .cls-75 {
        fill: #645d6d;
      }

      .cls-76 {
        fill: #d3edf9;
      }

      .cls-77 {
        fill: #958d9b;
      }

      .cls-78 {
        fill: #dcdae0;
      }

      .cls-79 {
        fill: #e7f0f9;
      }

      .cls-80 {
        fill: #ecf6fb;
      }

      .cls-81 {
        fill: #c1e2f6;
      }

      .cls-82 {
        fill: #f99a71;
      }

      .cls-83 {
        fill: #4a5568;
      }

      .cls-84 {
        fill: #e3f4fc;
      }

      .cls-85 {
        fill: #fd7b5d;
      }

      .cls-86 {
        fill: #3c203a;
      }

      .cls-87 {
        fill: #9b93a7;
      }

      .cls-88 {
        fill: #ec845e;
      }

      .cls-89 {
        fill: #328a93;
      }

      .cls-90 {
        fill: #deeef5;
      }

      .cls-91 {
        fill: #f8f4f8;
      }

      .cls-92 {
        fill: #288a8d;
      }

      .cls-93 {
        fill: #b7504e;
      }

      .cls-94 {
        fill: #472d45;
      }

      .cls-95 {
        fill: #a398ab;
      }

      .cls-96 {
        fill: #be4a50;
      }

      .cls-97 {
        fill: #bb4a51;
      }

      .cls-98 {
        fill: #e7f0fa;
      }

      .cls-99 {
        fill: #e1f9fa;
      }

      .cls-100 {
        fill: #f8966d;
      }

      .cls-101 {
        fill: #e0f0f4;
      }

      .cls-102 {
        fill: #efbaa2;
      }

      .cls-103 {
        fill: #f7f0f1;
      }

      .cls-104 {
        fill: #322e40;
      }

      .cls-105 {
        fill: #f49979;
      }

      .cls-106 {
        fill: #dcf0f9;
      }

      .cls-107 {
        fill: #36b1b5;
      }

      .cls-108 {
        fill: #aba2b3;
      }

      .cls-109 {
        fill: #e6c7be;
      }

      .cls-110 {
        fill: #327b84;
      }

      .cls-111 {
        fill: #b0a8b1;
      }

      .cls-112 {
        fill: #231630;
      }

      .cls-113 {
        fill: #241930;
      }

      .cls-114 {
        fill: #f89b71;
      }

      .cls-115 {
        fill: #816e86;
      }

      .cls-116 {
        fill: #fafcfc;
      }

      .cls-117 {
        fill: #eaf1fb;
      }

      .cls-118 {
        fill: #271a33;
      }

      .cls-119 {
        fill: #b8514f;
      }

      .cls-120 {
        fill: #adaabb;
      }

      .cls-121 {
        fill: #472924;
      }

      .cls-122 {
        fill: #a199a4;
      }

      .cls-123 {
        fill: #f4ece8;
      }

      .cls-124 {
        fill: #cdd4e0;
      }

      .cls-125 {
        fill: #c3c5d6;
      }

      .cls-126 {
        fill: #f86558;
      }

      .cls-127 {
        fill: #35969d;
      }

      .cls-128 {
        fill: #f89c74;
      }

      .cls-129 {
        fill: #b7ddf4;
      }

      .cls-130 {
        fill: #a19db0;
      }

      .cls-131 {
        fill: #3a6267;
      }

      .cls-132 {
        fill: #f87966;
      }

      .cls-133 {
        fill: #ea675f;
      }

      .cls-134 {
        fill: #7e433a;
      }

      .cls-135 {
        fill: #261832;
      }

      .cls-136 {
        fill: #326571;
      }

      .cls-137 {
        fill: #903b4e;
      }

      .cls-138 {
        fill: #2b1d36;
      }

      .cls-139 {
        fill: #332e40;
      }

      .cls-140 {
        fill: #f56b63;
      }

      .cls-141 {
        fill: #d3eef9;
      }

      .cls-142 {
        fill: #221631;
      }

      .cls-143 {
        fill: #e8eff6;
      }

      .cls-144 {
        fill: #e1ecf4;
      }

      .cls-145 {
        fill: #764741;
      }

      .cls-146 {
        fill: #adabbb;
      }

      .cls-147 {
        fill: #ebf2fb;
      }

      .cls-148 {
        fill: #2a1b35;
      }

      .cls-149 {
        fill: #3cb6bc;
      }

      .cls-150 {
        fill: #442026;
      }

      .cls-151 {
        fill: #ebf3fc;
      }

      .cls-152 {
        fill: #378891;
      }

      .cls-153 {
        fill: #f9a079;
      }

      .cls-154 {
        fill: #ceeefa;
      }

      .cls-155 {
        fill: #3fb9c0;
      }

      .cls-156 {
        fill: #9d99ae;
      }

      .cls-157 {
        fill: #31383c;
      }

      .cls-158 {
        fill: #d1dae5;
      }

      .cls-159 {
        fill: #3fbac3;
      }

      .cls-160 {
        fill: #2b1928;
      }

      .cls-161 {
        fill: #f7946d;
      }

      .cls-162 {
        fill: #fcfdfd;
      }

      .cls-163 {
        fill: #f69871;
      }

      .cls-164 {
        fill: #414051;
      }

      .cls-165 {
        fill: #215f68;
      }

      .cls-166 {
        fill: #fdfdfd;
      }

      .cls-167 {
        fill: #c2bfcb;
      }

      .cls-168 {
        fill: #f0e6e2;
      }

      .cls-169 {
        fill: #ad5840;
      }

      .cls-170 {
        fill: #478d86;
      }

      .cls-171 {
        fill: #1a1114;
      }

      .cls-172 {
        fill: #f99d73;
      }

      .cls-173 {
        fill: #bf5550;
      }

      .cls-174 {
        fill: #296b72;
      }
    </style>
  </defs>
  <!-- Generator: Adobe Illustrator 28.7.1, SVG Export Plug-In . SVG Version: 1.2.0 Build 142)  -->
  <g>
    <g id="Layer_1">
      <g>
        <path class="cls-141" d="M221.3,85.7c4.1,1.5,8.4.6,12.6.5,1.4,0,.8-1.8.8-2.7,0-10.1,0-20.2,0-30.3,0-16,0-32.1,0-48.1,0-2.6.7-3.3,3.2-3.3,46.1,0,92.1,0,138.2,0,2.5,0,3.3.6,3.3,3.2-.1,12.6-.1,25.3,0,37.9,0,2.8-1,3.3-3.5,3.3-27,0-54,0-81.1-.1-3,0-3.7.9-3.7,3.8,0,51.6,0,103.2,0,154.8,0,1.6.3,3.3-.3,4.9-.3.9,0,1.5,1,1.6-.4,1.7-1.9,1.2-3,1.4-1,.2-2,.4-3,.4-1.9-.8-3.5.8-5.3.6-.9-1.1-2.1-1.6-3.5-1.7-9.6-1.2-19.2-3.2-28.6-5.3-2.9-.6-4.5-2-5.6-4.8-3.1-8.6-6.9-16.9-10.6-25.2-6.4-14.2-16.8-24.8-30.1-32.7-2.5-2.3-1.2-4.8-.3-7.2,1.3-.8,2.4,0,3.6.3,2.6.8,5.2,1.3,8,1.1,4.5-.4,6.9-3.5,6.2-8-.6-3.6-2-7.1-1.1-10.9,1.7-3.5-.2-6.7-.6-10-.2-.9-.2-1.8-.1-2.7.2-1.1.9-2.1,1-3.3,0-1-.2-1.9-.5-2.9-.8-3.4-2.1-6.7-2.7-10.2,1.2-2.3,3.2-3.7,5.7-4.4Z"/>
        <path class="cls-2" d="M477.9,133c0-32.9,0-65.8,0-98.7q0-3.9,4-3.9c.8,0,1.6-.1,2.3,0,4.3.9,7.4-1.1,10-4.3,5.8-7.1,11.7-14.1,17.6-21.2,1.2-1.4,1.1-3.2,1.4-4.9-.6,3.6,2.2,5.4,4,7.4,6.6,7.2,13,14.6,20,21.5,1.4,1.3,2.7,1.5,4.4,1.6,2.9,0,6.6-1.2,8.5.5,2,1.9.7,5.7.7,8.7,0,17.4,0,34.8,0,52.1-.4,1.6-1.9,1.5-3,1.9-3.1,1.3-5.7,3-6.7,6.4-1.1,3.5-.5,5.3,2.4,7.6.4.3.8.6,1,1.1-1.3,2.7-1.1,5.7-1.7,8.5,0,.4,0,.8-.2,1.3-.3,1.1-1.2,1.9-1.9,2.8-.9,1.2-1.2,2.6-.4,4,1.3,2.6,3.6,4.8,3.5,8,.9,3.7,2.2,7.2,4.1,10.5,2.4,4.2,4.8,5.1,9.5,3.7,1.7-.5,3.3-1.9,5.2-1.1,1.3,2.4,2.1,4.9,2.8,7.5,1.1,4.2.7,5.1-3.1,7.6-1.1.4-2.3.5-3,1.5-3.8,2.8-5.4,6.6-6.1,11.1-.3,1.9-.2,3.9-1.4,5.6-1.8,1.2-3.9,1.2-5.9,1.4-6.1.4-12.1,1.4-18.2,2.2-2.1.3-4.2.7-6.3-.4-.4-.5-.7-1.1-.5-1.6,1.4-3.8.2-7.6-.4-11.2-.8-4.9.8-9.9-.4-14.8-.4-1.8-.7-3.7-1.6-5.3-2.1-3.7-2.8-7.8-3.2-12-.4-4.4-1.2-5.2-5.6-5.2-8.3,0-16.7-.2-25,1-2.3.3-4.8.9-7-.7Z"/>
        <path class="cls-129" d="M664,91.1c11.6,7.4,22.4,15.8,33.7,23.5,2,1.4,2,2.8.7,4.8-8.8,13.5-17.5,27.1-26.3,40.6-1.2,1.8-2.8,3.4-3.1,5.7,11.7-13.4,22.9-27.3,34.9-40.6.9.9.5,1.9.5,2.8,0,29.5,0,59,0,88.5,0,1.1-.4,2.3.4,3.4.7,1.2,0,2.2-.4,3.3-1.1,3.1-2.1,6.2-3.1,9.3-.8,2.5-.9,4.9,0,7.3.4,1.5.9,3,1.1,4.5,0,.7,0,1.5-.7,1.8-.8.3-1.1-.5-1.6-1-.6-1-1.2-1.8-1.6.2-.9,5.2-1.7,10.3-2.3,15.5-.6,6.1-1.4,12.1-1.2,18.3,0,.9,0,1.8-.5,2.5-1.5.8-2.3-.4-3.3-1.1-2.2-1.6-4.3-3.3-6.6-4.7-6-3.4-12.5-3.6-19.2-2.9-.8,0-1.7.8-2.4-.1-.8-3.3.4-6.5.8-9.8.6-4.8,1.4-9.6,1.8-14.4,1.9-12,3.4-24,4.4-36.1.3-3.5.6-7,.6-10.5,0-4.1-1.1-7.3-5.1-8.9-.5-.2-1-.7-1.3-1.2-1.2-1.8-1.3-3.8-1.3-5.9,0-30.4,0-60.7,0-91.1,0-1.3,0-2.7.9-3.9Z"/>
        <path class="cls-161" d="M126.3,312.2c-11.9-4.1-15.6-13.8-16.9-25.1-1.7-14.9-3.9-29.8-5.6-44.7-1.5-13.4-3.7-26.7-3.8-40.2,0-7.7,1.6-9.6,9.3-10.2.2.2.5.5.8.6,2.9,2,3.8,5.1,4.1,8.4,1,11.7,2.3,23.4,3.6,35.1,1.8,16.2,3.6,32.4,5.5,48.6,1.2,10.3,4.6,15,17.7,14.9,27.2-.2,54.4,0,81.6,0,7.7,0,15.4,0,23,0,1.3,0,2.5.1,3.8-.3,1.2-.3,2.3-.5,3.6-.5,5,.6,10-.4,15,.7.8.2,1.7.3,2.6.5,4.4,3.2,4.1,10.5-.5,13.7-2.3.8-4.7,1.2-7.2.8-4.9-.7-9.9-.7-14.8-.4-6.9.5-13.7.5-20.6,0-17.5-.4-34.9,0-52.4-.2-8.3,0-16.5,0-24.8,0-1.9,0-3.7,0-5.5.6-4.5-.5-9-.6-13.5-.7-1.8,0-3.7-.4-5-1.8Z"/>
        <path class="cls-42" d="M477.9,133c11-.2,22-1.7,33-1.2,4,.2,5.2,1.1,5.5,5.1.2,4.3.9,8.3,2.9,12.2,2.3,4.7,3.1,9.7,1.9,14.9-.5,2.3.3,4.6.6,6.9.5,3.9,1.3,7.7-.1,11.6-1,1.1-2.3.8-3.6.6-11.2-1.8-22.6-2.7-33.8-4.2-2.8-.4-3.1.2-2.2,3.2,4.3,14,8.9,28,12.3,42.2.3,1.2.7,2.4,0,3.7-2.4,1.8-14.8,2.1-17.2.5-1.2-.8-1.8-2-1.9-3.4-.1-1.4-.1-2.7-.1-4.1,0-22.5,0-45.1,0-67.6,0-1.2,0-2.3,0-3.5,0-2.2-1-3.2-3.2-3.2-1.5,0-2.9,0-4.4,0-1.8,0-2.9-.7-3.1-2.6,0-2.9,0-5.8,0-8.7,0-1.7.5-2.4,2.3-2.4,3.7.1,7.4,0,11.1,0Z"/>
        <path class="cls-76" d="M109.5,192.4c0-.1-.1-.3-.2-.4,4.6,0,9.1-.2,13.7,0,2.2,0,2.8-.7,2.8-2.8,0-12,0-24.1,0-36.1,0-2.3.5-3.3,3-3.2,2.7.2,5.4,0,8.1,0,1.6,0,2.2-.5,2.5-2,.3-1.3.3-2.5.3-3.7,0-18.2,0-36.5,0-54.7,0-2.4.6-3.2,3.1-3.1,8.6.1,17.3,0,25.9,0,1.1,0,2.1,0,3.1.6.9.7.7,1.7.6,2.7-.3,2.4,0,4.8.1,7.2.1,10.1,3.8,19.1,8.1,27.9.2.3.3.7.4,1.1,0,3.4-1.7,6.5-2.2,9.8-.5,1-.9,2.1-1.5,3.1-.7,0-1.2-.2-2,.4-1.8,1.6-3.7,3-5.2,4.8-6.8,3.4-13.3,7.1-19.3,11.9-10.6,8.5-16.7,19.4-18.5,32.8-.2,1.7-.1,3.6-2.1,4.5-6.1.6-12.2.2-18.3.2-.9,0-1.7-.3-2.4-.9Z"/>
        <path class="cls-66" d="M599.9,126.6c10.9,0,21.7,0,32.6,0,2.7,0,3.7-.6,3.6-3.5-.2-9.7,0-19.4,0-29.1,0-1-.4-2.2.6-3,1.2,1.3.9,2.9.9,4.4,0,8.6,0,17.3,0,25.9,0,3.8.4,4.1,4.2,4.2,1.7,0,3.3,0,5,.1,2.8.3,3.9,1.5,4.2,4.3,0,1,0,1.9,0,2.9,0,18,0,35.9,0,53.9,0,.5,0,1,0,1.5-.1,3.9-.6,4.4-4.4,4.4-8.5,0-17.1,0-25.6,0-1.5,0-2.9-.1-4.3.3-1.8.3-3.5.5-5.2-.1-1.2-.9-.2-1.7.2-2.5.8-1.4,1.9-2.4,3.1-3.4,3.4-2.9,3.6-9.4-1.3-11.4-2.1-.8-3.1-2.5-1.8-4.7,3.4-5.8.7-10-3.4-13.3-6.5-5.2-8.8-11.7-8.5-19.7,0-2.9.2-5.8-.4-8.7-.2-.9-.2-1.9.6-2.7Z"/>
        <path class="cls-154" d="M404.5,160.4c0-4,0-8.1,0-12.1-.7-1,0-1.7.6-2.3,11.1,0,22.2,0,33.2,0,1.7,3.1,2.1,6.7,3,10,3.1,10.6,5.8,21.4,8.4,32.1,1.2,4.7,3.5,9,5.8,13.2.6,1,1.8,2,.6,3.3-3.7,1.2-3.5,1.2-3.2,5.3.3,4.6.6,9.2.8,13.8,0,1.3.1,2.7-.7,3.9-3.4,1.4-6.9.9-10.3.6-5.3-.5-10.6-.2-15.9-.9-4.1-.5-4.5-.7-5.1-4.7-2.3-13.8-3.8-27.7-6.1-41.6-.9-5.4-1.7-10.9-2.5-16.3-.2-1.1-.4-2.1-1.4-2.7-1.2-.7-2.6-.7-3.9-.7-1.1,0-2.4.2-3.2-.9Z"/>
        <path class="cls-33" d="M144.7,314.3c.5-1.2,1.5-1,2.5-1,25.9,0,51.8,0,77.7,0,1,0,1.9.3,2.9.4,1.3.9,1.3,2.3,1.5,3.6,4.3,24.9,8.5,49.8,12.8,74.6,1,5.6.2,6.4-5.5,6-.7,0-1.3-.1-2-.4-2.3-1.6-1.6-4.6-2.8-6.7-1.3-4.3-2.5-8.6-3.1-13.1-3.9-16.7-7.7-33.5-11.6-50.3-.5-2.3-1.8-3.1-4.1-3.1-18.2,0-36.3,0-54.5,0-2.8,0-3.9,1.2-4.7,3.6-5.4,16.5-11,33-16.3,49.6-1.9,5.1-3.4,10.4-5.3,15.5-1.4,5.1-2.3,5.8-6.8,5.4-1.1,0-2.4,0-3-1.4-.6-1.4-.3-2.6.9-3.6,1.9-5.9,3.5-11.9,4.7-18,1.1-9.6,4.6-18.5,6.9-27.8,2.4-9.5,5-18.9,7.5-28.4.5-1.8.4-3.9,2.2-5.2Z"/>
        <path class="cls-112" d="M599.9,126.6c.3,5.9.6,11.8,1,17.7.3,4.5,2.5,8,5.9,10.9,1.3,1.1,2.4,2.2,3.6,3.4,4,4.3,4.5,7.2,1.8,12.4-.8,1.6-1,2.7.9,3.7,6.1,3.1,6.8,7.4,2.1,12.6-1.5,1.6-3,3.3-4.4,4.9-2.1,1-2.2-.6-2.3-1.9-.2-2.1.2-4.2-.3-6.2-.4-3.3-.5-6.7-1.6-9.9-1.1-3.2-2.6-6.2-5-8.6-1.8-1.8-3.3-3.8-5.5-5-3.7-2.1-7.3-4.3-11-6.4-2.8-1.5-5.1-3.5-7-6-2.6-3.2-3.4-6.8-2.7-10.9.2-1.3.6-2.6.7-4,.3-1.9,1.5-3,3.2-3.8,2.1-.9,3.3-2.7,3.4-5,0-1.1-.3-2.1-1.4-2.7-1-.5-1.9,0-2.7.6-2.8,2.1-2.8,2.1-5.2-.3-2.1-2.1-4.5-3.3-7.7-3.3-8.7,0-15.5-4.4-21.3-10.5-3.8-1.4-4.9-3.4-4-7.6.8-4.4,3.9-6.7,7.7-8.1,1-.4,1.9-.7,2.9-1.1,6.9-1.1,13.8-1.7,20.8,0,12.6,3.3,19.8,12.1,24.8,23.5,1.6,3.7,2.4,7.5,3.5,11.3Z"/>
        <path class="cls-93" d="M81.8,336.7c.6.7,1.4.4,2.2.5,8.1.3,13.1,5.3,13.8,13.5,1.5,17.4-4.1,31.8-17.6,43-1.2,2.2-3.5,2.9-5.6,3.9-4,1.9-8.4,2.7-12.8,3.1-.9,0-1.8,0-2.3-.8-.7-1.6-.5-3.2-.5-4.9,0-16.2,0-32.4,0-48.6q0-4.8-4.5-5.9c-1.4-1.3-1.5-2.5.5-3.3,1.4,0,2.8,0,4.3,0,1.5-.4,3.1-.2,4.7-.4,1.9-.5,3.7-.7,5.6,0,.4.2.7.6.9,1.1.8,1.9,1.8,1.7,2.9.3.5-.5.8-1.3,1.8-1,1.1.1,2.2.3,3.4.4.7.6,1.4,1.7,2.2,0,.2-.5.5-1,1.3-.8Z"/>
        <path class="cls-119" d="M748.5,337.6c6.5,1.9,9.3,6.8,9.9,13,1.7,17.9-3.8,32.8-18.6,43.8-1.1,2-3.2,2.8-5.1,3.6-3.8,1.6-7.7,2.6-11.9,2.4-2.7,0-3.2-1.7-3.2-3.9,0-6.7,0-13.4,0-20.1,0-5.8-.8-11.6-.6-17.4.1-4.3,1-8.5.6-12.8,0-.8.2-1.6.9-2,2.5-1.4,4.4-3.8,6.9-5.2,3.2-.7,6.3.3,9.5.4,4,.1,7.8-.8,11.6-1.7Z"/>
        <path class="cls-6" d="M616.2,192.3c1-.7,2.1-.4,3.1-.4,9.3,0,18.6,0,28,0,2.2,0,2.8-.6,2.8-2.8,0-19.6,0-39.2,0-58.8,0-2.8-1-3.9-3.8-3.8-2,.1-4.1,0-6.1,0-2.5.1-3.6-.7-3.6-3.5.1-10.7,0-21.4,0-32,9.1,0,18.3,0,27.4,0,0,31.8,0,63.5,0,95.3,0,2,.4,3.8,1.2,5.6-1,.9-2.3.9-3.5,1.2-5.5.5-11.1.2-16.6.2-8.2,0-16.3,0-24.5,0-1.5,0-3.2.3-4.3-1.1Z"/>
        <path class="cls-88" d="M54,340.1q5.8,0,5.8,5.7c0,18,0,36.1,0,54.1-.4.9-1.2,1-2,.9-4.7-.5-9.2-1.4-13.3-3.7-.4-.2-.7-.6-.9-1.1-7.1-4.7-13-10.4-16.6-18.3-4.4-9.5-5.2-19.4-3.7-29.6,1-6.8,6.1-10.8,13-11,1.6,0,3.3,0,4.9,0,1.4,0,1.3,1.7,2.2,2.2,1-.1.5-1.4,1.3-1.6.8-.7,1.7-.5,2.6-.6.8-.5,1.4-.2,2,.3.6,2.5,2.6,2.5,4.6,2.7Z"/>
        <path class="cls-2" d="M456.4,203.9c-3.3-4.4-5.7-9.4-7-14.6-3.5-13.4-7-26.9-10.7-40.3-.3-1.1-.3-2.1-.4-3.2,5.4,0,10.8,0,16.2,0,3.1,0,6-1.2,9.2-.3,1,.3.7-.9.9-1.4.6,1.6,1.9,1.8,3.5,1.8,8.2,0,8.2,0,8.2,8.2,0,23.2,0,46.4,0,69.7,0,3.8,1,4.9,4.8,4.9,3.3,0,6.6,0,9.9,0,1.3,0,2.5,0,3.4-1.2,1.7-1,3.3-1.2,4.8.3-.3,1.8-1.7,2.2-3,2.7-7.6.5-15.3.2-22.9.2-.7,0-1.3-.2-1.9-.5-.5-3.3,0-6.7.3-10,.4-4.1.2-8.1.8-12.2.3-2.1-.8-2.9-2.9-2.9-3.2,0-6.4,0-9.6,0-1.3,0-2.6.3-3.5-1.1Z"/>
        <path class="cls-52" d="M180.5,126c-4.4-7.8-7.8-16.1-8.6-25.1-.4-4.6-.8-9.2-.1-13.9.8-2.5,2.4-4.2,4.9-5,1.3-.4,1.5-1.2,1.9-2.3,1.3-3.7,3.9-5.8,7.9-6.3,4.3-.5,8.5.3,12.8.2,3.1,0,6.2.2,9.3-.5,3.3-.7,6-2.3,7.3-5.5.6-1.5,1.2-1.2,2.3-.4,5.4,4.6,6.8,11.8,3.4,18.4-1.7,1.4-3.5,2.7-5.2,4.1-2-.1-.3-2-1.5-2.8-4.8,3.5-10.7,2.1-16.2,3-3.2.5-3.8.9-3.7,4.2,0,1,.2,1.9.4,2.9.7,3,.2,5.7-1.2,8.4-2.9,6.1-.9,11.6,5.2,14.4,2,.9,3.8,1.1,5.7-.3,3.8-2.8,8.4-1.9,12.6-2.3.9,0,1.7.4,1.7,1.6-1,3.9.5,7.5,1.1,11.2.9,5.2-1.8,8.7-7.1,8.9-3.9.2-7.5-1-11-2.3-4.8-.5-8-3.4-10.6-7.2-3.2-4.7-3.1-10.3-3.7-15.7-.2-1.9-.4-3.8-.7-5.8-.3-2-1.1-3.8-3.4-3.5-2.4.3-2.7,2.5-2.3,4.3.8,3.7,1.2,7.4,1,11.2,0,1.3,0,2.5-.4,3.7-.3.9-.4,1.9-1.6,2.2Z"/>
        <path class="cls-45" d="M91.9,208.8c0,.7,0,1.4,0,2.2.6,2.7-.2,5.6.5,8.3.3,5.1.2,10.1,0,15.2-.5,2.4.2,4.8-.4,7.2-.5,8.7-.7,17.5-2.4,26.1-1.8,1.8-2.5,4.3-3.7,6.5-1.4,2.8-3.5,4.5-6.5,5.2-5.6,1.3-9.8,4.4-11.6,10.2-1.2,3.8-3.9,6.7-6.6,9.5-1.3,1.3-3.8,1.4-4.4,3.6-1.1-1.6-1.7-3.3-1.8-5.2-.8-2.9,1.8-3.5,3.2-4.9.6-.6,1.5-.8,2.3-1.2,1.5-.7,1.8-1.6.8-3-1-1.4-2.3-2.6-3.5-3.9-2-2.2-2-3.6,0-5.8,1.9-2.1,4.3-3.6,6.8-5,2.3-1.3,3.5-3,3.1-5.6.5-3.8.6-7.6,1-11.4.1-1,0-2.1.6-3.1,2.8-2.1,1.6-4.6.8-7.1,0-.5.2-.9.4-1.2,4.2-.3,5.7-4,8-6.5,1.9-2.1,3.3-4.5,4.6-7.1,1-2.1,2.2-4.1,3.9-5.8,1.1-1,2-2.3,2-3.8,0-3.7,1.4-7.2,1.4-11,0-.9-.3-2.3,1.3-2.5Z"/>
        <path class="cls-36" d="M56.8,302.9c.1-1.8-.3-4,2.8-3.3.8.2,1-.7,1.4-1.2,3.1-3.4,5.5-7.1,7.1-11.5,1.6-4.3,5.5-6.9,9.8-7.8,4.3-.8,6.6-3.2,8.1-6.9.7-1.6,1.5-3.1,2.3-4.7.5-1,.9-.9,1.1.2-.5,3.7-1.1,7.4-1.6,11.2-.2,1.6-.5,3.2.3,4.7,1.5,2.9,1.6,5.9.7,9-.4,1.5-1.8,1.9-2.9,2.7-1.5,1.1-2.9,2.2-4,3.7-.8,1.2-1.4,2.4,0,3.6,1.1,1,.9,2.1.2,3.1-3.7,5.3-5.7,11.4-6.9,17.1.8-2.6,1.6-5.7,3.1-8.7.6-1.2,1-2.9,2.9-2.8-1.6,8.7-2.6,17.5-6.4,25.6-.4.3-1,.6-1,.9-.4,1.9-1.7,2.2-3.3,2-1.8-.3-.7-1.9-1.1-2.9-.8-1.2-.2-2.4.1-3.6,1.4-4.6,2.9-9.2,3-14.1,0-1.1.1-2.1-.1-3.2-.3-1.4-1.2-2.1-2.7-2.1-1.6,0-2.1,1-2.3,2.4-.5,5.2-1.1,10.4-1.8,15.6-.3,1.9-.6,3.8-1.9,5.4-1.6.1-3.2.5-4.8-.3.1-8.6.2-17.2.4-25.9.1-3.2-2.4-5.4-2.8-8.4Z"/>
        <path class="cls-67" d="M720,202.4c4,0,6.6,2.5,8.7,5.4,5.6,7.6,8.3,16.5,10.5,25.5.3,1.3.5,2.7.7,4,.6,1.2.5,2.4-.2,3.6-2.1,3.4-3.6,7-5.2,10.7-.5,1.2-1,2.3-2.3,2.8-7,1.8-11.3,6.7-14.6,12.8-.7,1.4-1.5,2.7-2.4,4-.6.9-1.2,1.9-2.5,1.2-.7-.6-.9-1.3-1-2.1-.1-2.3-.1-4.7-.1-7,.2-5.1,1.2-10,3.2-14.8.5-.9,1.1-1.7,1.5-2.6,1.3-3.8,1.5-7.9,1.6-11.8,0-7.8,1-15.5.8-23.3,0-2.9,0-5.8,1.5-8.5Z"/>
        <path class="cls-174" d="M91.9,208.8c-.6,4-1.3,7.9-1.6,11.9-.2,1.7-.3,3.5-1.4,4.6-4.1,3.9-5.7,9.4-9.1,13.7-1.7,2.1-3.8,3.8-5.1,6.3-.8,1.6-2.5-.3-3.7.2-1-.9-1-2.1-.8-3.3.8-7.1,1.3-14.2,2.1-21.3.8-6.9,1.1-13.9,2.1-20.8.8-5.4.8-10.9,1.5-16.3.3-2.1.5-4.2.9-6.3.2-1,.2-2.4,1.8-2.6,5.3,1.9,8.1,6.2,9.7,11.1,2.5,7.3,3.5,15,3.6,22.7Z"/>
        <path class="cls-87" d="M232.6,390.7c.5,2.2,1.1,4.4,1.6,6.6,0,1.5-1.5,1.6-2.2,2.5-.3.4-.8.7-.6,1.2.2.5.7.6,1.2.7,1.6.2,3.3,0,4.9.1.9,0,2.2-.3,2.5,1.2-11.7,0-23.3,0-35,0-1-.4-2.1-.2-3.2-.2-17.8,0-35.7,0-53.5,0-3.2,0-3.3,0-2.2-2.9.6-1.7.2-3-.7-4.4-.6-.9-1.6-1.8-1.1-3.1,1.1-.8,2.4-.6,3.6-.6,4.7,0,9.5,0,14.2,0,1.3,0,2.5,0,3.7-.5,9.8-.5,19.7-.2,29.5-.2,11.5,0,22.9.3,34.4-.1.9-.3,1.7-.2,2.6-.2Z"/>
        <path class="cls-61" d="M436,403c-8.9,0-17.8.2-26.7.2-19.7,0-39.3-.1-59-.2.3-1.7,1.7-1.2,2.7-1.3,3.2-.3,3.2-.2,1.8-3.2-.3-.5-.6-1-.7-1.6-.7-2.5-2-4.1-4.8-4.4-.8,0-2.2-.5-.7-1.7,3.9-.7,7.9-.3,11.8-.3,27,.1,54,0,81,0,1.5,0,3.1-.2,4.6.3.8.4.9,1,.3,1.7-3.9.5-7.9-.2-11.8.8-3.2.8-5.6,3.9-5.1,7.1.2,1.4,1.4.9,2.3,1.2,1.4.4,3.4-.8,4.1,1.4Z"/>
        <path class="cls-9" d="M773.7,264.8c-2.1,7.7-4.3,15.5-6.4,23.2-.2.9-.7,1.3-1.6,1.4-1.2,1-2.7.6-4.1.7-3.3.2-6.7-.3-10,.3-2.2.6-4.1,0-5.9-1.4-3.4-2.4-7.5-2.9-11.4-4.1-1-.9-.6-1.9-.2-2.9,2.8-7,6.4-13.7,10.6-20,.5-.8,1.2-1.5,2.1-1.9,3.3-2.4,6.4-2.4,10.3-.7,4.2,1.8,8.7,3.2,13,4.9,1.2.5,2.5,0,3.7.5Z"/>
        <path class="cls-20" d="M583,403c-19.6,0-39.3,0-58.9,0,.4-2.4,2.7-3.5,3.6-5.5.8-.4,1.7-.4,2.5-.5,3.7.3,3.7.3,2.9,3.7-.1.4-.2.7.3.8,1.4.3,1.3-.8,1.4-1.6.5-2.2,2-3.1,4.1-3.5,3.7-.6,3.7-.6,3.8-4.3,0-1.2.2-2.4,2-2.1,1.6.3,3.3.3,4.9.3,12.2,0,24.3,0,36.5,0,1.6,0,3.3,0,4.9.2,3.1.9,6.3.3,9.5.5,3.9.2,7.9-.4,11.8.4,1.4,1.8-.3,3.1-1,4.3-.9,1.5-1.9,2.7-.5,4.6,1.2,1.7,0,2.3-1.7,2.3-7.7,0-15.5,0-23.2,0-1,0-1.9-.2-2.9.2Z"/>
        <path class="cls-136" d="M733.9,284.6c4.8.4,9.3,1.5,13.1,4.6,1.2,1,2.6.5,3.9.7,4.6-.6,9.3-.2,13.9.1.9,0,1.8.4,1.3,1.7-2.4,7.5-4.7,14.9-7.6,22.2-4.3,1.8-8.7,1.1-12.8,0-6.5-1.8-13.2-3.4-18.9-7.5-.5-.7-.5-1.5-.3-2.2,1.9-6.6,3.8-13.1,6.5-19.4.2-.3.5-.3.8-.2Z"/>
        <path class="cls-92" d="M51.6,262.1c-.8-7.7-.6-15.5-.3-23.2.4-10,1.3-20.1,2.9-30,1.5.1,1.6,1.5,2.2,2.5.8,1.4,1.6,1.5,2.7.4,1.8-1.6,3.2-3.6,4.7-5.5,2-2.5,4.6-4.2,7.3-5.6,2.5-1.3,3.1-.9,3.3,2-.9,5.2-1.2,10.5-1.7,15.7-.7,5.9-.9,11.8-2.1,17.7-.4.3-1,0-1.3.6-3,5.4-8.5,8.3-12.9,12.2-1.1,1-2.5.8-3.8-.4,0,3.6,0,7,0,10.4,0,1.1.2,2.4-.8,3.2Z"/>
        <path class="cls-159" d="M715.3,248.7c-1.4,4.7-2.9,9.5-3,14.4-1.5-.2-1.7-1.7-2.3-2.7-2.2-3.9-4.1-8-6.8-11.7-1.2-1.8-.6-4-1.3-5.8-.4-1-.3-2.3-1.3-3.1-1.2-2.1-1.2-4.3-.4-6.6,1.6-4.4,3-8.9,4.5-13.3,2.4-5.7,5.5-11,9.9-15.3,1.5-1.5,3.2-2.5,5.4-2.1-.7,10.8-1,21.7-1.3,32.5,0,3.4-.7,6.7-1.1,10.1,0,.9-.5,1.5-1.3,1.7-1.4,0-1.9-1.2-2.6-2-1.7-2-3.8-3.6-5.2-5.5,1.7,3.4,5.1,5.8,6.8,9.4Z"/>
        <path class="cls-120" d="M144.4,392.6c.3.4.6.8.9,1.1,2.9,3.2,3,3.9.7,8.4.9.6,1.8.3,2.7.3,17.6,0,35.3,0,52.9,0,1.1,0,2.3-.4,3.4.5-21.4,0-42.9.3-64.3-.1-13.4-.3-26.8-.1-40.1-.4-11.2-.2-22.5-.4-33.7-.6-1.3-1.2-3.4-.5-4.7-1.8,2.4-.9,4.9-.7,7.3-1.4,3.9-1.1,7.3-3.1,10.7-5,13.3-.2,26.5-.4,39.8-.6,1.1,0,2.3-.3,3.4.5-.7,4-.7,3.9,3.5,4.1,2.4.1,3.8-.6,4.1-3.1,0-.7.5-1.4.7-2.2,3.7-1.7,7.6-.6,11.4-.7.6.1,1.1.3,1.4.8Z"/>
        <path class="cls-23" d="M51.6,262.1v-15.4c1.8,0,1.3,2.9,3.4,2.2,1.3-.5,2.2-1.6,3.2-2.4,3.1-2.3,5.5-5.3,8.9-7.3,1.1-.6,1-2.1,1.6-3,.5-.8.9-1,1.2.2,1.2,3.2.1,6.4,0,9.6-.4,6.4-1.4,12.8-2.1,19.3-.1,1.3,0,2.5.9,3.5.7,2.8-.7,4.3-3,5.5-2.5,1.4-4.9,3-7,5.1-1.6,1.6-2.1,3.1,0,4.9,1.3,1.1,2.5,2.4,3.5,3.9,1.8,2.7,1.8,3.1-1.3,4.2-2.1.7-3.3,2.4-4.9,3.5-.7.5-.5,1.2-.6,1.8-1.1-2.1-1.4-4.5-1.5-6.7-.1-2.4-1.2-3.7-3.1-4.7-2.1-1.1-4.2-2.3-6.5-3.6,1.6-2,3.9-2.3,5.9-2.4,2.4-.2,2.5-1.1,2.4-3.1-.3-5-.9-10-.7-15Z"/>
        <path class="cls-50" d="M727,306.2c.6.1,1.2,0,1.7.3,5.7,3.6,12.2,5.4,18.6,6.8,3.2.7,6.7,1.8,10,0,.5-.3.9.1,1.2.5-1.9,5.1-3.3,10.4-5.5,15.3-1.3,2.9-2.6,5.8-4.5,8.4-5.1,3.8-11,2.3-16.6,2.2-1.6,0-3.3-.3-4.9-.2-.9-.8-.7-1.8-.3-2.7,1.2-3,2-6.3,4.6-8.6,1.4-5.8-.8-10.6-4.4-14.9-1.8-2.1-2-4.1-.9-6.4.2-.5.5-.8,1.1-.7Z"/>
        <path class="cls-69" d="M240,403c-2.2-1.1-4.5-.3-6.8-.5-1.2-.1-2.8.2-3.2-1.2-.3-1.2,1.2-1.8,2-2.6.6-.6,1.4-.9,2.2-1.4.5,0,1,0,1.4,0q5.9,0,5.7-5.4c1.6-1.3,3.5-1.1,5.3-1.2,8.6-.5,17.2-.5,25.8,0,1.7.6,1.6,1.9,1.4,3.3-.2,1.2-.6,2.4-.8,3.4,1.3-1.9.8-4.7,2.9-6.4.6-.3,1.2-.4,1.8-.4,3.7-.1,7.3,0,11,0,1.9,0,3.6-.4,5.1-1.6,1.8.6,1.3,2.2,1.5,3.5,0,3.5,0,7.1-.8,10.6-18.1,0-36.2,0-54.2,0Z"/>
        <path class="cls-98" d="M144.7,314.3c-5.4,20.3-10.8,40.6-16.3,60.8,0,.2-.2.3-.3.5-2.8-4.2-1.7-8.9-1.7-13.4-.1-16.7,0-33.4,0-50.1,5.3,1.7,10.8.8,16.2,1.5.8,0,1.6,0,2.1.7Z"/>
        <path class="cls-130" d="M583,403c.9-.8,2-.5,3-.5,7.5,0,15.1,0,22.6,0,.7,0,1.7.4,2-.5.2-.8-.4-1.4-1.1-1.9-1.7-1.1-1.6-1.8,0-3.2,1.4-1.2,2.1-3.2,3.1-4.8.9-1,2.1-.8,3.2-.9,3.7,0,7.3,0,11,0,2.9,0,5.8,0,8.7-.2,1.9.3,2.2,2,2.7,3.4.8,2.3,3.5,3.5,5.6,2.6.9-.4.6-1.1.5-1.7-.2-1.2-.4-2.3.6-3.3.8-.7,1.7-.8,2.7-.9,8.2-.3,16.3.5,24.5.9,1.3.6,1.4,1.6.8,2.6-1.5,2.5-1.2,4.6,1.2,6.3.5.3.7.9.5,1.6-30.5.8-61,.6-91.6.5Z"/>
        <path class="cls-57" d="M294.3,403c-1.5-2.2.4-4.4,0-6.7-.2-1.2,0-2.5,0-3.7.6-1,1.3-1.7,2.6-1.3,6.3,1.7,12.7.8,19,1,1,0,1.9,0,2.9.3,2,1.1.6,2.7.6,4.1,0,.9-1.4,2,.4,2.6,1-1.3,1.6-2.8,2.1-4.3.4-1.1.9-2.1,2.2-2.4,4.3-.5,8.6.1,12.9-.7,1.4-.3,2.8-.5,4.2-1,2.3-.3,4.7-.9,6.9.6,4.6.2,6.6,3.2,7.7,7.2.1.5.5,1.1.8,1.5,1.3,1.6.5,2.1-1.2,2.4-1.7.2-3.5-.6-5,.6-9.2,0-18.4,0-27.6,0-9.5,0-19,0-28.4-.1Z"/>
        <path class="cls-40" d="M773.7,264.8c-1.7.9-3.3.5-5-.1-3.1-1.2-6-2.9-9.3-3.6-.8-.2-1.6-.2-2.2-.6-3.5-2.6-6.9-2.2-10.3.2-.7-2.1,1.5-3,1.9-4.6,2.4-3.1,5-6.1,7.4-9.2,2.5-3.2,3.2-6.7,2.5-10.6-.4-1.9-.9-4,.5-5.8,11,0,17.3,6,17.4,17,0,2.9.8,6-1,8.7-2.3,1-4.6.1-6.8,0-1.2-.1-2.3-.3-3.2-.3,3.1.7,6.6.2,9.9,1.5.3,2.7-.8,5.1-1.7,7.5Z"/>
        <path class="cls-115" d="M527.6,397.6c.5,2.9-2.4,3.6-3.5,5.4-18.5,0-36.9,0-55.4,0-1.1-1.4-.4-2.6.6-3.5,1.8-1.7,3.7-3.4,6.4-3.6,2.4-.3,4.2-1.8,6.3-2.7,1-.5,1-1.3,1-2.2.2-.6.7-.9,1.3-1,.9,0,1.7.2,2.4.7.6,1.5-.1,3,0,4.8,1-1.1,1.5-2.2,2.2-3.3.7-1.1,1.4-2,2.9-2,9.8.5,19.7,0,29.5.2,1.5,0,3.1-.2,4.6.4,2,1.9,1.2,4.5,1.6,6.7Z"/>
        <path class="cls-55" d="M28.1,312.7c-5.2-.5-10.4-.9-15.6-1.5-3.7-.4-7.4-.5-10.5,2.1-.9.8-1.6.7-1.8-.7-.1-1-.4-2-.2-2.9.9-4.6,1.6-9.3,5.5-12.6.8-.7.5-2.3,1.4-3.4,1.8-2.3,3.5-4.2,6.7-2.8.8.7,2,.1,2.8.6,4.8,2.3,9.5,4.8,13.6,8.2,3.3,2.8,6,6,8.3,9.6.9,1.5,1.4,2.9-1.1,3.4-3.1-.1-6.2.2-9.2-.2Z"/>
        <path class="cls-39" d="M73.9,201.9c0-1.4-.4-1.6-1.7-1.1-4.1,1.8-7.2,4.7-9.8,8.2-4.4,5.9-4.6,5.9-8.2-.2,1-7.3,2.4-14.5,5.1-21.4,2-5.1,4.8-9.8,10.1-12.3,3-1.4,6.1-1.9,9.2-.1-1.5,2.7-1.4,5.7-1.7,8.6-.6,5.1-.8,10.3-1.3,15.4,0,.4-.3.7-.5,1-.6-.5-.4-1.1-.3-1.7-.7,1,.9,2.8-.9,3.5Z"/>
        <path class="cls-82" d="M285.6,212.4c2.1-.4,4.2-.8,6.4-1.2,3.3,0,6.5-.9,9.8-.6,2.9.2,5.5.8,7.6,2.9-1,1-2.4.7-3.6.7-2.6,0-5,.5-7.4,1.4,5.7,2.4,10.9,3,14,1.4-.3-1.1-2-1.4-1.8-2.8.7-1.4-.9-1.6-1.4-2.4-.4-.7-1.1-1.1-1.5-1.8-.7-1.1-1.9-2.5-.8-3.7,1.3-1.5,2.4.4,3.4,1,2,1.1,4,2.3,6,3.5,3,1.8,5.2,4.4,5,8-.2,3.6-2.9,5.6-6,6.9-6.1,2.6-12.3,2-18.6,1-2-.3-4-.5-6.1-.2-1.6.9-3.2,1.6-5,.3-1-4.2-.7-8.4-1-12.6,0-.7.3-1.3.9-1.8Z"/>
        <path class="cls-149" d="M759.1,230.5c0,2.3,0,4.6.4,6.9,1.2,5.9-2.6,9.7-5.8,13.8-1.5,1.9-3.1,3.7-4.7,5.5-1,.7-2.2,1.7-3.4.7-1.1-1-.5-2.3-.1-3.5,1-3,2.4-5.7,4.4-8.7-2.7,2.5-4.9,4.8-7.2,7-2.4,2.4-5.4,3.4-8.6,3.8-1.4.2-3.1.2-2.5-2.2.7,0,1.3-.4,1.6-1.1,1.8-4.4,3.6-8.8,6.1-12.8.4-.7.4-1.7.5-2.5.5.5.9.5,1.4-.1,4.6-5.7,10.7-7.5,17.8-6.8Z"/>
        <path class="cls-77" d="M335.6,229.8c-.1-.4-.3-.8-.4-1.2-1.2-7.6-2.4-15.1-3.3-22.7,1.4-2.8,2.3-3.1,4.8-1.5,3.3,2.2,5.8,5.3,8.9,7.8,4,3.2,7.7,6.7,11.8,9.9.6.5,1.2,1,1.7,1.6,3.1,3.3,2.8,4.7-1.5,6.8-6.2.3-12.3,0-18.5.1-.9,0-1.8,0-2.6-.3-.3-.1-.6-.3-.8-.6Z"/>
        <path class="cls-125" d="M723.4,399.7c6-.1,11.4-2.2,16.4-5.3.4.2.9.5,1.3.5,5.6.2,11.2.3,16.8.6,12.8.7,25.7,1.6,38.5,2.4.9,0,1.9.4,3.5.9-3.7,1.3-7,1.1-10.1,1.3-12,.5-24,1.1-36,1.5-9.5.3-19,0-28.5.5-7.7.4-15.3.5-23,.4,0-.4,0-.9.4-1,2.2-.8,3.2-2.5,4.1-4.5,4.3.9,8.5,1.8,12.8,2.6,1.3.2,2.4.5,3.7.2Z"/>
        <path class="cls-73" d="M483.2,390.8c.9,1.3,1.5,1.8-.7,3.1-3.8,2.2-8.6,2.2-12,5.2-1.2,1.1-2.2,2.1-1.9,3.9-10.9,0-21.8,0-32.7,0-1.8-1.2-3.8-.3-5.6-.6-1.5-.2-3.2-.3-1.6-2.6.5-.8.9-1.9.8-2.8-.3-3,1.4-4,3.8-4.3,4.2-.6,8.3-1.6,12.5-.2,3.3,2,7.1,2.3,10.8,2.7,2.1.2,4.2.4,6.2.9.3.1.5.3.6.6-.2,1.5-.9,3.2,1.6,3.4,1.3.3,2,0,1.7-1.6-.2-.9-.8-2,.3-2.8,4.8-.6,9.3-2.4,13.6-4.5.8-.4,1.6-.8,2.5-.4Z"/>
        <path class="cls-146" d="M706.6,397.2c.9,2.1.6,3.4-1.9,4-.8.2-1.5.8-2.2,1.3-9.3,0-18.7,0-28,0-.4-.4-.7-1-1.1-1.3-3-2.4-3.2-3.5-1.2-6.6.4-.6.5-1.2.5-1.9,1.1-1.2,2.7-.9,4.1-1,7.3-.3,14.6.4,21.9.6,3.2.7,5.9,2.1,7.8,4.9Z"/>
        <path class="cls-41" d="M37.1,285c3.6,1.8,6.7,4.1,9.2,7.2,2.4,3.1,3.9,6.4,2.6,10.5-1.5,1.8-3,1.8-4.5,0-1-1.2-2.3-2.3-2.9-3,1.3,1.3,3.2,3.1,4.8,5.3.6.9,1.1,1.8,1,2.9-.5,1.1-1.3,1.9-2.6,2.1-3.3-.4-5.6-2.4-8-4.5-2.8-2.4-5.3-5.1-8.3-7.3-.5-.3-.9-.8-.9-1.4,0-.2,0-.5.2-.5,4.7-2.4,6.4-7.5,9.4-11.3Z"/>
        <path class="cls-7" d="M62.1,400.1c1.7.2,3.8-.4,4.7,1.8-13.3.5-26.6-.6-39.8-.7-7.1,0-14.3-.7-21.4-1.1-1.8-.1-3.6-.5-5.4-1.1,14.4-2.1,28.9-2.7,43.4-3,4.1,1.8,8.3,3.4,12.8,3.9,1.1.1,2.3.3,3.4,0,.8,0,1.5.1,2.3.2Z"/>
        <path class="cls-107" d="M37.1,285c.2,2.2-1.6,3.4-2.6,5-1.8,2.8-3.3,5.8-6.8,6.9-.8.6-1.4,0-2.1-.3-3.1-1.8-6.2-3.4-9.6-4.6-.8-.4-1.8,0-2.4-1-2.1-1.9-1.2-3,.8-4.3,7.3-4.7,14.7-5.9,22.6-1.7Z"/>
        <path class="cls-60" d="M81.4,311.5c-2.2,1.6-2.7,4.1-3.6,6.5-.9,2.4-1.5,4.9-3,7.1.6-6.9,2.7-13.3,6.6-19,.8-1.2,1.8-2.3-.4-3.3-1.5-.7-.7-2.1,0-3.2,1.9-3.2,5.1-5,8.2-6.8,6.1-1.3,12.3-2.4,18.5.1-4.1,1.2-7.9,3.8-12.9,2.4,1.7,1.1,2,2,0,2.5-7.2,1.9-10.1,8-13.4,13.8Z"/>
        <path class="cls-143" d="M429.7,116c-1.5,1-2.7.7-3.8.7-28.8,0-57.5,0-86.3,0-4.9,0-9.8.8-14.7,0-.7-.1-1.8.2-1.8-.9,0-1.1,1.1-.8,1.8-.9.6,0,1.2,0,1.7,0,32.4,0,64.7,0,97.1,0,1.9,0,3.8.2,6,1.1Z"/>
        <path class="cls-143" d="M394.4,112c-10.5,0-21,0-31.4,0-.7,0-1.4,0-2,0-.7,0-1.5-.2-1.5-1,0-1,1-.7,1.6-.7,5,0,10.1.2,15.1,0,16.3-.7,32.7-.5,49-.5.7,0,1.4,0,2,0,.9,0,2.2-.1,2.2,1.2,0,1.3-1.4,1.1-2.3,1.1-10.9,0-21.7,0-32.6,0Z"/>
        <path class="cls-144" d="M405.1,145.9c-.2.8-.4,1.6-.6,2.3-25.5,0-51.1,0-76.6,0-1,0-3,.6-3-.8,0-1.8,2-.9,3.1-.9,22.8,0,45.6,0,68.4,0,2.9,0,5.8.1,8.7-.6Z"/>
        <path class="cls-132" d="M340.7,95.1c-5.5,0-11,0-16.6,0-1,0-2.4.2-2.4-1.3,0-1.4,1.2-1.5,2.3-1.5,11.2,0,22.5,0,33.7,0,1.1,0,2.3,0,2.3,1.6,0,1.6-1.5,1.3-2.5,1.3-5.6,0-11.2,0-16.9,0h0Z"/>
        <path class="cls-131" d="M46.9,308c-1.5-3.8-4.5-6.6-7.3-9.5l.5-.5c1.3,1.3,2.7,2.5,4,3.9,1.4,1.6,2.9,2.1,4.8.9-1.9,2.8-.2,5.1,1.1,7.4,4.9,8.4,5.7,17.6,4.9,27-1.1.7-.9,1.8-.9,2.9-3.8,1.1-4.7.6-4.3-2.5,0-.3,0-.6.3-.9,1.3-1.1,1.4-2.7,1.4-4.2.4-7.2-.6-14.3-3.6-20.9-.5-1.1-1.2-2.2-.9-3.6Z"/>
        <path class="cls-165" d="M16,292c4.3.6,7.9,3.1,11.7,4.9,3.7,2.6,6.9,5.8,10.2,8.8,2,1.9,4.4,3,6.9,4,0,1.8-1.7,2.1-2.8,3-.7.4-1.4.3-2.1,0-.3,0-.6,0-.9,0-.3.2-.4.2-.6-.1.6-1.1,0-1.8-.6-2.6-4.8-7.9-11.9-13.1-20.1-16.9-.6-.3-1.4-.2-1.6-1Z"/>
        <path class="cls-65" d="M310.6,214.2c.2.2.4.5.6.7.9.9,3.1,1.1,2.6,2.6-.4,1.2-2.4,1.2-3.8,1.3-4.7.2-9-1.5-13.9-2.6,4.3-3,8.9-2.6,13.3-2.6.4.2.8.5,1.2.7Z"/>
        <path class="cls-75" d="M332.3,205.3c.9,6.1,1.8,12.2,2.6,18.3.2,1.6.9,3.3.3,5-1.8-4.1-1.7-8.5-2.4-12.8-2.3-14.9-4.4-29.9-6.6-44.9-.7-.9-1.2-1.8-.5-3-.6-2.8-1.3-5.6,1.9-7.5.4.4.4.9.3,1.3-1.2,2.7-.3,5.4.1,8.2.2,1.1.4,2.2.5,3.4,1.4,9.7,2.8,19.3,4.1,29,.1,1,.2,1.9-.2,2.8Z"/>
        <path class="cls-54" d="M39.8,312.8c.6-.2,1.3-.5,1.9-.7,1.7,1.3,2.5,3.2,3.3,5.1,2.4,5.3,4,10.9,5.2,16.7.2,1.1.6,2.3-.3,3.3,0,.2,0,.4-.2.5-.8-.2-1.5-.4-2.3-.5-1.8-7.2-3-14.6-6.2-21.4-.4-1-.9-1.9-1.4-2.9Z"/>
        <path class="cls-157" d="M81.8,336.7c-.2.4-.5.8-.7,1.2-.4.8-.5,2.1-1.8,2-1.4-.2-.6-1.6-.9-2.4,2.7-4.5,4.9-9.2,8.7-12.9,1.9-1.8,3.8-3.8,6.9-3.7-5,4.6-9.3,9.7-12.2,15.8Z"/>
        <path class="cls-170" d="M44.8,337.7c-.3.9,1.3,2.4-.8,2.7-1.7.3-1.7-1.1-2-2.1-.1-.4-.5-.8-.7-1.2-1.8-7.3-6.1-13.3-11.5-19.2,2,.3,3,1.3,4,2.2,4.2,4.1,7,9.2,9.3,14.6.4,1,.5,2.3,1.6,3Z"/>
        <path class="cls-31" d="M327.5,161.6c0-.3,0-.7,0-1,20.8,0,41.6,0,62.5,0,4.8,0,9.7,0,14.5,0,2.5.4,5.1-.4,7.6.8.1.4,0,.7-.3.8-.7.3-1.4.2-2.1,0-1.2-.3-2.5-.2-3.8-.2-23,0-46,.2-69,.1-1.8,0-3.5.2-5.2.4-1.4.2-2.9.4-4.1-.8Z"/>
        <path class="cls-144" d="M330.2,144.7c-2.8,0-5.6,0-8.5,0-.7,0-1.7.2-1.7-1,0-1,.8-1.3,1.6-1.3,5.8,0,11.7,0,17.5,0,.8,0,1.6.4,1.6,1.4,0,1.2-1.1.9-1.8.9-2.9,0-5.8,0-8.7,0Z"/>
        <path class="cls-143" d="M330.1,113.2c-2.8,0-5.6,0-8.4,0-.8,0-1.6,0-1.7-1.1,0-1.1.8-1.2,1.6-1.2,5.7,0,11.4,0,17.2,0,.9,0,2,0,1.9,1.3,0,1.1-1.2,1.1-2.1,1.1-2.8,0-5.6,0-8.4,0Z"/>
        <path class="cls-4" d="M335.6,229.8c.2,0,.4,0,.7.1-.9,2-2.8,1.4-4.3,1.4-13.7,0-27.4.2-41.1,0-.6,0-1.2,0-1.7,0-2.5.1-5,.1-7.4,0-1.1,0-2.4.1-2.7-1.5,3.9-1.4,7.8-1.3,11.7,0,14.9,0,29.9,0,44.8,0Z"/>
        <path class="cls-49" d="M290.8,229.7c-3.9,0-7.8,0-11.7.1-.5.5-1.1.6-1.7.4-.4-.2-.8-.5-.7-1,.7-.8,1.8-1,2.8-1.3.6-.1,1.1-.3,1.6-.6,1.7-.5,3.3-1.5,5.2-.6,1.5-.1,3-.2,4.5-.4,0,1.1,0,2.2,0,3.3Z"/>
        <path class="cls-102" d="M325.6,168c.2,1,.4,2,.5,3-1.6.6-3.2.5-4.6-.6-.4-.3-.5-.9-.2-1.3,1.1-1.5,2.7-1.1,4.3-1Z"/>
        <path class="cls-43" d="M766.2,291.7c-.1-1.4-1.2-1.2-2.2-1.3-4.3-.5-8.7-.5-13.1-.5,1-1.2,2.3-.6,3.5-.6,3.7,0,7.5,0,11.2.1.7.6,1.7,1.2.6,2.3Z"/>
        <path class="cls-63" d="M775.3,257.3c-3.7-.5-7.4-.9-11.1-1.4,0-.2,0-.3,0-.5,3.7.2,7.4.5,11.2.7,0,.4,0,.8-.1,1.1Z"/>
        <path class="cls-72" d="M379.6,159.1c2.2-.8,4.4-.8,6.6,0-2.2.8-4.4.8-6.6,0Z"/>
        <path class="cls-54" d="M38.4,312.6c.2,0,.4,0,.6.1-3.6,1-7.2.7-10.8,0,3.4,0,6.8-.1,10.3-.2Z"/>
        <path class="cls-174" d="M92.4,219.3c-1.1-2.7-.3-5.5-.5-8.3.8,2.7.5,5.5.5,8.3Z"/>
        <path class="cls-174" d="M92,241.7c0-2.4-.6-4.8.4-7.2,0,2.4.2,4.8-.4,7.2Z"/>
        <path class="cls-71" d="M280.9,228.1c-.3.4-.7.7-1.2.6-.5-2.5-.4-5,.1-7.5.4-1.6,0-3.3.2-4.8-.1,5.8-.1,6.1-6.1,5.5-8-.8-16.1-.2-24.1-.5-5.8-.3-11.6-.3-17.2-2.3-2.8-1-5.3-2.4-7.3-5.1-.2,3-.7,5.6-.7,8.4,0,1.7,0,3.5-1.1,5-.2.3-.5.4-.9.3-1.4-1.9-1.3-4.3-1.3-6.4-.1-8.8-2.4-17.2-4-25.8-.8-4.3-2.2-8.4-2.7-12.8,0-.6,0-1.7-1.1-1.7-.8-.4-.9-1.2-1-2-1.4-12-4.3-23.5-10.1-34.3,0-.2-.1-.4-.1-.6,0-.3,0-.6.2-.9,13.2,7.4,23.4,17.8,29.9,31.6,4.3,9,8.2,18.2,11.7,27.5.7,1.7,1.5,2.6,3.4,3,10.2,2.4,20.4,4.7,30.9,5.7,1.5.2,2.7.5,2.6,2.3.8.8,1,1.9.9,3-.3,3.9.9,7.9-.8,11.6Z"/>
        <path class="cls-153" d="M219.3,118.8c-.1-.3-.3-.7-.4-.7-4.6.2-9.6-.8-13.6,2.4-1.6,1.3-3.1,1.4-4.8.8-7.4-2.3-10.6-9.5-7.1-16.3,1.4-2.8,1.6-5.5,1-8.4-.3-1.3-.4-2.7-.5-4-.2-2.2,1-3.2,3.1-3.3.6,0,1.2,0,1.7,0,6.1-.3,12.5.3,17.6-4,1.1,1.9-1.7,3.1-.2,4.7,1,3.5,2.4,6.9,2.7,10.5-.4.9-1.7.1-2.1,1.1.6,1.2,2.4.8,2.8,2.1-.4,1-.7,1.9-1.1,2.9-1.5.9-1.1,1.7,0,2.6.7,3.2,2.7,6.4.9,9.8Z"/>
        <path class="cls-47" d="M202.4,143.2c0,.2,0,.5.1.7-.3.8-.2,1.7-.4,2.6-1.1,3.7-5,5.7-8.5,4-5.3-2.5-9.7-6-13.7-10.2-1.1-1.2-2.4-2.4-2-4.3.8-3.4,1.7-6.7,2.5-10.1,1.7-5,2-10,.5-15.1-.3-.9-.5-1.9-.5-2.8-.2-2.5.9-4.3,3.4-4.6,2.6-.3,3.9,1.6,4.2,3.8.5,3.4,1,6.9,1.1,10.4.3,9.2,4.4,15.6,13.1,19,.3,2.2-1.7,4.4.2,6.6Z"/>
        <path class="cls-1" d="M280.9,228.1c0-4.9,0-9.7,0-14.6,1.5-.9,2.8-2.4,4.8-1.1.2,4.8.4,9.6.6,14.4-1.8.4-3.6.8-5.4,1.2Z"/>
        <path class="cls-171" d="M219.5,103.5c-.5-.1-1-.2-1.4-.4-1-.6-3.1-.3-2.8-1.9.4-1.8,2.2-.9,3.5-.8.7,1,1.1,2,.7,3.2Z"/>
        <path class="cls-32" d="M218.4,109c-2.2.6-1.8-1.1-1.7-2.2.1-1.3.9-1.2,1.7-.4,0,.9,0,1.7,0,2.6Z"/>
        <path class="cls-166" d="M499,228.1c-1.4-1.1-3.1-.3-4.6-.6-2.3-10.1-5.2-20-8.3-29.9-1.7-5.6-3.4-11.3-5.3-16.9-.9-2.5.1-3,2.2-2.7,5.7.7,11.5,1.4,17.2,2,7.2.9,14.3,1.7,21.5,2.5,6.5.4,12.8-1.4,19.1-2,3.7-.4,7.5-.2,11.1-1.4,1.7,2.9,1.9,5.9.6,9.1-1.3,3-2.6,6-2.6,9.4,0,4,1.5,7.1,4.5,9.6.9.8,1.9,1.4,2.3,2.5,1.6,5,.6,10.3,1.4,15.5.3,1.8.6,3.6.2,5.4-.7,1.3-2,1-3.1,1.2-4.7.8-9.5.3-14.2,1-1.6.2-2.9-.3-3.9-1.5-3-3.6-6.9-5.8-11.4-7.1-3.5-1-7.1-1.8-10.9-3.5.6,2.4,2.1,3.4,3.5,4.4.8.5,1.7.9,2.5,1.5,1.6,1.2,1.6,2.5-.3,3.3-2.8,1.2-5.7,2-8.7.8-.6-1-1.7-1-2.7-1.2-3.3-.7-6.9.2-10.1-1.4Z"/>
        <path class="cls-22" d="M556,209.5c-7.4-5.7-9-11-5-19.4,1.7-3.7,1.6-7.2,1-10.9.5-2.9.8-5.9,1.4-8.8.7-3.5,2.9-6,5.8-7.9,1.6,0,1.7,0,1,1.4-1.4,2.7-1.8,5.4-1.7,8.4,0,1.9.5,3.6,1.5,5.1-2.8-4.4-1.6-11.8,2-16.3,3.9-2.9,4-2.9,2.7-7.3-.7-2.4-1.5-4.8-2.2-7.1-.4-1.3.6-1.7,1.4-2.2,4.3-2.5,8-5.6,10.8-9.8.4-.6.9-1.3,1.9-1,0,.7,0,1.4-.2,2-1.5,7.9.6,12.9,7.5,17.2,4.2,2.6,8.6,4.7,12.6,7.6-.3.4-.8.6-1.2.7-5.6.7-8.6,4.7-10.5,9.4-2.2,5.3-2.3,10.9-1.9,16.6.5,6.5-.4,12.9-2.4,19.2-5.6,5.4-18,7-24.5,3.2Z"/>
        <path class="cls-51" d="M576.5,133.6c-3.6,5.5-8.8,9.3-14.1,13-2,.6-4,1.4-6,1.9-3.9,1-6.5,0-8.4-3.2-2.3-3.8-4.1-7.8-4.8-12.3-.3-2.4-.7-4.7,0-7.1.6-.7,1.5-1,2.3-1.5q2.9,1,2.2,4.9c0-1,.5-2.4.7-3.9.3-1.9,1.4-3,3.5-2,.8,1.2.5,2.6,1,3.9-.2-2.2-1.3-4.4.8-6.5,3.3-3.4,5.5-2.1,7.5,1.4,1.8,3.3-.2,7.3-4,8.4,2.7-.7,4.4-2.2,4.4-5.1,0-2.3.9-2.6,2.8-2.5,1.5,0,2.9-.4,4.1-1.2-1.4.8-2.8,1-4.4,1.2-2.1.3-2.8-1.2-3.9-2.4-2.3-2.5-3.6-2.5-6.1-.2-.6.6-1.2,1.3-1.9,1.8-3.2.7-3.1-1.9-3.8-3.7-1-1.8-2.4-2.7-4.5-1.6-.6.3-1.2.6-1.9.2.8-2.8-.5-6.2,2-8.6,1.3-.1,1.9.8,2.6,1.6,5.8,5.6,12.5,8.7,20.7,8.3,3.5-.2,5.3,2.4,7.3,4.6,1,1.1,1.5,1.6,2.3-.1.8-1.6,2.3-2.6,4.1-1.9,2,.7,2.3,2.6,2,4.4-.4,2.4-1.5,4.6-4,5.3-1.7.5-2.2,1.6-2.8,3Z"/>
        <path class="cls-14" d="M552,123.7c-2.5.3-3.4,1.7-3.4,5.8,0,.6.7,1.4-.3,1.7-.6.2-1.2,0-1.6-.4-.6-.7.3-.8.4-1.2.7-1.9,1.5-3.9-1.4-4.8-.7-.8.5-3.2-2-2.6-2.9-.7-2.9,1.7-3.6,3.4-1.7-1.8-.8-3.5.3-5.1.5-.8,1.2-1.5,1.8-2.2,2.2-2.5,4.6-1.8,7.1-.5,1.1,1.3-.1,4.7,3.4,4.1.4.8,0,1.3-.6,1.8Z"/>
        <path class="cls-109" d="M540,125.7c-.3-4.1.4-4.9,3.7-3.7.7,1.1.8,2.3.2,3.5,0,2.6-1,5.1-.6,7.6.2-3-2.7-4.7-3.2-7.4Z"/>
        <path class="cls-168" d="M561.9,161c-.8,2.8-2.6,5.2-2.8,8.2-.3,4.4,0,5.8,2.8,10-2.1-.4-3.7-2.6-3.9-5.7-.3-3.4,0-6.8,1.7-9.9.3-.5,1.3-1.5-.5-1.3.6-1.2,1.7-1.3,2.8-1.4Z"/>
        <path class="cls-150" d="M549.2,117.9c-.1.2-.2.5-.3.7-2.2-2-4.5-1.3-6.8-.2,0-.4,0-.8.1-1.2,2.5-1.4,4.9-2.5,7,.7Z"/>
        <path class="cls-133" d="M666.4,248.6c-.9,7.1-1.7,14.1-2.6,21.2-.1,1.1-.3,2.1-.2,3.2.9,1.2.6,2.6.4,3.9-.4,2.6-.8,5.3-1.1,7.9-1.1,4.6-1.5,9.5-3.4,13.9-1.1,2.5-2.2,4.9-4.1,6.9-.8.6-1.5,1.4-2.1,2.2-.2.2-.4.5-.6.7-4.5,3.7-9.8,5.4-15.6,5.5-4.7.1-9.5-.2-14.3.2-4.8-.3-9.7,0-14.5-.1-1.3,0-2.7.1-4-.5-.7-1.5.6-1.5,1.4-1.6,1.7-.3,3.5-.1,5.2-.2,2.8,0,5.4-.8,7.6-2.6,2.3-1.8,2.5-3.6.8-6-.6-.8-1.7-1.7-1.2-2.8.5-1,1.9-.8,2.9-.8,4.2,0,8.4,0,12.5,0,1.2,0,2.3.1,3.4-.4,5.7-1.9,9-5.8,9.9-11.7,1.5-10.4,2.8-20.9,4.1-31.3.3-2.2.2-4.5,1.3-6.4,3.1.9,4.7,3.3,6.3,5.8.9,1.3,1.5,2.8,2.8,3.6,1,.6,1.9,1,1.8-1-.1-3.2,1.5-6.2,2-9.3,0-.5.4-1.2,1.2-.6,0,0,0,.2,0,.2,0,0,0,.2,0,.3Z"/>
        <path class="cls-28" d="M662.3,285.1c-.3-4.1,1.1-8,1.3-12.1,4.2-2.2,8.7-1.5,13-.9,5.6.8,10.4,3.6,14.6,7.3.9.8,1.7,1.9,3,2.3,2.3,1,3.1,3.4,4.8,5,1.3,1.8,2.7,3.5,3.9,5.3.6.8,1.5,1.6.7,2.8-6.6,4.2-14.2,6.6-20.8,11-3.9,2.6-3.9,2.7-2.6,7.1.4,1.3,1,2.5,1,3.9-.3,1-1.2,1.5-2,2.1-1.6,1.1-2.9,1.3-3.3-1.1-.3-1.7-1.4-2.1-3-2.1-1.2,0-2.3,0-3.5-.1-.6-.1-1.5-.2-1.4-1.1,0-.8.7-1.1,1.4-1.3.9-.2,1.7-.2,2.6-.2,4.2-.3,6-3.4,4-7.1-2.5-4.7-5.9-8.9-8.9-13.3-1.7-2.5-3.9-4.6-4.9-7.5Z"/>
        <path class="cls-140" d="M666.4,248.6c-1.6.8-.9,2.6-1.1,3.7-.4,2.2-2.5,4.4-1,6.9.5.9-.1,1.6-1.1,1.3-1.1-.4-2.5-.3-3.2-1.7-1.8-3.5-4.7-6.2-7.1-9.3-1-1-.9-2.3-.7-3.6,1.8-14.9,3.6-29.9,5.3-44.8.4-3.5,1-7,4.7-8.8.9-.6,2-.2,2.9-.4,5,1.9,6.6,4,6.5,9.6-.3,12.9-2.1,25.7-3.8,38.5-.4,2.9-.9,5.7-1.4,8.6Z"/>
        <path class="cls-155" d="M698.5,286.9c-1.4-1.8-2.8-3.5-4.2-5.3-.2-13.5,1.8-26.7,4.2-40.2,1.5.9,2,2.1,2.3,3.4,2.2,5.5,4.1,11.2,6.6,16.6.4.9.8,1.8,1.7,2.2,2.2,1.8,2.2,4.6,3.3,6.9l.6,1.8c1,2.6,0,6.4-2.6,8.1-3.2,2.1-6.7,3.9-9.6,6.4-.7.6-1.5.8-2.4,0Z"/>
        <path class="cls-152" d="M709.2,264.3c-.8,0-1.6-.3-1.9-1.1-2.2-6.1-5.8-11.7-6.5-18.3.2.2.4.5.6.6,1.1.4.4-.6.4-.7-.3-1.7-.7-3.3-1.1-5,1.7.5,1.4,2.1,1.8,3.3.6,1.7.8,3.5,1.2,5.3,1.7,4.4,3.2,8.9,5.3,13.1.4.9.8,1.8.2,2.8Z"/>
        <path class="cls-94" d="M270.2,313.2c3.4-4.2,3.5-8.9.2-12.8-1.5-1.8-1.9-3.8-1.5-6.1,1-1.6,2.4-2.8,3.4-4.4,1.4-2.4.9-3.6-1.8-4.1-2.5-.5-5-.4-7.5-.1-15.8,1.9-31.6,3.3-47.6,2.7-4.9-.2-9.7-1-14.2-2.7-2.2-.8-4.3-1.9-5.4-4.2-.9-2.8,0-5.6.2-8.3.3-4.2.6-8.5.6-12.7,0-.9,0-1.7.5-2.5,1.5-1.5,3.1-1,4.8-.6,2.2,1.3,4.2.2,6.3-.6,1.5-.2,2.6.7,3.7,1.5,4.5,2.8,9.1,5.1,14.5,5.5,4.3.4,8.3-.2,12.3-1.6,3.1-1.1,5.1-3.2,4.9-6.7,0-.9,0-1.8,1.1-2.1,8.9-.2,17.7.4,26.6.7,1,0,1.9.1,2.6.9,0,.3.2.7-.4.6.1.4.4,0,.6,0,5.1,1.2,10.4,1.2,15.2,3.3,3,1.3,4.2,4.2,5,7.2,1,3.7,1.1,7.5,1.3,11.3.4,6,.4,12,.6,18,.3,11.2,1.7,22.2,4.6,33.1,2.9,10.8,5.4,21.7,8.8,32.3,1.1,3.3,2.8,6.4,3.1,10-.3,1.4-1.6,1.6-2.7,1.9-5,1.2-9.9,2.7-14.8,4-1.5.1-2.5,1.2-3.8,1.8-1.7.3-2.7-.6-3.6-1.9-1.4-2.1-2.9-4.1-4-6.3-.6-1.4-1.6-2.6-2.3-4-.5-.9-.9-1.8-1.5-2.7-6-11.4-8.4-23.7-10-36.3-.4-3.6-.7-7.1-.6-10.7,0-1.2,0-2.3.7-3.3Z"/>
        <path class="cls-26" d="M270.2,313.2c0,17.6,3,34.7,10.6,50.7.2,2.9-1,5.5-1.6,8.2-1.3,5.6-2.3,11.2-4,16.7-.4,1.1-.4,2.6-2.1,2.7-10.7,0-21.3-.1-32,.5-1.4-7.7-2.8-15.4-4.1-23.1-3.2-18.3-6.3-36.6-9.4-55,2.1-1.1,4.2,0,6.3,0,8.1-.2,16.3-.3,24.4-.3,4,0,7.9.5,11.9-.2Z"/>
        <path class="cls-96" d="M109.5,192.4c7.1,0,14.3,0,21.4-.1,1.4,1.6.7,3.5.6,5.3-.6,15.7-1.2,31.4,2.6,46.8.9,3.5,2.5,6.7,3.7,10.1.2,2-.7,3.8-1.3,5.6-2.7,7.6-4.5,15.3-4.2,23.4,0,2.4.5,4.6,1.3,6.8,2.4,6.3,6.4,8.8,13.7,8.6,13.6-.1,27.2-.1,40.8,0,18.9-.1,37.9,0,56.8,0,1.7,0,3.5-.4,4.9,1.1-1.1.7-2.3.4-3.4.4-36.5,0-73.1,0-109.6,0-7,0-11.8-3.7-13.5-10.5-1.4-5.6-1.6-11.5-2.3-17.2-1-7.8-1.8-15.5-2.7-23.3-.7-6-1.3-11.9-2-17.9-.7-6.5-1.4-13.1-2.2-19.6-.3-2.2-.4-4.5-.5-6.6-.3-4.7-.8-9.2-4.2-12.8Z"/>
        <path class="cls-59" d="M249.9,300c-19.5,0-39,0-58.6,0-1.1,0-2.1,0-3.2,0-.3-.8,0-1.4.6-1.8,3.7-3.7,4.9-8.5,6.1-13.3.3-1.1.2-2.4,1.5-2.9,5.1,4.5,11.5,5.4,17.8,5.7,7.3.4,14.6.4,21.8,0,6.9-.3,13.8-1.5,20.7-2,5.1-.4,10.1-1.7,15.3-.3,2.5.7,3.2,2.1,1.8,4.2-1.3,2-2.4,4.2-4.8,5.3-3.6,3-8.2,3.3-12.4,4.4-1.2.3-2.5.6-3.7.3-1,.2-1.9.4-2.9.5Z"/>
        <path class="cls-74" d="M252.8,299.4c5.4-1.6,10.8-3.2,16.2-4.7,1,1.8,1.2,3.7,1.5,5.7-5.9-.3-11.8-.6-17.7-.9Z"/>
        <path class="cls-164" d="M170,143.4c1.1-2.7,3.8-3.7,5.8-5.5,1-.9.6.9,1.1,1,.4.3.7.7.8,1.2,1.5,5.9,4.4,11.1,7,16.5,1.5,3,2.9,6.1,2.6,9.6-1.9,3.6-4.3.9-6.4.6,3.1,1.1,3.5,1.9,1,3.9-3.8,3-3.7,6-2,10.3,6.6,16.9,11.8,34.3,15.1,52.2.3,1.4.2,2.9.6,4.3.3,1.1.7,2,2,2.2q6.2,1,6,7.2c0,1.4,0,2.9,0,4.3,0,1,0,2.2-1.3,2.6-1.1-2.6-3.1-3-5.7-2.8-11.9.8-23.9.6-35.8.6-2.8,0-5.6-.2-8.4-.6-5.4-.8-8.9-3.7-10.3-9-1-3.6-1.4-7.3-1.4-10.9,0-8.1-.3-16.1,0-24.2.5-10,.7-20,2.3-29.9.6-4,1.7-8,3.5-11.7,1.5-3,3.7-5.3,7.3-5.5,1.5-.1,2.7-1,3.8-1.9,3.9-3.1,7.4-6.6,12.1-8.5,1.2-.5.8-1.1.6-1.8-.3-1.4-1-2.8-.3-4.3Z"/>
        <path class="cls-166" d="M186.9,166.3c-.4-5.1-2.8-9.4-5-13.8-2.1-4.3-4.6-8.5-4.9-13.5.3-1-.2-2.2,1-2.9,4.1,7,10.4,11.3,17.5,14.4,2.1.9,5.4-1.6,6-4.4.2-.8-.1-1.8,1-2.1,4.6,7.4,7.2,15.5,8.9,24,.9,4.3,1.5,8.7,2.3,13.1,1.7,2.1,1,4.6,1.3,6.9.4,3.8.7,7.6.9,11.4,0,2.1-.3,4.2.4,6.3.3,11.2,1.7,22.4.2,33.6-.2,1.2-.3,2.3-1,3.3-.3.4-.7.7-1.2.7-3.2-.1-3.9,1.9-4.1,4.6-.1,2.1-.7,4.2-.7,6.3,0,1.2-.3,2.3-1.3,3-1.5,2.3-3.7,1.7-5.8,1.3-1.1-1.5-1.3-3,0-4.5.3-3.8.6-7.5,1-11.3.1-1.3-.5-1.7-1.7-1.7-1.5,0-3.1,0-4.6-.6-1.3-.9-1.3-2.4-1.4-3.7-1.2-22.5-5.1-44.7-8.8-66.9-.2-1.2-.2-2.3.2-3.4Z"/>
        <path class="cls-104" d="M202.2,253.9c0,1.5,0,3,0,4.5-1.5-.8-3.2-.5-4.8-.5-1,1-2.4,1.3-3.7,1.4-13.8,1.8-27.6,4-41.6,3.6-1.9,0-3.9,0-5.7-.7-3.8-1.4-7.2-3.1-8.8-7.2-4.4-7.3-5.6-15.6-6.5-23.8-1.1-9.9-.7-19.9-.6-29.8,0-3,.3-6,.5-9,.9-6.1,1.9-12.2,4.4-18,5-11.6,13.9-19.5,24.5-25.7,3.3-1.9,6.5-3.9,10.2-5.2.6,2.3,1.3,4.6,2.1,7.5-1.8-1.3-2.9-.7-4,.1-2.7,2-5.6,3.8-8.1,6.1-2.5,2.2-4.8,4-8.4,4.1-1.8,0-3.1,2.2-4,3.9-2.6,4.9-3.8,10.2-4.3,15.6-1.7,17-2.2,34-1.8,51.1,0,3.8.5,7.5,1.7,11.1,1.5,4.5,4.7,6.9,9.4,7.4,11.3,1.2,22.7.5,34,.4,3.8,0,7.7-.2,11.6-.5,3-.2,4.4.7,4,3.7Z"/>
        <path class="cls-97" d="M662.2,192.4c-4.5,4.3-3.9,10.2-4.6,15.7-1.3,9.1-2.4,18.3-3.3,27.5-.5,4.7-1.5,9.3-1.4,14.1-1.3,3.6-1.1,7.5-1.7,11.3-1.1,7-1.9,14.1-2.8,21.1-.3,2-.4,4-.8,6-1.2,5.9-4.3,10.2-10.5,11.8-.3.2-.6.2-.8,0-1.1-3.2,0-6.4.2-9.5.6-6.8-.1-13.5-1-20.2-2-15.6-6-30.6-12.8-44.8-2.3-4.8-4.8-9.5-7.8-13.9-1.4-2.2-3-4.3-4.3-6.7-.5.4-.3,1.5-1.3,1.4-1.3-1.1-1-2.7-1-4.1-.1-3,.5-6-.4-9,0-3.1-1.1-6.3.8-9.3.8,2.3.3,4.6.4,6.9,0,1.2.1,2.2,1.7,1.9,1.8,0,3.6,0,5.4,0,14.4,0,28.8,0,43.1,0,1,0,1.9,0,2.9,0Z"/>
        <path class="cls-6" d="M621.2,188.7c-.8,1.1-1.9,1.1-2.7,1.4-.7.2-1.5.3-2.2-.3-.3-.3-.4-.7,0-1,.7-.5,1.4-1.1,2.3-.9.8.2,1.6.4,2.6.7Z"/>
        <path class="cls-100" d="M456.4,203.9c1.2.1,2.3.2,3.5.4.8.7.9,1.7.9,2.6,0,6.9.1,13.9,0,20.8,0,.6-.1,1.1-.4,1.7-1.6,1.9-3.8,1.1-5.8,1.2-.3,0-.6-.1-.9-.3-.6-.3-1-.7-1.2-1.3,0-.5,0-.9.3-1.2.3-6.2-.7-12.3-.9-18.4,0-.7,0-1.3-.2-2-.4-2.3.3-3.5,2.9-3.2.6,0,1.1-.1,1.7-.2Z"/>
        <path class="cls-37" d="M452.8,227.7c0,.4,0,.7,0,1.1-1.2.9-2.6.6-3.9.6-9,0-18-.1-27.1.1-.4-.1-.6-.3-.8-.7,0-7.1-1.5-14-2.6-21-2.2-14.9-4.1-29.8-6.7-44.6,0-.5,0-1,.2-1.4,0-.3,0-.5,0-.8,2.3,1.4,2,3.8,2.3,5.9,2.8,19,5.6,38,8.3,57.1.2,1.6.9,2.2,2.6,2.2,9.2.4,18.4.9,27.6,1.3Z"/>
        <path class="cls-117" d="M136.6,377.9c5-15.3,10-30.5,15.1-45.8.9-2.7.9-6.5,3.1-7.9,2-1.3,5.4-.4,8.3-.4,17.1,0,34.2,0,51.3,0,2.1,0,3,.6,3.5,2.7,3.8,17.2,7.8,34.4,11.7,51.6-1.6,1-3.3.9-5.1.9-27.9,0-55.8,0-83.7,0-1.4,0-3,.2-4.1-1Z"/>
        <path class="cls-166" d="M136.6,377.9c29.7,0,59.5,0,89.2.1,1.2,0,2.4-1,3.6,0,1,4.3,2.1,8.5,3.1,12.8-.4.8-1.1.8-1.8.7-3.1.5-6.2.2-9.2.2-8.6.2-17.2-.2-25.8.2-9.9,0-19.8,0-29.7.1-5.8.5-11.6,0-17.3.2-1.8,0-3.7-.2-5.5.2-3.9,0-7.7,0-11.6,0,1.6-4.9,3.3-9.7,4.9-14.6Z"/>
        <path class="cls-19" d="M580,205.9c1.1-3.8.9-7.8,1.8-11.6,1-4.1,0-8,0-12.1,0-4.5.7-8.9,2.5-13,1.8-4.2,6.7-10,12.2-8.9,2.4.9,3.7,2.9,5.3,4.7,0,.4-.2.8,0,1.2,1.9,8.7-.3,17-2.2,25.3-2.8,12.4-6.7,24.5-10.9,36.5-.9,2.5-2.1,4.8-3.3,7.1-4.1,7.6-8.6,9.9-17.2,8.7-7.2-1-14.4-1.7-21.6-2.8-2.4-.4-3.5.6-3.3,2.7.1,1.3,1.1,1.8,2.1,2.1,5.5,1.4,10.9,2.9,16.5,3.7.9.1,2,0,2.6,1,0,.6-.4.9-.9,1-5.7,1.1-10.5,3.9-14.3,8.3-.3.4-.7.6-1.2.9-1.5.7-3.1,0-4.6,0-1.8,0-2.8.6-2.2,2.6.2.7.4,1.3.3,2-.1,1.2-1.2,2.6-1.8,2.2-2.1-1.4-3.6,1.5-5.5.5-.7-.3-1,.4-1.4.8-.6.6-1.4,1-2.1.5-.8-.6-.8-.5-1.4.2-.9,1.1-2,0-2.6-.7-1.7-2.1-2.8-4.4-2.6-7.2.3-2.1,1.1-3.8,3-5,1.6-1,2.4-2.7,3.5-4.3,1.9-2.7,3.8-5.4,7.1-7.1-1.7-1.5-3.5-2.2-5.5-2.2-4.7,0-8.8-1.7-12.2-4.8-1.8-1.5-4-2-5.9-2.9-.7-1.8-2.1-3.1-2.8-4.9.3-.1.5-.1.8,0,2.7.4,5.2-.2,7.7-1,.7-.2,1.7-.3,1.7-1.3,0-.8-.9-.9-1.5-1.2-2.3-1.2-4.3-2.6-5.8-4.8-.5-.7-1-1.6-.4-2.4.7-.9,1.4,0,2,.3,3,1.7,6.4,2.3,9.6,3.2,4.9,1.3,9.2,3.6,12.3,7.7.8,1,1.7,1.1,2.8,1,5.7-.4,11.4-.7,17.1-1.1,2.3-1.3,4.9-1,7.3-1.3,2.7-.3,5.4-.6,8.1-.8,3.2-.2,3.8-.8,4.1-4.1.3-4.5,1-9,1.3-13.6.1-1.9.5-3.6,1.5-5.2Z"/>
        <path class="cls-85" d="M564.3,250.8c-6.5-1-12.8-2.6-19.1-4.1-2.4-.6-3.5-1.7-2.9-4.3.5-2.2,1.2-2.8,3.7-2.4,7.9,1.3,15.8,2.1,23.7,3.2,7.4,1,11.9-2.6,15-8.8,4.5-8.9,7-18.4,9.8-27.9,2.9-9.5,5.1-19.2,6.7-29,.6-3.7-.1-7.1-.6-10.6-.1-1-.3-1.7.9-1.9,4.7,4,6,9.6,6.9,15.4.2,1,.1,2.1.2,3.2,0,3.1,0,6.3,0,9.4,1,4.6-.6,8.8-1.6,13.1-2.3,9.6-5.3,19-9.2,28.1-.4,1-.8,2-1.3,2.9-4.8,10.2-11.8,14.8-25.8,14.1-1.1,0-2.1-.1-2.7,1-.6.3-1.1.3-1.7.1-.8-.3-1.6-.8-2-1.7Z"/>
        <path class="cls-116" d="M63.9,337.5c1.6-7.2,2.3-14.5,3-21.7.1-1.3-.1-2.9,2.1-2.6,1.8.2,4.2-.8,4.5,2.5.3,4.8-.2,9.4-1.6,14-.8,2.5-1.5,5-2.2,7.5-1.9.1-3.8.3-5.7.4Z"/>
        <path class="cls-3" d="M706.6,397.2c-2.3-1.5-4.7-3-7-4.5-2.3-.2-3.8-1.9-5.2-3.4-6.3-6.8-10.5-14.6-11.8-23.9-.8-5.9-1.2-11.8,0-17.7.3-1.3.5-2.7,1.6-3.6.3-.2.6-.3.9-.3,3.3.3,6.3,2,9.6,2.3,7.4,1.1,14.9,1.4,22.2-.8,1-.3,2.1-.7,3.1,0,1,.8.7,2,.6,3-.7,8.9-.4,17.8,0,26.7.3,7.3.2,14.5,0,21.8,0,2.3.8,3.2,2.9,3-5.2.8-10.1-.3-15-1.8-.6-.2-1.3-.4-1.9-.6Z"/>
        <path class="cls-110" d="M719.9,345.2c-7.7,2.6-15.5,3-23.5,1.8-.8-.1-1.5-.3-2.2-.5,4-1,5.4-4.2,6.2-7.8.5-2.2,1.5-4.2,2.3-6.2,1-2.5,3-3.9,5.5-4.1,7.7-.6,15.4-.3,23.1.1.3,0,.5.3.7.4-3.9,2.5-4.2,6.7-5.2,10.6-1.8,2.6-4.5,4-7.1,5.6Z"/>
        <path class="cls-86" d="M453.5,230c2.1,0,4.3-.1,6.4-.2,3.7-1.4,7.4-1.5,11.1,0,8.6,0,17.1,0,25.7,0,3-.9,6-.7,8.8.6-.3,1.6-2.3,2.4-1.9,4.4.1.8-.9.9-1.6,1-1.1.2-2.1.1-3.2.1-31,0-62,0-93,0-1.6,0-3.3.4-4.7-1.2,4.6-1.8,9.4-.7,13.4-1-4.8-.9-10.4-.1-15.8-1.2-1.4-.3-3.2,0-3.4-2.2,1-.8,2.2-.6,3.4-.6,17.2,0,34.5,0,51.7,0,1.1,0,2.1,0,3.2.4Z"/>
        <path class="cls-173" d="M471,229.9c-3.7,0-7.4,0-11.1,0,0-8.5,0-17,0-25.5,3.8,0,7.6,0,11.4-.1,1.7,0,2.2.6,2.1,2.2-.4,6.9-.8,13.7-1.2,20.6,0,1-.7,2-1.1,2.9Z"/>
        <path class="cls-42" d="M505.3,230.5c-2.9-.2-5.8-.5-8.7-.7.8-.6,1.6-1.2,2.3-1.8,3.8-.3,7.6.5,11.5.6,1.1,0,1.9.4,1.6,1.7-.2,0-.5.2-.7.2-2,1-4,1.1-6,0Z"/>
        <path class="cls-105" d="M216.5,123.1c.1,3.5-1.4,6.1-3.7,6.4-3,.3-6.2-3-6.6-6.9.2-.2.5-.3.8-.2,3.2,1.3,4.6,1.5,7.3.8.7-.8,1.4-.8,2.2-.1Z"/>
        <path class="cls-103" d="M206.8,122.6c-.2,0-.3,0-.5,0-.2-2,1.4-1.5,2.3-1.6,1.9-.2,3.9,0,5.8-.3,2.4-.5,2.7.5,2.1,2.4-.8,0-1.6,0-2.2.7-2.7.7-5.2.1-7.6-1.1Z"/>
        <path class="cls-101" d="M73.9,201.9c.9-1.2.3-2.8.8-4.1.6.7.1,1.6.4,2.3-1.3,13.7-2.7,27.4-4,41.1-.1,1.4,0,2.9-.1,4.4,0,.3,0,.6,0,1-.3,2.4,1.2,4.9-.6,7.2-.6,5-1.2,10-1.8,15-1.8-.1-2.2-.8-2-2.8,1-8.5,2.4-17.1,2.7-25.7,0-1.3.8-2.6.6-3.9.7-5.5,1.7-11,2.1-16.6.5-6,1.3-11.9,2-17.8Z"/>
        <path class="cls-174" d="M70.3,253.7c0-2.4-.2-4.8.6-7.2.7,2.5,2.9,5-.6,7.2Z"/>
        <path class="cls-13" d="M698.5,286.9c.6-.1,1.3,0,1.6-.3,3-2.8,6.8-4.4,10-6.8,2.3-1.7,3-4.5,2.9-7.4,2.8-1.7,3.6-4.9,5.1-7.4,3.2-5.5,7.5-9.4,13.6-11.2,0,1.4,1,1.9,2.2,1.6,3.3-.8,6.5-1.6,8.9-4.3,1.8-2,3.8-3.9,5.7-5.8.7-.6,1.2-1.6,2.6-1.4-1.1,3.1-3.5,5.3-4.3,8.4,0,.3-.3.5-.4.8-.3,1.2-1.4,2.4-.6,3.5.8,1.2,2.1-.4,3.2,0-.3,1.6-2.1,2.4-2.3,4.1-2.6,2.4-4,5.6-5.8,8.5-2.8,4.9-5.6,9.9-7.1,15.4-.2,0-.3,0-.5,0-2.6,1.7-5.3,3.2-8.5,1.5-.7-1.4-.3-2.8,0-4.3,1.6-7.7,3.8-15.2,5.6-23-4.4,3-8.1,6.5-10.5,11.4-.2.4-.3.9,0,1.1,2.2,1.5.7,3.1.2,4.6-3.1,8.5-5.1,17.3-5.9,26.3-.2,2.5,0,4.4,3.1,4.6.7,0,1.3.5,1.8,1,1.3,1.5,1.5,3.1.4,4.8-2.4,4.1-4.1,8.5-6.2,12.8-1,2.1-2.3,3.1-4.9,3.3-4.8.4-9.6.6-14.5.1-.4-.2-.8-.4-1-.8,1.2-3.5,3.5-6.5,5.1-9.9.9-1.9,1.9-3.8,3-5.6.9-1.6.9-2.9-.6-4.1,1-1.9,3-1.5,4.6-1.8,6-1.1,6-1,2.2-6.1-1.4-1.9-3.5-3.4-3.7-6.1-1.2-2.9-3.7-4.9-5.2-7.6Z"/>
        <path class="cls-15" d="M709.2,264.3c-1.5-3.5-2.9-7-4.4-10.6-.7-1.7-1.2-3.4-1.2-5.3,3.5,3.8,5.2,8.6,7.7,13,.3.6.7,1.2,1,1.7.5,2.5.3,5,0,7.5-2-1.7-1.8-4.4-3.2-6.3Z"/>
        <path class="cls-99" d="M715.3,248.7c-3.5-3.1-6-6.8-8.3-10.9,3.6,2.5,6.4,5.8,9.3,9,0,.8-.2,1.5-1,1.9Z"/>
        <path class="cls-117" d="M195.7,391.8c.5-.6,1.2-.5,1.9-.5,11.1,0,22.1,0,33.2,0-.6.1-1.1.4-1.7.4-11.1,0-22.3,0-33.4,0Z"/>
        <path class="cls-117" d="M143.2,392.4c1.2-.9,2.6-.4,3.9-.5,6.3,0,12.6,0,18.9,0-3.2.9-6.5.3-9.8.5-4,.2-7.9.1-11.9.2-.4,0-.8-.1-1.2-.2Z"/>
        <path class="cls-26" d="M347.9,391.3c-2.3,0-4.6,0-6.9,0-1.3-4.7-5.1-5.6-9.1-6.5-1.7-.4-3.7-.3-4.8-2.1-.5-1.7.1-3.3.6-4.8,8.2-26.7,16.1-53.6,24.5-80.2,2.6-8.1,5.2-16.3,7.6-24.5.4-1.4.6-3.2,2.6-3.5,11.9.4,23.9.1,35.8.2,1,0,1.9-.1,2.9-.3,2.7-.4,3.6.2,3.6,3,0,4.3.3,8.5.7,12.8.4,4.3,1.1,5.2,5.4,4.8,5-.5,10.1-.5,15.1-.5,2.7,0,4.8.7,6.1,3.1,1.4,1.9,1.8,4.3,2.5,6.5,8.5,28.2,17,56.4,25.9,84.5.5,1.6,1.2,3.2-.4,4.6-4.2,1.8-8.5,2.7-13.1,3.1-.7-.3-1.5-.2-2.3-.2-27.5,0-55.1,0-82.6,0-.7,0-1.4-.1-2,.2-4,0-8.1,0-12.1,0Z"/>
        <path class="cls-113" d="M447.7,390.9c4.1-1,8.1-2.1,12.2-3.1.8-.1,1.4.3,1.6.9.9,2.5,2.5,4.9,1.8,7.9-5-.3-10-.7-14.8-1.9-1.1-.3-2.7-.2-2.6-2.1.3-.3.5-.7.8-1,0-.7.7-.3,1-.6Z"/>
        <path class="cls-73" d="M447.7,390.9c-.3.2-.7.4-1,.6-1.3,0-2.5-.1-3.8-.1-26.6,0-53.1,0-79.7,0-1.1,0-2.1,0-3.2,0,1.1-.5,2.3-.3,3.4-.3,28.1,0,56.2,0,84.2-.1Z"/>
        <path class="cls-21" d="M603.9,313.2c5.4,0,10.8,0,16.2.1,1.1,0,2.1-.2,3.1.4,1.3.6,1.5,1.9,1.8,3.1,6.4,24,12.9,48,19.3,72,.3,1.2.9,2.4.4,3.7,0,.2,0,.4,0,.6,0,1.5,1.5,3.8.6,4.3-1.7.8-3.9.3-5.9.3-1.2,0-1.2-1.1-1.5-1.8-.6-1.5-.7-3.1-1.7-4.5-1.3-.4-1.6-1.5-2-2.6-1.2-3.6-2.5-7.2-3.6-10.9-5.3-16.6-11-33.2-16.5-49.7-.8-2.6-2.3-3.6-5.1-3.6-17.7.1-35.3,0-53,0-3.8,0-3.9.1-4.7,3.6-1.9,8.6-3.9,17.2-5.7,25.9-.4,2-.1,3.5,1.5,4.9,2.8,2.5,4.6,5.8,6,9.2,1.4,3.2,2.4,6.6,3.5,9.9.6,2.5,1.8,4.7,2.6,7.1.3,1,.7,2.3-.5,2.8-1.1.5-1.7-.6-2.3-1.4-2.1-2.9-3.8-6.1-5.7-9.1-.6-.9-1.1-2-2.3-3.1-.9,4.6-2.1,8.6-3.2,12.7-.3,1.1-.4,2.3-1.5,3-.6,1.4-1,2.8.2,4,1.2,1.3.4,1.9-.7,2.3-1.2.4-2.4.8-3.6.8-2.3,0-3.9.7-4.5,3.1-.7.7-1.5.9-1.5-.3.2-2.9-1.4-2.7-3.3-2.2-1,0-1.9-.1-2.9-.2-2.1-1.8-.9-4.2-1.3-6.3.3-3.2,2.5-5.7,3.3-8.8,1.9-4.4,2.3-9.2,2.3-13.9,0-5.3.2-10.6,1.2-15.8,2-11.8,3.6-23.8,5.7-35.6.3-1.4.4-2.9,1.4-4.1,1.3-1,2.8-.9,4.2-.9,18.5,0,36.9,0,55.4,0,1.4,0,3-.2,4.1.9Z"/>
        <path class="cls-162" d="M631.4,377.9c1.6,4.5,3.2,8.9,4.8,13.4-2.9,1.1-6,.5-8.9.5-8-.5-16.1,0-24.1-.2-4.1,0-8.1.3-12.2-.2-15.1,0-30.2,0-45.3,0-.9,0-1.8,0-1.9-1.2,1.5-5.8,2.9-11.5,4.5-17.8,3.5,5.4,6.7,10.5,9.9,15.5.2-.1.5-.2.7-.4,0-3.2-2.5-5.8-2.8-8.9,1.2-1.2,2.7-.9,4.1-.9,6.5,0,13-.1,19.5,0,8.4.1,16.9-.8,25.3-.6,8,.2,16.1.4,24.1.3.8,0,1.5.2,2.2.7Z"/>
        <path class="cls-147" d="M591,391.4c11.4,0,22.9,0,34.3,0,.7,0,1.4,0,1.9.5-4.9,0-9.7,0-14.6.1-6.2,0-12.4-.1-18.6-.2-1,0-2.1.2-3.1-.4Z"/>
        <path class="cls-115" d="M530.4,397.7c2-.8,3.8-1.4,3.5,2,0,.8.7.6,1.3.5.3.8,1.1,1.8-.3,2.1-1.1.3-2.3.5-3.3-.4-.4-.4-.3-.9.2-1.2.8-.5,2-.9,1.5-2.1-.5-1.4-1.9-.5-2.8-.8Z"/>
        <path class="cls-89" d="M725.2,285.8c1.8,1.3,3.4-.3,5.1-.5,1-.1,2-.4,3.1-.7-.9,4.7-3,9.1-4.3,13.8-.7,2.6-1.4,5.2-2.1,7.8-1.3,2.6-1.4,4.6.9,7.2,3.9,4.3,5.6,9.6,4.4,15.5-7.5,0-15,0-22.5.1-3,0-5.3.9-6.3,4-1,2.8-2.1,5.6-3,8.5-1.3,4.4-1.7,4.8-6.1,5-3.3.1-6.2-1.6-9.2-2.4,2.4-4.3,2.9-9.4,6-13.4.7-1,1.4-2.1,2.8-2.3,4.8,0,9.7,0,14.5,0,2.3,0,3.4-1,4.3-3,2.1-4.2,3.6-8.7,6.2-12.7,1.1-1.7,1-3.1,0-4.7,3-.2,3.3-2,3.3-4.6,0-5.1.5-10.2,1.6-15.2.2-.9,0-2.3,1.5-2.4Z"/>
        <path class="cls-118" d="M291.2,378c1.2-.6,1.9-2.4,3.7-1.8.7.1,1.2.6,1.6,1.1,4.9,5.2,14.6,7.5,21.3,5,1.5-.5,2.5-2.8,4.6-1.5,0,4.4-.6,8.6-3.1,12.3-7,0-13.9.6-20.8-.6-1.4-.2-2.8-1.6-4.2,0-.5-1.2.7-2.5-.5-3.6-3.2-2.6-4.2-6.5-2.6-11Z"/>
        <path class="cls-10" d="M291.2,378c-.4,4,.4,7.6,2.6,11,.4,2-1,2.2-2.4,2.2-4.6,0-9.2,0-13.9.1-1-1-.3-2,0-3,1.5-5.5,3.5-10.8,5-16.3.3-.9.4-2.2,1.9-2.2,1.4,2.1,2.8,4.2,4.1,6.3.7,1,1.4,1.8,2.7,1.9Z"/>
        <path class="cls-16" d="M273.2,391.4c2.3-3.7,2.5-8,3.6-12,1.4-5.2,2.1-10.5,4.1-15.5.4.8.8,1.5,1.3,2.3.5,1.6.4,3.2-.1,4.8-1.7,5.9-3,11.8-4.9,17.6-.3,1-.6,2-1.5,2.8-.9,2.9-1.4,6-3.7,9.1-.3-3.6,1.6-6.2,1.2-9.1Z"/>
        <path class="cls-156" d="M275.7,391.4c1.9-7,3.8-14,5.7-21,.4-1.4.5-2.8.8-4.3.7,1.2,1.4,2.5,2.2,3.7-1.7,2.3-1.8,5-2.6,7.6-1.5,4.6-2.8,9.2-4.2,13.9-.6,0-1.2,0-1.8,0Z"/>
        <path class="cls-26" d="M644.8,392.5c-2.5-7.5-4.3-15.2-6.4-22.9-5.1-18.6-10.1-37.3-15.2-55.9,3.1-.7,6.3-.4,9.5-.3,7.4.2,14.3-1.3,20.3-6,.8.2,1.3.8,1.8,1.4,4,4.8,8.8,8.7,14.5,11.4.5.2,1.1.5,1.5.8,2.1,1.3,2.3,2.3.3,4-1.9,1.7-3.7,3.3-2,6.1,1.8,4,4.8,6.9,8.6,9.1,2.2,1.3,4.9,1.8,6.6,4-3.8,14.8-1.6,28.5,7.6,40.9,2.1,2.9,4.7,5.4,7.7,7.5-2.2,1.1-4.6.5-6.8.3-6.7-.6-13.4-.4-20-.4-8.2-.2-16.4-.4-24.6-.5-1.1,0-2.3-.1-3.4.5Z"/>
        <path class="cls-58" d="M319.3,393.1c1-4.1,2-8.1,2.9-12.2-.5-3.9,1.5-7.5,1.8-11.3.7-2.2-.2-4.6,1-6.7q1.3.7.7,3.5c5.6-29.2,12.6-58,19.4-86.9,1.8-7.8,3.9-15.4,5.6-23.2.5-2.5,1.1-4.9,1.7-7.4.4-1.8.4-3.7,2.2-4.9,2.7-.6,5.5-.7,8.2,0,1.4,1.3.5,2.7.2,4.1-2.7,10.3-5.6,20.6-8.4,30.9-8.8,31.4-17.3,62.9-26.2,94.3-2.6,9-4.8,18.2-8.4,26.9-1.4.8-2.6,1.2-2-1.3.5-1.9.9-3.8,1.4-5.8Z"/>
        <path class="cls-53" d="M319.9,400.1c.7-4.8,2.5-9.3,3.8-13.9,10-34.6,19.3-69.3,29-104,3.5-12.6,7.1-25.1,10.3-37.8,1.9-1.4,4-1,6-.4,1.2.9.7,2,.5,3.1-.8,3.4-2.1,6.6-2.9,9.9-.6,1.7-1.2,3.4-1.7,5.1-1.1,2.6-1.4,5.5-3,7.9-2.7,8.2-5.4,16.3-8,24.5-5.3,16.9-10.5,33.9-15.6,50.8-3.5,11.5-6.9,23-10.3,34.5-.3.9-.3,1.9-.5,2.8-1.2,3.5-1.7,7.3-4,10.4-1.5,2.2-1.5,5.1-3.5,7Z"/>
        <path class="cls-135" d="M323.4,393.1c1.3-3.5,1.5-7.4,4-10.4,2.8.8,5.7,1.5,8.5,2.3,3.2.9,5.2,2.7,5.1,6.3-2.3,2.1-5.3,1.3-8,1.7-3.1.4-6.4.1-9.6.2Z"/>
        <path class="cls-26" d="M530,383.2c-.9,2.8-2.4,5.5-3.8,8.1-10.8,0-21.5,0-32.3-.1-1.1,0-2.1-.3-3.2-.4-.6-1.7.6-3,1.5-4.1,4.6-5.4,4.6-10.9.6-16.6-1.4-2.8-2.3-5.7-2.4-8.8.7-8.1,2.5-15.9,4-23.8.5-2.5,1-5,1.6-7.4.2-.8.3-1.9,1.3-2.1.9-.2,1.5.8,2,1.5,4,5.7,8,11.5,12,17.2,2.4,3.4,5.1,6.6,7.4,10.1.9,1.4,2,2,3.6,1.8,1.4.8,2,2.1,2.5,3.5,2.2,5.1,3.8,10.4,5,15.8.4,1.8.5,3.6,0,5.5Z"/>
        <path class="cls-142" d="M493.6,369.7c1,1.6,2,3.3,2.7,5.1,1,3,.9,5.8-.9,8.6-1.6,2.4-3.4,4.7-4.5,7.4-1.2,1.9-2.3,3.7-3.5,5.6-.3.4-.6.8-1.1.7-.6-.2-.5-.7-.4-1.2.3-1.7.6-3.4.9-5.1-.4-1.6-1.5,0-2.2-.5-.4.2-.8.4-1.2.6-3.8,1.6-7.4,3.7-11.4,4.7-1.6.4-3.2.6-4.8.4-2.1-2.6-2.3-5.7-2.3-8.9.6-1,1.4-.4,2-.1,2.9,1.4,5.7.9,8.4-.6,6.4-3.6,12-8.2,16-14.4.6-.9.9-2.2,2.4-2.3Z"/>
        <path class="cls-24" d="M484.4,390.2c.9-.6,1.4-1.6,2.6-1.7.6.9-.2,1.5-.4,2.2-.8,0-1.6.3-2.2-.5Z"/>
        <path class="cls-122" d="M332.3,205.3c-.8-4.6-1.6-9.2-2.3-13.8-.9-6.1-1.6-12.1-2.4-18.2.7-1,1.7-1.3,2.8-.8,4.7,2.3,9.5,4.3,13.3,8.1,4.3,4.2,8.9,8.1,13.7,11.7,3,2.3,5,5.7,8,8,5.3,4.1,10.9,7.8,16,12,3.6,3,7.1,6,10.6,9.1,1,.9,2,1.9,2.6,3.1.8,1.8.6,3.3-1.3,4.1-1.5.7-2.9,1.6-4.6,1.9-9.1.2-18.3,0-27.4,0-1.1,0-2.2,0-3-.9,2.7-3.1,2.9-3.5-.5-6.2-7.4-5.8-14.3-12.1-21.3-18.3-1.7-1.5-2.9-1.6-4.3,0Z"/>
        <path class="cls-30" d="M289,230.4c14.6,0,29.3,0,43.9,0,1.1,0,2.3.3,3.4-.5.8,0,1.5,0,2.3,0,6.3.5,12.7,0,19,.2,1.2,0,2.3,0,3.5,0,3.4.5,6.9,1.1,10.4,1.2,1.4,0,2.7.3,4,.8.8.3,1.8.7,1.6,1.7-.2,1-1.1,1.3-2,1.4-3,.2-6,.4-9,0-2.5-.3-5-.3-7.5-.4,1.5,0,3.1,0,4.6,0,.6,0,1.5,0,1,1.1-.6.5-1.4.7-2.2.7-7.3,0-14.6.3-21.9-.2-1.5-.5-3.1-.5-4.6-.5-16.1,0-32.3,0-48.4,0-1.5,0-4.1.5-4-1,0-1.9,2.6-1.1,4.1-1.3,1.7-.1,3.5,0,5.4,0-1.2-1.2-3.5-1-3.5-3.2Z"/>
        <path class="cls-4" d="M361.4,230.5c-6.6,0-13.2,0-19.7,0-1,0-2.1.3-3.1-.5,6.6,0,13.3,0,19.9-.1,10.5,0,21,0,31.5,0,1.8-.6,3.6-.9,5.4-.9,7.5,0,15.1,0,22.6,0,1.2,0,2.3,0,3.4.6,10-.5,20.1-.1,30.1-.2.7,0,1.3.2,2,.4,0,0,0,.3,0,.3-1.1.7-2.3.4-3.4.4-18.3,0-36.6,0-54.9,0-.6.7-1.5.9-2.4.9-10.5,0-21,.6-31.4-.9Z"/>
        <path class="cls-158" d="M463.3,396.5c-1-3-1.2-6.3-3.4-8.8.8-1,.4-2,0-3-6.7-21.1-13.2-42.2-19.4-63.4-2.7-9.4-5.7-18.6-8.6-27.9-2.7-4.3-3.5-9.2-4.9-13.9-3.3-10.6-6.4-21.3-9.6-32-.4-1.2-1-2.4.2-3.5,2.5-.8,5.1-.7,7.6,0,1.3.8,1.5,2.2,1.9,3.5,9.5,35.3,19,70.5,28.4,105.8,3.7,13.8,7.2,27.6,10.6,41.4.3,1.1.3,2.3.7,3.4.3,1,.4,2.2-1.2,2.4-1.9-.3-2.2-1.6-2-3.2,0-.2-.1-.4-.2-.6Z"/>
        <path class="cls-48" d="M465.1,400.1c1.6-.3,1.2-1.4.9-2.5-2.5-10-4.9-20.1-7.5-30.1-4.7-18-9.5-36-14.4-54.1-6.2-23-12.4-46.1-18.6-69.1,2.2-1.5,4.4-1,6.7-.5,1.6,1.2,1.8,3.2,2.2,4.9,4.4,18.6,8.6,37.3,12.9,55.9.1.5.2.9.4,1.4,3.7,16.3,7.7,32.5,11.4,48.7,2.1,9.2,4.5,18.3,6.2,27.5,0,1.2.2,2.5-.5,3.6.7,3.3,1.5,6.6,2.2,9.9-.2.9.3,1.7.6,2.5.3.8.5,1.4-.2,2.1-.8.8-1.5.8-2.3.1-.2,0-.3-.2-.3-.3,0-.1.1-.2.2-.2Z"/>
        <path class="cls-115" d="M465.1,400.1c0,.2,0,.3,0,.5-1.3.2-2.3-.4-2.8-1.5-.4-1,.2-1.6,1.1-2,.8.9.5,2.3,1.6,3Z"/>
        <path class="cls-35" d="M49.9,337.1c-1.1-7.7-3.2-15.2-6.8-22.2-.5-.9-.9-1.9-1.3-2.9,1-.8,2.3-1.2,3.1-2.4.7-.6,1.4-1.2,2.1-1.7,4.8,8.1,5.8,17,5.2,26.2,0,1.4,0,3.1-2.2,2.9Z"/>
        <path class="cls-111" d="M421.5,229.6c-10.5.4-21,0-31.5.1.7-.4,1.4-1,2.2-1.3,2.8-1.3,3.2-2.7,1-4.9-3.8-3.6-7.6-7.1-11.7-10.4-5.6-4.4-11.5-8.4-17.1-12.8-3.4-2.7-5.6-6.6-9.3-9.1-6.7-4.6-11.6-11.4-18.9-15.2-2.6-1.3-5.1-3.8-8.6-2.8-.4-2.9-.9-5.7-1.2-8.6-.1-1.1-.2-2.4,1.1-3.1,26.6-1,53.2-.2,79.8-.5,1,0,2.2-.3,3.1.5-1,1.3-2.5.9-3.8.9-8.6,0-17.3,0-25.9,0-1.3,0-3.1-.7-3.7.7-.6,1.3.9,2.4,1.7,3.5,8.9,12.5,20.6,21.8,34,29,3,1.6,4.6,3.5,5.1,7,1.1,7.8,2.1,15.5,3.5,23.2.2.9,0,1.7,0,2.6,0,.3,0,.6.1.9v.2Z"/>
        <path class="cls-78" d="M421.3,228.5c-1.7-6.5-2.4-13.2-3.4-19.9-.4-2.9-.8-5.7-1.3-8.6-.2-1.4-1.2-2.1-2.4-2.7-11.4-5.7-21.3-13.4-30-22.6-3-3.2-5.6-6.7-7.9-10.4-1.4-2.3-1.2-2.7,1.6-2.8,10.9,0,21.8-.1,32.6-.2.5.1,1,.3,1.5.4,1.9,4.9,2.1,10.2,2.9,15.4,2.4,15.8,4.7,31.6,7,47.4.2,1.3.5,2.7-.5,3.9Z"/>
        <path class="cls-137" d="M289,230.4c1.7,1.9,4.6,1.9,6.7,4h-12.5c0,.2,0,.4,0,.6,1,0,2.1,0,3.1,0,16.8,0,33.5,0,50.3,0,1,0,2.1-.3,3.1.4-.8,1.1-2,1.1-3.1,1.1-6.7,0-13.3.1-20,0-1.9,0-3.7.1-5.6,0-6.8.1-13.5,0-20.3,0-5.5.1-11,0-16.5,0-4.6,0-5.6-1.4-4.3-6,2.3-2,4.9-.6,7.4-.8.6,0,1.1,0,1.7,0,3.3,1.2,6.6.2,9.9.6Z"/>
        <path class="cls-104" d="M223.1,227.5c.5-5.1.9-10.1,1.4-15.5,4.7,6.5,11.4,7.3,18.5,8,8.7.8,17.4.2,26.1.5,2.5,0,5,.6,7.5.6,2.5,0,3.3-.8,3-3.2-.1-1,0-2.1.3-3.2,0,4.6,1,9.2-.3,13.8-.9.2-1.9.5-2.8.7-3.1,1.1-6.5.4-9.5,1.7-11.3,2-22.6,3-34,2.5-3.2-.1-6.3-.9-8.9-3-.8-.9-1.7-1.7-1.3-3.1Z"/>
        <path class="cls-4" d="M267.4,230.3c3.1-.6,6.3-1,9.5-1,.2.2.3.3.5.5-2.3,1.3-4.7.3-7,.6-1,.7-2,.9-2.9-.1Z"/>
        <path class="cls-128" d="M223.1,227.5c.4.7.8,1.3,1.2,2,2,3.2,2.8,6.7,3.1,10.4.2,2.2,1,3.4,3.2,3.7,1.1.2,2.3.4,3.1,1.4.3,1.9-1.4,1.3-2.2,1.8,3.2,3.2,6.4,6.5,11.5,5.5.8.2,1.2.7,1.1,1.5.8,5.2-.4,7.5-5.5,9.3-8.5,2.9-16.8,2.1-24.6-2.6-2-1.2-3.7-2.9-6-3.4.5-3.8,1.4-7.6,1.5-11.4.1-2.8,1.2-3.5,3.6-3.1.6,0,1.1,0,1.7,0,.6-.5,1.4-.6,2.2-.7,3.4-.4,3.8-.7,4-4.2.2-3.4-.2-6.9,1.5-10.1.2,0,.4,0,.5,0Z"/>
        <path class="cls-104" d="M222.6,227.5c-.3,4.2-.7,8.4-.9,12.6,0,2.2-1,2.9-3,2.6-1.2-.2-2.5-.1-3.7-.2,1.6-8.1,1-16.4.9-24.6,0-4.1-.2-8.3-.3-12.4-.6-2,.1-4-.4-6-.6-6.2-1.2-12.3-1.3-18.5.2-.7-.1-1.5.8-2.4,3.2,16.4,7.8,32.3,8,49Z"/>
        <path class="cls-160" d="M199,105c1.1-4.5,7.6-6.9,10.9-4.6.7.5,1.2,1.1.9,1.9-.3.9-1.2.9-2,.7-3.4-.9-6.5-.4-9.8,2Z"/>
        <path class="cls-121" d="M207.3,107.8c0,.9,0,1.8-.8,1.8-1.2,0-1.2-1.3-1.3-2.2-.1-.6.2-1.2.9-1.2,1.3,0,1,1.1,1.3,1.6Z"/>
        <path class="cls-126" d="M580,205.9c-.8,7.1-1.6,14.1-2.3,21.2-.1,1.4-.4,2-2,2.2-6,.7-12,1.6-18.1,1.6-.6-7.2-1.2-14.3-1.8-21.5,3.4.5,6.8,1.3,10.3,1.2,5.1-.2,9.7-1.5,13.7-4.7Z"/>
        <path class="cls-123" d="M584.8,154.9c-3.7,6.6-6.6,13.6-11.4,19.4-.9,1.1-1.8,2.3-3.4,2.7,5.9-6.7,9-15.4,14.8-22.2Z"/>
        <path class="cls-70" d="M552,123.7c.2-.6.4-1.2.6-1.8.6-.7,1.1-1.4,1.7-1.9,2.4-2.2,3.8-2.1,6.1,0,3.2,3,4.3,3.2,8.3,1.4.5-.2.9-.8,1.7-.3-1.8,1.6-3.9,2.4-6.2,2.5-1.3,0-1.8.2-2,1.8-.3,3.5-3,6-5.4,5.7-.6,0-1.1-.2-1.5-1,2.5.2,4.7-.3,5.6-2.8.7-1.9.7-3.8-.4-5.6-.8-1.3-2-2.8-3.6-2.4-1.9.5-3.4,1.8-3.7,4-.3,2,.2,3.9.9,5.8-1.8-1.5-1.7-3.6-2.1-5.5Z"/>
        <path class="cls-91" d="M549.7,139.3c-.8-1.7-1.2-2.9,1.6-2.3,1.6.4,3.4,0,5.4,0-1.6,3.1-4.3,2-6.5,2.5-.3,0-.5,0-.6-.3Z"/>
        <path class="cls-145" d="M543.9,125.4c-.5-1.1-.8-2.3-.2-3.5,1.2-1.7,1.9-1,2.4.5.3.9-.2,1.7-.5,2.5-.5.4-.9,1.2-1.8.5Z"/>
        <path class="cls-134" d="M559,124.1c-.5.8,0,2.5-1.4,2.4-1.4-.1-.9-1.9-1.3-2.9-.4-1,.6-1.4,1.3-1.4,1,0,1.3.9,1.4,1.9Z"/>
        <path class="cls-46" d="M549.7,139.3c.2,0,.4.2.6.3.9.9,2.1,0,3,.6-2.4,1.5-2.9,1.4-3.6-.9Z"/>
        <path class="cls-29" d="M603.9,313.2c-14.1,0-28.1,0-42.2.1-6.1,0-12.2,0-18.3,0-1,0-2.1-.3-3.1.4-.3.1-.5.3-.8.3-6.8-.4-13.7,1.2-20.5.3-4.8-.4-9.7-.1-14.5-.2-4.2,0-5-1-4.3-5.1.3-1.7.6-3.4.9-5.1.6-3.8,1.2-4.3,5.1-4.4,30.7,0,61.3.4,92-.2,11.3-.2,22.7-.2,34-.5,1.5,0,3.1-.2,4.4.9.2,0,.4,0,.6,0-1,1-2.2.5-3.3.6-5.1,0-10.2,0-15.3,0-.2,1.1.6,1.5,1.1,2,2.5,2.7,2.4,5.4-.6,7.6-2.6,1.9-5.6,2.8-8.9,2.8-2.1,0-4.2-.7-6.2.5Z"/>
        <path class="cls-62" d="M668.6,331.5c-2-2.8-.6-4.8,1.7-6.6,2.6-2,2.5-2.1-.5-3.6-6.7-3.3-12.6-7.5-16.7-13.8,0,0,0,0,0,0,1.2-1.1,2.6-.3,3.9-.2,3.2.4,6.5,1.1,9.8.8-2.9-.6-5.9-.7-8.9-1.1-1.2-.2-2.6,0-3.1-1.5,3.8-4.5,5.5-9.9,6.5-15.6.3-1.6.3-3.3,1.2-4.7,5.7,6.8,10.9,14,15.1,21.8,1.5,2.8-1,6.6-4.3,6.9-1.5.1-3-.2-5.1.5,1.6.9,2.7.6,3.7.6,4.6,0,4.6,0,5.4,4.3,1.4-.6,2.7-1.4,3.8-2.5.3-.9,1.1-1.3,1.8-1.7,4.8-2.5,9.6-4.9,14.8-6.4,1.1-.3,2.2-.9,3.3,0,2,0,2.6,1.1,1.7,2.9-2.9,5.6-5.4,11.4-9.3,16.4-1,1-2.3.9-3.5.9-3.3,0-6.5,0-9.8,0-4,0-7.9.4-11.2,2.8Z"/>
        <path class="cls-26" d="M654.6,305.5c2.9,1.2,6.1.9,9.1,1.3,1.9.3,4-.2,5.4,1.7-1.8,1.1-3.7.6-5.5.4-3.6-.3-7.1-1-10.6-1.5.3-.9.7-1.7,1.6-2Z"/>
        <path class="cls-18" d="M700.8,308.6c-5.5,1-10.5,3.4-15.5,5.9-1.5.7-2.9,1.5-4.3,2.2-1.2-1.9-1.4-4.2-2.2-6.3-.7-1.7.3-3,1.7-3.9,3.4-2.2,6.6-4.7,10.6-6,3.5-1.1,6.5-3.4,9.7-5.2,1-.6,1.9-.8,3-.8,2.2,3.4,5.2,6.2,7.1,9.8.9,1.6,1.1,2.5-1.4,2.6-2.9,0-5.9.4-8.7,1.7Z"/>
        <path class="cls-138" d="M325.3,362.8c-.5,2.3.7,4.7-.5,6.9-4,1.5-8,2.9-12.4,1.3-4.9-12.8-8.2-26.1-11.7-39.4-3.3-12.5-5.1-25-5.4-38-.2-7.7.2-15.5-1-23.1-.3-1.8-.6-3.6-1.2-5.4-1.1-3.5-3.2-5.9-7-6.5-4.5-.7-9-1.4-13.4-3,.4-.1.9-.2,1.3-.3,3.4-1.5,6.8,0,10.2.1,2,0,4,.6,6,.9,4.5.8,9.1,1.4,13.7,1.9,1.2.4,2.5.4,3.8.7,3.3.9,6.7,1.4,9.6,3.4,3,2.3,4.2,5.5,4.8,9,1.4,8.2,1.8,16.6,2.3,24.9.9,14.5.4,29.1.8,43.7.2,6.2,0,12.4.9,18.6.2,1.4.4,2.9-.7,4.2Z"/>
        <path class="cls-164" d="M145.6,261.3c5.6,1,11.2.8,16.7.5,8-.3,16.1-1.3,24-2.5,3.7-.6,7.4-1,11.1-1.5.5,8-.9,15.9-1.2,23.9-1.1,3.4-1.6,6.9-2.9,10.2-1.2,3.1-3.2,5.4-5.3,7.8-13.8,0-27.6,0-41.4,0-1.1-1.3-1.2-2.8-1.4-4.4-.9-10.5-.9-21-.7-31.5,0-1,.1-1.9.9-2.7Z"/>
        <path class="cls-106" d="M290.2,257.2c-5.4-.6-10.8-1.2-16.2-1.8-6.1-.8-12.3-.7-18.4-1.1-3.8-.2-7.7.4-11.5-.5-.4-.4-.8-.8-1.1-1.2-3.1-2.3-6.1-4.8-9.3-7.1-.3-.2-.6-.5-1-.5-4.9,0-6.8-2.7-6.6-7.4.1-2.8-1.6-5.3-1.9-8.1,2.6,2.3,5.7,3.1,9.1,3.3,10.4.5,20.7-.6,30.9-2.1,1.1-.1,2.1-.3,3.2-.4,1,0,1.9,0,2.9.1,0,.2,0,.4-.1.6-.3,4.6-.3,4.6,4.3,4.6,5.4,0,10.8,0,16.2.1,1.3.7,1.4,2,1.4,3.3,0,5.2.2,10.4-.6,15.6-.2,1.1-.3,2.1-1.4,2.7Z"/>
        <path class="cls-114" d="M312.4,371c4.2.4,8.2-1.3,12.4-1.3-.5,3.8-1.4,7.5-2.5,11.2-.4,0-.9-.2-1.1,0-4.3,4.4-9.7,2.8-14.7,2.6-5-.2-9-2.8-11.5-7.3,5.2-2.2,10.8-3.1,16.2-4.7.4-.1.9-.3,1.3-.5Z"/>
        <path class="cls-83" d="M145.6,261.3c0,7.7-.1,15.3,0,23,.1,5.2.7,10.4,1.1,15.6-8.8.2-14.7-5.9-15.2-15.2-.6-10.4,2.4-20.1,6-29.6,2.3,2.6,4.8,5,8,6.4Z"/>
        <path class="cls-139" d="M186.9,166.3c3.5,18.3,6.2,36.6,8.3,55.1.6,5.4,1.5,10.8,1.1,16.2,0,1,.7,1.8.6,2.7-2.3-.2-2-2.3-2.2-3.5-3.1-20.4-9.4-40-16.9-59.1-.8-2-.7-3.5,1.1-4.8.6-.4,1.1-1.1,1.7-1.6q2.8-2.8-.9-4.8c2.6-.3,5.1,2.5,7.3-.2Z"/>
        <path class="cls-71" d="M215.1,199.5c1,1.9.4,4,.4,6-.6-2-.5-4-.4-6Z"/>
        <path class="cls-27" d="M636.6,299.8c-.2,0-.4,0-.6,0-42.9.5-85.8.8-128.6.6-.5,0-1,0-1.4-.1.3-1.3,1.4-1.2,2.3-1.3,1.2-.2,2.3,0,3.5,0,26.5,0,53-.2,79.5.1,8.3.1,13.5-3.8,17.5-10.3,2.5-4.1,3.6-8.7,3.7-13.6.2-8.4-.5-16.7-1.4-25,.1-8.7-1-17.4-1.3-26.1-.2-4.8-.7-9.7-.8-14.5,0-1.2-.1-2.6.9-3.6.2-1-.3-2.1.5-3.3,3.2,5.3,6.7,10,9.6,15.3,8.4,15.1,13.3,31.3,16,48.2,1,6.2,1.6,12.5,1.8,18.7.1,5-.7,10-1.1,15Z"/>
        <path class="cls-44" d="M609.7,206c.5,12.9,1.2,25.7,2.3,38.6.2,1.9.6,3.9-.5,5.7-.8,1.3-2.2,1.6-3.5,1.9-5.6,1.6-11.4,2.4-17.2,2.4-6.3,0-12.6.4-18.9-.7-1.5-.3-3.4,0-4.3-1.9,1-.9-1.3-.6-.5-1.4.7-.7,1.7-.6,2.5-.4,3.4,1.1,6.7.3,10-.3,7.3-1.1,12.3-5.3,15.4-11.8,4.3-9,7.7-18.3,10-28.1,1.3-5.7,3.6-11.2,3.6-17.1,1.1,2.7.3,5.4.6,8.2.2,1.6-.5,3.3.5,4.7Z"/>
        <path class="cls-25" d="M421.5,229.6s0-.2,0-.2c.9-.3,1.7-.8,2.8-.8,9.6,0,19.1.1,28.7.2.2.3.4.6.6.9-10.7.3-21.3.3-32,0Z"/>
        <path class="cls-148" d="M567.7,252.1c9,2.4,18.2,1.9,27.4,1.4,5.6-.3,11.1-1.4,16.5-3.2,1.5,3.9,1.2,8,1.5,12,.5,6.2.9,12.4-.4,18.6-1.7,8-6,14.2-13.3,18.1-1.6.9-3.3,1-5.1,1-28.3,0-56.7,0-85,0-1.1,0-2.3-.3-3.4.4-2.4-.4-3.7.3-3.9,3-.2,2.4-.7,4.8-1.2,7.1-.5,2.2.2,2.9,2.5,2.8,4.3-.1,8.5,0,12.8,0,1,0,2.1-.2,3.1.5.8.2,1,.9,1.3,1.5,4.7,11.7,8.7,23.7,13,35.6,0,.6,0,1.3-.6,1.6-3.4,2.3-6.4,5.1-10.5,6.3-1.6,1-2.6.5-3.7-1.1-6.6-9.4-13.3-18.8-20-28.2-.3-.4-.4-1.1-1.4-1.2-2.1,10.9-4.8,21.6-5.9,32.7-1.8,1.5-4,1-6.1.9-2.8-.2-5.5-.5-8.3-.6-2.8-.2-3.9-1.9-4.3-4.6-2.6-18.8-6.2-37.5-8.9-56.4-.1-1.1,0-2.1-.2-3.2-.6-5.9-1.9-11.7-.6-17.6.4-2.1,1-4.1,1.9-6.1,1.8-3.1,4.3-5.6,7.7-7,2.6-1.3,5.4-1.6,8.2-2.2,7.3-.6,14.5-1.8,21.9-1.9.6,0,1.1-.3,1.7-.4,5.8-.4,11.7-.8,17.5-1.1,1,0,1.9-.1,2.7.7.3,2.3,1,4.5,2.3,6.5.5.7,1,1.7,2,1.4.9-.3.3-1.4.6-2.1.9.4.9,2,2.3,1.7,1.5-.3.9-1.7,1.3-2.5,3.2,1.9,3.5,1.8,4.1-1.8.3.5.6.9.9,1.3.4.6.7,1.5,1.7,1.1,1-.4,1.4-1.3,1.2-2.4,0-.5-.4-.9-.6-1.3-1.1-2.5-.3-3.8,2.6-3.7,1.6,0,3.2.9,4.9.5,4.1-1.3,8.4-1.2,12.6-1.4,3.3-.1,4.2,0,4.2-3.8,0-1.1.3-2.3,1.4-3,.5,0,1,0,1.6.1Z"/>
        <path class="cls-12" d="M524.6,261.4c-6.7.4-13.4,1.2-20.2,1.2-1.1.1-2.8.8-3-.4-.2-1.5,1.7-1.5,2.9-1.6,4.2-.4,4.7-.8,5.4-5,.9-5.9,2.1-11.7,3-17.5.2-1,.2-2,.9-2.7.1,0,.3-.2.4-.2,2.5,0,4.4.9,6.3,2.5,3.3,2.8,7.1,4.6,11.6,4.5,2.7,0,5,1.2,7.6,3.2-5.2,1.6-7.1,5.9-9.8,9.4-.9,1.2-1.7,2.7-3.3,3.1-1.9.6-.9,2.6-1.9,3.6Z"/>
        <path class="cls-68" d="M361.4,230.5c11.3,0,22.5,0,33.8,0,2.7,1.8,5.8,1.5,8.7,1.6,4.2.2,8.3.7,12.5.7,1,0,1.9.1,2.6,1.6h-17.3c0,.2,0,.4,0,.6h101.3c-1.5-1.9-1.1-2.7,2.4-4.4,2,0,4,0,6,0,2.7.4,2.4,2.6,2.7,4.4,0,0,0,.1,0,.1-3.5,1.5-7.3,1.3-10.9,1.4-10.1.3-20.2.2-30.3,0-2.3.2-4.5,0-6.8,0-22.8,0-45.5.2-68.3,0-1.1,0-2.1,0-3.2,0-9,.1-18,0-27,0-1.2,0-2.6.1-3.4-1.2-2-.9-4.2,0-6.3-1h18.6c-1.6-1.9-3.6-2.1-5.7-2.3-3.2-.2-6.5-.3-9.5-1.7Z"/>
        <path class="cls-90" d="M566.1,251.9c-.2,1-.4,2.1-.5,3.1-.4,4.6-.4,4.5-4.9,4.6-4.3,0-8.5.3-12.8.4,3.3-3.7,6.9-7,11.8-8.6,1.5-.5,3-.6,4.6-.7.7.2,1.4.4,1.8,1.1Z"/>
        <path class="cls-127" d="M668.6,331.5c1.6-3.9,5.3-3.4,8.4-3.6,5.4-.3,10.8,0,16.2,0,.2.2.4.4.6.6-3.1,3.4-5.3,7.2-5.9,11.9-.2,1.8-2.2,2.3-2.9,3.9-.2,0-.4,0-.7.1-4.1-1.8-8.4-3.4-11.7-6.7-1.8-1.8-3.5-3.5-4.1-6.1Z"/>
        <path class="cls-169" d="M206.8,122.6c2.5.4,5,1.4,7.6,1.1-2.8,1.2-5.3.9-7.6-1.1Z"/>
        <path class="cls-34" d="M725.2,285.8c-1.2,2.6-1.4,5.6-1.6,8.3-.3,4-1.1,8-.7,12,.3,2.8-.8,3.2-3,2-.3-.2-.7-.2-1.1-.2,0,0-.2,0-.3,0-5.3-1.6-5.5-1.6-4.9-7,1.1-9.7,3.3-19.2,7.2-28.3-2.7,0-2.3-1.2-1.3-3,2.9-5.2,7-9.1,12.5-12.1-.8,3.1-1.7,6.3-2.5,9.5-1.5,6.3-3.6,12.4-4.2,18.9Z"/>
        <path class="cls-5" d="M417.3,244.5c1.8,6,3.5,12,5.3,18,3.1,10.3,6.2,20.6,9.3,31-1.7-2.9-4.5-3-7.5-3-4.9,0-9.8.3-14.8.6-4,.2-4.9-.9-5.1-4.8-.2-4.7-.8-9.4-.6-14.2,0-1.7-.3-2.8-2.3-1.7-1,.5-2.1.3-3.1.3-10.7,0-21.3,0-32,0-1.6,0-3.1-.2-4.6-.6.2-2.9,1.4-5.5,2.4-8.2,1.3-1.1,2.9-.9,4.5-.9,10.1,0,20.2,0,30.3,0,.6,0,1.2,0,1.7,0,.9,0,1.9,0,1.9-1.3,0-1.2-.9-1.4-1.8-1.3-2.9.3-5.8-.3-8.7-.3-7.4,0-14.7,0-22.1,0-1.4,0-2.9.3-4.1-1,1.2-4.3,2.4-8.5,3.6-12.8.1-.1.3-.3.4-.4,1-.5,2.1-.4,3.1-.4,13.3,0,26.6,0,39.8-.1,1.5,0,3.1-.3,4.4,1Z"/>
        <path class="cls-147" d="M631.4,377.9c-25.1.2-50.2.4-75.2.6-1.4-3.6-2.7-7.2-4.1-10.8-1.5-3.7-3.5-6.9-6.8-9.2-.9-.7-1.2-1.3-.9-2.4,2.3-10.2,4.5-20.4,6.7-30.7.3-1.2.8-1.7,2.1-1.7,19.5,0,39,0,58.6,0,1,0,1.7,0,2.2,1.3,5.8,17.4,11.7,34.9,17.5,52.3,0,.2,0,.4,0,.6Z"/>
        <path class="cls-79" d="M533,351.4c-4.6-12.5-9.2-25.1-13.8-37.6,7.1,0,14.1-.9,21.2,0-1.5,9.4-3.1,18.8-4.6,28.2-.6,3.6-1.2,7.2-1.9,10.8-1.3.2-.5-1-.9-1.3Z"/>
        <path class="cls-163" d="M533,351.4c.3.4.6.9.9,1.3-1.5,7.7-.7,15.6-1.6,23.3-.3,2.5-.8,4.9-2.2,7.1-1.2-8.6-3.3-16.9-7.7-24.5,3.5-2.4,7.1-4.9,10.6-7.3Z"/>
        <path class="cls-11" d="M325.3,362.8c-1-13.6-1.2-27.3-1.3-41-.1-16.7-.4-33.4-2.8-49.9-.5-3.6-1.7-6.9-4.7-9.3-.3-2.9.5-5.3,3-7.1,4.1-.7,8.3-.2,12.5-.3,5.2,0,10.5,0,15.7,0,1.3,0,2.8-.2,3.8.9-.8,6.2-2.8,12.2-4.3,18.3-6.4,27-12.8,54-18.6,81.2-.8,3.7-1.5,7.5-2.4,11.4-.8-1.4.2-3-.9-4.2Z"/>
        <path class="cls-95" d="M318.8,256.1c-.8,2.1-1.6,4.3-2.4,6.4-2.8-1.4-5.9-1.9-8.9-2.8,3-4.3,3.5-9.6,5.2-14.3,1.2-3.2,1.4-6.8,3.6-9.7,7.8,0,15.6-.1,23.4-.2,8.2.2,16.3.3,24.5,0,9.1,0,18.1.1,27.2.2,1.1,0,2.1,0,3.2.1,1,.5,2.1.4,3.1.7,2.1.6,4.3,3.8,4,5.8-.2,1.6-1.5,1.5-2.7,1.6-8,.6-16.1.1-24.1.3-1.8,0-3.7-.4-5.4.3,0,0,0,0,0,0-2.2,0-4.3,0-6.5,0-2.9,0-5.8,0-8.7,0-1.4.9-2.9.8-4.5.8-7.6,0-15.1,0-22.7,0-1.9,0-3.7.1-4.6,2.3-1,1.9-1.5,3.9-2.2,5.9-.3,1-.6,2-1.6,2.6Z"/>
        <path class="cls-17" d="M318.8,256.1c.9-2.7,1.4-5.6,2.9-8.2,9,.5,18,.1,27,.2,1.5,0,3.1-.2,4.4.9-.6,2.3-1.2,4.7-1.7,7-10.9,0-21.7,0-32.6,0Z"/>
        <path class="cls-84" d="M353.2,249.1c-9.5,0-19,0-28.5,0-1.2,0-2.4.2-3-1.2.3-2.8,1.7-3.7,4.6-3.6,9.3.2,18.7.1,28.1.2-.4,1.5-.8,3.1-1.1,4.6Z"/>
        <path class="cls-26" d="M365.9,257.2c6.6,0,13.2.2,19.8,0,5.3-.2,10.6.7,15.9,0,2.3-.3,2.4,1.3,2.4,3,0,2-1.1,1.8-2.7,1.7-5.8-.2-11.6-.1-17.5-.1-6.5,0-13,0-19.5,0,.4-1.6.8-3.2,1.6-4.7Z"/>
        <path class="cls-172" d="M476.7,360.4c4.9.2,9.8.3,14.6.5,0,3.1.9,6,2.2,8.7-4.7,7.8-11.1,13.8-19.3,17.9-3.8,1.9-6.4,1.3-9.5-1.5-.5-1-.3-2-.1-3,1.8-3.7,4.5-6.7,6.8-10.1,2.1-3.1,3.8-6.3,4.2-10,.1-.9.3-1.9,1.1-2.6Z"/>
        <path class="cls-108" d="M369.5,244.4c.9-1,2-.6,3-.6,6.7,0,13.4-.1,20.1,0,2.5,0,4.8-.7,7.2-.7,1.4,0,1.1-.6.9-1.9-.3-4-3.9-4-6.2-5.6,23.9,0,47.8,0,71.7,0,1,.5,1.4,1.4,1.6,2.3.5,2.8.9,5.5,1.3,8.3.1.9.3,2-1.2,2.2-1.3-3.3-4.1-3.6-7.1-3.3-1.6.1-3.3,0-4.9,0-6.7.2-13.4,0-20.1,0-1.2,0-2.4,0-3.3-.9-2.4,0-4.7,0-7.1,0-2.7,0-5.4,0-8.2,0-15.9,0-31.9,0-47.8,0Z"/>
        <path class="cls-56" d="M432.6,244.4c7.9,0,15.9,0,23.8,0,2,3.3,2.4,7.1,3.6,10.7,2,6,3.3,12.2,5.9,17.9-3.4,7.1-2.6,14.5-1.6,21.9,0,.7.1,1.3.2,2-.7,2.3.5,4.8-.4,7.2-.9,2.4-2.2,3.7-4.9,3.6-1.8-.1-3.7,0-5.5.4-2.5.5-4.5-.8-6.6-1.7-2.3-7-3.5-14.2-5.2-21.3-3.2-13-6.1-26.1-9.1-39.1-.1-.5-.1-1-.1-1.4Z"/>
        <path class="cls-151" d="M447,306.3c.3-.4.8-.8,1.2-.5,4,3.2,8.4.7,12.6.8,2.7,0,2.5-3.4,3.1-5.5.4-1.3-.4-2.9.5-4.2,1.2,8.6,2.2,17.3,3.7,25.9,2.1,11.8,4.2,23.7,5.7,35.6.3,2.2,2,1.3,2.9,2-.4,9.5-6.6,15.9-12.1,22.7-4.8-20.5-9.6-41.1-14.3-61.7-1.2-5.1-2.8-10-3.3-15.2Z"/>
        <path class="cls-64" d="M378.8,196.9c0,3.5-1.7,5.5-4.6,5.5-3.1,0-5.9-3.1-5.9-6.7,0-3,2.2-5.6,4.7-5.6,3.1,0,5.8,3.1,5.8,6.7Z"/>
        <path class="cls-80" d="M290.2,257.2c1.4-7.1,1.7-14.3.6-21.5,6.8,0,13.6,0,20.3,0,.4.7.1,1.3,0,2-2.1,6.3-3.3,12.9-5.4,19.2-.3.9,0,2.3-1.6,2.2-4.7-.3-9.3-.9-13.9-1.9Z"/>
        <path class="cls-8" d="M304.1,259.1c2-5.5,3.3-11.2,4.8-16.8.6-2.2,1.2-4.5,2.3-6.5,1.8,0,3.5,0,5.3,0-2.3,7.6-4.6,15.1-6.9,22.7-.3,1.2-1.2,1.1-2,1.3-1.2-.2-2.4,0-3.5-.6Z"/>
        <path class="cls-38" d="M233.7,245.5c3.8,1.5,6.9,3.8,9.3,7.1-2.6,1.3-4.8.4-7-1-2.4-1.5-4.3-3.5-6.3-5.8,1.5-.3,2.9.8,4-.3Z"/>
        <path class="cls-81" d="M472.7,235.7c10.1,0,20.2-.1,30.3-.2,3.7,0,7.3-.7,11-.3-1.1,6.3-2.3,12.7-3.4,19-1.1,6.5-1,6.5-7.7,7.2-.5,0-1,.1-1.2.8.8.6,1.8.1,2.7.4-8,1.1-15.9,1.8-24,2.4-2.1.6-2.1-1.2-2.4-2.4-1.2-4.4-2.1-8.8-3-13.3-.8-3.5-1.5-7-2.2-10.5-.2-1-.6-2.1,0-3.1Z"/>
        <path class="cls-124" d="M465.9,273c-1.1,0-1.5-.8-1.8-1.6-2.6-8.6-5.1-17.2-7.7-25.8-.1-.4,0-.8,0-1.2,2.1,0,4.3.1,6.3-.1,3.2-.4,5.4.3,5.4,4.1.5.3.9.8,1,1.4,1.4,5.2,2.8,10.5,3.9,15.8.1.5,0,1-.4,1.4-2.9,1.2-4.9,3.6-6.8,6Z"/>
        <path class="cls-167" d="M472.7,267c-1.5-6.2-3.1-12.4-4.6-18.5,1.3-1.3,0-2.6,0-3.8-.4-3-.4-6.1-1.7-9,2.1,0,4.3,0,6.4,0,1.7,7.7,3.4,15.4,5.3,23.1.5,2.1,0,4.7,2.4,6.1-2.6.7-5.2,1.4-7.8,2.1Z"/>
      </g>
    </g>
  </g>
</svg>