<?xml version="1.0" encoding="UTF-8"?>
<svg xmlns="http://www.w3.org/2000/svg" version="1.1" xmlns:xlink="http://www.w3.org/1999/xlink" viewBox="0 0 600 600">
  <defs>
    <style>
      .cls-1 {
        fill: #e1af34;
      }

      .cls-2 {
        fill: #cd3932;
      }

      .cls-3 {
        fill: #0b1d33;
      }

      .cls-4 {
        fill: #96242d;
      }

      .cls-5 {
        fill: #182f51;
      }

      .cls-6 {
        fill: #0b3947;
      }

      .cls-7 {
        fill: #ffb196;
      }

      .cls-8 {
        fill: #dfe4e5;
      }

      .cls-9 {
        fill: #0e4054;
      }

      .cls-10 {
        fill: none;
      }

      .cls-11 {
        fill: #a94b85;
      }

      .cls-12 {
        fill: #daf3fb;
      }

      .cls-13 {
        fill: #ac6149;
      }

      .cls-14 {
        fill: #ff6b57;
      }

      .cls-15 {
        fill: #c6e9f1;
      }

      .cls-16 {
        fill: #56a7da;
      }

      .cls-17 {
        fill: #6d3515;
      }

      .cls-18 {
        clip-path: url(#clippath);
      }
    </style>
    <clipPath id="clippath">
      <ellipse class="cls-10" cx="46.1" cy="277.7" rx="32.2" ry="31.9"/>
    </clipPath>
  </defs>
  <!-- Generator: Adobe Illustrator 28.7.1, SVG Export Plug-In . SVG Version: 1.2.0 Build 142)  -->
  <g>
    <g id="CHARACTER">
      <g>
        <g>
          <g>
            <rect class="cls-8" x="39.3" y="114.3" width="244.9" height="184.1"/>
            <rect class="cls-4" x="39.3" y="114.3" width="244.9" height="29.2"/>
            <g>
              <rect class="cls-4" y="230" width="220.7" height="96.4"/>
              <g>
                <rect class="cls-12" x="97.6" y="272.8" width="101.1" height="5.2"/>
                <rect class="cls-12" x="97.6" y="283" width="101.1" height="5.2"/>
                <rect class="cls-12" x="97.6" y="293.2" width="101.1" height="5.2"/>
                <g>
                  <polygon class="cls-1" points="106.2 260 111.2 259.8 107.1 262.6 108.8 267.2 104.9 264.3 101 267.4 102.6 262.7 98.4 260 103.4 260 104.7 255.3 106.2 260"/>
                  <polygon class="cls-1" points="120.9 260 125.9 259.8 121.8 262.6 123.5 267.2 119.6 264.3 115.7 267.4 117.3 262.7 113.1 260 118.1 260 119.4 255.3 120.9 260"/>
                  <polygon class="cls-1" points="135.6 260 140.6 259.8 136.5 262.6 138.2 267.2 134.3 264.3 130.4 267.4 132 262.7 127.8 260 132.8 260 134.1 255.3 135.6 260"/>
                  <polygon class="cls-1" points="150.3 260 155.3 259.8 151.2 262.6 152.9 267.2 149 264.3 145.1 267.4 146.7 262.7 142.5 260 147.5 260 148.8 255.3 150.3 260"/>
                  <polygon class="cls-1" points="165 260 170 259.8 166 262.6 167.7 267.2 163.7 264.3 159.8 267.4 161.4 262.7 157.3 260 162.2 260 163.6 255.3 165 260"/>
                </g>
              </g>
              <g>
                <ellipse class="cls-12" cx="46.1" cy="277.7" rx="32.2" ry="31.9"/>
                <g class="cls-18">
                  <g>
                    <ellipse class="cls-16" cx="46.1" cy="273" rx="9.3" ry="9.2"/>
                    <path class="cls-16" d="M44.9,280.9h2.6c6.1,0,11.1,5,11.1,11.1v23.1h-24.8v-23.1c0-6.1,5-11.1,11.1-11.1Z"/>
                  </g>
                </g>
              </g>
            </g>
          </g>
          <g>
            <path class="cls-16" d="M62.7,180.3c.3.2.8.4,1.7.8.9.3,1.9.5,3.1.5s1.7-.2,2.3-.5c.6-.3,1.1-.8,1.4-1.4.3-.6.5-1.5.6-2.5s.2-2.3.2-3.7v-14.2h6.6v14c0,2.1-.1,4-.4,5.7-.2,1.7-.7,3.2-1.5,4.4-.7,1.3-1.8,2.2-3.3,2.9-1.5.7-3.4,1-5.9,1s-2.4-.1-3.4-.4c-1-.3-2-.7-2.8-1.3l1.4-5.2Z"/>
            <path class="cls-16" d="M96.2,187.2c-2.1,0-4.1-.4-5.8-1.2-1.7-.8-3.2-1.9-4.5-3.2-1.2-1.3-2.2-2.9-2.9-4.5-.7-1.7-1-3.4-1-5.2s.4-3.6,1.1-5.3c.7-1.7,1.7-3.2,3-4.5,1.3-1.3,2.8-2.4,4.5-3.1,1.7-.8,3.6-1.1,5.7-1.1s4,.4,5.8,1.2c1.7.8,3.2,1.9,4.5,3.2,1.2,1.4,2.2,2.9,2.9,4.6.7,1.7,1,3.4,1,5.1s-.3,3.6-1,5.3c-.7,1.7-1.7,3.2-3,4.5-1.3,1.3-2.8,2.4-4.5,3.1-1.7.8-3.6,1.2-5.7,1.2ZM88.7,173.1c0,1.1.2,2.1.5,3.1.3,1,.8,1.9,1.4,2.7.6.8,1.4,1.4,2.3,1.9.9.5,2,.7,3.2.7s2.4-.2,3.3-.7,1.7-1.1,2.3-1.9c.6-.8,1.1-1.7,1.4-2.7.3-1,.5-2,.5-3.1s-.2-2.1-.5-3.1c-.3-1-.8-1.9-1.4-2.7-.6-.8-1.4-1.4-2.4-1.9-.9-.4-2-.7-3.2-.7s-2.3.2-3.3.7-1.7,1.1-2.3,1.9c-.6.8-1.1,1.7-1.4,2.7-.3,1-.5,2-.5,3.1Z"/>
            <path class="cls-16" d="M137.8,179.9c0,1.6-.4,2.9-1.3,4s-2,1.8-3.5,2.4c-1.5.5-3.1.8-4.9.8h-13.9v-27.8h15.9c1.3,0,2.5.3,3.5,1s1.7,1.6,2.2,2.7c.5,1.1.8,2.2.8,3.4s-.3,2.5-1,3.7c-.7,1.2-1.7,2.1-3.1,2.7,1.6.5,2.9,1.3,3.9,2.5.9,1.2,1.4,2.7,1.4,4.6ZM120.8,164.7v5.8h6.5c.5,0,.9-.1,1.3-.3s.8-.5,1-1c.3-.4.4-1,.4-1.6s-.1-1.1-.3-1.6c-.2-.4-.5-.7-.9-1-.4-.2-.8-.3-1.3-.3h-6.7ZM131,178.6c0-.6-.1-1.1-.4-1.6-.2-.5-.6-.8-.9-1.1-.4-.3-.9-.4-1.4-.4h-7.6v6.1h7.3c.6,0,1.1-.1,1.5-.4.4-.3.8-.6,1.1-1.1.3-.4.4-1,.4-1.5Z"/>
            <path class="cls-16" d="M108.1,193.8l6.7,20.3,6.6-20.3h6.9l-10.4,27.8h-6.5l-10.4-27.8h7Z"/>
            <path class="cls-16" d="M135.9,193.8h7.1l9.8,27.8h-6.7l-1.9-6.2h-9.4l-1.9,6.2h-6.7l9.8-27.8ZM142.7,211l-3.3-10.7-3.3,10.7h6.6Z"/>
            <path class="cls-16" d="M152.8,207.4c0-1.7.3-3.4,1-5,.6-1.6,1.6-3.1,2.8-4.4s2.7-2.4,4.5-3.2c1.8-.8,3.8-1.2,6-1.2s5,.6,7,1.7c2,1.1,3.4,2.6,4.4,4.4l-5.1,3.4c-.4-1-1-1.8-1.7-2.3-.7-.5-1.5-.9-2.3-1.2-.8-.2-1.7-.3-2.4-.3-1.3,0-2.4.2-3.3.7s-1.7,1.1-2.3,1.9c-.6.8-1.1,1.7-1.4,2.7-.3,1-.4,2-.4,3s.2,2.2.5,3.2c.3,1,.8,1.9,1.5,2.7.7.8,1.5,1.4,2.4,1.9.9.5,2,.7,3.1.7s1.6-.1,2.4-.4c.8-.3,1.6-.7,2.3-1.2.7-.6,1.3-1.3,1.6-2.2l5.4,3.1c-.6,1.4-1.5,2.5-2.8,3.5-1.3,1-2.7,1.7-4.4,2.2-1.6.5-3.2.8-4.8.8s-4-.4-5.7-1.2c-1.7-.8-3.2-1.9-4.5-3.3-1.2-1.4-2.2-2.9-2.9-4.6-.7-1.7-1-3.4-1-5.2Z"/>
            <path class="cls-16" d="M188.9,193.8h7.1l9.8,27.8h-6.7l-1.9-6.2h-9.4l-1.9,6.2h-6.7l9.8-27.8ZM195.7,211l-3.3-10.7-3.3,10.7h6.6Z"/>
            <path class="cls-16" d="M215.2,205.7v15.9h-6.6v-27.8h5.2l13.2,16.4v-16.4h6.6v27.8h-5.4l-13-15.9Z"/>
            <path class="cls-16" d="M260.8,199.5h-8.7v22.1h-6.6v-22.1h-8.7v-5.6h24v5.6Z"/>
          </g>
        </g>
        <path class="cls-12" d="M597.9,205.2c-.6-.3-1.4-.6-2.1-.7-6.1-1.3-12.2-2.7-18.3-4-.7-.2-1.1-.5-1.3-1.1-1.6-5.6-3.9-10.9-6.7-15.9-.4-.6-.3-1.1,0-1.7,3.2-5.1,6.4-10.3,9.5-15.4.7-1.2,1.2-2.7,1.7-4,.1-.4-.1-1.2-.5-1.5-2.3-2.4-4.7-4.7-7.1-6.9-.5-.4-1.3-.8-1.8-.7-1.2.2-2.6.5-3.6,1.2-5.3,3.2-10.6,6.5-15.9,9.9-.6.4-1.1.5-1.7.1-5.2-2.8-10.7-5.2-16.5-6.7-.7-.2-1-.5-1.1-1.2-1.3-6.1-2.7-12.2-4.2-18.2-.2-1-.8-1.9-1.4-2.8-.5-.8-1.3-1.1-2.3-1.1-3.2,0-6.4,0-9.6,0-.8,0-1.5.2-1.8.9-.6,1.2-1.2,2.3-1.5,3.6-1.6,5.8-3,11.7-4.5,17.5-.2.7-.5,1-1.1,1.2-6,1.6-11.7,4-17,7-.6.3-1.1.3-1.6,0-5.3-3.3-10.5-6.6-15.8-9.8-.8-.5-1.7-1-2.7-1.3-1.4-.5-2.7-.2-3.8,1-2.1,2.2-4.4,4.3-6.6,6.4-.5.5-.8,1-.5,1.7.5,1.3.9,2.7,1.6,3.9,3.2,5.4,6.6,10.7,9.9,16.1.4.6.5,1.1.1,1.9-2.7,4.9-4.9,9.9-6.4,15.3-.2.7-.6,1-1.3,1.2-6.2,1.3-12.4,2.6-18.6,4.1-1.1.3-2.1.9-3,1.6-.4.3-.7,1.1-.7,1.7,0,3.3,0,6.6,0,9.9,0,.4.3,1.1.6,1.3,1.1.6,2.3,1.3,3.5,1.6,6.1,1.6,12.2,3,18.4,4.5.8.2,1.2.6,1.5,1.3,1.5,5,3.6,9.8,6.1,14.4.3.6.3,1.1,0,1.7-3.4,5.4-6.7,10.8-10,16.3-.7,1.1-1.1,2.4-1.6,3.7-.3.7,0,1.3.6,1.8,2.2,2.1,4.4,4.2,6.6,6.4.9,1,2,1.3,3.2.9.8-.2,1.6-.5,2.3-.9,5.6-3.4,11.1-6.9,16.7-10.3.6-.4,1-.4,1.6,0,5.3,3,10.9,5.3,16.9,6.9.9.2,1.2.7,1.4,1.5,1.5,5.8,2.9,11.6,4.5,17.4.3,1.2,1,2.4,1.6,3.5.2.4,1,.7,1.5.7,1.7,0,3.3,0,5,0,1.5,0,3,0,4.5,0,1.4,0,2.3-.5,3-1.6.4-.7.8-1.5,1-2.3,1.4-6.1,2.8-12.1,4.2-18.2.1-.6.4-1,1-1.1,5.8-1.6,11.2-3.8,16.4-6.7.7-.4,1.2-.3,1.8,0,5.3,3.3,10.6,6.7,16,9.9.9.5,1.9.9,3,1.1,1,.2,1.9,0,2.6-.8,2.3-2.3,4.6-4.5,6.9-6.7.5-.5.8-1.1.5-1.7-.5-1.3-.9-2.6-1.6-3.8-3.2-5.3-6.4-10.5-9.6-15.7-.3-.5-.4-.9,0-1.5,2.8-4.9,5-9.9,6.6-15.3.2-.6.5-1,1.2-1.1,5.7-1.4,11.5-2.7,17.2-4.2,1.6-.4,3.1-1.1,4.6-1.7.8-.3,1-1,1-1.8,0-3,0-5.9,0-8.9,0-1.7-.7-2.7-2.1-3.4ZM519.6,247.6c-20.3-.2-36.5-16.4-36-36,.5-19.2,16.7-34.5,36.3-34.4,20,0,36.3,16,36.1,35.3-.1,19.4-16.5,35.2-36.4,35.1Z"/>
        <path class="cls-12" d="M346.4,93.3c-.5-.3-1.1-.4-1.6-.6-4.8-1.1-9.7-2.1-14.6-3.1-.6-.1-.9-.4-1-.9-1.2-4.4-3.1-8.7-5.4-12.7-.3-.5-.2-.9,0-1.3,2.5-4.1,5.1-8.2,7.5-12.3.6-1,1-2.1,1.3-3.2.1-.3-.1-.9-.4-1.2-1.8-1.9-3.7-3.7-5.6-5.5-.4-.3-1-.6-1.5-.6-1,.2-2.1.4-2.9.9-4.3,2.6-8.5,5.2-12.7,7.8-.5.3-.8.4-1.4,0-4.2-2.3-8.5-4.1-13.1-5.4-.5-.1-.8-.4-.9-.9-1.1-4.8-2.2-9.7-3.3-14.5-.2-.8-.6-1.5-1.1-2.2-.4-.6-1.1-.9-1.9-.9-2.6,0-5.1,0-7.7,0-.7,0-1.2.2-1.4.7-.5.9-.9,1.9-1.2,2.9-1.2,4.6-2.4,9.3-3.6,13.9-.1.5-.4.8-.9.9-4.8,1.3-9.3,3.2-13.6,5.6-.5.3-.8.2-1.3,0-4.2-2.6-8.4-5.2-12.6-7.8-.7-.4-1.4-.8-2.1-1-1.1-.4-2.1-.2-3,.8-1.7,1.8-3.5,3.4-5.2,5.1-.4.4-.6.8-.4,1.3.4,1,.7,2.1,1.3,3.1,2.6,4.3,5.2,8.6,7.9,12.8.3.5.4.9,0,1.5-2.1,3.9-3.9,7.9-5.1,12.1-.2.6-.5.8-1.1.9-4.9,1-9.9,2.1-14.8,3.2-.9.2-1.7.7-2.4,1.3-.4.3-.6.9-.6,1.4,0,2.6,0,5.2,0,7.9,0,.4.2.9.5,1,.9.5,1.8,1,2.8,1.3,4.9,1.2,9.7,2.4,14.6,3.6.7.2,1,.4,1.2,1.1,1.2,4,2.8,7.8,4.8,11.5.3.5.2.9,0,1.3-2.7,4.3-5.3,8.6-7.9,12.9-.5.9-.9,1.9-1.2,2.9-.2.6,0,1,.5,1.5,1.8,1.7,3.5,3.4,5.2,5.1.8.8,1.6,1,2.6.8.6-.2,1.3-.4,1.8-.7,4.4-2.7,8.9-5.5,13.3-8.2.5-.3.8-.3,1.3,0,4.2,2.4,8.7,4.2,13.4,5.5.7.2,1,.6,1.1,1.2,1.2,4.6,2.3,9.3,3.6,13.9.3,1,.8,1.9,1.3,2.8.2.3.8.6,1.2.6,1.3,0,2.7,0,4,0,1.2,0,2.4,0,3.6,0,1.1,0,1.9-.4,2.4-1.2.3-.6.6-1.2.8-1.8,1.1-4.8,2.2-9.7,3.3-14.5.1-.5.3-.8.8-.9,4.6-1.3,8.9-3.1,13.1-5.3.5-.3.9-.3,1.4,0,4.2,2.7,8.5,5.3,12.7,7.9.7.4,1.5.7,2.3.9.8.2,1.5,0,2.1-.7,1.8-1.8,3.6-3.6,5.5-5.3.4-.4.6-.9.4-1.4-.4-1-.7-2.1-1.3-3-2.5-4.2-5.1-8.3-7.7-12.5-.3-.4-.3-.7,0-1.2,2.2-3.9,4-7.9,5.2-12.2.2-.5.4-.8.9-.9,4.6-1.1,9.1-2.2,13.7-3.3,1.2-.3,2.4-.8,3.6-1.3.6-.3.8-.8.8-1.5,0-2.4,0-4.7,0-7.1,0-1.4-.6-2.2-1.7-2.7ZM284.1,127.1c-16.2-.1-29-13.1-28.6-28.7.4-15.3,13.3-27.4,28.9-27.4,15.9,0,28.9,12.7,28.8,28.1,0,15.5-13.1,28-29,27.9Z"/>
        <g>
          <rect class="cls-8" x="116.6" y="314.2" width="130.5" height="153.6"/>
          <polygon class="cls-12" points="218.6 314.2 247.1 345.1 218.6 345.1 218.6 314.2"/>
          <rect class="cls-16" x="131.6" y="359.9" width="101.2" height="11"/>
          <rect class="cls-16" x="131.6" y="383.4" width="101.2" height="11"/>
          <rect class="cls-16" x="91.8" y="412.8" width="64" height="36"/>
          <g>
            <path class="cls-15" d="M106.9,430.7c0-1.1.2-2.1.6-3.2.4-1,1-2,1.8-2.8.8-.8,1.7-1.5,2.9-2,1.1-.5,2.4-.8,3.8-.8s3.2.4,4.4,1.1c1.2.7,2.2,1.6,2.8,2.8l-3.2,2.2c-.3-.6-.6-1.1-1.1-1.5-.5-.3-.9-.6-1.5-.7-.5-.1-1-.2-1.5-.2-.8,0-1.5.2-2.1.5-.6.3-1.1.7-1.5,1.2s-.7,1.1-.9,1.7c-.2.6-.3,1.3-.3,1.9s.1,1.4.3,2,.5,1.2,1,1.7c.4.5.9.9,1.5,1.2.6.3,1.2.4,2,.4s1,0,1.6-.2c.5-.2,1-.4,1.5-.8s.8-.8,1-1.4l3.4,2c-.4.9-.9,1.6-1.8,2.2s-1.7,1.1-2.8,1.4-2,.5-3,.5-2.5-.3-3.6-.8c-1.1-.5-2-1.2-2.8-2.1s-1.4-1.8-1.8-2.9c-.4-1.1-.6-2.2-.6-3.3Z"/>
            <path class="cls-15" d="M127.8,422l4.3,12.9,4.2-12.9h4.4l-6.6,17.6h-4.1l-6.6-17.6h4.4Z"/>
          </g>
        </g>
        <g>
          <path class="cls-14" d="M282,245.7c3.8,55.1,7.6,110.1,11.4,165.2-18.4,6.3-36.7,12.7-55.1,19-3.2-14.4-5.8-30.9-6.7-49.4-1.9-36.3,3.2-67.2,9-90.3,13.8-14.8,27.6-29.6,41.4-44.5Z"/>
          <path class="cls-14" d="M516.4,245.7c-3.8,55.1-7.6,110.1-11.4,165.2,18.4,6.3,36.7,12.7,55.1,19,3.2-14.4,5.8-30.9,6.7-49.4,1.9-36.3-3.2-67.2-9-90.3-13.8-14.8-27.6-29.6-41.4-44.5Z"/>
          <g>
            <g>
              <polygon class="cls-5" points="517.9 600 285.1 600 295.2 514.6 507.7 514.6 517.9 600"/>
              <path class="cls-3" d="M402.5,550.4c.7,15,.9,30,.5,45,0,.8,1.2.8,1.2,0,.4-15,.2-30-.5-45s-1.3-.8-1.2,0h0Z"/>
              <path class="cls-3" d="M406.2,590.9c5.4-4.6,6-12.4,6.8-19s1.6-17.6,1.6-26.5-1.2-.8-1.2,0c0,8.4-.5,16.7-1.4,25.1s-1.2,14.8-6.6,19.5.3,1.4.9.9h0Z"/>
              <path class="cls-3" d="M407.7,523c-2.8.7-4.9,3.1-5.4,6s.9,5.6,3.3,7.1,5.7,1.7,8.1,0c2.8-2,3.2-6.2,2.1-9.2s-1.7-3.1-3.4-3.8-3.3-.8-4.8,0,0,1.4.6,1.1c2.4-1.2,5.2.5,6.2,2.7s1.1,6.1-1,7.9c-3.7,3.3-10.4,0-10-4.9s2.1-4.9,4.6-5.6.4-1.4-.3-1.2h0Z"/>
              <path class="cls-3" d="M303.3,538.6c24.9,2.1,49.8,3.4,74.8,3.9,26.8.5,53.7.2,80.5-1.1s28-1.6,42-2.8.8-1.3,0-1.2c-25.6,2.2-51.3,3.5-77,4-26.5.5-53,0-79.5-1.2-13.6-.7-27.2-1.6-40.8-2.7s-.8,1.2,0,1.2h0Z"/>
              <path class="cls-3" d="M334.7,519.4c0,3.5,0,7,0,10.5v2.5c0,.8-.1,1.7,0,2.5s.5.7,1,.8c.9.2,1.8.4,2.7.5s2.3.6,3.1-.3.5-.9.5-1.5c0-.9,0-1.7-.1-2.6-.2-3.5-.3-6.9-.5-10.4s0-2-.1-3,0-1.1-.7-1.2-1.6.2-2.3.3c-1,.1-2.1.3-3.1.4s-.5,1.3.3,1.2,1.8-.3,2.7-.4.7,0,1-.1c.5,0,.7-.3.7.2,0,1.7.2,3.5.2,5.3s.1,3.3.2,4.9,0,1.9.1,2.8.2,1.7.1,2.5-.1.9-.8.9-.6,0-.9-.1c-.9-.2-1.9-.3-2.7-.5s-.4,0-.5-.5,0-1,0-1.4v-2.5c0-3.6,0-7.1,0-10.7s-1.3-.8-1.2,0h0Z"/>
              <path class="cls-3" d="M458.1,519.1c.3,5.7.6,11.4,1.1,17.1s.3.6.6.6c2.1,0,4.5,0,6.6-.5s1-.6,1-1.3c0-1.2,0-2.3,0-3.5-.1-4.5-.6-8.9-1.4-13.4s-.3-.5-.6-.5c-2.3,0-4.6.1-6.8.2s-.8,1.3,0,1.2c2.3,0,4.6-.1,6.8-.2l-.6-.5c.7,3.8,1.1,7.7,1.3,11.6s0,1.9,0,2.8,0,.9,0,1.4.2.7-.4.8c-2,.3-4,.4-6,.4l.6.6c-.4-5.7-.8-11.4-1.1-17.1s-1.3-.8-1.2,0h0Z"/>
            </g>
            <g>
              <path class="cls-14" d="M354.3,217.5l-77.7,30.1,17,264.5c.5,7.9,9,12.7,16.3,9.3,3.3-1.5,6.9-2.8,11-3.8,7.4-1.8,17.1-2.7,36.7,1.3,26.7,5.5,26.7,10.9,43.8,13.9,27.3,4.9,36.6-7.3,74.4-6.8,5.6,0,10.8.4,15.6.9,0,0,11.4-2.8,20.2-16.9,10.6-16.9,16-119.8,14.1-260.3-23.2-10.7-46.4-21.4-69.6-32.2h-101.9Z"/>
              <path class="cls-2" d="M395.1,268.1c-2.7,16.1-5.4,32.1-6.8,48.4-.7,8-1.1,16-1.1,24s.6,16.4,1.4,24.6c1.5,16.2,3.5,32.4,4.2,48.7.7,16.3.4,32.6-.3,48.9s-2.5,36.5-4.4,54.8,1.2.8,1.2,0c3.4-32.5,5.8-65.1,4.9-97.8-.4-16.2-2.1-32.2-3.7-48.3-.9-8.2-1.6-16.4-1.9-24.6s0-16,.5-24c1.2-18.3,4.3-36.4,7.3-54.4s-1.1-1.1-1.2-.3h0Z"/>
              <ellipse class="cls-2" cx="408.8" cy="304.1" rx="7.6" ry="7.4"/>
              <ellipse class="cls-2" cx="411.8" cy="375.7" rx="7.6" ry="7.4"/>
              <ellipse class="cls-2" cx="408.8" cy="441.6" rx="7.6" ry="7.4"/>
            </g>
          </g>
          <g>
            <path class="cls-17" d="M501.5,239.4c.8,0,.8-1.2,0-1.2s-.8,1.2,0,1.2h0Z"/>
            <path class="cls-4" d="M338.6,189.4l-15.7-27.6-.4-15.8-7.2-20.5c-2.5-6-5.3-15.1-5.4-26.2,0-5.4.5-10.2,1.3-14.2-.4-6.2-.3-14.8,2-24.8,2.3-10.2,6-18.2,9.1-23.7,2.8-4.7,16.8-27.1,45.5-34.3,18.5-4.7,34-.8,40.8,1.4,5.4,1.3,13.6,3.9,21.7,10,15.7,11.8,20.2,28.1,21.5,33.5,4.1,8.4,8.4,19.9,10,34,4.1,35-11.1,62.2-17.6,72.4,3.2,6.3,7,15.3,8.8,26.7,1.1,7,1.2,13.2.9,18.4,2.7-.3,5.5-.5,8.4-.5,36.9-.6,66.3,21.3,83.1,37,3.3,5,6.6,10.5,9.8,16.5,10.2,19.5,15.3,38.1,17.9,53.2-13.8-4.4-34.6-8.7-57-2.7-22,5.9-25.4,16.4-56.6,38.5-18.8,13.3-53.2,42.7-100.6,45.4-13.2.7-26.5,1.5-39.7,2.2-8.7-14.6-17.5-29.2-26.2-43.8-26.8-.1-38.8,6.8-44.7,13.5-4.1,4.7-5.4,6.3-8.9,8.1-3.6,1.8-9.3,2.9-18.6-.4,7.2-36.4,14.3-72.9,21.5-109.3,4.1-9.2,9.3-15.5,12.9-19.2,4.7-5,9.3-9.7,17.1-11.9,5.8-1.6,10.9-1,14-.5,3.3,0,7.6-.8,11-3.7,3.2-2.7,3.4-5.4,6.2-6.8,2.1-1,5.7-1.2,12.1,2.7-.6-1.3-5-10.9,0-20,.7-1.2,5.4-9.8,14.2-10.1,4.1-.1,7.3,1.6,8.9,2.6Z"/>
            <path class="cls-11" d="M446.4,210.2c-6.9,23.6-25.2,41.6-45.6,54.4-23.5,14.8-50.3,22.7-76.4,31.6s-30.7,10.8-45.2,18.3c-.7.4,0,1.4.6,1.1,26.4-13.7,55.5-21,83.2-31.5,23.6-8.9,46.8-20.8,64.3-39.4s16.4-21.3,20.1-34.2-1-1.1-1.2-.3h0Z"/>
            <path class="cls-11" d="M316.7,217.9c6.6,5.2,14.9,7.2,23.1,8.3s16.7,1.2,25.1.5c16.5-1.3,32.7-5.9,47.5-13.5,8.3-4.2,16.1-9.4,23.2-15.4s-.3-1.4-.9-.9c-12.4,10.5-26.9,18.3-42.3,23.2-15.5,4.9-31.9,6.7-48,5.3s-19.1-2.5-26.7-8.4-1.5.4-.9.9h0Z"/>
            <path class="cls-11" d="M446.1,228.5c6.6,8.1,18.4,6.7,27.7,8.1s18.4,5,26.4,10.1,8.7,6.5,12.4,10.5.9.2,1-.3c.4-1.9-.4-3.5-1.6-4.9s-3.5-3.5-5.2-5.1c-3.6-3.3-7.4-6.5-11.3-9.5s-1.3.6-.6,1.1c3.4,2.6,6.8,5.4,10,8.3s3,2.8,4.5,4.2,3.6,3.2,3.1,5.5l1-.3c-6.3-6.8-14-12.3-22.6-16s-8.7-3.3-13.2-4.3-10.1-1.3-15.2-1.8-11.7-2-15.5-6.7-1.4.3-.9.9h0Z"/>
            <path class="cls-11" d="M402.6,275.7c2.2,22.4-11.9,43.4-7,65.9,1.2,5.3,3.5,10.2,7,14.3s1.4-.3.9-.9c-6.5-7.5-8.2-17.6-7.6-27.3s4.4-21.8,6.5-32.7,2-12.9,1.4-19.3-1.3-.8-1.2,0h0Z"/>
            <path class="cls-11" d="M257.2,296.1c2.6-9.6,1.8-22.5,10.8-29s10-3.2,15.1-3,12,.4,18,.6,13.5.4,20.3.7.8-1.2,0-1.2c-12.7-.4-25.4-.8-38.1-1.2s-10.6-.2-15.1,2.6-6.6,6.6-8.1,10.9c-2.3,6.3-2.4,13.1-4.2,19.5s1,1.1,1.2.3h0Z"/>
            <path class="cls-7" d="M389.2,28.1c-8.2-2.5-17.1-1.2-24.1,3.7-8.6,5.9-13.9,12.1-17,16.3-5.4,7.3-8.1,14.1-11.7,23.1-4.7,11.7-7.3,21.9-8.8,29.2-.6,6.5-.8,14.8.5,24.4,1.4,10.3,4.1,18.9,6.7,25.3,5.4,7.8,12.8,16.9,22.8,26,6.3,5.7,12.4,10.3,18,14,1.5,1.1,6.4,4.2,13.3,4,7-.2,11.8-3.6,13.2-4.7,6.7-6.3,14.2-14.2,21.4-23.7,5.2-6.8,9.5-13.4,13-19.5,1-3.3,1.9-6.8,2.7-10.6,2.7-14.1,1.7-26.6,0-36.1-.8-6-7.8-54-44.7-69.4-1.6-.7-3.4-1.3-5.3-1.9Z"/>
            <polygon class="cls-13" points="361.9 80.8 340.4 81.4 333.1 86.6 340.8 85.2 362.9 86.8 361.9 80.8"/>
            <polygon class="cls-13" points="397.5 77 419 76.5 426.6 81.3 418.8 80.3 396.8 82.9 397.5 77"/>
            <path class="cls-13" d="M339.2,101c2.1-.3,3.5-1.9,5.2-3s4.7-2.4,7.3-2.7c5-.5,9.3,2.2,13.3,4.8s1.3-.6.6-1.1c-4-2.7-8.4-5.4-13.5-5s-4.8.9-6.9,2-4,3.4-6.4,3.8-.5,1.3.3,1.2h0Z"/>
            <path class="cls-13" d="M423.5,94.3c-1.3-.1-2.3-.9-3.4-1.6s-2.1-1.4-3.3-1.9c-2.2-1-4.6-1.6-7-1.6-5,0-9.2,2.8-13,5.7s0,1.6.6,1.1c3.9-2.9,8.1-5.8,13.3-5.5s5,1,7.2,2.3,3.3,2.6,5.5,2.8.8-1.2,0-1.2h0Z"/>
            <ellipse class="cls-13" cx="354.3" cy="98.4" rx="5.2" ry="4.5" transform="translate(-2 7.6) rotate(-1.2)"/>
            <ellipse class="cls-13" cx="407.6" cy="93.9" rx="5.2" ry="4.5" transform="translate(-1.9 8.8) rotate(-1.2)"/>
            <path class="cls-13" d="M372.3,160c4.6,2,9.5,3.2,14.5,3.4s4.9,0,7.2-1,4.2-2.2,6.2-3.5,0-1.5-.6-1.1c-1.7,1.2-3.5,2.4-5.4,3.2s-4.8,1.2-7.3,1.1c-4.8-.2-9.5-1.4-13.8-3.3s-1.4.8-.6,1.1h0Z"/>
            <path class="cls-13" d="M371.8,136.8c2.5-.4,5,1.3,7.4,1.9s4,.7,6,.5,3.7-1,5.3-2.2,4.1-2.7,6.8-2.5.8-1.2,0-1.2c-2-.1-4.1.3-5.8,1.5s-1.9,1.5-2.9,2.1-2.2,1-3.4,1.2c-2.5.4-5.1,0-7.4-.9s-4.1-1.7-6.4-1.4-.5,1.3.3,1.2h0Z"/>
            <path class="cls-13" d="M362.2,150.9c11.8,3.2,24.6,5.9,36.4,1.6s7.4-3.3,10.7-5.6,0-1.5-.6-1.1c-6,4.1-12.8,7-20.1,7.6s-17.7-1.4-26.1-3.7-1.1,1-.3,1.2h0Z"/>
            <g>
              <path class="cls-13" d="M352.9,107c0,2.1,0,4.2,0,6.3s1.3.8,1.2,0c-.1-2.1-.2-4.2,0-6.3s-1.2-.8-1.2,0h0Z"/>
              <path class="cls-13" d="M345.7,106.3c-.8,1.1-1.5,2.3-2.3,3.4s0,.7.2.9.7,0,.9-.2c.8-1.1,1.5-2.3,2.3-3.4s0-.7-.2-.9-.7,0-.9.2h0Z"/>
              <path class="cls-13" d="M359.6,107c.8,1.1,1.6,2.1,2.5,3s.7.2.9,0,.2-.6,0-.9c-.4-.4-.9-.9-1.3-1.4s-.4-.5-.6-.7,0,0,0,0c0,0,0,0,0,0s0-.1-.1-.2c0-.1-.2-.3-.3-.4-.2-.3-.6-.4-.9-.2s-.4.6-.2.9h0Z"/>
            </g>
            <g>
              <path class="cls-13" d="M409.6,103.9c.2,2.1.2,4.2.2,6.2s1.2.8,1.2,0c0-2.1,0-4.2-.2-6.2s-.3-.6-.6-.6-.7.3-.6.6h0Z"/>
              <path class="cls-13" d="M417,103.5c.8,1.1,1.6,2.2,2.4,3.3s.6.4.9.2.4-.6.2-.9c-.8-1.1-1.6-2.2-2.4-3.3s-.6-.4-.9-.2-.4.6-.2.9h0Z"/>
              <path class="cls-13" d="M403,103.5c-.3.5-.7,1-1.1,1.5s0,0,0,0c0,0,0,0,0,0,0,0,0,.1-.1.2,0,.1-.2.2-.3.4-.2.2-.4.5-.6.7s-.3.6,0,.9.6.3.9,0c.9-1,1.7-2,2.4-3.1s0-.7-.2-.9-.7,0-.9.2h0Z"/>
            </g>
          </g>
          <g>
            <g>
              <polygon class="cls-9" points="348.5 255.6 428.5 255.6 426.2 350.9 350.3 350.9 348.5 255.6"/>
              <polygon class="cls-6" points="348.5 255.6 351.2 250.2 425.7 250.2 428.5 255.6 348.5 255.6"/>
            </g>
            <path class="cls-7" d="M444.3,395.9c-5-1.8-9.9-3.6-14.9-5.4-4.2-2.5-8.3-4.9-12.5-7.4-1.5-1.4-3.3-2.6-5.2-3.4l-22.8-9.9c-2.2-.9-3.6-3.1-3.6-5.4v-5.3l-3.4-1.1c-2.1-.6-3.6-2.3-4.1-4.4l-.6-3.1c-.7-3.1,1.4-6.2,4.6-6.9l-2.1-7.3c-.9-3.1,1.3-6.1,4.6-6.4l29-2.2,12,3.4.8-7.6-29.2-3.9c-3.5-.5-6-3.3-6.1-6.7,0-3.9,3.1-7,7.1-7h28.5l9.3,2.4c2.4.6,4.6,2,6.3,3.9l7.8,8.9,8,23.5c6.7,6,13.4,12.1,20.1,18.1-11.2,11-22.5,22-33.7,33.1Z"/>
            <path class="cls-7" d="M306.7,362.4l8.8-10.7,11.5-32.9,13.9-13.4,8.8-1.4v3l30.4-.6c3.3,0,5.9,2.5,5.9,5.7v5.4l19.7-2.7c4.1-.6,7.8,2.6,7.8,6.7h0c0,3-2.1,5.6-5,6.5l-51.6,14.2,1,2.3,15-3.1c2.8-.6,5.5,1.4,5.8,4.2l.7,8.7c.1,1.5,1.5,2.6,3,2.3h0c3.1-.5,5.9,2,5.8,5v1.8c-.2,1.9-1.1,3.6-2.6,4.8l-8.8,6.6-15,7.2-6.3,5.7c-2.7,2.5-6.2,4.2-9.8,4.9l-15.9,3.1-22.9-33.3Z"/>
            <path class="cls-14" d="M334.8,395.9l-28-38.8-68.5,72.9,14.3,37.1c3.6,9.4,12.5,15.9,22.7,16.9l8,.7c12.5,1.1,24.1-6.4,28-18l23.5-70.7Z"/>
            <path class="cls-14" d="M444.3,395.9l28-38.8c29.3,21.8,58.7,43.7,88,65.5-1,12.4-2.1,24.7-3.1,37.1-1.1,12.5-11.4,22.4-24.3,23.2-3.4.2-6.8.4-10.2.6-9,.6-17.7-3.5-23-10.7-18.5-25.6-37-51.3-55.5-76.9Z"/>
            <path class="cls-13" d="M336.5,314.1c-.7,2.6,0,5.6,2,7.5s1.5-.3.9-.9c-1.6-1.6-2.3-4.1-1.6-6.3s-1-1.1-1.2-.3h0Z"/>
            <path class="cls-13" d="M322.1,343.3c0,2.3.6,4.6,1.9,6.5s.5.4.9.2.4-.6.2-.9c-1.2-1.7-1.8-3.8-1.8-5.9s-1.2-.8-1.2,0h0Z"/>
            <path class="cls-13" d="M327.6,362.1c.3,2.8,1.9,5.4,4.4,6.8s1.3-.7.6-1.1c-2.1-1.2-3.6-3.4-3.8-5.7s-.3-.6-.6-.6-.7.3-.6.6h0Z"/>
            <path class="cls-13" d="M337.5,377.3c.4,2.7,2.6,4.9,5.2,5.6s1.1-1,.3-1.2c-2.2-.6-4-2.4-4.3-4.7s-.5-.5-.8-.4-.5.4-.4.8h0Z"/>
            <path class="cls-13" d="M354.7,366c6.2-1.9,12.3-3.8,18.5-5.7s5.9-1.9,8.9-2.7c3.8-1.1,5,2.7,5.5,5.7s1.3.5,1.2-.3c-.4-2.6-1.2-5.5-3.8-6.5s-2.7-.1-4.1.3-3.5,1.1-5.2,1.6c-7.1,2.2-14.2,4.4-21.3,6.6s-.4,1.4.3,1.2h0Z"/>
            <path class="cls-13" d="M377.1,358.9c3-2.7,4.8-6.8,4-10.8s-3.6-6.6-7.2-7.4-1.1,1-.3,1.2c3.2.7,5.7,3.4,6.3,6.6s-1,7.3-3.7,9.6.3,1.4.9.9h0Z"/>
            <path class="cls-13" d="M338.8,330.8c3.8-2.6,7.6-5.2,12-6.7s9.4-1.6,14.2-1.9,9.4-.7,13.9-1.8,7.4-2.1,7.8-6.4-2.3-7.2-5.7-8.2-1.1,1-.3,1.2c3.3,1,5.5,4.6,4.6,8s-2.5,3-4.4,3.6-4.2,1.1-6.3,1.4c-4.3.7-8.7.9-13,1.2-4,.3-8,.6-11.9,2s-7.8,4.1-11.5,6.6,0,1.5.6,1.1h0Z"/>
            <path class="cls-13" d="M411.6,318.4c1.5,1.5,2,3.9,1,5.8s-3.1,2.8-5,3.4c-4.5,1.4-9,2.4-13.5,3.7-9.3,2.7-18.6,5.6-28.1,7.9-5.4,1.3-10.9,2.4-16.4,3.1s-.8,1.4,0,1.2c10.6-1.3,21-4,31.3-7,5.2-1.5,10.4-3.1,15.6-4.5s5.3-1.5,7.9-2.2,4.2-1,6.1-2,3.4-2.5,3.8-4.6-.3-4.2-1.7-5.7-1.5.3-.9.9h0Z"/>
            <path class="cls-13" d="M361.7,382.8c4.3-2.8,9.3-4.3,13.8-6.9s8-5.5,11.2-9.2-.4-1.5-.9-.9c-3.2,3.7-7,6.8-11.3,9.2s-9.2,4-13.4,6.7,0,1.5.6,1.1h0Z"/>
            <path class="cls-13" d="M387.9,359.6c8.1.9,16.2,2.3,24.2,4.2s1.1-1,.3-1.2c-8.1-2-16.2-3.4-24.5-4.3s-.8,1.2,0,1.2h0Z"/>
            <path class="cls-13" d="M379.5,345.5c2.8-1.8,6.6-1.3,9.7-1.2s7.3.5,10.9,1.1c7,1.1,13.8,2.9,20.5,5.1s1.1-1,.3-1.2c-7.1-2.4-14.5-4.3-21.9-5.3-3.6-.5-7.2-.9-10.8-1s-6.7-.4-9.4,1.4,0,1.5.6,1.1h0Z"/>
            <path class="cls-13" d="M401,350.1c.2,1.7-.2,3.3-1.1,4.7s0,.7.2.9.7,0,.9-.2c1-1.6,1.5-3.5,1.3-5.3s-.3-.6-.6-.6-.7.3-.6.6h0Z"/>
            <path class="cls-13" d="M396.9,366.8c0,.1,0,0,0,0s0,0,0,0c0,0,0,.1,0,.2,0,.1,0,.3-.1.4s0,.1,0,.2c0,.1,0,0,0,0s0,0,0,0c0,.1-.1.2-.2.4s-.1.2-.2.3,0,0,0,0c0,0,0,0,0,0,0,0,0,.1-.1.1,0,.1-.2.2-.3.3s-.1,0-.2.1,0,0,0,0c0,0,0,0-.1,0-.3.2-.4.6-.2.9s.6.4.9.2c.6-.4,1-.9,1.4-1.5s.5-1.2.6-1.9-.3-.6-.6-.6-.6.3-.6.6h0Z"/>
            <path class="cls-13" d="M433.6,374.2c-.2.2-.3.5-.5.7s0,0,0,0c0,0,0,0,0,0,0,0,0,.1-.1.2,0,.1-.2.2-.3.3-.4.4-.8.8-1.2,1.2s-.2.7,0,.9.6.2.9,0c.9-.8,1.7-1.7,2.3-2.7s0-.7-.2-.9-.7,0-.9.2h0Z"/>
            <path class="cls-13" d="M445.6,359.3c-.1.3-.2.6-.3,1s0,.2,0,.1c0,0,0,.1,0,.2,0,.2-.1.3-.2.5-.3.6-.6,1.2-1,1.7s0,.7.2.9.7,0,.9-.2c.8-1.1,1.4-2.4,1.8-3.7s-.1-.7-.4-.8-.7.1-.8.4h0Z"/>
            <path class="cls-13" d="M449.4,339.3c.2,1.2.3,2.5.1,3.8s.3.6.6.6.6-.3.6-.6c.1-1.4,0-2.8-.2-4.2s-.5-.5-.8-.4-.5.4-.4.8h0Z"/>
            <path class="cls-13" d="M413.4,333.2c.7,1.5.4,3.3-.6,4.6s0,.7.2.9.6,0,.9-.2c1.3-1.7,1.5-4,.6-5.9s-.6-.4-.9-.2-.4.5-.2.9h0Z"/>
            <path class="cls-13" d="M410.3,328.3c5.1.5,10.1,1.7,14.8,3.8s1.4-.8.6-1.1c-4.9-2.1-10.1-3.4-15.5-3.9s-.8,1.2,0,1.2h0Z"/>
            <path class="cls-13" d="M439.3,314c.4,1.9-.2,4-1.6,5.4s.3,1.5.9.9c1.7-1.7,2.5-4.3,2-6.6s-.5-.5-.8-.4-.5.4-.4.8h0Z"/>
          </g>
          <path class="cls-2" d="M306.5,357.7c-18.5,9.6-34.3,24.5-45,42.4-3,5-5.6,10.3-7.7,15.7s.9,1.1,1.2.3c7.6-19.2,20.8-36,37.4-48.2,4.7-3.4,9.6-6.5,14.8-9.2s0-1.5-.6-1.1h0Z"/>
          <path class="cls-2" d="M278.2,485.3c10.4,1.4,21.3-2.8,27.9-11,3.9-4.8,5.5-10.8,7.3-16.6s4.4-14.3,6.6-21.4,4.9-15.9,7.3-23.8-1-1.1-1.2-.3c-4.1,13.5-8.3,26.9-12.4,40.4-1,3.3-2,6.5-3,9.8s-2,5.8-3.6,8.4c-2.7,4.4-6.7,7.9-11.2,10.2-5.3,2.7-11.4,3.9-17.3,3.1s-1.1,1.1-.3,1.2h0Z"/>
          <path class="cls-2" d="M293.4,378.9c3.1,14.5,10.9,27.8,22,37.7s1.5-.3.9-.9c-10.9-9.8-18.6-22.8-21.6-37.1s-1.4-.5-1.2.3h0Z"/>
          <path class="cls-2" d="M455.4,413.7c18.6,19.4,24,49.5,47.8,64.2s12.7,6,19.7,6.3.8-1.2,0-1.2c-12.9-.4-24.2-8.2-32.3-17.7s-14.3-22.9-21.2-34.5c-3.8-6.4-8-12.6-13.1-17.9s-1.4.3-.9.9h0Z"/>
          <path class="cls-2" d="M478.3,361.9c19.1,6.1,36.7,16.7,51,30.7s7.8,8.2,11.3,12.7,1.6,0,1.1-.6c-12.4-16.1-28.7-29.1-47.1-37.8s-10.5-4.5-15.9-6.3-1.1,1-.3,1.2h0Z"/>
          <path class="cls-2" d="M467.5,407.4c9.7-10,16.8-22.3,20.5-35.7.2-.8-1-1.1-1.2-.3-3.7,13.2-10.7,25.3-20.2,35.2s.3,1.5.9.9h0Z"/>
          <path class="cls-2" d="M325.2,402.5c-2.4,3.4-7.2,4.4-10.7,2.1-3.5-2.3-4.5-7-2.1-10.4s7.2-4.4,10.7-2.1c3.5,2.3,4.5,7,2.1,10.4Z"/>
          <path class="cls-2" d="M464.9,400c-2.4,3.4-7.2,4.4-10.7,2.1-3.5-2.3-4.5-7-2.1-10.4s7.2-4.4,10.7-2.1c3.5,2.3,4.5,7,2.1,10.4Z"/>
        </g>
      </g>
    </g>
  </g>
</svg>