<?xml version="1.0" encoding="UTF-8"?>
<svg xmlns="http://www.w3.org/2000/svg" version="1.1" viewBox="0 0 233.68 46.6">
  <defs>
    <style>
      .cls-1 {
        fill: #96242d;
      }

      .cls-2 {
        fill: #323031;
      }
    </style>
  </defs>
  <!-- Generator: Adobe Illustrator 28.7.1, SVG Export Plug-In . SVG Version: 1.2.0 Build 142)  -->
  <g>
    <g id="Layer_1">
      <g>
        <path class="cls-1" d="M36.04,36.67H14.86l-4.04,9.94H0L20.33.22h10.43l20.4,46.38h-11.08l-4.04-9.94ZM32.71,28.51l-7.23-17.76-7.23,17.76h14.47Z"/>
        <path class="cls-1" d="M83.09,23.41C83.09,9.37,72.86.22,57.94.22h-13.26v12.45l10.56,24.01V9.03h2.18c9.06,0,14.99,5.5,14.99,14.38s-5.93,14.38-14.99,14.38h-1.69l3.86,8.77c14.03-.65,23.51-9.62,23.51-23.15"/>
        <polygon class="cls-2" points="209.38 28.98 209.38 13.93 197.6 .32 188.9 .32 188.9 38 188.9 46.39 188.9 46.39 198.77 46.39 198.77 46.39 204.02 46.39 204.02 37.68 198.77 37.68 198.77 19.34 209.38 28.98"/>
        <polygon class="cls-2" points="213.19 28.86 213.19 13.7 224.97 0 233.68 0 233.68 37.61 233.68 46.38 223.81 46.38 218.56 46.38 218.56 37.61 223.81 37.61 223.81 19.15 213.19 28.86"/>
        <path class="cls-2" d="M114.27,8.41c0-2.18,0-4.37,0-6.55,0-.19-.01-.38-.02-.56,0-.08-.01-.16-.01-.25l-.04-.73h-26.24c3.17,2.74,5.3,6.13,7.18,9.96,7.29,0,7.13,0,7.78,0,.16,0,.86,0,1.41,0,0,1.29,0,2.84,0,3.72,0,4,0,8.14-.02,12.21,0,1.12-.11,2.18-.3,3.14-.4,1.98-1.3,3.76-2.99,4.94-.11.08-.23.16-.35.23-1.47,1.12-3.32,1.78-5.32,1.78-1.3,0-2.54-.28-3.65-.79-.68-.27-1.32-.62-1.88-1.08-.21-.18-.41-.37-.59-.57-1.36,3.14-3.43,5.82-6.1,7.92,1.37,1.25,2.86,2.23,4.52,2.97,2.37,1.05,5.28,1.78,7.91,1.84,2.71.05,5.36-.69,7.81-1.8,2.06-.93,3.93-2.25,5.48-3.88,1.06-1.11,1.96-2.36,2.72-3.69,1.77-3.11,2.67-6.7,2.69-10.69.02-6.05.02-12.19.01-18.14"/>
        <path class="cls-2" d="M147.99,10.23V.34h-1.94s-24.71,0-24.71,0v46.05h26.65v-9.89h-16.2v-8.77h9.75v-9.14h-2.28s0,0,0-.01h-7.47v-8.34h16.2Z"/>
        <path class="cls-2" d="M156.09.34v46.05h24.71v-9.89h-14.25v-8.77h9.75v-9.14h-2.28s0,0,0-.01h-7.47v-8.34h14.25V.34h0s-24.71,0-24.71,0Z"/>
      </g>
    </g>
  </g>
</svg>